<svg id="appautoscaling" xmlns="http://www.w3.org/2000/svg" viewBox="0 0 56 56"><defs><style>.cls-1{fill:#0092d1;}.cls-2{fill:#5a7a94;}</style></defs><title>appautoscaling</title><path class="cls-1" d="M13.7,42.3a2.335,2.335,0,0,0,1.847.71l9.947-.284A1.189,1.189,0,0,0,26.8,41.42q.056-1.308-1.307-1.307l-8.128.4L40.5,17.381l-.4,8.128a1.327,1.327,0,0,0,2.245.938,1.281,1.281,0,0,0,.37-.938L43,15.562A2.436,2.436,0,0,0,40.438,13l-9.89.341a1.308,1.308,0,1,0,0,2.615l8.128-.4-23.13,23.13L16,30.62q.056-1.308-1.307-1.307a1.189,1.189,0,0,0-1.307,1.307l-.4,9.834A2.335,2.335,0,0,0,13.7,42.3Z"/><path class="cls-2" d="M48.156,7.891A2.85,2.85,0,0,0,46,7H19a2.845,2.845,0,0,0-2.156.891A2.967,2.967,0,0,0,16,10V28h3V10H46V37H28v3H46a2.888,2.888,0,0,0,3-3V10A2.967,2.967,0,0,0,48.156,7.891Z"/><path class="cls-2" d="M28,46H10V28h3V25H10a2.845,2.845,0,0,0-2.156.891A2.967,2.967,0,0,0,7,28V46a2.888,2.888,0,0,0,3,3H28a2.888,2.888,0,0,0,3-3V43H28Z"/></svg>