<svg id="applogging" xmlns="http://www.w3.org/2000/svg" viewBox="0 0 56 56"><defs><style>.cls-1{fill:#053b70;}.cls-2{fill:#0a6ed1;}</style></defs><title>applogging</title><path class="cls-1" d="M36.678,16.762l-2.9-2.9a.942.942,0,0,0-1.418,0L15.537,30.619a7.317,7.317,0,0,0-.419,1.064c-.238.666-.505,1.385-.806,2.159Q13.8,35.261,13.217,37q1.8-.516,3.287-.967,1.287-.323,2.32-.644A7.363,7.363,0,0,0,19.92,35L36.678,18.18a.942.942,0,0,0,0-1.418ZM18.76,33.2l-1.483-1.418L29.008,20.113l1.418,1.418ZM31.908,20.113l-1.482-1.482,2.642-2.578,1.418,1.418Z"/><path class="cls-1" d="M7,16h6.938a2.04,2.04,0,0,0,1.45-.58A1.955,1.955,0,0,0,16,13.938V7h9v6h3V6.062a2.04,2.04,0,0,0-.58-1.45A1.958,1.958,0,0,0,25.938,4H12.25L4,12.25V34.938a1.951,1.951,0,0,0,.612,1.482A2.115,2.115,0,0,0,6.127,37h4.061V34H7Z"/><rect class="cls-2" x="45.571" y="22" width="4.286" height="25.714" rx="0.536"/><rect class="cls-2" x="38.429" y="34.857" width="4.286" height="12.857" rx="0.536"/><rect class="cls-2" x="31.286" y="30.571" width="4.286" height="17.143" rx="0.536"/><rect class="cls-2" x="24.143" y="43.428" width="4.286" height="4.286" rx="0.536"/><rect class="cls-2" x="22" y="49.857" width="30" height="2.143"/></svg>