<svg id="identity_provisioning" xmlns="http://www.w3.org/2000/svg" viewBox="0 0 56 56"><defs><style>.cls-1{fill:#053b70;}.cls-2{fill:#0a6ed1;}</style></defs><title>identity_provisioning</title><path class="cls-1" d="M45.84,21.462a8.489,8.489,0,0,0-12.783-5.713A11.555,11.555,0,0,0,22.41,8.5c-12.4,0-11.32,12.988-11.32,12.988A10.25,10.25,0,0,0,4,31.215C4,36.9,7.605,41.5,13.285,41.5H14v-3h-.715C9.268,38.5,7,35.232,7,31.215a7.249,7.249,0,0,1,5.027-6.877l2.279-.768-.232-2.389c0-.042-.379-4.237,2.01-7.013,1.377-1.6,3.524-2.5,6.381-2.666a9.209,9.209,0,0,1,7.994,5.339l1.176,2.871,2.424-1.318a7.6,7.6,0,0,1,3.39-.894,5.546,5.546,0,0,1,5.443,4.518l.288,1.528,1.415.646A7.513,7.513,0,0,1,49,31c0,4.135-2.365,7.5-6.5,7.5H42v3h.5c5.8,0,9.5-4.7,9.5-10.5A10.483,10.483,0,0,0,45.84,21.462Z"/><path class="cls-2" d="M26.151,41.1a3.748,3.748,0,0,0-1.2-.806A3.67,3.67,0,0,0,23.5,40H19.75a3.64,3.64,0,0,0-1.465.293A3.794,3.794,0,0,0,17.1,41.1a3.748,3.748,0,0,0-.806,1.2A3.67,3.67,0,0,0,16,43.75V47.5H27.25V43.75a3.67,3.67,0,0,0-.293-1.45A3.748,3.748,0,0,0,26.151,41.1Z"/><path class="cls-2" d="M24.276,38.9a3.794,3.794,0,0,0,.806-1.186,3.772,3.772,0,0,0,0-2.915,3.745,3.745,0,0,0-2.007-2.007,3.772,3.772,0,0,0-2.915,0,3.794,3.794,0,0,0-1.186.806,3.748,3.748,0,0,0-.806,1.2,3.772,3.772,0,0,0,0,2.915,3.826,3.826,0,0,0,1.992,1.992,3.772,3.772,0,0,0,2.915,0A3.748,3.748,0,0,0,24.276,38.9Z"/><path class="cls-2" d="M39.707,42.3A3.745,3.745,0,0,0,37.7,40.293,3.67,3.67,0,0,0,36.25,40H32.5a3.64,3.64,0,0,0-1.465.293,3.794,3.794,0,0,0-1.186.806,3.748,3.748,0,0,0-.806,1.2,3.652,3.652,0,0,0-.293,1.45V47.5H40V43.75A3.67,3.67,0,0,0,39.707,42.3Z"/><path class="cls-2" d="M37.026,38.9a3.794,3.794,0,0,0,.806-1.186,3.772,3.772,0,0,0,0-2.915,3.745,3.745,0,0,0-2.007-2.007,3.772,3.772,0,0,0-2.915,0,3.794,3.794,0,0,0-1.186.806,3.748,3.748,0,0,0-.806,1.2,3.772,3.772,0,0,0,0,2.915,3.826,3.826,0,0,0,1.992,1.992,3.772,3.772,0,0,0,2.915,0A3.748,3.748,0,0,0,37.026,38.9Z"/><path class="cls-2" d="M18.218,22.9a.889.889,0,0,0,.647-.281L20.89,20.2v9.3h1.8V20.2l2,2.39a.829.829,0,0,0,1.293,0,.773.773,0,0,0,0-1.237l-2.9-3.347a1.908,1.908,0,0,0-2.588,0l-2.925,3.375a.822.822,0,0,0,0,1.238A.884.884,0,0,0,18.218,22.9Z"/></svg>