<svg id="automation-pilot" xmlns="http://www.w3.org/2000/svg" viewBox="0 0 56 56"><defs><style>.cls-1{fill:#003b74;}.cls-2{fill:#006dd7;}</style></defs><path class="cls-1" d="M32.532,39.609l-1.395.8a8.325,8.325,0,0,1-.834.418q-.521.222-1.11.443L27.25,42v4h-4.5V42L20.8,41.268c-.391-.146-.757-.292-1.1-.441a7.584,7.584,0,0,1-.826-.414l-2.044-1.179L15.2,40.943l-1.321,1.388-3.215-3.216,1.365-1.365,1.437-1.437-.8-1.868c-.185-.43-.386-.859-.61-1.313a2.836,2.836,0,0,1-.218-.6l-.561-2.285H7v-4.5h4.27l.563-2.281a2.978,2.978,0,0,1,.226-.615c.216-.434.419-.868.606-1.306l.8-1.864L12.028,18.25l-1.365-1.365,3.222-3.223,1.365,1.366,1.437,1.437,1.868-.8q.652-.28,1.3-.6a3.176,3.176,0,0,1,.628-.229l2.268-.57V10h4.5v4.257l2.264.573a3.163,3.163,0,0,1,.618.223c.439.221.878.424,1.32.613l1.08.461V12.861c-.352-.152-.7-.312-1.052-.488a6.167,6.167,0,0,0-1.23-.451v-2.3A2.527,2.527,0,0,0,27.625,7h-5.25A2.527,2.527,0,0,0,19.75,9.625v2.3a6.056,6.056,0,0,0-1.23.451c-.385.192-.767.369-1.149.533l-1.641-1.64a2.553,2.553,0,0,0-1.886-.739,2.449,2.449,0,0,0-1.8.739L8.266,15.039a2.454,2.454,0,0,0-.739,1.805,2.73,2.73,0,0,0,.739,1.886l1.64,1.641c-.164.385-.343.767-.533,1.149a5.93,5.93,0,0,0-.451,1.23h-2.3A2.527,2.527,0,0,0,4,25.375v5.25a2.589,2.589,0,0,0,.738,1.846,2.483,2.483,0,0,0,1.887.779h2.3a5.826,5.826,0,0,0,.451,1.23c.19.385.369.767.533,1.149L8.266,37.27a2.674,2.674,0,0,0,0,3.691l3.773,3.773a2.449,2.449,0,0,0,1.8.739,2.553,2.553,0,0,0,1.886-.739l1.641-1.722a10.7,10.7,0,0,0,1.149.574c.381.164.792.328,1.23.492v2.3a2.6,2.6,0,0,0,.738,1.846A2.49,2.49,0,0,0,22.375,49h5.25a2.493,2.493,0,0,0,1.887-.779,2.6,2.6,0,0,0,.738-1.846v-2.3q.654-.246,1.23-.492a11.213,11.213,0,0,0,1.052-.526Z"/><path class="cls-2" d="M47.5,35.5a4.494,4.494,0,0,0-4.224,3H39.121l-6-6H30.966a7.433,7.433,0,0,0,1.383-3h4.927a4.5,4.5,0,1,0,0-3H32.349a7.433,7.433,0,0,0-1.383-3h2.155l6-6h4.155a4.5,4.5,0,1,0,0-3h-5.4l-6,6H25a7.5,7.5,0,0,0,0,15h6.879l6,6h5.4a4.492,4.492,0,1,0,4.224-6Zm0-21A1.5,1.5,0,1,1,46,16,1.5,1.5,0,0,1,47.5,14.5Zm-6,12A1.5,1.5,0,1,1,40,28,1.5,1.5,0,0,1,41.5,26.5ZM20.5,28A4.5,4.5,0,1,1,25,32.5,4.505,4.505,0,0,1,20.5,28Zm27,13.5A1.5,1.5,0,1,1,49,40,1.5,1.5,0,0,1,47.5,41.5Z"/></svg>