<svg id="credential-store" xmlns="http://www.w3.org/2000/svg" viewBox="0 0 56 56"><defs><style>.cls-1{fill:#0a6ed1;}.cls-2{fill:#053b70;}</style></defs><title>credential-store</title><path class="cls-1" d="M49.008,34H18.992A2.993,2.993,0,0,0,16,36.992V49.008A2.993,2.993,0,0,0,18.992,52H49.008A2.993,2.993,0,0,0,52,49.008V36.992A2.993,2.993,0,0,0,49.008,34ZM19,49.008,18.992,37H49l.008,12Z"/><path class="cls-1" d="M27.9,41.176a.75.75,0,0,0-1.031-.247l-1.112.683V40.448a.75.75,0,0,0-1.5,0v1.164l-1.112-.683a.75.75,0,0,0-.785,1.278l1.215.745-1.215.746a.75.75,0,0,0,.393,1.389.731.731,0,0,0,.392-.112l1.112-.682v1.259a.75.75,0,0,0,1.5,0V44.293l1.112.682a.734.734,0,0,0,.393.112.75.75,0,0,0,.392-1.389l-1.214-.746,1.214-.745A.749.749,0,0,0,27.9,41.176Z"/><path class="cls-1" d="M36.893,41.176a.75.75,0,0,0-1.031-.247l-1.112.683V40.448a.75.75,0,0,0-1.5,0v1.164l-1.112-.683a.75.75,0,0,0-.785,1.278l1.214.745-1.214.746a.75.75,0,0,0,.393,1.389.733.733,0,0,0,.392-.112l1.112-.682v1.259a.75.75,0,0,0,1.5,0V44.293l1.112.682a.733.733,0,0,0,.392.112.75.75,0,0,0,.393-1.389l-1.214-.746,1.214-.745A.749.749,0,0,0,36.893,41.176Z"/><path class="cls-1" d="M45.94,41.176a.75.75,0,0,0-1.031-.247l-1.112.683V40.448a.75.75,0,0,0-1.5,0v1.164l-1.112-.683a.75.75,0,0,0-.785,1.278l1.214.745L40.4,43.7a.75.75,0,0,0,.393,1.389.733.733,0,0,0,.392-.112l1.112-.682v1.259a.75.75,0,0,0,1.5,0V44.293l1.112.682a.733.733,0,0,0,.392.112.75.75,0,0,0,.393-1.389l-1.214-.746,1.214-.745A.749.749,0,0,0,45.94,41.176Z"/><circle class="cls-2" cx="35.043" cy="17.5" r="3"/><path class="cls-2" d="M47.854,12.7a14.884,14.884,0,0,0-7.58-7.558A13.038,13.038,0,0,0,34.9,4a13.254,13.254,0,0,0-5.465,1.143,14.551,14.551,0,0,0-7.492,7.47,13.154,13.154,0,0,0-1.146,5.449,8.438,8.438,0,0,0,.4,2.681c.265.791.628,1.551.863,2.078L5.545,39.859A5.867,5.867,0,0,0,4,43.41a5.31,5.31,0,0,0,.355,2.382,8.564,8.564,0,0,0,.925,1.45,4.463,4.463,0,0,0,2.412,1.543A4.516,4.516,0,0,0,9.511,49H13V46H9.618l-.532-.021a2.235,2.235,0,0,1-2.222-2.223,2.533,2.533,0,0,1,.677-1.669,4.074,4.074,0,0,1,.486-.545L24.185,24.894l1.675-1.65s-.989-1.388-1.3-1.971a8.369,8.369,0,0,1-.768-3.211,9.8,9.8,0,0,1,.88-4.215,11.555,11.555,0,0,1,5.98-5.965A10.214,10.214,0,0,1,34.9,7a9.965,9.965,0,0,1,4.151.881,11.881,11.881,0,0,1,6.071,6.052,10.117,10.117,0,0,1,0,8.263,11.88,11.88,0,0,1-6.071,6.049,9.934,9.934,0,0,1-4.149.88H26.256v3H34.9a12.99,12.99,0,0,0,5.377-1.143,14.884,14.884,0,0,0,7.58-7.558,13.115,13.115,0,0,0,0-10.723Z"/></svg>