<svg id="sap-cloud-identity-service" xmlns="http://www.w3.org/2000/svg" viewBox="0 0 56 56"><defs><style>.cls-1{fill:#0a6ed1;}.cls-2{fill:#053b70;}</style></defs><title>sap-cloud-identity-service</title><path class="cls-1" d="M26.151,31.6a3.748,3.748,0,0,0-1.2-.806A3.67,3.67,0,0,0,23.5,30.5H19.75a3.64,3.64,0,0,0-1.465.293A3.794,3.794,0,0,0,17.1,31.6a3.748,3.748,0,0,0-.806,1.2A3.67,3.67,0,0,0,16,34.25V38H27.25V34.25a3.67,3.67,0,0,0-.293-1.45A3.748,3.748,0,0,0,26.151,31.6Z"/><path class="cls-1" d="M24.276,29.4a3.794,3.794,0,0,0,.806-1.186,3.772,3.772,0,0,0,0-2.915,3.745,3.745,0,0,0-2.007-2.007,3.772,3.772,0,0,0-2.915,0,3.794,3.794,0,0,0-1.186.806,3.748,3.748,0,0,0-.806,1.2,3.772,3.772,0,0,0,0,2.915,3.826,3.826,0,0,0,1.992,1.992,3.772,3.772,0,0,0,2.915,0A3.748,3.748,0,0,0,24.276,29.4Z"/><path class="cls-1" d="M39.707,32.8A3.745,3.745,0,0,0,37.7,30.793a3.67,3.67,0,0,0-1.45-.293H32.5a3.64,3.64,0,0,0-1.465.293,3.794,3.794,0,0,0-1.186.806,3.748,3.748,0,0,0-.806,1.2,3.652,3.652,0,0,0-.293,1.45V38H40V34.25A3.67,3.67,0,0,0,39.707,32.8Z"/><path class="cls-1" d="M37.026,29.4a3.794,3.794,0,0,0,.806-1.186,3.772,3.772,0,0,0,0-2.915,3.745,3.745,0,0,0-2.007-2.007,3.772,3.772,0,0,0-2.915,0,3.794,3.794,0,0,0-1.186.806,3.748,3.748,0,0,0-.806,1.2,3.772,3.772,0,0,0,0,2.915,3.826,3.826,0,0,0,1.992,1.992,3.772,3.772,0,0,0,2.915,0A3.748,3.748,0,0,0,37.026,29.4Z"/><path class="cls-2" d="M45.84,23.962a8.489,8.489,0,0,0-12.783-5.713A11.555,11.555,0,0,0,22.41,11C9.635,11,11.09,23.988,11.09,23.988A10.257,10.257,0,0,0,14.285,44H41.5a10.486,10.486,0,0,0,4.34-20.038ZM41.5,41H14.285a7.257,7.257,0,0,1-2.258-14.162l2.279-.768-.232-2.389c0-.042-.379-4.237,2.01-7.013,1.377-1.6,3.524-2.5,6.381-2.666a9.209,9.209,0,0,1,7.994,5.339l1.176,2.871,2.424-1.318A7.6,7.6,0,0,1,37.449,20a5.546,5.546,0,0,1,5.443,4.518l.288,1.528,1.415.646A7.486,7.486,0,0,1,41.5,41Z"/></svg>