<svg id="omnichannel-promotion-pricing-service" xmlns="http://www.w3.org/2000/svg" viewBox="0 0 56 56"><defs><style>.cls-1{fill:#0a6ed1;}.cls-2{fill:#053b70;}</style></defs><title>omnichannel-promotion-pricing-service</title><path class="cls-1" d="M23.481,35.321a3.425,3.425,0,0,0-1.268,2.356,2.8,2.8,0,0,0,.9,1.92A2.625,2.625,0,0,0,25,40.466a3.588,3.588,0,0,0,2.319-1.3q2.175-2.173.218-4.13Q25.654,33.147,23.481,35.321Zm2.464,2.464c-.725.725-1.187,1.087-1.377,1.087a.691.691,0,0,1-.652-.217A.7.7,0,0,1,23.771,38a3.412,3.412,0,0,1,1.014-1.377q1.305-1.3,1.884-.725T25.945,37.785Z"/><path class="cls-1" d="M23.191,29.669a3.591,3.591,0,0,0,2.319-1.3q2.173-2.173.217-4.131-1.886-1.884-4.058.29A3.429,3.429,0,0,0,20.4,26.879a2.8,2.8,0,0,0,.906,1.921A2.627,2.627,0,0,0,23.191,29.669Zm-.218-3.84q1.3-1.3,1.884-.725t-.724,1.884c-.725.725-1.187,1.087-1.377,1.087a.691.691,0,0,1-.652-.217.705.705,0,0,1-.145-.652A3.412,3.412,0,0,1,22.973,25.829Z"/><polygon class="cls-1" points="30.727 29.235 16.886 33.22 18.118 34.452 31.886 30.394 30.727 29.235"/><path class="cls-2" d="M42.612,7.065a5.777,5.777,0,0,0-5.358,2.014,9.2,9.2,0,0,0-.7.961c-.067,0-.127-.038-.194-.038h0l-6.011,0a3.006,3.006,0,0,0-2.12.877L7.879,31.181a2.986,2.986,0,0,0,0,4.232l12.743,12.71a3,3,0,0,0,4.243,0l20.353-20.3a2.986,2.986,0,0,0,.879-2.115l0-6a2.993,2.993,0,0,0-.879-2.118l-6.662-6.644c.11-.149.205-.317.324-.453A3.608,3.608,0,0,1,42.308,9.2c4.622.647,4.515,6.411,4.481,6.66a1.082,1.082,0,0,0,2.143.3C49.337,13.293,48.011,7.814,42.612,7.065Zm-8.4,12.167a7.547,7.547,0,0,0,.209,1.529,1.082,1.082,0,0,0,2.084-.585,5.778,5.778,0,0,1-.149-1.208,1.774,1.774,0,0,1,.452.3,1.872,1.872,0,1,1-2.65,0C34.174,19.253,34.2,19.248,34.212,19.232Zm8.885.48,0,5.994-20.35,20.3L10,33.3,30.353,13l4.785,0A18.228,18.228,0,0,0,34.3,16.7a4.05,4.05,0,0,0-1.733.973,4.125,4.125,0,1,0,5.842,0,4.024,4.024,0,0,0-1.926-1.01,15.864,15.864,0,0,1,.665-2.893Z"/></svg>