<svg id="cloud-foundation-core" xmlns="http://www.w3.org/2000/svg" viewBox="0 0 56 56"><defs><style>.cls-1{fill:#006dd7;}.cls-2{fill:#003b74;}</style></defs><path class="cls-1" d="M44.078,47.115A8.9,8.9,0,0,1,41,48.389V52H37.6V48.389a7,7,0,0,1-2.867-1.274l-2.655,2.549-2.336-2.337,2.548-2.654A7.029,7.029,0,0,1,31.016,41.7H27.405V38.3h3.611a6.748,6.748,0,0,1,1.274-2.974l-2.548-2.548,2.336-2.443,2.655,2.549A15.324,15.324,0,0,1,37.6,31.611V28H40.6v3.611a11.089,11.089,0,0,1,3.483,1.274l2.549-2.549,2.442,2.443-2.548,2.548c.282.5.531.976.743,1.434A8.96,8.96,0,0,1,47.8,38.3h3.61v3.4H47.8a11.76,11.76,0,0,1-1.274,2.974l2.548,2.654-2.442,2.337ZM39.405,45.2a4.831,4.831,0,0,0,3.611-1.54A5.1,5.1,0,0,0,44.5,40a4.755,4.755,0,0,0-1.487-3.558,5.265,5.265,0,0,0-7.221,0A4.744,4.744,0,0,0,34.308,40,5.088,5.088,0,0,0,35.8,43.664,4.82,4.82,0,0,0,39.405,45.2Z"/><path class="cls-2" d="M7.6,10h6.281a4.362,4.362,0,0,1,3.469-2.906,6.306,6.306,0,0,1,2.156-2.2,5.816,5.816,0,0,1,6.187,0,6.335,6.335,0,0,1,2.157,2.2A4.366,4.366,0,0,1,31.313,10H37.6a2.85,2.85,0,0,1,2.156.891A2.967,2.967,0,0,1,40.6,13V25h-3V13H31.313a5.145,5.145,0,0,1-1.172,2.156,2.884,2.884,0,0,1-2.2.844H17.251a2.88,2.88,0,0,1-2.2-.844A5.08,5.08,0,0,1,13.876,13H7.6V49h19.81v3H7.6a2.888,2.888,0,0,1-3-3V13a2.966,2.966,0,0,1,.843-2.109A2.847,2.847,0,0,1,7.6,10Zm6,13.5a1.384,1.384,0,0,1,.468-1.078A1.509,1.509,0,0,1,15.1,22H30.126a1.327,1.327,0,0,1,1.5,1.5,1.5,1.5,0,0,1-.421,1.031A1.385,1.385,0,0,1,30.126,25H15.1a1.612,1.612,0,0,1-1.5-1.5ZM15.1,28h12a1.327,1.327,0,0,1,1.5,1.5,1.505,1.505,0,0,1-.422,1.031A1.384,1.384,0,0,1,27.1,31h-12a1.612,1.612,0,0,1-1.5-1.5,1.384,1.384,0,0,1,.468-1.078A1.509,1.509,0,0,1,15.1,28Zm3-15h9a1.325,1.325,0,0,0,1.5-1.5,1.511,1.511,0,0,0-.422-1.031A1.394,1.394,0,0,0,27.1,10H25.6a2.967,2.967,0,0,0-.844-2.109,3.055,3.055,0,0,0-4.313,0A2.966,2.966,0,0,0,19.6,10H18.1a1.39,1.39,0,0,0-1.079.469A1.509,1.509,0,0,0,16.6,11.5,1.324,1.324,0,0,0,18.1,13Z"/></svg>