<svg id="auditlog-management" xmlns="http://www.w3.org/2000/svg" viewBox="0 0 56 56"><defs><style>.cls-1{fill:#5a7a94;}.cls-2{fill:#0092d1;}</style></defs><title>auditlog-management</title><path class="cls-1" d="M40.608,10.843A2.97,2.97,0,0,0,38.5,10H32.218a5.276,5.276,0,0,0-1.359-1.921,4.1,4.1,0,0,0-2.2-.985,5.852,5.852,0,0,0-2.109-2.249A5.661,5.661,0,0,0,23.5,4a5.9,5.9,0,0,0-3.093.844,5.721,5.721,0,0,0-2.156,2.249,4.271,4.271,0,0,0-2.156.985A4.222,4.222,0,0,0,14.783,10H8.5a2.888,2.888,0,0,0-3,3V49a2.888,2.888,0,0,0,3,3h27V49H8.5V13h6.281a6.516,6.516,0,0,0,.937,1.875A3.018,3.018,0,0,0,18.157,16H28.844a2.93,2.93,0,0,0,2.343-1.125A4.648,4.648,0,0,0,32.218,13H38.5V25h3V13A2.846,2.846,0,0,0,40.608,10.843ZM28,13H19a1.325,1.325,0,0,1-1.5-1.5A1.325,1.325,0,0,1,19,10h1.5a2.886,2.886,0,0,1,3-3,2.97,2.97,0,0,1,2.11.843A2.851,2.851,0,0,1,26.5,10H28a1.327,1.327,0,0,1,1.5,1.5A1.326,1.326,0,0,1,28,13Z"/><path class="cls-1" d="M37.928,33.877c-.106-.23-.231-.469-.372-.717l1.275-1.274L37.61,30.665l-1.275,1.274A6.463,6.463,0,0,0,34.8,31.3V29.5H33.1v1.8a7.747,7.747,0,0,0-1.434.637l-1.327-1.274-1.168,1.221,1.274,1.274a3.375,3.375,0,0,0-.637,1.487H28v1.7h1.8a3.52,3.52,0,0,0,.637,1.486L29.168,39.16l1.168,1.168,1.327-1.274a3.509,3.509,0,0,0,1.434.636V41.5h1.7V39.69a4.454,4.454,0,0,0,1.539-.636l1.275,1.274,1.221-1.168-1.275-1.328a5.869,5.869,0,0,0,.638-1.486H40v-1.7h-1.8A4.508,4.508,0,0,0,37.928,33.877ZM35.8,37.328a2.5,2.5,0,0,1-3.61,0,2.543,2.543,0,0,1-.743-1.832,2.369,2.369,0,0,1,.743-1.778,2.63,2.63,0,0,1,3.61,0,2.374,2.374,0,0,1,.744,1.778A2.548,2.548,0,0,1,35.8,37.328Z"/><polygon class="cls-2" points="15.086 22.582 13.254 20.75 11.502 22.582 15.086 26.165 16.917 24.334 20.501 20.75 18.669 18.998 15.086 22.582"/><polygon class="cls-2" points="15.086 34.586 13.254 32.754 11.502 34.586 15.086 38.17 16.917 36.338 20.501 32.754 18.669 31.002 15.086 34.586"/><path class="cls-2" d="M49.937,49.384l-7.66-7.66a10.112,10.112,0,0,0,1.588-2.895,10.308,10.308,0,0,0-.28-7.427,10.549,10.549,0,0,0-5.558-5.558,10.24,10.24,0,0,0-8.128,0A10.549,10.549,0,0,0,24.341,31.4a10.237,10.237,0,0,0,0,8.127A10.549,10.549,0,0,0,29.9,45.087a9.987,9.987,0,0,0,4.064.841,10.321,10.321,0,0,0,6.259-2.055l7.66,7.66a1.364,1.364,0,0,0,2.055,0A1.31,1.31,0,0,0,49.937,49.384Zm-10.7-8.641a7.441,7.441,0,0,1-10.556,0,7.443,7.443,0,0,1,0-10.556,7.443,7.443,0,0,1,10.556,0,7.443,7.443,0,0,1,0,10.556Z"/><path class="cls-2" d="M25,23.5h9a1.5,1.5,0,1,0,0-3H25a1.5,1.5,0,1,0,0,3Z"/></svg>