<svg xmlns="http://www.w3.org/2000/svg" version="1.1" xmlns:xlink="http://www.w3.org/1999/xlink" viewBox="0 0 510 510" preserveAspectRatio="xMidYMid">
                    <defs><style>.cls-1{fill:#595959;}</style></defs>
                    <title>ad-hoc-marker</title>
                    <g id="Layer_2" data-name="Layer 2"><g id="ad-hoc-marker">
                    <path class="cls-1" d="M501 183q10 0 10 9v4q0 39-10 66.5t-26 44-37 24-44 7.5q-16 0-31.5-2.5T330 328t-38-14-47-21q-36-17-65.5-31T121 248q-26 0-41.5 18T61 326q-2 9-10 9H11q-10 0-10-10v-1q0-72 34.5-108t85.5-36q17 0 32 2.5t31.5 8 36 14.5l45.5 21q38 19 69 31.5t60 12.5q26 0 39.5-20t15.5-58q0-9 9-9h42z"></path>
                    </g></g>
                    </svg>