<svg xmlns="http://www.w3.org/2000/svg" version="1.1" xmlns:xlink="http://www.w3.org/1999/xlink" viewBox="0 0 510 510" preserveAspectRatio="xMidYMid">
                    <defs><style>.cls-1{fill:#595959;}</style></defs>
                    <title>antenna</title>
                    <g id="Layer_2" data-name="Layer 2"><g id="antenna">
                    <path class="cls-1" d="M416 0q32 58 32 124 0 53-20.5 100.5t-56 83-82.5 56T188 384q-32 0-63.5-7.5T64 353zM120 342q31 10 68 10 47 0 88-18t72.5-48.5 49.5-72 18-88.5q0-36-10-69zM32 512v-32h208v-68q8-2 17-4t15-5v77h136l-82-99q8-4 14.5-8t13.5-9l94 116h32v32H32zm88-416q0-16 11.5-28T160 57q17 0 28 12t12 29v2q0 5-3 11l32 32-22 23-33-33q-6 3-14 3-17 0-28.5-11.5T120 96z"></path>
                    </g></g>
                    </svg>