<svg xmlns="http://www.w3.org/2000/svg" version="1.1" xmlns:xlink="http://www.w3.org/1999/xlink" viewBox="0 0 510 510" preserveAspectRatio="xMidYMid">
                    <defs><style>.cls-1{fill:#595959;}</style></defs>
                    <title>application</title>
                    <g id="Layer_2" data-name="Layer 2"><g id="application">
                    <path class="cls-1" d="M32 73q0-17 11.5-29T72 32h367q17 0 29 12t12 29v366q0 17-12 29t-29 12H72q-17 0-28.5-12T32 439V73zm32 87v279q0 9 8 9h367q9 0 9-9V160H64zm256 32v160H96V192h224zm128-64V73q0-9-9-9H72q-8 0-8 9v55h384zM128 320h160v-96H128v96zM368 80h32q16 0 16 16t-16 16h-32q-16 0-16-16t16-16z"></path>
                    </g></g>
                    </svg>