<svg xmlns="http://www.w3.org/2000/svg" version="1.1" xmlns:xlink="http://www.w3.org/1999/xlink" viewBox="0 0 510 510" preserveAspectRatio="xMidYMid">
                    <defs><style>.cls-1{fill:#595959;}</style></defs>
                    <title>connector</title>
                    <g id="Layer_2" data-name="Layer 2"><g id="connector">
                    <path class="cls-1" d="M16 180h480q16 0 16 16t-16 16H16q-16 0-16-16t16-16zm459 88q8-5 15-10t12-14h8v96h-12v-75q-6 6-11 8-4 4-12 6v-11zM16 257q7-7 9-13h7v96H21v-75q-4 5-10 8-6 4-11 6v-11q5-2 8.5-5t7.5-6z"></path>
                    </g></g>
                    </svg>