<svg xmlns="http://www.w3.org/2000/svg" version="1.1" xmlns:xlink="http://www.w3.org/1999/xlink" viewBox="0 0 510 510" preserveAspectRatio="xMidYMid">
                    <defs><style>.cls-1{fill:#595959;}</style></defs>
                    <title>data-input-arrow</title>
                    <g id="Layer_2" data-name="Layer 2"><g id="data-input-arrow">
                    <path class="cls-1" d="M0 350V192q0-7 7-7h201q7 0 7-7V69q0-6 7-6 3 0 4 1l282 200q8 6 0 12L226 478q-2 2-4 2-7 0-7-7V364q0-7-7-7H7q-7 0-7-7zm38-120v82q0 7 7 7h201q7 0 7 7v72q0 7 7 7 2 0 4-2l177-127q8-6 0-12L264 138q-1-1-4-1-7 0-7 6v73q0 7-7 7H45q-7 0-7 7z"></path>
                    </g></g>
                    </svg>