<svg xmlns="http://www.w3.org/2000/svg" version="1.1" xmlns:xlink="http://www.w3.org/1999/xlink" viewBox="0 0 510 510" preserveAspectRatio="xMidYMid">
                    <defs><style>.cls-1{fill:#595959;}</style></defs>
                    <title>deployment-instance</title>
                    <g id="Layer_2" data-name="Layer 2"><g id="deployment-instance">
                    <path class="cls-1" d="M64 32h385q13 0 22 9t9 23v176h-32V64H64v384h192v32H64q-13 0-22.5-8.5T32 449V64q0-14 9-23t23-9zm226 320q3-17 11-29l-23-24 22-21 24 22q7-4 13.5-6.5T352 290v-34h32v33q7 1 15 3.5t14 7.5l24-22 21 21-22 24q5 6 7 13.5t4 15.5h33v32h-33q-3 13-11 28l23 24-22 22-24-23q-12 8-29 11v34h-32v-34q-13-3-28-11l-24 23-22-22 23-24q-4-7-6.5-13.5T290 384h-34v-32h34zm34 32q3 9 10.5 17.5T352 413q8 3 16 3 9 0 16-3 23-6 29-29 3-8 3-16 0-14-9-27t-23-18q-7-3-16-3-19 0-33 14.5T321 368q0 8 3 16z"></path>
                    </g></g>
                    </svg>