<svg xmlns="http://www.w3.org/2000/svg" version="1.1" xmlns:xlink="http://www.w3.org/1999/xlink" viewBox="0 0 510 510" preserveAspectRatio="xMidYMid">
                    <defs><style>.cls-1{fill:#595959;}</style></defs>
                    <title>map-all-fields</title>
                    <g id="Layer_2" data-name="Layer 2"><g id="map-all-fields">
                    <path class="cls-1" d="M0 64q0-14 9-23t23-9h448q14 0 23 9t9 23-9 23-23 9H32q-13 0-22.5-9.5T0 64zm0 160q0-14 9-23t23-9h448q14 0 23 9t9 23-9 23-23 9H32q-13 0-22.5-9.5T0 224zm192 288l86-224h32l92 224h-34l-26-68h-94l-25 68h-31zM32 352h160v64H32q-13 0-22.5-9.5T0 384q0-14 9-23t23-9zm381 157V352h19v56q14-15 32-15 26 0 37 18t11 40q0 23-11.5 42T463 512q-20 0-32-17v14h-18zm18-57q0 15 6 29.5t24 14.5 24.5-15 6.5-29q0-16-6.5-29.5T462 409q-14 0-22 11-9 10-9 32zm-98-32l-40-108-36 108h76z"></path>
                    </g></g>
                    </svg>