<svg xmlns="http://www.w3.org/2000/svg" version="1.1" xmlns:xlink="http://www.w3.org/1999/xlink" viewBox="0 0 510 510" preserveAspectRatio="xMidYMid">
                    <defs><style>.cls-1{fill:#595959;}</style></defs>
                    <title>message-start-event</title>
                    <g id="Layer_2" data-name="Layer 2"><g id="message-start-event">
                    <path class="cls-1" d="M365 158q16 0 16 16v160q0 6-4 11t-12 5H141q-6 0-11-5t-5-11V174q0-8 5-12t11-4h224zm-207 16l95 76 95-76H158zm207 7l-112 91-112-90v140l66-66 11 12-65 66h200l-65-66 12-12 65 66V181zM256 0q53 0 99.5 20T437 75t55 81.5 20 99.5-20 99.5-55 81.5-81.5 55-99.5 20-100-20-81.5-55T20 355.5 0 256t20-99.5T74.5 75 156 20 256 0zm0 486q48 0 89.5-18t73-49.5 49.5-73 18-89.5-18-89.5-49.5-73-73-49.5T256 26t-90 18-73.5 49.5-49.5 73T25 256t18 89.5 49.5 73T166 468t90 18z"></path>
                    </g></g>
                    </svg>