<svg xmlns="http://www.w3.org/2000/svg" version="1.1" xmlns:xlink="http://www.w3.org/1999/xlink" viewBox="0 0 510 510" preserveAspectRatio="xMidYMid">
                    <defs><style>.cls-1{fill:#595959;}</style></defs>
                    <title>more</title>
                    <g id="Layer_2" data-name="Layer 2"><g id="more">
                    <path class="cls-1" d="M321 419q11-12 23 0 5 5 5 11t-5 11l-65 61q-10 9-23 9t-22-9l-65-58q-5-5-5-11.5t5-11.5 11.5-5 11.5 5l59 53q5 6 11 0zM64 96q-13 0-22.5-9.5T32 64q0-14 9.5-23T64 32h384q14 0 23 9t9 23q0 13-9 22.5T448 96H64zm0 256q-13 0-22.5-9.5T32 320q0-14 9.5-23t22.5-9h384q14 0 23 9t9 23q0 13-9 22.5t-23 9.5H64zm0-128q-13 0-22.5-9.5T32 192q0-14 9.5-23t22.5-9h384q14 0 23 9t9 23q0 13-9 22.5t-23 9.5H64z"></path>
                    </g></g>
                    </svg>