<svg xmlns="http://www.w3.org/2000/svg" version="1.1" xmlns:xlink="http://www.w3.org/1999/xlink" viewBox="0 0 510 510" preserveAspectRatio="xMidYMid">
                    <defs><style>.cls-1{fill:#595959;}</style></defs>
                    <title>note-connection</title>
                    <g id="Layer_2" data-name="Layer 2"><g id="note-connection">
                    <path class="cls-1" d="M475 37q5 5 5 11t-5 11l-45 46q-5 5-11.5 5t-11.5-5-5-11.5 5-11.5l46-45q5-5 11-5t11 5zm-115 92q11-11 23 0 11 12 0 23l-46 45q-5 5-11 5t-11-5-5-11 5-11zm-93 93q12-11 23 0t0 23l-45 45q-12 11-23 0t0-23zm-92 93q5-5 11-5t11 5 5 11-5 11l-45 46q-5 5-11.5 5t-11.5-5-5-11.5 5-11.5zm-93 92q11-11 23 0 11 12 0 23l-46 45q-5 5-11 5t-11-5-5-11 5-11z"></path>
                    </g></g>
                    </svg>