<svg xmlns="http://www.w3.org/2000/svg" version="1.1" xmlns:xlink="http://www.w3.org/1999/xlink" viewBox="0 0 510 510" preserveAspectRatio="xMidYMid">
                    <defs><style>.cls-1{fill:#595959;}</style></defs>
                    <title>pattern</title>
                    <g id="Layer_2" data-name="Layer 2"><g id="pattern">
                    <path class="cls-1" d="M101.801 108.788q0-6.987 6.987-6.987h89.824q5.988 0 5.988 6.987v88.826q0 6.986-5.988 6.986h-89.824q-6.987 0-6.987-6.986v-88.826zm102.8 397.224v-89.825q0-6.986 6.986-6.986h88.826q6.987 0 6.987 6.986v89.825q0 5.988-6.987 5.988h-88.826q-6.987 0-6.987-5.988zm0-204.6v-88.827q0-6.987 6.986-6.987h88.826q6.987 0 6.987 6.987v88.826q0 6.987-6.987 6.987h-88.826q-6.987 0-6.987-6.987zm204.6 0v-88.827q0-6.987 6.986-6.987h89.825q5.988 0 5.988 6.987v88.826q0 6.987-5.988 6.987h-89.825q-6.986 0-6.986-6.987zM0 212.584q0-6.987 5.988-6.987h89.825q5.988 0 5.988 6.987v88.826q0 6.987-5.988 6.987H5.988Q0 308.398 0 301.41v-88.826zm307.4-13.973v-88.826q0-6.987 5.988-6.987h89.824q5.989 0 5.989 6.987v88.826q0 6.986-5.989 6.986h-89.824q-5.988 0-5.988-6.986zM108.788 308.398h89.824q5.988 0 5.988 5.988v89.825q0 5.988-5.988 5.988h-89.824q-6.987 0-6.987-5.988v-89.825q0-5.988 6.987-5.988zM204.6 95.813V5.988Q204.6 0 211.587 0h88.826q6.987 0 6.987 5.988v89.825q0 5.988-6.987 5.988h-88.826q-6.987 0-6.987-5.988zm202.605 212.585h1.996v94.814q0 5.989-5.989 5.989h-89.824q-5.988 0-5.988-5.989v-89.824q0-5.988 5.988-5.988h89.824q2.995 0 3.993.998z"></path>
                    </g></g>
                    </svg>