<svg xmlns="http://www.w3.org/2000/svg" version="1.1" xmlns:xlink="http://www.w3.org/1999/xlink" viewBox="0 0 510 510" preserveAspectRatio="xMidYMid">
                    <defs><style>.cls-1{fill:#595959;}</style></defs>
                    <title>provided-interface</title>
                    <g id="Layer_2" data-name="Layer 2"><g id="provided-interface">
                    <path class="cls-1" d="M368 32q23 0 43.5 9T447 65t24 35.5 9 43.5-9 43.5-24 35.5-35.5 24-43.5 9q-37 0-67-22L59 475q-5 5-11 5t-11-5-5-11 5-11l241-242q-22-30-22-67 0-23 9-43.5T289 65t35.5-24 43.5-9zm0 192q33 0 56.5-23.5T448 144t-23.5-56.5T368 64t-56.5 23.5T288 144t23.5 56.5T368 224z"></path>
                    </g></g>
                    </svg>