<svg xmlns="http://www.w3.org/2000/svg" version="1.1" xmlns:xlink="http://www.w3.org/1999/xlink" viewBox="0 0 510 510" preserveAspectRatio="xMidYMid">
                    <defs><style>.cls-1{fill:#595959;}</style></defs>
                    <title>realization</title>
                    <g id="Layer_2" data-name="Layer 2"><g id="realization">
                    <path class="cls-1" d="M463 32q7 0 12 4.5t5 11.5v160q0 11-10 14t-18-3l-68-69-69 70q-4 4-12 4-7 0-11-5t-4-11 5-11l68-70-69-68q-8-8-4-17t15-10h160zm-15 32H342l106 105V64zM197 293q5-5 11-5t10.5 5 4.5 11q0 7-4 11L59 475q-5 5-11 5-7 0-11.5-5T32 464q0-7 5-12z"></path>
                    </g></g>
                    </svg>