<svg xmlns="http://www.w3.org/2000/svg" version="1.1" xmlns:xlink="http://www.w3.org/1999/xlink" viewBox="0 0 510 510" preserveAspectRatio="xMidYMid">
                    <defs><style>.cls-1{fill:#595959;}</style></defs>
                    <title>references</title>
                    <g id="Layer_2" data-name="Layer 2"><g id="references">
                    <path class="cls-1" d="M32 112V48q0-16 16-16h128q16 0 16 16v17h32q14 0 23 9t9 22v320h64v-16q0-16 16-16h128q16 0 16 16v64q0 16-16 16H336q-16 0-16-16v-16h-64q-14 0-23-9t-9-23V96h-32v16q0 16-16 16H48q-16 0-16-16zm416 304h-96v32h96v-32z"></path>
                    </g></g>
                    </svg>