<svg xmlns="http://www.w3.org/2000/svg" version="1.1" xmlns:xlink="http://www.w3.org/1999/xlink" viewBox="0 0 510 510" preserveAspectRatio="xMidYMid">
                    <defs><style>.cls-1{fill:#595959;}</style></defs>
                    <title>requirement-containment-relationship</title>
                    <g id="Layer_2" data-name="Layer 2"><g id="requirement-containment-relationship">
                    <path class="cls-1" d="M32 464q0-6 5-11l241-242q-22-29-22-67 0-23 9-43.5T289 65t35.5-24 43.5-9 43.5 9T447 65t24 35.5 9 43.5-9 43.5-24 35.5-35.5 24-43.5 9q-38 0-67-22L59 475q-5 5-11 5t-11-5-5-11zm352-304v62q23-5 40-22t22-40h-62zm0-32h62q-5-23-22-40t-40-22v62zm-32 94v-62h-62q5 23 22 40t40 22zm0-94V66q-23 5-40 22t-22 40h62z"></path>
                    </g></g>
                    </svg>