<svg xmlns="http://www.w3.org/2000/svg" version="1.1" xmlns:xlink="http://www.w3.org/1999/xlink" viewBox="0 0 510 510" preserveAspectRatio="xMidYMid">
                    <defs><style>.cls-1{fill:#595959;}</style></defs>
                    <title>select</title>
                    <g id="Layer_2" data-name="Layer 2"><g id="select">
                    <path class="cls-1" d="M471.5 380q9 9 9 22.5t-9 22.5l-46 45q-9 10-22 10-14 0-23-10l-124-124v61q0 17-12 29t-29 12q-11 0-20.5-5.5T180.5 427l-2-4q-31-79-59-150-12-30-24.5-62t-24-61-21-54-16.5-43q-3-8 2-14.5t13-6.5q3 0 5 1 18 6 43 15.5t54.5 21T212 93t61.5 24q71 27 149 58l2 1h1q13 7 19 20t3 28q-4 14-15 23t-25 9h-61z"></path>
                    </g></g>
                    </svg>