<svg xmlns="http://www.w3.org/2000/svg" version="1.1" xmlns:xlink="http://www.w3.org/1999/xlink" viewBox="0 0 510 510" preserveAspectRatio="xMidYMid">
                    <defs><style>.cls-1{fill:#595959;}</style></defs>
                    <title>solution-not-licensed</title>
                    <g id="Layer_2" data-name="Layer 2"><g id="solution-not-licensed">
                    <path class="cls-1" d="M256 32q47 0 87.5 17.5t71 48 48 71T480 256q0 46-17.5 87t-48 71.5-71 48T256 480q-46 0-87-17.5t-71.5-48-48-71.5T32 256q0-47 17.5-87.5t48-71 71.5-48T256 32zM64 256q0 40 15 75t41.5 61 61.5 41 74 15V64q-39 0-74 15t-61.5 41T79 181t-15 75z"></path>
                    </g></g>
                    </svg>