<svg xmlns="http://www.w3.org/2000/svg" version="1.1" xmlns:xlink="http://www.w3.org/1999/xlink" viewBox="0 0 510 510" preserveAspectRatio="xMidYMid">
                    <defs><style>.cls-1{fill:#595959;}</style></defs>
                    <title>status-activating</title>
                    <g id="Layer_2" data-name="Layer 2"><g id="status-activating">
                    <path class="cls-1" d="M464 224q-20-15-44.5-23.5T368 192q-33 0-62 12.5T255 239t-34.5 51-12.5 62q0 27 8.5 51.5T240 448H48q-14 0-23-9t-9-23V32q0-14 9-23t23-9h384q14 0 23 9t9 23v192zM352 384v-80q0-16 16-16t16 16v48h32q16 0 16 16t-16 16h-64zm17 96q-27 0-50.5-10.5t-41-28T250 401t-10-49 10-49.5 27.5-41 41-27.5 49.5-10 49 10 40.5 27.5 28 41T496 353q0 26-10 49t-27 40.5-40.5 27.5-49.5 10zm0-224q-41 0-69 27.5T272 352q0 19 7.5 36.5t20 31 30 21T368 448q40 0 68-27.5t28-68.5-27.5-68.5T369 256z"></path>
                    </g></g>
                    </svg>