<svg xmlns="http://www.w3.org/2000/svg" version="1.1" xmlns:xlink="http://www.w3.org/1999/xlink" viewBox="0 0 510 510" preserveAspectRatio="xMidYMid">
                    <defs><style>.cls-1{fill:#595959;}</style></defs>
                    <title>unit</title>
                    <g id="Layer_2" data-name="Layer 2"><g id="unit">
                    <path class="cls-1" d="M0 512L512 0v512H0zm77-32h403V77l-77 77 45 45-23 23-45-45-22 22 45 45-23 23-45-45-22 23 44 45-22 22-45-45-23 23 45 45-22 22-45-44-23 22 45 45-23 23-45-45-22 22 45 45-23 23-45-45zm204-32l167-167v167H281zm135-32v-58l-58 58h58z"></path>
                    </g></g>
                    </svg>