<svg xmlns="http://www.w3.org/2000/svg" version="1.1" xmlns:xlink="http://www.w3.org/1999/xlink" viewBox="0 0 510 510" preserveAspectRatio="xMidYMid">
                    <defs><style>.cls-1{fill:#595959;}</style></defs>
                    <title>values</title>
                    <g id="Layer_2" data-name="Layer 2"><g id="values">
                    <path class="cls-1" d="M256 218q9 0 15.5 6.5T278 240t-6.5 15.5T256 262t-15.5-6.5T234 240t6.5-15.5T256 218zm-86 0q9 0 15.5 6.5T192 240t-6.5 15.5T170 262t-15.5-6.5T148 240t6.5-15.5T170 218zm172 0q9 0 15.5 6.5T364 240t-6.5 15.5T342 262t-15.5-6.5T320 240t6.5-15.5T342 218zM150 319q5 5 5 11.5t-5 11.5-11 5q-7 0-12-5l-90-91q-5-5-5-11t5-11l90-91q4-4 12-4 6 0 10 4 12 12 0 23l-78 79zm213-158q-12-11 0-23 4-4 10-4 8 0 12 4l90 91q5 5 5 11t-5 11l-90 91q-5 5-12 5-6 0-11-5t-5-11.5 5-11.5l79-79z"></path>
                    </g></g>
                    </svg>