<svg xmlns="http://www.w3.org/2000/svg" version="1.1" xmlns:xlink="http://www.w3.org/1999/xlink" viewBox="0 0 510 510" preserveAspectRatio="xMidYMid">
                    <defs><style>.cls-1{fill:#595959;}</style></defs>
                    <title>activity-individual</title>
                    <g id="Layer_2" data-name="Layer 2"><g id="activity-individual">
                    <path class="cls-1" d="M184 460q11 0 18.5 7.5T210 486t-7.5 18.5T184 512h-81q-32 0-54-22.5T27 435V128q0-32 22-54t54-22h26q0-21 15-36t36-15h102q21 0 36 15t15 36h26q32 0 54 22t22 54v54q0 11-7 18t-18 7-18.5-7-7.5-18v-54q0-11-7-18t-18-7h-26q0 21-15 36t-36 15H180q-21 0-36-15t-15-36h-26q-11 0-18 7t-7 18v307q0 11 7 18t18 7h81zm-4-357h102V52H180v51zm204 153q21 0 36 15t15 36-15 36-36 15-36-15-15-36 15-36 36-15zm30 128q31 0 51.5 21t20.5 50v5q0 26-26 26H307q-25 0-25-26v-5q0-29 20-50t51-21h61z"></path>
                    </g></g>
                    </svg>