<svg xmlns="http://www.w3.org/2000/svg" version="1.1" xmlns:xlink="http://www.w3.org/1999/xlink" viewBox="0 0 510 510" preserveAspectRatio="xMidYMid">
                    <defs><style>.cls-1{fill:#595959;}</style></defs>
                    <title>add-document</title>
                    <g id="Layer_2" data-name="Layer 2"><g id="add-document">
                    <path class="cls-1" d="M474 77q25 0 25 25 0 26-25 26h-51v51q0 12-7.5 19t-18.5 7-18.5-7-7.5-19v-51h-51q-25 0-25-26 0-25 25-25h51V26q0-12 7.5-19T397 0t18.5 7 7.5 19v51h51zm-77 179q11 0 18.5 7t7.5 19v204q0 11-7.5 18.5T397 512H39q-11 0-18.5-7.5T13 486V179q0-10 8-18L174 8q8-8 18-8h51q26 0 26 26 0 25-26 25h-41l-10 10v67q0 21-15 36t-36 15H74l-10 10v272h307V282q0-12 7.5-19t18.5-7z"></path>
                    </g></g>
                    </svg>