<svg xmlns="http://www.w3.org/2000/svg" version="1.1" xmlns:xlink="http://www.w3.org/1999/xlink" viewBox="0 0 510 510" preserveAspectRatio="xMidYMid">
                    <defs><style>.cls-1{fill:#595959;}</style></defs>
                    <title>add-contact</title>
                    <g id="Layer_2" data-name="Layer 2"><g id="add-contact">
                    <path class="cls-1" d="M414 244q25 0 25 25v170q0 32-21 52.5T366 512H74q-32 0-52.5-20.5T1 439V147q0-31 20.5-52T74 74h170q11 0 17.5 6.5T268 98q0 25-24 25H74q-11 0-18 6.5T49 147v292q0 24 25 24h292q11 0 17.5-6.5T390 439V269q0-11 6.5-18t17.5-7zm73-170q11 0 18 6.5t7 17.5q0 25-25 25h-48v48q0 25-25 25-11 0-17.5-7t-6.5-18v-48h-49q-11 0-17.5-7T317 98t6.5-17.5T341 74h49V25q0-11 6.5-17.5T414 1t18 6.5 7 17.5v49h48zM122 415q-11 0-17.5-7T98 390v-4q0-28 19.5-48.5T166 317h107q29 0 48.5 20.5T341 386v4q0 25-24 25H122zm98-244q20 0 34 14.5t14 34.5-14 34.5-34 14.5-34.5-14.5T171 220t14.5-34.5T220 171z"></path>
                    </g></g>
                    </svg>