<svg xmlns="http://www.w3.org/2000/svg" version="1.1" xmlns:xlink="http://www.w3.org/1999/xlink" viewBox="0 0 510 510" preserveAspectRatio="xMidYMid">
                    <defs><style>.cls-1{fill:#595959;}</style></defs>
                    <title>appointment</title>
                    <g id="Layer_2" data-name="Layer 2"><g id="appointment">
                    <path class="cls-1" d="M409.5 52q32 0 54.5 22t22.5 54v307q0 32-22.5 54.5T409.5 512h-307q-32 0-54-22.5t-22-54.5V128q0-32 22-54t54-22h51V26q0-11 7.5-18t18.5-7T198 8t7.5 18v26h102V26q0-25 25-25 26 0 26 25v26h51zm-307 51q-25 0-25 25v77h358v-77q0-11-7.5-18t-18.5-7h-51v25q0 26-26 26-25 0-25-26v-25h-102v25q0 12-7.5 19t-18.5 7-18.5-7-7.5-19v-25h-51zm307 357q11 0 18.5-7t7.5-18V256h-358v179q0 25 25 25h307zm-128-153q26 0 26 26v51q0 25-26 25h-51q-25 0-25-25v-51q0-26 25-26h51zm90 26q11 0 18 7t7 18-7 18.5-18 7.5-18.5-7.5-7.5-18.5 7.5-18 18.5-7zm-230 0q11 0 18 7t7 18-7 18.5-18 7.5-18.5-7.5-7.5-18.5 7.5-18 18.5-7z"></path>
                    </g></g>
                    </svg>