<svg xmlns="http://www.w3.org/2000/svg" version="1.1" xmlns:xlink="http://www.w3.org/1999/xlink" viewBox="0 0 510 510" preserveAspectRatio="xMidYMid">
                    <defs><style>.cls-1{fill:#595959;}</style></defs>
                    <title>attachment-e-pub</title>
                    <g id="Layer_2" data-name="Layer 2"><g id="attachment-e-pub">
                    <path class="cls-1" d="M435.5 0q11 0 18 7.5t7 18.5v153q0 26-25 26-26 0-26-26V51h-169l-10 11v66q0 21-15 36t-36 15h-66l-11 10v271h77q11 0 18.5 7t7.5 19q0 11-7.5 18t-18.5 7h-102q-11 0-18.5-7t-7.5-18V179q0-10 8-18l153-153q8-8 18-8h205zm-21 365q8-8 17.5-8t17.5 8 8 18-8 18l-102 102q-8 8-18 8t-18-8l-102-102q-8-8-8-18t8-18l102-102q8-8 18-8t18 8l51 51q8 8 8 18t-8 18l-51 51q-8 8-18 8t-18-8-8-18 8-18l34-33-16-15-66 66 66 66z"></path>
                    </g></g>
                    </svg>