<svg xmlns="http://www.w3.org/2000/svg" version="1.1" xmlns:xlink="http://www.w3.org/1999/xlink" viewBox="0 0 510 510" preserveAspectRatio="xMidYMid">
                    <defs><style>.cls-1{fill:#595959;}</style></defs>
                    <title>attachment-text-file</title>
                    <g id="Layer_2" data-name="Layer 2"><g id="attachment-text-file">
                    <path class="cls-1" d="M141.5 231q0-25 25-25h179q11 0 18.5 7t7.5 18v26q0 11-7.5 18t-18.5 7q-25 0-25-25h-39v128q11 0 18.5 7t7.5 18-7.5 18.5-18.5 7.5h-51q-11 0-18-7.5t-7-18.5q0-25 25-25V257h-38q0 11-7.5 18t-18.5 7q-25 0-25-25v-26zm311-222q8 7 8 18v460q0 25-25 25h-358q-26 0-26-25V180q0-10 8-18l153-153q8-8 18-8h205q9 0 17 8zm-43 43h-169l-10 11v66q0 21-15 36t-36 15h-66l-11 10v271h307V52z"></path>
                    </g></g>
                    </svg>