<svg xmlns="http://www.w3.org/2000/svg" version="1.1" xmlns:xlink="http://www.w3.org/1999/xlink" viewBox="0 0 510 510" preserveAspectRatio="xMidYMid">
                    <defs><style>.cls-1{fill:#595959;}</style></defs>
                    <title>bar-code</title>
                    <g id="Layer_2" data-name="Layer 2"><g id="bar-code">
                    <path class="cls-1" d="M224 128h64v256h-64V128zm-96 256H96V128h32v256zm32-256h32v256h-32V128zm259 256h-51V128h51v256zm-67 0h-32V128h32v256zM454 32q24 0 41 17t17 41v76q0 11-7.5 18.5T486 192t-18-7.5-7-18.5V90q0-7-7-7h-76q-11 0-18.5-7T352 58t7.5-18.5T378 32h76zM26 192q-11 0-18.5-7.5T0 166V90q0-24 17-41t41-17h76q11 0 18.5 7.5T160 58t-7.5 18-18.5 7H58q-7 0-7 7v76q0 11-7 18.5T26 192zm460 128q11 0 18.5 7.5T512 346v76q0 24-17 41t-41 17h-76q-11 0-18.5-7.5T352 454t7.5-18 18.5-7h76q7 0 7-7v-76q0-11 7-18.5t18-7.5zM134 429q11 0 18.5 7t7.5 18-7.5 18.5T134 480H58q-24 0-41-17T0 422v-76q0-11 7.5-18.5T26 320t18 7.5 7 18.5v76q0 7 7 7h76z"></path>
                    </g></g>
                    </svg>