<svg xmlns="http://www.w3.org/2000/svg" version="1.1" xmlns:xlink="http://www.w3.org/1999/xlink" viewBox="0 0 510 510" preserveAspectRatio="xMidYMid">
                    <defs><style>.cls-1{fill:#595959;}</style></defs>
                    <title>bbyd-active-sales</title>
                    <g id="Layer_2" data-name="Layer 2"><g id="bbyd-active-sales">
                    <path class="cls-1" d="M445 103q16 7 16 24v307q0 11-7.5 18.5T435 460t-18.5-7.5T409 434V144L180 53l-41 20 203 81q8 3 12 9.5t4 14.5v307q0 14-11 22-5 4-14 4-4 0-10-2l-77-31q-16-6-16-23 0-4 2-10 3-8 9.5-12t14.5-4q3 0 9 2l42 17V196l-205-82v115q0 11-7 18.5T77 255t-18.5-7.5T51 229V76q0-16 11-21L168 2q5-3 11-3 5 0 8 1 1 1 2 1zM248 288q8 8 8 18t-8 18L146 427q-7 7-18 7t-18-7l-51-52q-8-8-8-18t8-18q7-7 18-7t18 7l33 33 84-84q7-7 18-7t18 7z"></path>
                    </g></g>
                    </svg>