<svg xmlns="http://www.w3.org/2000/svg" version="1.1" xmlns:xlink="http://www.w3.org/1999/xlink" viewBox="0 0 510 510" preserveAspectRatio="xMidYMid">
                    <defs><style>.cls-1{fill:#595959;}</style></defs>
                    <title>blank-tag-2</title>
                    <g id="Layer_2" data-name="Layer 2"><g id="blank-tag-2">
                    <path class="cls-1" d="M155 197q17 0 29.5-12.5T197 155t-12.5-29.5T155 113t-29.5 12.5T113 155t12.5 29.5T155 197zm332 25q12 13 18.5 28.5T512 282t-6.5 31-18.5 27L341 486q-13 13-28.5 19.5T281 512t-31-6.5-27-19.5L26 290Q1 265 1 231V85q0-36 24-60.5T85 0h146q17 0 32.5 6.5T290 26zm-40 79q8-8 8-19.5t-8-19.5L251 65q-8-8-20-8H85q-28 0-28 28v146q0 11 8 19l197 197q8 8 19.5 8t19.5-8z"></path>
                    </g></g>
                    </svg>