<svg xmlns="http://www.w3.org/2000/svg" version="1.1" xmlns:xlink="http://www.w3.org/1999/xlink" viewBox="0 0 510 510" preserveAspectRatio="xMidYMid">
                    <defs><style>.cls-1{fill:#595959;}</style></defs>
                    <title>checklist-item</title>
                    <g id="Layer_2" data-name="Layer 2"><g id="checklist-item">
                    <path class="cls-1" d="M437.5 1q25 0 42.5 17.5T497.5 62v265q0 25-12.5 46t-32.5 32l-181 103q-15 10-30 0l-181-103q-20-11-32.5-32t-12.5-46V62q0-26 17.5-43.5T75.5 1h362zm0 61h-362v265q0 17 15 27l166 94 166-94q15-10 15-27V62zm-292 171q-9-9-9-21t9-21 21-9 21 9l39 39 99-99q10-9 22-9t21 9 9 21-9 21l-121 121q-9 9-21 9t-21-9z"></path>
                    </g></g>
                    </svg>