<svg xmlns="http://www.w3.org/2000/svg" version="1.1" xmlns:xlink="http://www.w3.org/1999/xlink" viewBox="0 0 510 510" preserveAspectRatio="xMidYMid">
                    <defs><style>.cls-1{fill:#595959;}</style></defs>
                    <title>checklist-item-2</title>
                    <g id="Layer_2" data-name="Layer 2"><g id="checklist-item-2">
                    <path class="cls-1" d="M438 0q25 0 42.5 17.5T498 60v268q0 24-12 45t-34 33L271 508q-10 4-15 4-7 0-15-4L60 406q-21-12-33.5-33T14 328V60q0-25 18-42.5T75 0h363zM117 193q-11 10-11 27 0 16 11 26l82 83q13 11 27 11t27-11l145-145q11-13 11-27t-11-27q-13-11-27-11t-27 11L226 249l-56-56q-11-11-26-11-16 0-27 11z"></path>
                    </g></g>
                    </svg>