<svg xmlns="http://www.w3.org/2000/svg" version="1.1" xmlns:xlink="http://www.w3.org/1999/xlink" viewBox="0 0 510 510" preserveAspectRatio="xMidYMid">
                    <defs><style>.cls-1{fill:#595959;}</style></defs>
                    <title>close-command-field</title>
                    <g id="Layer_2" data-name="Layer 2"><g id="close-command-field">
                    <path class="cls-1" d="M230 358q9 9 9 21 0 13-9 22-10 9-22 9-13 0-22-9L62 277q-9-9-9-21 0-13 9-22l124-124q9-9 22-9 12 0 22 9 9 9 9 22 0 12-9 21L127 256zm225 2q9 9 9 21 0 13-9 22-10 9-22 9-13 0-22-9L287 279q-9-9-9-22 0-12 9-21l124-124q10-10 22-10 10 0 22 10 9 9 9 21 0 13-9 22L352 257z"></path>
                    </g></g>
                    </svg>