<svg xmlns="http://www.w3.org/2000/svg" version="1.1" xmlns:xlink="http://www.w3.org/1999/xlink" viewBox="0 0 510 510" preserveAspectRatio="xMidYMid">
                    <defs><style>.cls-1{fill:#595959;}</style></defs>
                    <title>collapse</title>
                    <g id="Layer_2" data-name="Layer 2"><g id="collapse">
                    <path class="cls-1" d="M360.5 9q9-9 22-9 12 0 21 9 10 9 10 22 0 12-10 21l-124 124q-10 10-21 10-12 0-22-10l-124-124q-9-9-9-21 0-13 9-22t22-9q12 0 21 9l103 102zm-205 493q-9 10-21 10-13 0-22-10-9-9-9-21 0-13 9-22l124-124q9-9 22-9 12 0 21 9l124 124q10 9 10 22 0 12-10 21-9 10-21 10-13 0-22-10l-102-102z"></path>
                    </g></g>
                    </svg>