<svg xmlns="http://www.w3.org/2000/svg" version="1.1" xmlns:xlink="http://www.w3.org/1999/xlink" viewBox="0 0 510 510" preserveAspectRatio="xMidYMid">
                    <defs><style>.cls-1{fill:#595959;}</style></defs>
                    <title>collapse-group</title>
                    <g id="Layer_2" data-name="Layer 2"><g id="collapse-group">
                    <path class="cls-1" d="M156.5 243q-10 9-22 9-13 0-22-9-9-11-9-22 0-13 9-22l124-124q9-9 22-9 12 0 21 9l124 124q10 9 10 22 0 12-10 22-9 9-21 9-13 0-22-9l-102-103zm-2 225q-10 9-22 9-13 0-22-9-9-11-9-22 0-13 9-22l124-124q9-9 22-9 12 0 22 9l124 124q9 9 9 22 0 11-9 22-10 9-22 9-13 0-22-9l-102-103z"></path>
                    </g></g>
                    </svg>