<svg xmlns="http://www.w3.org/2000/svg" version="1.1" xmlns:xlink="http://www.w3.org/1999/xlink" viewBox="0 0 510 510" preserveAspectRatio="xMidYMid">
                    <defs><style>.cls-1{fill:#595959;}</style></defs>
                    <title>command-line-interfaces</title>
                    <g id="Layer_2" data-name="Layer 2"><g id="command-line-interfaces">
                    <path class="cls-1" d="M452 426q12 0 20 8t8 19-8 19.5-20 8.5H234q-12 0-20-8.5t-8-19.5 8-19 20-8h218zM43 154q-10-9-10-22 0-12 10-21 9-10 21-10 13 0 22 10l124 124q9 9 9 21 0 13-9 22L86 402q-9 9-22 9-12 0-21-9-10-9-10-22 0-12 10-21l102-103z"></path>
                    </g></g>
                    </svg>