<svg xmlns="http://www.w3.org/2000/svg" version="1.1" xmlns:xlink="http://www.w3.org/1999/xlink" viewBox="0 0 510 510" preserveAspectRatio="xMidYMid">
                    <defs><style>.cls-1{fill:#595959;}</style></defs>
                    <title>credit-card</title>
                    <g id="Layer_2" data-name="Layer 2"><g id="credit-card">
                    <path class="cls-1" d="M435.5 72q32 0 54 22t22 55v255q0 32-22 54.5t-54 22.5h-358q-32 0-54.5-22.5T.5 404V149q0-33 22.5-55t54.5-22h358zm-384 102h409v-25q0-26-25-26h-358q-11 0-18.5 7t-7.5 19v25zm409 77h-409v153q0 11 7.5 18.5t18.5 7.5h358q11 0 18-7.5t7-18.5V251zm-332 127q-11 0-18.5-7t-7.5-18 7.5-18.5 18.5-7.5h153q12 0 19 7.5t7 18.5q0 25-26 25h-153z"></path>
                    </g></g>
                    </svg>