<svg xmlns="http://www.w3.org/2000/svg" version="1.1" xmlns:xlink="http://www.w3.org/1999/xlink" viewBox="0 0 510 510" preserveAspectRatio="xMidYMid">
                    <defs><style>.cls-1{fill:#595959;}</style></defs>
                    <title>decline</title>
                    <g id="Layer_2" data-name="Layer 2"><g id="decline">
                    <path class="cls-1" d="M292 256l117 117q7 7 7 18t-7 18-19 7q-11 0-18-7L256 293 140 409q-7 7-18 7-12 0-19-7t-7-18 7-18l117-117-117-116q-7-7-7-18t7-18q8-8 19-8 10 0 18 8l116 116 116-116q8-8 18-8 11 0 19 8 7 7 7 18t-7 18z"></path>
                    </g></g>
                    </svg>