<svg xmlns="http://www.w3.org/2000/svg" version="1.1" xmlns:xlink="http://www.w3.org/1999/xlink" viewBox="0 0 510 510" preserveAspectRatio="xMidYMid">
                    <defs><style>.cls-1{fill:#595959;}</style></defs>
                    <title>direction-arrows</title>
                    <g id="Layer_2" data-name="Layer 2"><g id="direction-arrows">
                    <path class="cls-1" d="M135 128q11 0 18 7.5t7 18.5v204q0 11-8 18.5t-18 7.5-17-7L8 275q-8-8-8-19t8-19l109-102q7-7 18-7zm369 109q8 8 8 19t-8 19L395 377q-7 7-17 7t-18-7.5-8-18.5V154q0-12 8-19t19-7q9 0 16 7z"></path>
                    </g></g>
                    </svg>