<svg xmlns="http://www.w3.org/2000/svg" version="1.1" xmlns:xlink="http://www.w3.org/1999/xlink" viewBox="0 0 510 510" preserveAspectRatio="xMidYMid">
                    <defs><style>.cls-1{fill:#595959;}</style></defs>
                    <title>discussion</title>
                    <g id="Layer_2" data-name="Layer 2"><g id="discussion">
                    <path class="cls-1" d="M409 231q0 32-22 54.5T333 308H139l-95 94q-13 13-28 5T1 384V78q0-33 22-55T77 1h256q32 0 54 22t22 55v153zm-76 26q11 0 18-7.5t7-18.5V78q0-26-25-26H77q-25 0-25 26v245l58-59q8-7 18-7h205zm153-103q11 0 18.5 7.5T512 180v306q0 15-16 23-14 9-28-5l-94-94H179q-25 0-25-26 0-25 25-25h205q11 0 18 7l58 59V180q0-11 7.5-18.5T486 154z"></path>
                    </g></g>
                    </svg>