<svg xmlns="http://www.w3.org/2000/svg" version="1.1" xmlns:xlink="http://www.w3.org/1999/xlink" viewBox="0 0 510 510" preserveAspectRatio="xMidYMid">
                    <defs><style>.cls-1{fill:#595959;}</style></defs>
                    <title>display-more</title>
                    <g id="Layer_2" data-name="Layer 2"><g id="display-more">
                    <path class="cls-1" d="M416 0q34 0 57 23t23 57v320q0 34-23 57t-57 23H149q-28 0-52-10t-42-28-28.5-42.5T16 347t10.5-52.5T55 252t42-28.5 52-10.5h122l-34-34q-8-8-8-19t8-19 18-8q11 0 19 8l80 80q8 10 8 19t-8 19l-80 80q-8 8-19 8-10 0-18-8t-8-19 8-19l34-34H149q-34 0-57 23t-23 57 23 57 57 23h267q12 0 19.5-7.5T443 400V80q0-12-7.5-19T416 54H96q-12 0-19.5 7T69 80v54q0 26-26 26-12 0-19.5-7T16 134V80q0-34 23-57T96 0h320z"></path>
                    </g></g>
                    </svg>