<svg xmlns="http://www.w3.org/2000/svg" version="1.1" xmlns:xlink="http://www.w3.org/1999/xlink" viewBox="0 0 510 510" preserveAspectRatio="xMidYMid">
                    <defs><style>.cls-1{fill:#595959;}</style></defs>
                    <title>document-text</title>
                    <g id="Layer_2" data-name="Layer 2"><g id="document-text">
                    <path class="cls-1" d="M453.5 8q7 7 7 18v460q0 10-7 18t-18 8h-358q-11 0-18-8t-7-18V179q0-10 7-17l153-154q8-7 18-7h205q11 0 18 7zm-44 44h-168l-11 10v66q0 21-15 36t-36 15h-66l-10 11v271h306V52zm-255 230q0-26 25-26h154q25 0 25 26 0 25-25 25h-154q-25 0-25-25zm179 76q11 0 18 8t7 18-7 17.5-18 7.5h-154q-11 0-18-7.5t-7-17.5 7-18 18-8h154z"></path>
                    </g></g>
                    </svg>