<svg xmlns="http://www.w3.org/2000/svg" version="1.1" xmlns:xlink="http://www.w3.org/1999/xlink" viewBox="0 0 510 510" preserveAspectRatio="xMidYMid">
                    <defs><style>.cls-1{fill:#595959;}</style></defs>
                    <title>drill-up</title>
                    <g id="Layer_2" data-name="Layer 2"><g id="drill-up">
                    <path class="cls-1" d="M150 183q-9 10-22 10t-22-10q-10-9-10-22t10-22L233 11q10-10 22.5-10T278 11l128 128q10 9 10 22t-10 22q-10 10-22.5 10T361 183L256 78zm256 115q10 10 10 22.5T406 343t-22.5 10-22.5-10L256 238 150 343q-9 10-22 10t-22-10q-10-10-10-22.5t10-22.5l127-127q10-10 22.5-10t22.5 10zm0 160q10 10 10 22.5T406 503t-22.5 10-22.5-10L256 397 150 503q-9 10-22 10t-22-10q-10-10-10-22.5t10-22.5l127-128q10-9 22.5-9t22.5 9z"></path>
                    </g></g>
                    </svg>