<svg xmlns="http://www.w3.org/2000/svg" version="1.1" xmlns:xlink="http://www.w3.org/1999/xlink" viewBox="0 0 510 510" preserveAspectRatio="xMidYMid">
                    <defs><style>.cls-1{fill:#595959;}</style></defs>
                    <title>drop-down-list</title>
                    <g id="Layer_2" data-name="Layer 2"><g id="drop-down-list">
                    <path class="cls-1" d="M466.5 241q14 0 22 8t8 22-8 22-22 8h-421q-14 0-22-8t-8-22 8-22 22-8h421zm0-121q14 0 22 8.5t8 22.5-8 22-22 8h-421q-14 0-22-8t-8-22 8-22.5 22-8.5h421zm-421-60q-14 0-22-8t-8-22 8-22 22-8h421q14 0 22 8t8 22-8 22-22 8h-421zm89 342q-9-9-9-22t9-22q9-9 22-9t22 9l78 79 78-79q9-9 22-9 12 0 22 9 9 10 9 22 0 13-9 22l-100 100q-10 9-22 9-13 0-22-9z"></path>
                    </g></g>
                    </svg>