<svg xmlns="http://www.w3.org/2000/svg" version="1.1" xmlns:xlink="http://www.w3.org/1999/xlink" viewBox="0 0 510 510" preserveAspectRatio="xMidYMid">
                    <defs><style>.cls-1{fill:#595959;}</style></defs>
                    <title>employee</title>
                    <g id="Layer_2" data-name="Layer 2"><g id="employee">
                    <path class="cls-1" d="M370 370q13 0 20.5 8t7.5 21q0 28-28 28h-29q-28 0-28-28 0-13 7.5-21t20.5-8h29zm-12-127q56 21 90.5 70.5T483 427v57q0 28-28 28H57q-28 0-28-28v-57q0-64 34.5-113.5T154 243q-40-40-40-100 0-30 11-55.5t30.5-45 45-30.5T256 1t56 11 45 30.5 30 45 11 55.5q0 60-40 100zM256 58q-36 0-60.5 24.5T171 143q0 37 24.5 61t60.5 24 60.5-24 24.5-61q0-36-24.5-60.5T256 58zM86 453h142V350l-20-19q-8-9-8-20.5t8-19.5l6-6q-27 3-50 15.5t-40.5 31-27.5 43T86 427v29-3zm340-23q0-28-10-52.5t-27-44-40-31.5-50-14l5 6q9 8 9 19.5t-9 19.5l-19 20v103h141v-26z"></path>
                    </g></g>
                    </svg>