<svg xmlns="http://www.w3.org/2000/svg" version="1.1" xmlns:xlink="http://www.w3.org/1999/xlink" viewBox="0 0 510 510" preserveAspectRatio="xMidYMid">
                    <defs><style>.cls-1{fill:#595959;}</style></defs>
                    <title>filter-fields</title>
                    <g id="Layer_2" data-name="Layer 2"><g id="filter-fields">
                    <path class="cls-1" d="M435 77q21 0 36 15t15 37v51q0 21-15 36t-36 15H78q-21 0-36-15t-15-36v-51q0-22 15-37t36-15h357zm0 52H78v51h357v-51zM52 52q-25 0-25-26Q27 1 52 1h153q26 0 26 25 0 26-26 26H52zm383 306q21 0 36 15t15 37v51q0 21-15 36t-36 15H78q-21 0-36-15t-15-36v-51q0-22 15-37t36-15h357zm0 52H78v51h357v-51zM52 333q-25 0-25-26 0-25 25-25h153q26 0 26 25 0 26-26 26H52z"></path>
                    </g></g>
                    </svg>