<svg xmlns="http://www.w3.org/2000/svg" version="1.1" xmlns:xlink="http://www.w3.org/1999/xlink" viewBox="0 0 510 510" preserveAspectRatio="xMidYMid">
                    <defs><style>.cls-1{fill:#595959;}</style></defs>
                    <title>filter-facets</title>
                    <g id="Layer_2" data-name="Layer 2"><g id="filter-facets">
                    <path class="cls-1" d="M199.5 96q28 0 28 28 0 13-7.5 21t-20.5 8h-171q-13 0-20.5-8T.5 124q0-28 28-28h171zm113 57q-13 0-20.5-8t-7.5-21q0-28 28-28h171q28 0 28 28 0 13-7.5 21t-20.5 8h-171zm-113 199q13 0 21 7.5t8 20.5-8 21-21 8h-170q-13 0-21-8t-8-21 8-20.5 21-7.5h170zm0-128q13 0 21 7.5t8 20.5-8 21-21 8h-170q-13 0-21-8t-8-21 8-20.5 21-7.5h170zm284 128q28 0 28 28 0 13-7.5 21t-20.5 8h-170q-13 0-21-8t-8-21 8-20.5 21-7.5h170zm0-128q28 0 28 28 0 13-7.5 21t-20.5 8h-170q-13 0-21-8t-8-21 8-20.5 21-7.5h170z"></path>
                    </g></g>
                    </svg>