<svg xmlns="http://www.w3.org/2000/svg" version="1.1" xmlns:xlink="http://www.w3.org/1999/xlink" viewBox="0 0 510 510" preserveAspectRatio="xMidYMid">
                    <defs><style>.cls-1{fill:#595959;}</style></defs>
                    <title>flag</title>
                    <g id="Layer_2" data-name="Layer 2"><g id="flag">
                    <path class="cls-1" d="M444 53q5 2 8.5 8.5T456 73v248q0 8-4.5 13.5T442 344l-18 7q-45 20-89 20-26 0-50-7t-47-18l-15-7q-28-15-59-15t-57 15v148q0 25-25 25t-25-25V26Q57 1 82 1t25 25v8q28-11 57-11 21 0 42 5.5T246 46l14 10q38 20 76 20 17 0 33.5-4T402 61l17-8q6-3 13-3 6 0 12 3z"></path>
                    </g></g>
                    </svg>