<svg xmlns="http://www.w3.org/2000/svg" version="1.1" xmlns:xlink="http://www.w3.org/1999/xlink" viewBox="0 0 510 510" preserveAspectRatio="xMidYMid">
                    <defs><style>.cls-1{fill:#595959;}</style></defs>
                    <title>full-stacked-chart</title>
                    <g id="Layer_2" data-name="Layer 2"><g id="full-stacked-chart">
                    <path class="cls-1" d="M128.5 281q-25 0-25-25 0-11 7-18.5t18-7.5h77q11 0 18 7.5t7 18.5q0 25-25 25h-77zm179 52q11 0 18.5 7t7.5 18-7.5 18.5-18.5 7.5h-77q-11 0-18-7.5t-7-18.5q0-25 25-25h77zm-77-154q-25 0-25-25 0-26 25-26h52q25 0 25 26 0 25-25 25h-52zm256 154q25 0 25 25 0 11-7 18.5t-18 7.5h-77q-11 0-18-7.5t-7-18.5q0-25 25-25h77zm-358 0q11 0 18.5 7t7.5 18-7.5 18.5-18.5 7.5-18-7.5-7-18.5 7-18 18-7zm179-103q11 0 18.5 7.5t7.5 18.5-7.5 18-18.5 7-18-7-7-18 7-18.5 18-7.5zm-179-102q11 0 18.5 7.5t7.5 18.5-7.5 18-18.5 7-18-7-7-18 7-18.5 18-7.5zm256 0q11 0 18 7.5t7 18.5-7 18-18 7-18.5-7-7.5-18 7.5-18.5 18.5-7.5zm102 0q11 0 18 7.5t7 18.5-7 18-18 7-18.5-7-7.5-18 7.5-18.5 18.5-7.5zm0 102q11 0 18 7.5t7 18.5q0 25-25 25h-77q-25 0-25-25 0-11 7-18.5t18-7.5h77zm0 230q11 0 18 7.5t7 18.5q0 25-25 25h-460q-11 0-18.5-7T.5 486V26Q.5 15 8 7.5T26.5 0 45 7.5 52.5 26v434h434z"></path>
                    </g></g>
                    </svg>