<svg xmlns="http://www.w3.org/2000/svg" version="1.1" xmlns:xlink="http://www.w3.org/1999/xlink" viewBox="0 0 510 510" preserveAspectRatio="xMidYMid">
                    <defs><style>.cls-1{fill:#595959;}</style></defs>
                    <title>heading2</title>
                    <g id="Layer_2" data-name="Layer 2"><g id="heading2">
                    <path class="cls-1" d="M383.5 352v64h96q14 0 23 9t9 23-9 23-23 9h-127q-15 0-23.5-9t-8.5-23v-96q0-26 18.5-45t44.5-19h64v-64h-95q-32 0-32-31 0-32 32-32h95q26 0 45 18.5t19 44.5v64q0 27-19 45.5t-45 18.5h-64zm-159-255q14 0 23 9t9 23v319q0 14-9 23t-23 9-23-9-9-23V320h-128v128q0 14-9 23t-23 9-23-9-9-23V129q0-14 9-23t23-9 23 9 9 23v127h128V129q0-14 9-23t23-9z"></path>
                    </g></g>
                    </svg>