<svg xmlns="http://www.w3.org/2000/svg" version="1.1" xmlns:xlink="http://www.w3.org/1999/xlink" viewBox="0 0 510 510" preserveAspectRatio="xMidYMid">
                    <defs><style>.cls-1{fill:#595959;}</style></defs>
                    <title>horizontal-grip</title>
                    <g id="Layer_2" data-name="Layer 2"><g id="horizontal-grip">
                    <path class="cls-1" d="M460.5 138q21 0 36 15t15 36-15 36-36 15-36-15-15-36 15-36 36-15zm-136 0q21 0 36 15t15 36-15 36-36 15-36-15-15-36 15-36 36-15zm-136 0q21 0 36 15t15 36-15 36-36 15q-22 0-37-15t-15-36 15-36 37-15zm-137 0q22 0 36.5 15t14.5 36T88 225t-36.5 15q-21 0-36-15t-15-36 15-36 36-15zm409 136q21 0 36 15t15 37q0 21-15 36t-36 15-36-15-15-36q0-22 15-37t36-15zm-136 0q21 0 36 15t15 37q0 21-15 36t-36 15-36-15-15-36q0-22 15-37t36-15zm-136 0q21 0 36 15t15 37q0 21-15 36t-36 15q-22 0-37-15t-15-36q0-22 15-37t37-15zm-137 0q22 0 36.5 15t14.5 37q0 21-14.5 36t-36.5 15q-21 0-36-15t-15-36q0-22 15-37t36-15z"></path>
                    </g></g>
                    </svg>