<svg xmlns="http://www.w3.org/2000/svg" version="1.1" xmlns:xlink="http://www.w3.org/1999/xlink" viewBox="0 0 510 510" preserveAspectRatio="xMidYMid">
                    <defs><style>.cls-1{fill:#595959;}</style></defs>
                    <title>horizontal-waterfall-chart</title>
                    <g id="Layer_2" data-name="Layer 2"><g id="horizontal-waterfall-chart">
                    <path class="cls-1" d="M128.5 103q-11 0-18.5-7t-7.5-18 7.5-18.5 18.5-7.5h358q11 0 18 7.5t7 18.5q0 25-25 25h-358zm358 52q25 0 25 25 0 11-7 18.5t-18 7.5h-77q-11 0-18.5-7.5t-7.5-18.5 7.5-18 18.5-7h77zm-358 255q-11 0-18.5-7t-7.5-19q0-11 7.5-18t18.5-7h128q25 0 25 25 0 26-25 26h-128zm128-102q-26 0-26-26 0-25 26-25h153q11 0 18.5 7t7.5 18q0 12-7.5 19t-18.5 7h-153zm230 153q25 0 25 26 0 25-25 25h-460q-26 0-26-25V27q0-26 26-26 25 0 25 26v434h435z"></path>
                    </g></g>
                    </svg>