<svg xmlns="http://www.w3.org/2000/svg" version="1.1" xmlns:xlink="http://www.w3.org/1999/xlink" viewBox="0 0 510 510" preserveAspectRatio="xMidYMid">
                    <defs><style>.cls-1{fill:#595959;}</style></defs>
                    <title>indent</title>
                    <g id="Layer_2" data-name="Layer 2"><g id="indent">
                    <path class="cls-1" d="M143 238q8 8 8 18t-8 18l-83 83q-7 7-18 7t-18-7q-7-8-7-18 0-11 7-18l65-65-65-65q-7-7-7-18t7-18 18-7 18 7zm328 192q25 0 25 25t-25 25H41q-11 0-17.5-7T17 455t6.5-18 17.5-7h430zm0-99q25 0 25 25 0 11-7 17.5t-18 6.5H267q-11 0-18-6.5t-7-17.5q0-25 25-25h204zm0-100q25 0 25 25t-25 25H267q-25 0-25-25t25-25h204zm0-99q25 0 25 24 0 25-25 25H267q-25 0-25-25 0-24 25-24h204zM41 82q-11 0-17.5-7T17 57t6.5-18T41 32h430q25 0 25 25t-25 25H41z"></path>
                    </g></g>
                    </svg>