<svg xmlns="http://www.w3.org/2000/svg" version="1.1" xmlns:xlink="http://www.w3.org/1999/xlink" viewBox="0 0 510 510" preserveAspectRatio="xMidYMid">
                    <defs><style>.cls-1{fill:#595959;}</style></defs>
                    <title>iphone</title>
                    <g id="Layer_2" data-name="Layer 2"><g id="iphone">
                    <path class="cls-1" d="M360.917 1q32 0 54 22t20 54v358q0 32-22 54.5t-55 22.5h-204q-32 0-54.5-22.5t-22.5-54.5V77q0-32 22.5-54t54.5-22h207zm26 76q0-11-7.5-18t-18.5-7h-20q-8 0-13.5 4.5t-9.5 10.5l-11 23q-7 15-23 15h-51q-8 0-13.5-4.5t-9.5-10.5l-10-23q-7-15-23-15h-20q-26 0-26 25v358q0 11 7 18.5t19 7.5h204q11 0 18.5-7.5t7.5-18.5V77z"></path>
                    </g></g>
                    </svg>