<svg xmlns="http://www.w3.org/2000/svg" version="1.1" xmlns:xlink="http://www.w3.org/1999/xlink" viewBox="0 0 510 510" preserveAspectRatio="xMidYMid">
                    <defs><style>.cls-1{fill:#595959;}</style></defs>
                    <title>iphone-2</title>
                    <g id="Layer_2" data-name="Layer 2"><g id="iphone-2">
                    <path class="cls-1" d="M435 64q33 0 55 22t22 55v214q-4 29-26 48t-51 19H78q-33 0-55-22.5T1 345V141q0-33 22-55t55-22h357zm0 307q12 0 19-7.5t7-18.5v-15q0-16-15-23l-23-11q-6-4-11-9.5t-5-13.5v-51q0-16 16-23l23-10q5-4 10-9.5t5-13.5v-25q0-26-26-26H78q-26 0-26 26v204q0 11 7 18.5t19 7.5h357z"></path>
                    </g></g>
                    </svg>