<svg xmlns="http://www.w3.org/2000/svg" version="1.1" xmlns:xlink="http://www.w3.org/1999/xlink" viewBox="0 0 510 510" preserveAspectRatio="xMidYMid">
                    <defs><style>.cls-1{fill:#595959;}</style></defs>
                    <title>it-instance</title>
                    <g id="Layer_2" data-name="Layer 2"><g id="it-instance">
                    <path class="cls-1" d="M342 426q28 0 28-29 0-28-28-28H171q-28 0-28 28 0 29 28 29h171zm0-284q28 0 28-28 0-13-7.5-21T342 85t-21 8-8 21 8 20.5 21 7.5zM370 0q36 0 60.5 24.5T455 85v341q0 36-24.5 60.5T370 511H143q-36 0-60.5-24.5T58 426V85q0-36 24.5-60.5T143 0h227zm28 85q0-28-28-28H143q-28 0-28 28v341q0 28 28 28h227q28 0 28-28V85z"></path>
                    </g></g>
                    </svg>