<svg xmlns="http://www.w3.org/2000/svg" version="1.1" xmlns:xlink="http://www.w3.org/1999/xlink" viewBox="0 0 510 510" preserveAspectRatio="xMidYMid">
                    <defs><style>.cls-1{fill:#595959;}</style></defs>
                    <title>italic-text</title>
                    <g id="Layer_2" data-name="Layer 2"><g id="italic-text">
                    <path class="cls-1" d="M259 420q14 0 22 8t8 22-8 22-22 8h-3q-31 0-52.5-22T182 406q0-9 3-19l36-146h-21q-16 0-24.5-8t-8.5-22 8-22 22-8h59q16 0 24 12 5 5 5.5 12.5t.5 14.5l-45 182v4q0 6 5 10t13 4zm42-388q19 0 32 13t13 32-13 32-32 13-32-13-13-32 13-32 32-13z"></path>
                    </g></g>
                    </svg>