<svg xmlns="http://www.w3.org/2000/svg" version="1.1" xmlns:xlink="http://www.w3.org/1999/xlink" viewBox="0 0 510 510" preserveAspectRatio="xMidYMid">
                    <defs><style>.cls-1{fill:#595959;}</style></defs>
                    <title>key</title>
                    <g id="Layer_2" data-name="Layer 2"><g id="key">
                    <path class="cls-1" d="M504 392q8 8 8 18v76q0 26-26 26h-76q-10 0-18-8l-18-18h-41q-11 0-18.5-7t-7.5-18v-26h-25q-11 0-18.5-7t-7.5-18v-26h-25q-26 0-26-26v-40l-10-11h-41q-31 0-59-12t-49-33-33-49-12-59q0-32 12-59.5T46 46t49-33 59-12q32 0 59.5 12T262 46t33 48.5 12 59.5v41zm-43 28L264 223q-8-8-8-18v-51q0-21-8-39.5T226 82t-32.5-22-39.5-8-39.5 8T82 82t-22 32.5-8 39.5 8 39.5T82 226t32.5 22 39.5 8h51q10 0 18 8l26 26q7 7 7 17v26h26q25 0 25 25v26h26q11 0 18.5 7t7.5 19v25h25q10 0 18 8l18 18h41v-41zM154 103q21 0 36 15t15 36-15 36-36 15-36-15-15-36 15-36 36-15z"></path>
                    </g></g>
                    </svg>