<svg xmlns="http://www.w3.org/2000/svg" version="1.1" xmlns:xlink="http://www.w3.org/1999/xlink" viewBox="0 0 510 510" preserveAspectRatio="xMidYMid">
                    <defs><style>.cls-1{fill:#595959;}</style></defs>
                    <title>letter</title>
                    <g id="Layer_2" data-name="Layer 2"><g id="letter">
                    <path class="cls-1" d="M460.5 64q21 0 36 15t15 36v256q0 21-15 36t-36 15h-408q-22 0-37-15t-15-36V115q0-21 15-36t37-15h408zm0 51h-408v256h408V115zm-332 128q-25 0-25-26 0-25 25-25h128q11 0 18.5 7t7.5 18q0 12-7.5 19t-18.5 7h-128zm256-26q-26 0-26-25v-26q0-25 26-25h25q26 0 26 25v26q0 25-26 25h-25zm-256 103q-11 0-18-7.5t-7-18.5q0-25 25-25h77q25 0 25 25 0 11-7 18.5t-18 7.5h-77z"></path>
                    </g></g>
                    </svg>