<svg xmlns="http://www.w3.org/2000/svg" version="1.1" xmlns:xlink="http://www.w3.org/1999/xlink" viewBox="0 0 510 510" preserveAspectRatio="xMidYMid">
                    <defs><style>.cls-1{fill:#595959;}</style></defs>
                    <title>map-3</title>
                    <g id="Layer_2" data-name="Layer 2"><g id="map-3">
                    <path class="cls-1" d="M500.5 5q11 8 11 23v397q0 8-4.5 16t-12.5 10l-139 53q-6 6-14 6-5 0-9-2l-8-4-154-51-133 54q-6 2-13.5 2t-11.5-5q-7-4-9.5-10T.5 482V85q0-9 4.5-16.5T17.5 59l139-54q6-6 14-6 5 0 9 2l8 4 154 51 133-54q5-4 12-3t14 6zm-301 397l113 37V104l-113-36v334zm-142 37l85-34V70l-85 34v335zm397-369l-85 34v335l85-34V70z"></path>
                    </g></g>
                    </svg>