<svg xmlns="http://www.w3.org/2000/svg" version="1.1" xmlns:xlink="http://www.w3.org/1999/xlink" viewBox="0 0 510 510" preserveAspectRatio="xMidYMid">
                    <defs><style>.cls-1{fill:#595959;}</style></defs>
                    <title>measurement-document</title>
                    <g id="Layer_2" data-name="Layer 2"><g id="measurement-document">
                    <path class="cls-1" d="M193.111 461q11 0 18 7.5t7 18.5q0 25-25 25h-103q-32 0-54-22t-22-54V129q0-32 22-54t54-22h26q0-22 15-37t36-15h102q21 0 36 15t15 37h26q32 0 54 22t22 54v26q0 25-25 25-11 0-18.5-7t-7.5-18v-26q0-25-25-25h-26q0 21-15 36t-36 15h-102q-21 0-36-15t-15-36h-26q-25 0-25 25v307q0 25 25 25h103zm-26-357h102V53h-102v51zm26 102q25 0 25 25 0 26-25 26h-52q-25 0-25-26 0-25 25-25h52zm288 2q10 4 15 13t1 21l-23 71v148q0 21-15 36t-37 15h-102q-21 0-36-15t-15-36V231q0-25 26-25h51q25 0 25 25 0 26-25 26h-26v25h26q11 0 18 7.5t7 18.5-7 18.5-18 7.5h-26v25h26q25 0 25 26 0 25-25 25h-26v51h102V308q0-3 2-9l25-76q3-10 12.5-14.5t19.5-.5zm-288 74q11 0 18 7.5t7 18.5-7 18.5-18 7.5h-52q-11 0-18-7.5t-7-18.5 7-18.5 18-7.5h52zm0 77q25 0 25 26 0 25-25 25h-52q-25 0-25-25 0-26 25-26h52z"></path>
                    </g></g>
                    </svg>