<svg xmlns="http://www.w3.org/2000/svg" version="1.1" xmlns:xlink="http://www.w3.org/1999/xlink" viewBox="0 0 510 510" preserveAspectRatio="xMidYMid">
                    <defs><style>.cls-1{fill:#595959;}</style></defs>
                    <title>media-pause</title>
                    <g id="Layer_2" data-name="Layer 2"><g id="media-pause">
                    <path class="cls-1" d="M384.5 32q14 0 23 9t9 23v384q0 14-9 23t-23 9h-32q-14 0-23-9t-9-23V64q0-14 9-23t23-9h32zm-224 0q14 0 23 9t9 23v384q0 14-9 23t-23 9h-32q-14 0-23-9t-9-23V64q0-14 9-23t23-9h32z"></path>
                    </g></g>
                    </svg>