<svg xmlns="http://www.w3.org/2000/svg" version="1.1" xmlns:xlink="http://www.w3.org/1999/xlink" viewBox="0 0 510 510" preserveAspectRatio="xMidYMid">
                    <defs><style>.cls-1{fill:#595959;}</style></defs>
                    <title>message-error</title>
                    <g id="Layer_2" data-name="Layer 2"><g id="message-error">
                    <path class="cls-1" d="M375 183q9-10 9-23t-9-23q-10-9-23-9t-23 9l-73 74-73-74q-10-9-23-9t-23 9q-9 10-9 23t9 23l74 73-74 73q-9 10-9 23t9 23q10 9 23 9t23-9l73-74 73 74q10 9 23 9t23-9q9-10 9-23t-9-23l-74-73zM256 512q-53 0-99.5-20T75 437t-55-81.5T0 256t20-99.5T75 75t81.5-55T256 0t99.5 20T437 75t55 81.5 20 99.5-20 99.5-55 81.5-81.5 55-99.5 20z"></path>
                    </g></g>
                    </svg>