<svg xmlns="http://www.w3.org/2000/svg" version="1.1" xmlns:xlink="http://www.w3.org/1999/xlink" viewBox="0 0 510 510" preserveAspectRatio="xMidYMid">
                    <defs><style>.cls-1{fill:#595959;}</style></defs>
                    <title>multi-select</title>
                    <g id="Layer_2" data-name="Layer 2"><g id="multi-select">
                    <path class="cls-1" d="M179.5 358q25 0 25 25v102q0 26-25 26h-102q-26 0-26-26V383q0-25 26-25h102zm-26 51h-51v51h51v-51zm34-222q8-8 17.5-8t17.5 8 8 17.5-8 17.5l-102 102q-8 8-18 8t-18-8l-51-51q-8-8-8-17.5t8-17.5 18-8 18 8l33 33zm0-179q8-8 17.5-8t17.5 8 8 17.5-8 17.5l-102 103q-8 8-18 8t-18-8l-51-51q-8-8-8-18t8-18 18-8 18 8l33 33zm120 94q-26 0-26-25 0-26 26-26h153q11 0 18.5 7t7.5 19q0 11-7.5 18t-18.5 7h-153zm153 128q11 0 18.5 7t7.5 19q0 11-7.5 18t-18.5 7h-153q-26 0-26-25 0-26 26-26h153zm0 179q11 0 18.5 7t7.5 18q0 12-7.5 19t-18.5 7h-153q-26 0-26-26 0-25 26-25h153z"></path>
                    </g></g>
                    </svg>