<svg xmlns="http://www.w3.org/2000/svg" version="1.1" xmlns:xlink="http://www.w3.org/1999/xlink" viewBox="0 0 510 510" preserveAspectRatio="xMidYMid">
                    <defs><style>.cls-1{fill:#595959;}</style></defs>
                    <title>non-binary</title>
                    <g id="Layer_2" data-name="Layer 2"><g id="non-binary">
                    <path class="cls-1" d="M280 172v86q45 9 74.5 44t29.5 82q0 27-10 50t-27.5 40.5T306 502t-50 10-50-10-40.5-27.5T138 434t-10-50q0-46 28.5-81t72.5-44v-84l-41 42q-9 7-18 7-12 0-19-7.5t-7-18.5 7-18l69-68-69-68q-7-7-7-18 0-12 7.5-19T170 0t18 7l68 69 68-69q7-7 18-7 12 0 19 7.5t7 18.5-7 18l-69 68 69 68q7 7 7 18 0 12-7.5 19t-18.5 7-18-7zm-24 289q32 0 54.5-22.5T333 384t-22.5-54.5T256 307t-54.5 22.5T179 384t22.5 54.5T256 461z"></path>
                    </g></g>
                    </svg>