<svg xmlns="http://www.w3.org/2000/svg" version="1.1" xmlns:xlink="http://www.w3.org/1999/xlink" viewBox="0 0 510 510" preserveAspectRatio="xMidYMid">
                    <defs><style>.cls-1{fill:#595959;}</style></defs>
                    <title>notes</title>
                    <g id="Layer_2" data-name="Layer 2"><g id="notes">
                    <path class="cls-1" d="M409.5 51q33 0 55 22t22 55v306q0 33-22 55t-55 22h-307q-32 0-54-22t-22-55V128q0-33 22-55t54-22h52V25q0-25 25-25 11 0 18.5 7t7.5 18v26h102V25q0-25 25-25 26 0 26 25v26h51zm26 77q0-12-7.5-19t-18.5-7h-51v26q0 25-26 25-25 0-25-25v-26h-102v26q0 11-7.5 18t-18.5 7q-25 0-25-25v-26h-52q-25 0-25 26v306q0 26 25 26h307q11 0 18.5-7t7.5-19V128zm-179 204q25 0 25 26 0 25-25 25h-102q-26 0-26-25 0-26 26-26h102zm102-102q11 0 18.5 7t7.5 18q0 12-7.5 19t-18.5 7h-204q-26 0-26-26 0-25 26-25h204z"></path>
                    </g></g>
                    </svg>