<svg xmlns="http://www.w3.org/2000/svg" version="1.1" xmlns:xlink="http://www.w3.org/1999/xlink" viewBox="0 0 510 510" preserveAspectRatio="xMidYMid">
                    <defs><style>.cls-1{fill:#595959;}</style></defs>
                    <title>open-command-field</title>
                    <g id="Layer_2" data-name="Layer 2"><g id="open-command-field">
                    <path class="cls-1" d="M287 155q-9-9-9-22 0-12 9-21 10-10 22-10 10 0 22 10l124 124q9 9 9 21 0 13-9 22L331 403q-10 9-22 9-13 0-22-9t-9-22q0-12 9-21l103-103zm-225-2q-9-9-9-21 0-13 9-22t22-9q12 0 22 9l124 124q9 9 9 22 0 12-9 21L106 401q-10 9-22 9-13 0-22-9t-9-22q0-12 9-21l102-102z"></path>
                    </g></g>
                    </svg>