<svg xmlns="http://www.w3.org/2000/svg" version="1.1" xmlns:xlink="http://www.w3.org/1999/xlink" viewBox="0 0 510 510" preserveAspectRatio="xMidYMid">
                    <defs><style>.cls-1{fill:#595959;}</style></defs>
                    <title>org-chart</title>
                    <g id="Layer_2" data-name="Layer 2"><g id="org-chart">
                    <path class="cls-1" d="M484 341q28 0 28 28v113q0 13-7.5 21t-20.5 8H313q-13 0-20.5-8t-7.5-21V369q0-28 28-28h57v-57H143v57h57q28 0 28 28v113q0 13-7.5 21t-20.5 8H29q-13 0-20.5-8T1 482V369q0-28 28-28h57v-86q0-28 29-28h113v-57h-85q-28 0-28-28V28q0-28 28-28h227q28 0 28 28v114q0 28-28 28h-85v57h113q13 0 21 7.5t8 20.5v86h57zM171 113h171V57H171v56zm0 284H58v57h113v-57zm284 0H342v57h113v-57z"></path>
                    </g></g>
                    </svg>