<svg xmlns="http://www.w3.org/2000/svg" version="1.1" xmlns:xlink="http://www.w3.org/1999/xlink" viewBox="0 0 510 510" preserveAspectRatio="xMidYMid">
                    <defs><style>.cls-1{fill:#595959;}</style></defs>
                    <title>paint-bucket</title>
                    <g id="Layer_2" data-name="Layer 2"><g id="paint-bucket">
                    <path class="cls-1" d="M25 273q-8-8-8-18t8-18l135-135-58-59q-8-8-8-18t8-18q7-7 18-7 10 0 17 7l230 230q8 7 8 18t-8 18L214 426q-8 8-18 8t-18-8zm54-31h235L196 125zm354 270q-26 0-44.5-18.5T370 449q0-17 12-42t26-47q9-14 25-14t25 14q38 67 38 89 0 26-18.5 44.5T433 512z"></path>
                    </g></g>
                    </svg>