<svg xmlns="http://www.w3.org/2000/svg" version="1.1" xmlns:xlink="http://www.w3.org/1999/xlink" viewBox="0 0 510 510" preserveAspectRatio="xMidYMid">
                    <defs><style>.cls-1{fill:#595959;}</style></defs>
                    <title>paste</title>
                    <g id="Layer_2" data-name="Layer 2"><g id="paste">
                    <path class="cls-1" d="M427 244q11 0 17.5 6.5T451 268v219q0 11-6.5 17.5T427 511H232q-24 0-24-24V268q0-24 24-24h195zm-25 48H256v171h146V292zm-97 73q-24 0-24-24t24-24h49q11 0 17.5 6.5T378 341t-6.5 17.5T354 365h-49zm0 73q-24 0-24-24t24-24h49q11 0 17.5 6.5T378 414t-6.5 17.5T354 438h-49zm49-316q0 24-25 24H183q-11 0-17.5-6.5T159 122V98h-49v340h25q11 0 17.5 7t6.5 18-6.5 17.5T135 487H86q-11 0-17.5-6.5T62 463V73q0-11 6.5-17.5T86 49h73V25q0-11 6.5-18T183 0h146q25 0 25 25v97zm-49-73h-97v49h97V49z"></path>
                    </g></g>
                    </svg>