<svg xmlns="http://www.w3.org/2000/svg" version="1.1" xmlns:xlink="http://www.w3.org/1999/xlink" viewBox="0 0 510 510" preserveAspectRatio="xMidYMid">
                    <defs><style>.cls-1{fill:#595959;}</style></defs>
                    <title>pipeline-analysis</title>
                    <g id="Layer_2" data-name="Layer 2"><g id="pipeline-analysis">
                    <path class="cls-1" d="M506.5 91q4 5 4.5 12t.5 14l-85 340q-2 9-9.5 16t-18.5 7h-114q-23 0-28-23l-85-340q0-9 .5-15t4.5-11q5-4 11-7.5t12-3.5h284q15 0 23 11zm-270 46l14 56h182l14-56h-210zm182 113h-154l15 57h125zm-43 171l14-57h-96l14 57h68zm-318-284v56h29q13 0 20.5 8t7.5 21q0 28-28 28h-29v57h29q28 0 28 28 0 13-7.5 21t-20.5 8h-29v57h29q28 0 28 28t-28 28h-57q-13 0-21-7.5T.5 449V108q0-13 8-20.5t21-7.5h57q28 0 28 28 0 13-7.5 21t-20.5 8h-29z"></path>
                    </g></g>
                    </svg>