<svg xmlns="http://www.w3.org/2000/svg" version="1.1" xmlns:xlink="http://www.w3.org/1999/xlink" viewBox="0 0 510 510" preserveAspectRatio="xMidYMid">
                    <defs><style>.cls-1{fill:#595959;}</style></defs>
                    <title>print</title>
                    <g id="Layer_2" data-name="Layer 2"><g id="print">
                    <path class="cls-1" d="M511.5 333q0 32-22 54.5t-54 22.5h-26v76q0 26-25 26h-256q-25 0-25-26v-76h-26q-32 0-54.5-22.5T.5 333V205q0-32 22.5-54t54.5-22h26V26q0-25 25-25h256q25 0 25 25v103h26q32 0 54 22t22 54v128zm-51-128q0-25-25-25h-358q-25 0-25 25v128q0 25 25 25h26v-51q0-25 25-25h256q25 0 25 25v51h26q25 0 25-25V205zm-102 256V333h-204v128h204zm-204-409v77h204V52h-204zm230 179q0-26 25-26 26 0 26 26 0 25-26 25-25 0-25-25z"></path>
                    </g></g>
                    </svg>