<svg xmlns="http://www.w3.org/2000/svg" version="1.1" xmlns:xlink="http://www.w3.org/1999/xlink" viewBox="0 0 510 510" preserveAspectRatio="xMidYMid">
                    <defs><style>.cls-1{fill:#595959;}</style></defs>
                    <title>program-triangles-2</title>
                    <g id="Layer_2" data-name="Layer 2"><g id="program-triangles-2">
                    <path class="cls-1" d="M396 402q7 19 7 32 0 31-21.5 54.5T326 512H179q-34 0-55.5-23.5T102 435q0-18 7-33l74-156q10-20 28-32t41-12 41.5 12 28.5 32zM244 154q-35 2-63.5 21.5T137 227L86 334H64q-28 0-46-19.5T0 269q0-13 4-22L82 42q8-21 24.5-31.5T142 0t35.5 10.5T202 42zm264 169q4 9 4 22 0 25-17 44.5T451 409q-3-14-9-26l-74-156q-11-24-30.5-41T294 161l16-43q8-21 25-31t35-10q19 0 35.5 10t24.5 31z"></path>
                    </g></g>
                    </svg>