<svg xmlns="http://www.w3.org/2000/svg" version="1.1" xmlns:xlink="http://www.w3.org/1999/xlink" viewBox="0 0 510 510" preserveAspectRatio="xMidYMid">
                    <defs><style>.cls-1{fill:#595959;}</style></defs>
                    <title>responsive</title>
                    <g id="Layer_2" data-name="Layer 2"><g id="responsive">
                    <path class="cls-1" d="M256.5 395v42h21q21 0 21 22 0 21-21 21h-128q-21 0-21-21 0-22 21-22h64v-42h-149q-27 0-45.5-18.5T.5 331V118Q.5 91 19 72.5T64.5 54h341q27 0 45.5 18.5t18.5 45.5v43q0 9-6 15t-16 6q-9 0-15-6t-6-15v-43q0-10-6-15.5t-15-5.5h-341q-21 0-21 21v213q0 21 21 21h213q21 0 21 22 0 9-5.5 15t-15.5 6h-21zm234-170q21 0 21 21v213q0 21-21 21h-128q-21 0-21-21V246q0-21 21-21h128zm-107 42v149h86V267h-86z"></path>
                    </g></g>
                    </svg>