<svg xmlns="http://www.w3.org/2000/svg" version="1.1" xmlns:xlink="http://www.w3.org/1999/xlink" viewBox="0 0 510 510" preserveAspectRatio="xMidYMid">
                    <defs><style>.cls-1{fill:#595959;}</style></defs>
                    <title>sales-document</title>
                    <g id="Layer_2" data-name="Layer 2"><g id="sales-document">
                    <path class="cls-1" d="M278.5 461q26 0 26 25 0 26-26 26h-230q-26 0-26-26V179q0-10 8-18l153-153q10-8 18-8h211q26 0 26 26v102q0 11-7 18.5t-19 7.5q-11 0-18-7.5t-7-18.5V51h-175l-11 10v67q0 21-15 36t-36 15h-66l-11 10v272h205zm147-128q27 0 45.5 18.5t18.5 46.5q0 24-14 41.5t-37 21.5v25q0 26-26 26-25 0-25-26v-25h-26q-11 0-18.5-7t-7.5-19q0-11 7.5-18t18.5-7h64q13 0 13-13t-13-13h-26q-26 0-45-18.5t-19-47.5q0-23 14.5-40.5t37.5-21.5v-26q0-25 25-25 26 0 26 25v26h25q26 0 26 26 0 25-26 25h-64q-12 0-12 13t12 13h26z"></path>
                    </g></g>
                    </svg>