<svg xmlns="http://www.w3.org/2000/svg" version="1.1" xmlns:xlink="http://www.w3.org/1999/xlink" viewBox="0 0 510 510" preserveAspectRatio="xMidYMid">
                    <defs><style>.cls-1{fill:#595959;}</style></defs>
                    <title>search</title>
                    <g id="Layer_2" data-name="Layer 2"><g id="search">
                    <path class="cls-1" d="M489 436q7 7 7 18t-7.5 18.5T470 480t-18-7L352 373q-26 20-58.5 31.5T224 416q-44 0-82-16t-66-44-44-66-16-82 16-82 44-66 66-44 82-16 82 16 66 44 44 66 16 82q0 37-11.5 69.5T389 336zm-265-71q33 0 61.5-12t50-33.5 33.5-50 12-61.5-12-61.5-33.5-50-50-33.5T224 51t-61.5 12-50 33.5-33.5 50T67 208t12 61.5 33.5 50 50 33.5 61.5 12z"></path>
                    </g></g>
                    </svg>