<svg xmlns="http://www.w3.org/2000/svg" version="1.1" xmlns:xlink="http://www.w3.org/1999/xlink" viewBox="0 0 510 510" preserveAspectRatio="xMidYMid">
                    <defs><style>.cls-1{fill:#595959;}</style></defs>
                    <title>sound</title>
                    <g id="Layer_2" data-name="Layer 2"><g id="sound">
                    <path class="cls-1" d="M385 45q9 3 12 9t3 14v360q0 8-3.5 14.5T385 451q-1 0-2 1-2 0-3 1h-4l-1 1q-5 0-9.5-2.5T356 446l-117-95H138q-11 0-18.5-7.5T112 325V171q0-11 7.5-18.5T138 145h101l117-95q5-3 9-5.5t9-2.5q2 0 3 1h3q1 1 3 1 1 1 2 1zm-36 85l-81 59-2 1q-9 7-16 7h-86v102h86q7 0 16 7l83 60V130z"></path>
                    </g></g>
                    </svg>