<svg xmlns="http://www.w3.org/2000/svg" version="1.1" xmlns:xlink="http://www.w3.org/1999/xlink" viewBox="0 0 510 510" preserveAspectRatio="xMidYMid">
                    <defs><style>.cls-1{fill:#595959;}</style></defs>
                    <title>source-code</title>
                    <g id="Layer_2" data-name="Layer 2"><g id="source-code">
                    <path class="cls-1" d="M503 220q9 9 9 20t-9 20L390 373q-9 9-20 9-12 0-20-9-9-8-9-19 0-13 9-20l93-94-93-94q-9-8-9-20t9-19q8-9 20-9 11 0 20 9zM162 107q9 7 9 19t-9 20l-93 94 93 94q9 7 9 20 0 11-9 19-7 9-19 9t-20-9L9 260q-8-8-8-20t8-20l114-113q8-9 20-9t19 9z"></path>
                    </g></g>
                    </svg>