<svg xmlns="http://www.w3.org/2000/svg" version="1.1" xmlns:xlink="http://www.w3.org/1999/xlink" viewBox="0 0 510 510" preserveAspectRatio="xMidYMid">
                    <defs><style>.cls-1{fill:#595959;}</style></defs>
                    <title>sys-next-page</title>
                    <g id="Layer_2" data-name="Layer 2"><g id="sys-next-page">
                    <path class="cls-1" d="M371.5 322V51h-169l-10 10v66q0 22-15 37t-36 15h-67l-10 10v271h332q26 0 26 25 0 26-26 26h-357q-26 0-26-26V179q0-10 8-18l153-154q7-7 18-7h204q26 0 26 25v297l33-34q8-8 18-8t18 8 8 18-8 18l-77 77q-8 8-18 8t-18-8l-76-77q-8-8-8-18t8-18 17.5-8 17.5 8z"></path>
                    </g></g>
                    </svg>