<svg xmlns="http://www.w3.org/2000/svg" version="1.1" xmlns:xlink="http://www.w3.org/1999/xlink" viewBox="0 0 510 510" preserveAspectRatio="xMidYMid">
                    <defs><style>.cls-1{fill:#595959;}</style></defs>
                    <title>sys-help-2</title>
                    <g id="Layer_2" data-name="Layer 2"><g id="sys-help-2">
                    <path class="cls-1" d="M256 0q53 0 99.5 20T437 74.5t55 81.5 20 100-20 99.5-55 81.5-81.5 55-99.5 20-99.5-20T75 437t-55-81.5T0 256t20-100 55-81.5T156.5 20 256 0zm41 279q9-5 20.5-12t22-18 18-27 7.5-38q0-20-8.5-37.5T333 116t-34.5-20.5T256 88q-22 0-42 7.5T179 116t-23.5 30.5T147 184q0 14 9.5 23t22.5 9q14 0 23-9t9-23q0-13 13.5-22.5T256 152t31.5 9.5T301 184q0 14-8 21t-26 17q-14 8-28.5 19T224 274q0 13 9 22.5t23 9.5q23 0 30-22 3-1 11-5zm-41 130q16 0 27-11t11-27-11-27-27-11-27 11-11 27 11 27 27 11z"></path>
                    </g></g>
                    </svg>