<svg xmlns="http://www.w3.org/2000/svg" version="1.1" xmlns:xlink="http://www.w3.org/1999/xlink" viewBox="0 0 510 510" preserveAspectRatio="xMidYMid">
                    <defs><style>.cls-1{fill:#595959;}</style></defs>
                    <title>table-chart</title>
                    <g id="Layer_2" data-name="Layer 2"><g id="table-chart">
                    <path class="cls-1" d="M200 58q-13 0-21-7.5T171 30t8-21 21-8h56q13 0 21 8t8 21-8 20.5-21 7.5h-56zm170 0q-28 0-28-28 0-13 7.5-21T370 1h57q13 0 20.5 8t7.5 21q0 28-28 28h-57zM29 172q13 0 21 7.5t8 20.5v57q0 13-8 20.5T29 285q-28 0-28-28v-57q0-28 28-28zm0 170q13 0 21 7.5t8 20.5v57q0 13-8 21t-21 8-20.5-8T1 427v-57q0-28 28-28zm454-227q13 0 21 7.5t8 20.5v341q0 13-8 20.5t-21 7.5H143q-12 0-20-8-9-9-9-20V143q0-13 8-20.5t21-7.5h340zm-28 57H342v113h113V172zm-284 0v113h114V172H171zm0 284h114V342H171v114zm284 0V342H342v114h113z"></path>
                    </g></g>
                    </svg>