<svg xmlns="http://www.w3.org/2000/svg" version="1.1" xmlns:xlink="http://www.w3.org/1999/xlink" viewBox="0 0 510 510" preserveAspectRatio="xMidYMid">
                    <defs><style>.cls-1{fill:#595959;}</style></defs>
                    <title>tag</title>
                    <g id="Layer_2" data-name="Layer 2"><g id="tag">
                    <path class="cls-1" d="M141 184q17 0 29.5-13t12.5-30-12.5-29.5T141 99t-29.5 12.5T99 141t12.5 30 29.5 13zm345 39q13 13 19.5 28.5T512 283t-6.5 31-19.5 27L340 487q-13 13-28.5 19.5T280 513t-31-6.5-27-19.5L9 273q-9-8-9-19V29Q0 16 8 8.5T28 1h225q11 0 20 9zm-39 79q8-9 8-20.5t-8-19.5L242 57H56v186l205 205q20 18 40 0z"></path>
                    </g></g>
                    </svg>