<svg xmlns="http://www.w3.org/2000/svg" version="1.1" xmlns:xlink="http://www.w3.org/1999/xlink" viewBox="0 0 510 510" preserveAspectRatio="xMidYMid">
                    <defs><style>.cls-1{fill:#595959;}</style></defs>
                    <title>text-align-left</title>
                    <g id="Layer_2" data-name="Layer 2"><g id="text-align-left">
                    <path class="cls-1" d="M29 121q-13 0-20.5-8T1 92q0-28 28-28h454q13 0 21 7.5t8 20.5-8 21-21 8H29zm454 170q13 0 21 7.5t8 20.5q0 14-8 21.5t-21 7.5H29q-28 0-28-29 0-28 28-28h454zM29 234q-28 0-28-28t28-28h227q13 0 21 7.5t8 20.5-8 20.5-21 7.5H29zm227 171q13 0 21 7.5t8 20.5-8 20.5-21 7.5H29q-28 0-28-28t28-28h227z"></path>
                    </g></g>
                    </svg>