<svg xmlns="http://www.w3.org/2000/svg" version="1.1" xmlns:xlink="http://www.w3.org/1999/xlink" viewBox="0 0 510 510" preserveAspectRatio="xMidYMid">
                    <defs><style>.cls-1{fill:#595959;}</style></defs>
                    <title>text-align-justified</title>
                    <g id="Layer_2" data-name="Layer 2"><g id="text-align-justified">
                    <path class="cls-1" d="M28.5 121q-28 0-28-28Q.5 80 8 72t20.5-8h454q13 0 21 8t8 21-8 20.5-21 7.5h-454zm454 170q13 0 21 8t8 21-8 20.5-21 7.5h-454q-28 0-28-28 0-13 7.5-21t20.5-8h454zm0-113q13 0 21 7.5t8 20.5-8 21-21 8h-454q-13 0-20.5-8T.5 206q0-28 28-28h454zm0 227q13 0 21 7.5t8 20.5-8 21-21 8h-454q-13 0-20.5-8T.5 433q0-28 28-28h454z"></path>
                    </g></g>
                    </svg>