<svg xmlns="http://www.w3.org/2000/svg" version="1.1" xmlns:xlink="http://www.w3.org/1999/xlink" viewBox="0 0 510 510" preserveAspectRatio="xMidYMid">
                    <defs><style>.cls-1{fill:#595959;}</style></defs>
                    <title>trend-down</title>
                    <g id="Layer_2" data-name="Layer 2"><g id="trend-down">
                    <path class="cls-1" d="M460.5 330v-48q0-11 7.5-18t18.5-7 18 7 7 18v109q0 11-7 18t-18 7h-109q-11 0-18-7t-7-18 7-18.5 18-7.5h47l-25-26-118-117-84 84q-8 8-18 8t-18-8L8.5 153q-8-8-8-18t8-18 18-8 18 8l135 135 84-84q8-8 18-8t18 8l135 135z"></path>
                    </g></g>
                    </svg>