<svg xmlns="http://www.w3.org/2000/svg" version="1.1" xmlns:xlink="http://www.w3.org/1999/xlink" viewBox="0 0 510 510" preserveAspectRatio="xMidYMid">
                    <defs><style>.cls-1{fill:#595959;}</style></defs>
                    <title>tri-state</title>
                    <g id="Layer_2" data-name="Layer 2"><g id="tri-state">
                    <path class="cls-1" d="M144 352h224V128H144v224zM416 0q35 0 57.5 22.5T496 80v320q0 34-22.5 57T416 480H96q-34 0-57-23t-23-57V80q0-35 23-57.5T96 0h320zm27 80q0-12-7.5-19.5T416 53H96q-12 0-19.5 7.5T69 80v320q0 12 7.5 19.5T96 427h320q12 0 19.5-7.5T443 400V80z"></path>
                    </g></g>
                    </svg>