<svg xmlns="http://www.w3.org/2000/svg" version="1.1" xmlns:xlink="http://www.w3.org/1999/xlink" viewBox="0 0 510 510" preserveAspectRatio="xMidYMid">
                    <defs><style>.cls-1{fill:#595959;}</style></defs>
                    <title>underline-text</title>
                    <g id="Layer_2" data-name="Layer 2"><g id="underline-text">
                    <path class="cls-1" d="M435 420q14 0 22 8t8 22-8 22-22 8H78q-14 0-22-8t-8-22 8-22 22-8h357zm-179-59q-31 0-58-11.5t-47.5-32-32-47.5-11.5-58V62q0-14 8-22t22-8 22 8 8 22v150q0 38 25.5 63.5T256 301q19 0 35.5-7t28.5-19 19-28 7-35V62q0-14 8-22t22-8q13 0 21 8t8 22v150q0 31-11.5 58T362 317.5t-47 32-59 11.5z"></path>
                    </g></g>
                    </svg>