<svg xmlns="http://www.w3.org/2000/svg" version="1.1" xmlns:xlink="http://www.w3.org/1999/xlink" viewBox="0 0 510 510" preserveAspectRatio="xMidYMid">
                    <defs><style>.cls-1{fill:#595959;}</style></defs>
                    <title>upload</title>
                    <g id="Layer_2" data-name="Layer 2"><g id="upload">
                    <path class="cls-1" d="M471.5 459q12 0 19.5 7t7.5 20q0 12-7.5 19t-19.5 7h-430q-12 0-19.5-7t-7.5-19q0-13 7.5-20t19.5-7h430zm-304-304q-8 8-18 8t-20-8q-8-10-8-19 0-11 8-19l105-105 1-1q1 0 1-1h1q7-9 19-9 6 0 9.5 2t8.5 6l108 108q8 7 8 19 0 11-8 19t-19 8q-10 0-18-8l-62-62v258q0 12-7.5 19.5t-19.5 7.5-19.5-7.5-7.5-19.5V93z"></path>
                    </g></g>
                    </svg>