<svg xmlns="http://www.w3.org/2000/svg" version="1.1" xmlns:xlink="http://www.w3.org/1999/xlink" viewBox="0 0 510 510" preserveAspectRatio="xMidYMid">
                    <defs><style>.cls-1{fill:#595959;}</style></defs>
                    <title>vertical-grip</title>
                    <g id="Layer_2" data-name="Layer 2"><g id="vertical-grip">
                    <path class="cls-1" d="M324.5 1q21 0 36 15t15 36-15 36-36 15q-22 0-37-15t-15-36 15-36 37-15zm0 136q21 0 36 15t15 36q0 22-15 36.5t-36 14.5q-22 0-37-14.5t-15-36.5q0-21 15-36t37-15zm-137 0q21 0 36 15t15 36q0 22-15 36.5t-36 14.5-36-14.5-15-36.5q0-21 15-36t36-15zm0-136q21 0 36 15t15 36-15 36-36 15-36-15-15-36 15-36 36-15zm137 409q21 0 36 15t15 36-15 36-36 15q-22 0-37-15t-15-36 15-36 37-15zm0-137q21 0 36 15t15 37q0 21-15 36t-36 15q-22 0-37-15t-15-36q0-22 15-37t37-15zm-137 0q21 0 36 15t15 37q0 21-15 36t-36 15-36-15-15-36q0-22 15-37t36-15zm0 137q21 0 36 15t15 36-15 36-36 15-36-15-15-36 15-36 36-15z"></path>
                    </g></g>
                    </svg>