<svg xmlns="http://www.w3.org/2000/svg" version="1.1" xmlns:xlink="http://www.w3.org/1999/xlink" viewBox="0 0 510 510" preserveAspectRatio="xMidYMid">
                    <defs><style>.cls-1{fill:#595959;}</style></defs>
                    <title>windows-doors</title>
                    <g id="Layer_2" data-name="Layer 2"><g id="windows-doors">
                    <path class="cls-1" d="M139 263q-23 0-23-23t23-23q11 0 17.5 6t6.5 17-6.5 17-17.5 6zM489 0q23 0 23 23v185q0 23-23 23H303q-10 0-16.5-6t-6.5-17V23q0-11 6.5-17T303 0h186zM373 139h-46v46h46v-46zm0-93h-46v46h46V46zm93 93h-47v46h47v-46zm0-93h-47v46h47V46zM209 1q23 0 23 23v465q0 23-23 23H24q-11 0-17.5-6T0 489V24Q0 13 6.5 7T24 1h185zm-23 46H47v419h139V47z"></path>
                    </g></g>
                    </svg>