<svg xmlns="http://www.w3.org/2000/svg" version="1.1" xmlns:xlink="http://www.w3.org/1999/xlink" xmlns:svgjs="http://svgjs.dev/svgjs" viewBox="0 0 56 56"><circle r="23" cx="50%" cy="50%" stroke-opacity="1" stroke-width="2" stroke="#074d92" fill-opacity="1" fill="#ffffff"></circle><svg viewBox="0 0 56 56" height="30" x="0" y="25%"><svg id="portal" xmlns="http://www.w3.org/2000/svg" viewBox="0 0 56 56" height="100%" width="100%"><defs><style>.cls-1{fill:#053b70;}.cls-2{fill:#0a6ed1;}</style></defs><title>portal</title><path class="cls-1" d="M45.84,23.962a8.489,8.489,0,0,0-12.783-5.713A10.747,10.747,0,0,0,22.41,11C10,11,11.09,23.988,11.09,23.988A10.257,10.257,0,0,0,14.285,44H22V29h9V44H41.5a10.486,10.486,0,0,0,4.34-20.038ZM41.5,41H34V26H19V41H14.285a7.257,7.257,0,0,1-2.258-14.162l2.279-.768-.232-2.389c0-.042-.379-4.237,2.01-7.013C17.461,15.068,19,14,22.465,14c2.535,0,6.417,2.186,7.994,5.339l1.176,2.871,2.424-1.318A7.6,7.6,0,0,1,37.449,20a5.546,5.546,0,0,1,5.443,4.518l.288,1.528,1.415.646A7.486,7.486,0,0,1,41.5,41Z"></path><polygon class="cls-2" points="19.006 44 22.006 44 22.006 29 31.006 29 31.006 44 34.006 44 34.006 26 19.006 26 19.006 44"></polygon></svg></svg></svg>