<svg xmlns="http://www.w3.org/2000/svg" version="1.1" xmlns:xlink="http://www.w3.org/1999/xlink" xmlns:svgjs="http://svgjs.dev/svgjs" viewBox="0 0 56 56"><circle r="23" cx="50%" cy="50%" stroke-opacity="1" stroke-width="2" stroke="#074d92" fill-opacity="1" fill="#ffffff"></circle><svg viewBox="0 0 56 56" height="30" x="0" y="25%"><svg id="scp-launchpad" xmlns="http://www.w3.org/2000/svg" viewBox="0 0 56 56" height="100%" width="100%"><defs><style>.cls-1{fill:#003b74;}.cls-2{fill:#006dd7;}</style></defs><path class="cls-1" d="M49,7a2.889,2.889,0,0,1,3,3V40a2.959,2.959,0,0,1-.844,2.109A2.837,2.837,0,0,1,49,43H7a2.871,2.871,0,0,1-2.109-.891A2.876,2.876,0,0,1,4,40V10a2.834,2.834,0,0,1,.891-2.156A2.954,2.954,0,0,1,7,7Zm0,3H7V40H49ZM38.5,46A1.327,1.327,0,0,1,40,47.5a1.509,1.509,0,0,1-.422,1.031A1.381,1.381,0,0,1,38.5,49h-21A1.614,1.614,0,0,1,16,47.5a1.381,1.381,0,0,1,.469-1.078A1.505,1.505,0,0,1,17.5,46Z"></path><rect class="cls-2" x="10" y="13" width="16.515" height="15" rx="1.25"></rect><rect class="cls-2" x="29.5" y="13" width="16.5" height="6" rx="1.25"></rect><rect class="cls-2" x="10" y="31" width="6.73" height="6" rx="0.5"></rect><rect class="cls-2" x="19.765" y="31" width="6.735" height="6" rx="0.5"></rect><rect class="cls-2" x="29.5" y="31" width="6.735" height="6" rx="0.5"></rect><rect class="cls-2" x="39.265" y="31" width="6.735" height="6" rx="0.5"></rect><rect class="cls-2" x="29.5" y="22" width="6.735" height="6" rx="0.5"></rect><rect class="cls-2" x="39.265" y="22" width="6.735" height="6" rx="0.5"></rect></svg></svg></svg>