<svg xmlns="http://www.w3.org/2000/svg" version="1.1" xmlns:xlink="http://www.w3.org/1999/xlink" xmlns:svgjs="http://svgjs.dev/svgjs" viewBox="0 0 56 56"><circle r="23" cx="50%" cy="50%" stroke-opacity="1" stroke-width="2" stroke="#074d92" fill-opacity="1" fill="#ffffff"></circle><svg viewBox="0 0 56 56" height="30" x="0" y="25%"><svg id="sap-work-zone" xmlns="http://www.w3.org/2000/svg" viewBox="0 0 56 56" height="100%" width="100%"><defs><style>.cls-1{fill:#006dd7;}.cls-2{fill:#003b74;}</style></defs><path class="cls-1" d="M43,31H40V28H37v9a3.009,3.009,0,0,0,3,3h3a3.009,3.009,0,0,0,3-3V34A3.009,3.009,0,0,0,43,31Zm0,6H40V34h3Z"></path><path class="cls-1" d="M19,38.5v-9H16v3H13a3.009,3.009,0,0,0-3,3v3a3.009,3.009,0,0,0,3,3h3A3.009,3.009,0,0,0,19,38.5Zm-3,0H13v-3h3Z"></path><path class="cls-1" d="M23.5,43h-3a3.009,3.009,0,0,0-3,3v3a3.009,3.009,0,0,0,3,3h3a3.009,3.009,0,0,0,3-3V37h-3Zm0,6h-3V46h3Z"></path><path class="cls-1" d="M35.5,41.5h-3v-9h-3v15a3.009,3.009,0,0,0,3,3h3a3.009,3.009,0,0,0,3-3v-3A3.009,3.009,0,0,0,35.5,41.5Zm0,6h-3v-3h3Z"></path><path class="cls-1" d="M24.7,23.488c.58,0,1.05-.873,1.05-1.949s-.47-1.95-1.05-1.95-1.05.873-1.05,1.95S24.116,23.488,24.7,23.488Z"></path><path class="cls-1" d="M31.3,23.488c.58,0,1.05-.873,1.05-1.949s-.47-1.95-1.05-1.95-1.05.873-1.05,1.95S30.716,23.488,31.3,23.488Z"></path><path class="cls-1" d="M28,26.488a1.5,1.5,0,0,0,1.5-1.5h-3A1.5,1.5,0,0,0,28,26.488Z"></path><path class="cls-2" d="M49,13H46a3.009,3.009,0,0,0-3,3v6.99a.526.526,0,0,1-.51.51H40.51a.526.526,0,0,1-.51-.51V15.82A11.875,11.875,0,0,0,28.12,4h-.27A11.869,11.869,0,0,0,16,15.82v7.17a.5.5,0,0,1-.51.48H13.51a.5.5,0,0,1-.51-.48V13a3.009,3.009,0,0,0-3-3H7a3.009,3.009,0,0,0-3,3v3a3.009,3.009,0,0,0,3,3h3v3.99a3.489,3.489,0,0,0,3.51,3.48h1.98A3.542,3.542,0,0,0,19,22.99V15.82a8.866,8.866,0,0,1,8.85-8.85h.27a8.806,8.806,0,0,1,5.187,1.707A1.485,1.485,0,0,0,32.5,9.988a1.487,1.487,0,0,0,2.812.689A8.745,8.745,0,0,1,37,15.82v7.17a3.5,3.5,0,0,0,1.71,3,3.4,3.4,0,0,0,1.8.51h1.98A3.514,3.514,0,0,0,46,22.99V22h3a3.009,3.009,0,0,0,3-3V16A3.009,3.009,0,0,0,49,13ZM10,16H7V13h3Zm39,3H46V16h3Z"></path><circle class="cls-2" cx="34.746" cy="13.738" r="0.75"></circle><circle class="cls-2" cx="30.246" cy="9.238" r="0.75"></circle></svg></svg></svg>