<svg xmlns="http://www.w3.org/2000/svg" version="1.1" xmlns:xlink="http://www.w3.org/1999/xlink" xmlns:svgjs="http://svgjs.dev/svgjs" viewBox="0 0 56 56"><circle r="23" cx="50%" cy="50%" stroke-opacity="1" stroke-width="2" stroke="#074d92" fill-opacity="1" fill="#ffffff"></circle><svg viewBox="0 0 56 56" height="30" x="0" y="25%"><svg id="document-service" xmlns="http://www.w3.org/2000/svg" viewBox="0 0 56 56" height="100%" width="100%"><defs><style>.cls-1{fill:#0092d1;}.cls-2{fill:#5a7a94;}</style></defs><title>document-service</title><path class="cls-1" d="M49,20h-.2L43,8H13L7.2,20H7a2.946,2.946,0,0,0-3,3V44a2.946,2.946,0,0,0,3,3H49a2.946,2.946,0,0,0,3-3V23A2.946,2.946,0,0,0,49,20Zm-3.2-.1H10.1l4.6-9.6H41.3M7,44V23H49V44Z"></path><polygon class="cls-2" points="34 38 22 38 22 36.5 19 36.5 19 38 19 41 37 41 37 38 37 36.5 34 36.5 34 38"></polygon><line class="cls-1" x1="41.3" y1="10.3" x2="45.8" y2="19.9"></line><rect class="cls-2" x="14.1" y="16.1" width="27.8" height="1.5"></rect><rect class="cls-2" x="16" y="12.4" width="24" height="1.5"></rect></svg></svg></svg>