<?xml version="1.0" encoding="utf-8"?>
<!-- Generator: Adobe Illustrator 26.3.1, SVG Export Plug-In . SVG Version: 6.00 Build 0)  -->
<svg version="1.1" id="openconnectors" xmlns="http://www.w3.org/2000/svg" xmlns:xlink="http://www.w3.org/1999/xlink" x="0px"
	 y="0px" viewBox="0 0 56 56" style="enable-background:new 0 0 56 56;" xml:space="preserve">
<style type="text/css">
	.st0{fill:#0A6ED1;}
	.st1{fill:#053B70;}
</style>
<path class="st0" d="M15,38H6v9h9v-3h6v-3h-6V38z M12,41v3H9v-3H12z"/>
<path class="st0" d="M39,20h3v-6h3V5h-9v9h3L39,20z M39,8h3v3h-3L39,8z"/>
<path class="st0" d="M37.9,39.1c-0.2,0-0.4,0-0.6-0.2c-0.2-0.1-0.3-0.4-0.4-0.9l-0.9-6.7c0-0.5,0.2-1,0.5-1.4
	c0.4-0.4,0.9-0.6,1.4-0.6c0.5,0,1,0.2,1.4,0.6c0.4,0.4,0.6,0.9,0.5,1.4L38.9,38c0,0.3-0.1,0.6-0.3,0.9C38.3,39,38.1,39.1,37.9,39.1z
	"/>
<circle class="st0" cx="37.9" cy="43" r="2"/>
<path class="st1" d="M26.2,40.5V26.7l11.7-2.7l11.7,2.7v13.8c0,1.8-0.7,3.5-2.2,5.2c-0.7,0.8-1.4,1.4-2.2,2
	c-0.9,0.7-1.7,1.2-2.6,1.7s-1.5,0.9-2.1,1.2c-0.3,0.2-0.6,0.3-1,0.5l-1.6,0.7l-1.6-0.7c-0.1-0.1-0.6-0.3-1.5-0.7c-1-0.5-2-1.1-3-1.8
	c-1.7-1.1-3.1-2.5-4.3-4.1C26.7,43.4,26.2,42,26.2,40.5z M28.1,28.3v12.2c0,1.5,0.6,2.9,1.7,3.9c0.6,0.7,1.2,1.2,2,1.8
	c0.8,0.6,1.6,1.1,2.3,1.6c0.8,0.5,1.4,0.9,2,1.1c0.3,0.2,0.6,0.3,1,0.4l0.8,0.4l0.8-0.4c0,0,0.5-0.2,1.4-0.7c1-0.5,1.9-1.1,2.8-1.7
	c3.2-2.1,4.8-4.3,4.8-6.5V28.3l-9.7-2.2L28.1,28.3z"/>
<path class="st0" d="M21.2,25.4l2.1-2.1L19.1,19l2.1-2.1l-6.4-6.4l-6.4,6.4l6.4,6.4l2.1-2.1L21.2,25.4z M12.8,16.9l2.1-2.1l2.1,2.1
	L14.9,19L12.8,16.9z"/>
</svg>
