<svg id="sap-application-studio_former_Web_IDE_" data-name="sap-application-studio (former Web IDE)" xmlns="http://www.w3.org/2000/svg" viewBox="0 0 56 56"><defs><style>.cls-1{fill:#053b70;}.cls-2{fill:#0a6ed1;}</style></defs><title>sap-application-studio</title><polygon class="cls-1" points="30.305 22.114 28.618 21.043 26.942 19.98 26.464 19.677 25.902 19.325 25.316 19.635 5.806 29.964 5.251 30.259 5.197 30.883 4.995 33.247 4.819 35.324 6.666 34.364 28.534 23.032 30.305 22.114"/><polygon class="cls-1" points="7.259 26.827 22.179 18.989 23.943 18.063 22.26 16.999 20.163 15.676 19.609 15.324 19.023 15.63 6.422 22.16 5.863 22.451 5.81 23.082 5.58 25.714 5.396 27.803 5.4 27.803 7.259 26.827"/><polygon class="cls-1" points="49.414 22.229 27.646 33.74 25.806 34.714 27.612 35.749 29.67 36.935 30.213 37.245 30.768 36.958 50.374 26.808 50.963 26.502 50.994 25.84 51.017 25.274 51.097 23.289 51.181 21.296 49.414 22.229"/><polygon class="cls-1" points="25.802 34.716 25.806 34.714 25.802 34.712 25.802 34.716"/><polygon class="cls-1" points="34.165 37.554 32.306 38.522 34.127 39.567 36.422 40.879 36.969 41.193 37.528 40.898 50.072 34.264 50.653 33.958 50.68 33.3 50.787 30.825 50.875 28.836 49.112 29.758 34.165 37.554"/><polygon class="cls-2" points="17.126 31.854 16.579 31.537 16.02 31.828 13.675 33.044 11.812 34.012 13.629 35.06 28.235 43.454 29.961 44.448 29.961 42.459 29.961 39.322 29.391 38.989 17.126 31.854"/><polygon class="cls-2" points="10.205 35.515 9.662 35.206 9.107 35.492 6.999 36.59 5.152 37.554 5.148 37.562 6.95 38.61 28.235 50.998 29.961 52 29.961 46.789 29.383 46.461 10.205 35.515"/><polygon class="cls-2" points="28.143 12.703 26.384 11.556 26.365 11.556 26.365 13.656 26.342 16.299 26.342 16.931 26.873 17.271 38.794 24.98 39.345 25.335 39.934 25.037 42.145 23.909 43.92 23.009 42.256 21.923 28.143 12.703"/><polygon class="cls-2" points="48.966 18.499 28.27 5.144 26.521 4.015 26.495 4 26.495 6.085 26.472 8.461 26.472 9.084 26.996 9.429 45.439 21.56 45.998 21.942 46.591 21.64 47.096 21.384 48.863 20.485 50.642 19.582 48.966 18.499"/></svg>