<svg xmlns="http://www.w3.org/2000/svg" viewBox="0 0 56 56"><defs><style>.cls-1,.cls-3{fill:#053b70;}.cls-2{fill:#0a6ed1;}.cls-3{fill-rule:evenodd;}</style></defs><g id="task-center"><path class="cls-1" d="M47.744,35.842a7.515,7.515,0,0,1-2-.27A19.434,19.434,0,0,1,34.88,46.1a7.554,7.554,0,0,1,.636,2.3A21.816,21.816,0,0,0,48.2,35.827C48.045,35.836,47.9,35.842,47.744,35.842Z"/><path class="cls-1" d="M8.02,20.634a7.552,7.552,0,0,1,2.035.28A19.433,19.433,0,0,1,21.168,9.886,7.594,7.594,0,0,1,20.5,7.6,21.81,21.81,0,0,0,7.631,20.644C7.76,20.637,7.889,20.634,8.02,20.634Z"/><path class="cls-1" d="M34.831,9.886A19.433,19.433,0,0,1,45.92,20.858a7.512,7.512,0,0,1,1.824-.224c.212,0,.422.011.63.028A21.812,21.812,0,0,0,35.5,7.6,7.553,7.553,0,0,1,34.831,9.886Z"/><path class="cls-1" d="M21.12,46.1A19.432,19.432,0,0,1,10.226,35.512a7.516,7.516,0,0,1-2.206.33c-.072,0-.142,0-.213-.006A21.811,21.811,0,0,0,20.484,48.4,7.554,7.554,0,0,1,21.12,46.1Z"/><ellipse class="cls-2" cx="28" cy="7.802" rx="3.783" ry="3.802"/><ellipse class="cls-2" cx="28.118" cy="48.198" rx="3.783" ry="3.802"/><ellipse class="cls-2" cx="48.217" cy="28.238" rx="3.783" ry="3.802"/><ellipse class="cls-2" cx="7.783" cy="28.238" rx="3.783" ry="3.802"/><polygon class="cls-3" points="35.227 20.04 25.741 30.052 21.365 26.037 18.187 29.53 25.972 36.673 38.64 23.302 35.227 20.04"/></g></svg>