<?xml version="1.0" encoding="utf-8"?>
<!-- Generator: Adobe Illustrator 22.1.0, SVG Export Plug-In . SVG Version: 6.00 Build 0)  -->
<svg version="1.1" id="Layer_1" xmlns="http://www.w3.org/2000/svg" xmlns:xlink="http://www.w3.org/1999/xlink" x="0px" y="0px"
	 viewBox="0 0 48 48" style="enable-background:new 0 0 48 48;" xml:space="preserve">
<style type="text/css">
	.st0{fill:#1B90CD;}
</style>
<g>
	<path class="st0" d="M40,21.5l-0.8,0L39,20.7c-0.8-2.7-3.3-4.5-6.1-4.5c-0.9,0-1.8,0.2-2.7,0.6l-0.8,0.4L29,16.4
		c-2.3-2.9-5.8-4.6-9.5-4.6c-6.3,0-11.6,4.9-12.1,11.1l-0.1,0.9l-0.9,0.1C3.3,24.3,1,26.9,1,30c0,3.4,2.8,6.1,6.1,6.1h32.7
		c3.9,0,7.1-3.3,7.1-7.4C47,24.8,43.9,21.5,40,21.5z M45.3,28.8c0,3.1-2.4,5.6-5.4,5.6H7.1c-2.5,0-4.4-2-4.4-4.4
		c0-2.2,1.7-4.1,3.9-4.4l2.2-0.3L9,23.1c0.5-5.4,5-9.6,10.4-9.6c3.2,0,6.2,1.4,8.2,4l1.4,1.7l2-0.9c0.6-0.3,1.3-0.4,1.9-0.4
		c2,0,3.9,1.4,4.5,3.3l0.6,1.9l2,0C42.9,23.2,45.3,25.8,45.3,28.8z"/>
	<g>
		<path class="st0" d="M20.2,23.9c0-0.5-0.4-0.8-0.8-0.8c-0.2,0-0.4,0.1-0.6,0.2l-4.3,2.9c-0.2,0.1-0.5,0.3-0.5,0.8
			c0,0.5,0.3,0.7,0.5,0.8l4.3,2.8c0.1,0.1,0.3,0.2,0.6,0.2c0.4,0,0.8-0.4,0.8-0.9c0-0.4-0.2-0.6-0.5-0.8l-3.4-2.2l3.3-2.2
			C19.9,24.6,20.2,24.4,20.2,23.9z"/>
		<path class="st0" d="M25.3,22.6c-0.4,0.1-0.6,0.4-0.7,0.7l-2.8,7.2l0,0c-0.1,0.2-0.2,0.4-0.1,0.7c0.1,0.4,0.4,0.7,0.8,0.7
			c0,0,0.1,0,0.1,0c0.5-0.1,0.6-0.4,0.7-0.6l2.9-7.4c0-0.1,0.1-0.3,0.1-0.6C26.2,22.8,25.8,22.5,25.3,22.6z"/>
		<path class="st0" d="M33.5,26.1l-4.3-2.9c-0.2-0.1-0.4-0.2-0.6-0.2c-0.4,0-0.8,0.4-0.8,0.9c0,0.5,0.3,0.7,0.5,0.8l3.3,2.2
			l-3.4,2.2c-0.2,0.1-0.5,0.4-0.5,0.8c0,0.5,0.4,0.9,0.8,0.9c0.3,0,0.5-0.1,0.6-0.2l4.3-2.8c0.2-0.1,0.5-0.3,0.5-0.8
			C34,26.5,33.7,26.3,33.5,26.1z"/>
	</g>
</g>
</svg>
