<svg id="document-service" xmlns="http://www.w3.org/2000/svg" viewBox="0 0 56 56"><defs><style>.cls-1{fill:#0092d1;}.cls-2{fill:#5a7a94;}</style></defs><title>document-service</title><path class="cls-1" d="M49,20h-.2L43,8H13L7.2,20H7a2.946,2.946,0,0,0-3,3V44a2.946,2.946,0,0,0,3,3H49a2.946,2.946,0,0,0,3-3V23A2.946,2.946,0,0,0,49,20Zm-3.2-.1H10.1l4.6-9.6H41.3M7,44V23H49V44Z"/><polygon class="cls-2" points="34 38 22 38 22 36.5 19 36.5 19 38 19 41 37 41 37 38 37 36.5 34 36.5 34 38"/><line class="cls-1" x1="41.3" y1="10.3" x2="45.8" y2="19.9"/><rect class="cls-2" x="14.1" y="16.1" width="27.8" height="1.5"/><rect class="cls-2" x="16" y="12.4" width="24" height="1.5"/></svg>