<svg enable-background="new 0 0 1299.1 1370.3" viewBox="0 0 1299.1 1370.3" xmlns="http://www.w3.org/2000/svg"><g fill="#303948"><path d="m676.7 494.6v.1 158.2c0 8.2 6.7 14.9 14.9 14.9h369.1c4.7.1 8.9-2.8 10.6-7.2 1.7-4.1 72.8-177.1 76.4-185.7 0-.1-.1-.1-.1-.1-1.7 1.6-3.7 2.7-5.9 3.5-2.5.8-5.1 1.2-7.6 1.2l-442.5.4c-8.2 0-14.9 6.6-14.9 14.7z"/><path d="m760.1 177.1c6.3-6.3 13.8-11.4 22-15 4.3-1.8 8.8-3.3 13.3-4.3.1 0 .1-.1 0-.1h-252.4c-18.7 0-36.6 7.3-50 20.3l-323.1 321.5c-13 13.4-20.3 31.3-20.3 50v252.8c0 .1.1.1.1 0 2.8-13.4 9.5-25.7 19.3-35.3z"/><path d="m577.3 1174.9 83.5-83.6-109.9-110.6.4-.4-282.4-281.5-83.5 83.5c-5.2 5.2-9.3 11.3-12.2 18-3.5 8-5.3 16.6-5.2 25.4.2 12 3 23.8 8.4 34.5 6.7 13.6 15.5 26 26.1 36.8 15 15.1 247 247.7 262.1 262.9 10.3 9.7 22 17.9 34.8 24.1 10.8 5.3 22.6 8.1 34.6 8.3 8.8 0 17.4-1.7 25.5-5.2 6.5-2.9 12.6-7 17.8-12.2z"/><path d="m1148.5 894.2c-1.9-4.3-76.6-185.9-76.6-185.9-.9 4.6-3.3 9.3-6.6 12.5-57.7 57.7-458.8 459.1-470.9 471.3-6.3 6.3-13.8 11.4-22 15-5.9 2.7-12.2 4.5-18.7 5.5h257.3c18.7 0 36.6-7.3 50-20.3 0 0 282-281.9 285.3-285.3 3.4-3.3 4.3-8.4 2.2-12.8z"/><path d="m1031.7 699.4h-340c-8.2 0-14.8 6.7-14.8 14.9v158.2c0 8.1 6.6 14.7 14.8 14.8h168l176.6-176.7c1.2-1.2 1.9-2.8 1.9-4.6.1-3.7-2.9-6.6-6.5-6.6z"/><path d="m1125.4 442.8-26.8-26.7-4.4-4.4-200-198.5c-11.1-10.9-23.8-20-37.7-26.9-10.7-5.3-22.5-8.2-34.5-8.4-8.7 0-17.3 1.7-25.3 5.2-6.8 2.9-13 7-18.3 12.2l-83.4 83.5 174.5 174.5h251.9c3.3 0 6-2.7 6-6 0-1.8-.8-3.4-2-4.5z"/></g></svg>