<svg width="56" height="56" viewBox="0 0 56 56" fill="none" xmlns="http://www.w3.org/2000/svg">
<g opacity="0.96">
<rect width="56" height="56" fill="white"/>
<path fill-rule="evenodd" clip-rule="evenodd" d="M34.4595 15.4697C35.6366 14.4233 37.4584 14.5081 38.5285 15.6591L48.2412 26.1058C49.24 27.18 49.24 28.8206 48.2412 29.8949L38.5285 40.3416C37.4584 41.4925 35.6366 41.5774 34.4595 40.531C33.2824 39.4847 33.1956 37.7034 34.2657 36.5524L42.217 28.0003L34.2657 19.4483C33.1956 18.2973 33.2824 16.516 34.4595 15.4697Z" fill="#053B70"/>
<path fill-rule="evenodd" clip-rule="evenodd" d="M21.6028 15.4697C22.7799 14.4233 24.6017 14.5081 25.6718 15.6591L35.3845 26.1058C36.3833 27.18 36.3833 28.8206 35.3845 29.8949L25.6718 40.3416C24.6017 41.4925 22.7799 41.5774 21.6028 40.531C20.4257 39.4847 20.3389 37.7034 21.409 36.5524L29.3603 28.0003L21.409 19.4483C20.3389 18.2973 20.4257 16.516 21.6028 15.4697Z" fill="#0A6ED1"/>
<path fill-rule="evenodd" clip-rule="evenodd" d="M8.14418 15.5631C9.58862 14.2791 11.8191 14.3813 13.135 15.7967L22.2966 25.6505C23.5332 26.9805 23.5332 29.0185 22.2966 30.3485L13.135 40.2023C11.8191 41.6177 9.58862 41.7199 8.14419 40.4359C6.68906 39.1425 6.57945 36.9303 7.9053 35.5043L14.8828 27.9995L7.9053 20.4947C6.57945 19.0687 6.68906 16.8565 8.14418 15.5631ZM11.9261 16.9206C11.2233 16.1647 10.0171 16.1068 9.24085 16.7968C8.47532 17.4773 8.42128 18.6255 9.1142 19.3708L16.6142 27.4375C16.9087 27.7543 16.9087 28.2447 16.6142 28.5615L9.1142 36.6282L8.50975 36.0662L9.1142 36.6282C8.42128 37.3735 8.47532 38.5217 9.24085 39.2022L8.69252 39.8191L9.24085 39.2022C10.0171 39.8922 11.2233 39.8343 11.9261 39.0784L21.0877 29.2246C21.7352 28.528 21.7352 27.471 21.0877 26.7744L11.9261 16.9206Z" fill="#0A6ED1"/>
</g>
</svg>
