<?xml version="1.0" encoding="utf-8"?>
<!-- Generator: Adobe Illustrator 26.3.1, SVG Export Plug-In . SVG Version: 6.00 Build 0)  -->
<svg version="1.1" id="screening" xmlns="http://www.w3.org/2000/svg" xmlns:xlink="http://www.w3.org/1999/xlink" x="0px" y="0px"
	 viewBox="0 0 56 56" style="enable-background:new 0 0 56 56;" xml:space="preserve">
<style type="text/css">
	.st0{fill:#0A6ED1;}
	.st1{fill:#053B70;}
</style>
<path class="st0" d="M30.7,23.8c0-1.1-0.4-2.3-1.3-3c-1.7-1.7-4.4-1.7-6,0c-1.7,1.6-1.7,4.3-0.1,6c0,0,0,0,0.1,0.1
	c1.7,1.7,4.4,1.6,6.1,0C30.3,25.9,30.7,24.9,30.7,23.8L30.7,23.8z"/>
<path class="st0" d="M26.4,28c-1.7-0.1-3.4,0.4-4.8,1.4c-1.1,0.9-1.6,2.6-1.6,5h12.9c0-2.4-0.5-4.1-1.6-5
	C29.9,28.4,28.2,27.9,26.4,28z"/>
<path class="st1" d="M16.3,12.8c-1.2-1.6-3.5-2-5.1-0.8c-1.6,1.2-2,3.4-0.9,5c1.1,1.6,3.3,2,5,1l3.8,3.8c0.4-0.4,0.7-0.8,1.2-1.1
	l-3.8-3.8C17.2,15.5,17.2,14,16.3,12.8z"/>
<path class="st1" d="M42.6,26.1c-1.9-0.5-3.9,0.5-4.5,2.4l-2.2-0.2c0,0,0,0,0,0.1c0,0.5,0,1-0.1,1.6l2.2,0.2c0.2,1.5,1.2,2.7,2.7,3
	c2,0.5,4-0.6,4.5-2.6S44.5,26.7,42.6,26.1L42.6,26.1z"/>
<path class="st1" d="M30.5,40.6L29.9,38c-0.5,0.2-1,0.3-1.6,0.4l0.6,2.5c-1.3,0.6-2.1,2-2.1,3.5c0.1,2,1.8,3.6,3.8,3.5
	s3.6-1.8,3.5-3.8l0,0C34.1,42.2,32.5,40.6,30.5,40.6z"/>
<path class="st1" d="M17,31.3l-0.1-0.3c0-0.1,0-0.2-0.1-0.3l-3.1,1.4c-0.9-1.2-2.4-1.7-3.8-1.3c-2,0.5-3.1,2.5-2.6,4.5
	c0.5,2,2.5,3.1,4.5,2.6l0,0c1.9-0.5,3.1-2.4,2.6-4.4l2.9-1.4C17.2,31.9,17.1,31.6,17,31.3z"/>
<polygon class="st0" points="36.8,12.2 35.6,13.4 39.2,17 46.3,10.3 45,8.9 39.2,14.6 "/>
<path class="st0" d="M43.8,14.9c0,0.1,0,0.1,0,0.2c0,2.7-2.2,4.9-4.9,4.9c-2.7,0-4.9-2.2-4.9-4.9s2.2-4.9,4.9-4.9c0,0,0,0,0,0
	c0.6,0,1.3,0.2,1.9,0.4l0.9-0.9C40.9,9.2,40,8.9,39,8.9c-3.4,0-6.1,2.7-6.1,6.1c0,3.4,2.7,6.1,6.1,6.1c3.4,0,6.1-2.7,6.1-6.1
	c0-0.4-0.1-0.8-0.2-1.3L43.8,14.9z"/>
</svg>
