<svg id="Layer_1" data-name="Layer 1" xmlns="http://www.w3.org/2000/svg" viewBox="0 0 130 130"><defs><style>.cls-1{fill:red;}.cls-2{fill:#fff;}</style></defs><path class="cls-1" d="M124.21,82.5c-3.51-3.77-10.87-5.76-21.28-5.76a123,123,0,0,0-19.71,1.81,94.44,94.44,0,0,1-12.15-14,120.64,120.64,0,0,1-7.53-11.83c3.69-11.4,6.26-22.35,6.26-30.67,0-6.24-2-16.51-11.28-16.51a7.6,7.6,0,0,0-6.29,3.75c-3.91,6.72-2.14,22,5,37.49-2.47,7.44-5.27,15-8.79,23.44A205.14,205.14,0,0,1,38.3,91.09c-20.15,8-33,17-34.32,24.25a6.93,6.93,0,0,0,2.24,6.56,10.7,10.7,0,0,0,7.27,2.52c11.58,0,24.47-16.94,34.15-34.3,5.38-1.86,11-3.58,16.81-5.12,6.28-1.67,12.35-3,18-4,14,12.66,26.39,14.56,32.55,14.56,7.69,0,9.88-3.18,10.65-5.21A8,8,0,0,0,124.21,82.5Zm-70-72A4.89,4.89,0,0,1,58.4,7.89c3.45,0,5.34,3.05,5.36,8.6,0,6-1.92,15.81-5.49,27C51.55,27.8,51.46,15.26,54.23,10.5Zm-48,105.27c1.13-6,12.6-14.12,30.18-21.42-9.8,16.74-19.44,27-25.48,27a4.5,4.5,0,0,1-3.16-1.16A4.62,4.62,0,0,1,6.25,115.77ZM80.34,79.05c-5.25,1-10.78,2.2-16.48,3.71-5,1.32-9.88,2.79-14.58,4.36,2.73-5.13,5.11-10.18,7-14.69,2.25-5.43,4.41-11.1,6.31-16.73,2,3.47,4.21,6.9,6.62,10.25A98.35,98.35,0,0,0,80.37,79h0Zm5.11,1.49c11.8-2.14,22.15-1.75,26.6-.83s7,3.68,6.19,7.73-5.71,6.09-11.16,4.79C98.34,90.15,91.19,85.47,85.45,80.54Z"/><path class="cls-2" d="M47.71,119.36H43.57L42.73,122a.22.22,0,0,1-.22.16H40.42c-.12,0-.16-.07-.13-.2l3.59-10.32c0-.11.07-.23.1-.37a3.77,3.77,0,0,0,.08-.72c0-.09,0-.13.12-.13H47c.08,0,.13,0,.14.09L51.24,122c0,.12,0,.18-.11.18H48.8a.18.18,0,0,1-.18-.13Zm-3.49-2.26h2.83c-.07-.24-.16-.51-.25-.8l-.31-1c-.11-.34-.21-.68-.32-1s-.21-.67-.3-1-.17-.6-.24-.87h0c-.08.42-.21.9-.37,1.44s-.34,1.08-.51,1.64S44.38,116.62,44.22,117.1Z"/><path class="cls-2" d="M56.47,122.32a5.47,5.47,0,0,1-2.39-.51,3.78,3.78,0,0,1-1.68-1.51,4.88,4.88,0,0,1-.61-2.53,4.76,4.76,0,0,1,.61-2.35,4.47,4.47,0,0,1,1.78-1.72,5.69,5.69,0,0,1,2.81-.65h.23l.34,0v-3.53c0-.08,0-.12.11-.12h2.26c.07,0,.1,0,.1.1v10.59q0,.3,0,.66c0,.24,0,.46,0,.65a.2.2,0,0,1-.11.18,8.42,8.42,0,0,1-1.81.53A9.54,9.54,0,0,1,56.47,122.32Zm1.09-2.23V115.2l-.29,0-.37,0a2.77,2.77,0,0,0-1.25.29,2.33,2.33,0,0,0-.94.82,2.43,2.43,0,0,0-.37,1.42,3,3,0,0,0,.19,1.14,2,2,0,0,0,.5.79,1.8,1.8,0,0,0,.75.45,2.81,2.81,0,0,0,.92.14h.47A2.24,2.24,0,0,0,57.56,120.09Z"/><path class="cls-2" d="M66.13,113.05a4.65,4.65,0,0,1,1.89.37,4,4,0,0,1,1.38,1,4.54,4.54,0,0,1,.81,1.48,5.48,5.48,0,0,1,.27,1.72,5.12,5.12,0,0,1-.56,2.45,4,4,0,0,1-1.55,1.63,4.36,4.36,0,0,1-2.3.6,4.6,4.6,0,0,1-2-.39,3.93,3.93,0,0,1-1.38-1.06,4.68,4.68,0,0,1-.8-1.49,5.91,5.91,0,0,1-.25-1.69,5,5,0,0,1,.54-2.31,4.3,4.3,0,0,1,1.53-1.69A4.36,4.36,0,0,1,66.13,113.05ZM66,115.13a1.47,1.47,0,0,0-.93.31,2.1,2.1,0,0,0-.67.86,3.41,3.41,0,0,0-.25,1.36,3.46,3.46,0,0,0,.25,1.35,2.26,2.26,0,0,0,.69.9,1.6,1.6,0,0,0,1,.33,1.55,1.55,0,0,0,.94-.3,1.79,1.79,0,0,0,.65-.87,3.56,3.56,0,0,0,.23-1.38,4.06,4.06,0,0,0-.19-1.29,2.09,2.09,0,0,0-.62-.92A1.72,1.72,0,0,0,66,115.13Z"/><path class="cls-2" d="M72.25,109.44h2.19a.12.12,0,0,1,.14.14l0,3.67a5.88,5.88,0,0,1,.73-.14,4.59,4.59,0,0,1,.76-.06,4.44,4.44,0,0,1,2.3.58,4.05,4.05,0,0,1,1.49,1.53,4.42,4.42,0,0,1,.52,2.16,5.14,5.14,0,0,1-.44,2.2,4.55,4.55,0,0,1-1.21,1.55A5.45,5.45,0,0,1,77,122a6.42,6.42,0,0,1-2,.32,11.17,11.17,0,0,1-1.42-.1,7.93,7.93,0,0,1-1.38-.33.15.15,0,0,1-.12-.17V109.56C72.11,109.48,72.16,109.44,72.25,109.44Zm5.61,8.13a2.87,2.87,0,0,0-.29-1.37,1.83,1.83,0,0,0-.78-.78,2.5,2.5,0,0,0-1.13-.25,3.91,3.91,0,0,0-.67,0l-.39.1v4.87l.32,0,.34,0a2.9,2.9,0,0,0,1.29-.28,2.12,2.12,0,0,0,1-.88A2.89,2.89,0,0,0,77.86,117.57Z"/><path class="cls-2" d="M87.64,118.34H84.11a2.31,2.31,0,0,0,.34.94,1.85,1.85,0,0,0,.82.67,3.38,3.38,0,0,0,1.42.25,6.19,6.19,0,0,0,1.16-.1,4.86,4.86,0,0,0,1.05-.31c0-.05.08,0,.08.09v1.7a.28.28,0,0,1,0,.14.6.6,0,0,1-.08.08,5.54,5.54,0,0,1-1.17.38,7.74,7.74,0,0,1-1.57.14,5.21,5.21,0,0,1-2.14-.4,3.79,3.79,0,0,1-1.39-1,4.07,4.07,0,0,1-.77-1.47,5.58,5.58,0,0,1-.24-1.62,5.79,5.79,0,0,1,.28-1.76,4.58,4.58,0,0,1,.83-1.52,4,4,0,0,1,1.35-1.06,4.6,4.6,0,0,1,3.59,0,3.18,3.18,0,0,1,1.17.93,4.26,4.26,0,0,1,.67,1.26,4.59,4.59,0,0,1,.21,1.36q0,.39,0,.72c0,.21,0,.37,0,.46a.16.16,0,0,1-.16.15l-.37,0-.64,0Zm-3.53-1.74h3a1.11,1.11,0,0,0,.26,0v-.11a1.31,1.31,0,0,0-.07-.41,1.54,1.54,0,0,0-.25-.47,1.38,1.38,0,0,0-.47-.39,1.49,1.49,0,0,0-.73-.17,1.59,1.59,0,0,0-1.48.85A2.5,2.5,0,0,0,84.11,116.6Z"/><path class="cls-2" d="M95.58,122V110.55c0-.09,0-.13.1-.13h.68l.86,0h2a6.68,6.68,0,0,1,2.3.34,3.85,3.85,0,0,1,1.49.91,3.47,3.47,0,0,1,.82,1.26,4.13,4.13,0,0,1,.25,1.45,4,4,0,0,1-.66,2.36A3.79,3.79,0,0,1,101.6,118a7.18,7.18,0,0,1-2.51.42h-1V122a.15.15,0,0,1-.16.16H95.7Q95.58,122.14,95.58,122Zm2.47-9.42v3.71l.43,0h.59a4.21,4.21,0,0,0,1.28-.18,1.93,1.93,0,0,0,.91-.59,1.7,1.7,0,0,0,.35-1.15,1.79,1.79,0,0,0-.26-1,1.66,1.66,0,0,0-.78-.63,3.25,3.25,0,0,0-1.3-.23h-.76Z"/><path class="cls-2" d="M105.77,122v-11.4a.13.13,0,0,1,.13-.14l.78,0h2.71a7.67,7.67,0,0,1,3.56.73,4.91,4.91,0,0,1,2.13,2,6,6,0,0,1,.7,2.94,6.75,6.75,0,0,1-.36,2.29,5.38,5.38,0,0,1-1,1.71,5.86,5.86,0,0,1-1.44,1.19,6.29,6.29,0,0,1-1.72.7,7.53,7.53,0,0,1-1.81.22h-2.65l-.91,0C105.81,122.14,105.77,122.08,105.77,122Zm2.47-9.39V120h1.08a4.74,4.74,0,0,0,1.59-.25,3.34,3.34,0,0,0,1.23-.75,3.43,3.43,0,0,0,.79-1.24,4.78,4.78,0,0,0,.27-1.66,4.41,4.41,0,0,0-.26-1.57,3,3,0,0,0-.78-1.13,3.22,3.22,0,0,0-1.22-.67,5.42,5.42,0,0,0-1.55-.22h-.6Z"/><path class="cls-2" d="M120.16,117.6V122a.14.14,0,0,1-.15.16h-2.2a.11.11,0,0,1-.1,0,.2.2,0,0,1,0-.11V110.53a.12.12,0,0,1,.13-.13h7.09a.14.14,0,0,1,.18.15l.2,2s0,0,0,.09a.16.16,0,0,1-.11,0h-5v2.73h4.48c.1,0,.16,0,.16.12v2c0,.1,0,.14-.15.14Z"/></svg>