<svg id="dqaas" xmlns="http://www.w3.org/2000/svg" viewBox="0 0 56 56"><defs><style>.cls-1{fill:#053b70;}.cls-2{fill:#0a6ed1;}</style></defs><title>dqaas</title><path class="cls-1" d="M19.1,28a36.835,36.835,0,0,1,.621-6H36.483a25.8,25.8,0,0,1,.446,2.991h3A25.8,25.8,0,0,0,39.483,22h8.689A25.255,25.255,0,0,1,49,25h3A24.4,24.4,0,0,0,28,4,23.951,23.951,0,0,0,4,28C4,41.034,15.069,51.69,28,52V47.345A18.683,18.683,0,0,1,20.448,37H28V34H19.724A28.791,28.791,0,0,1,19.1,28Zm27.828-9H38.759c-1.449-4.966-3.828-9-6.931-11.586A20.5,20.5,0,0,1,46.931,19ZM28,8.345c3.414,1.862,6.1,5.689,7.655,10.655H20.448C21.9,14.034,24.69,10.207,28,8.345Zm-3.828-.931C21.069,10,18.69,14.138,17.345,19H9.069A20.679,20.679,0,0,1,24.172,7.414ZM7,28a22.743,22.743,0,0,1,.931-6h8.586A37.055,37.055,0,0,0,16,28a38.108,38.108,0,0,0,.517,6H7.931A22.743,22.743,0,0,1,7,28ZM24.172,48.586A21.177,21.177,0,0,1,9.069,37h8.172A24.37,24.37,0,0,0,24.172,48.586Z"/><path class="cls-2" d="M37.894,36.8l-.9.9a.608.608,0,0,0,0,.8l5.6,6.2a.668.668,0,0,0,1-.1l8.3-12.2a.494.494,0,0,0-.1-.7l-1-.9a.555.555,0,0,0-.9.1l-6.6,9.3a.59.59,0,0,1-.9.2l-3.6-3.6A.561.561,0,0,0,37.894,36.8Z"/><path class="cls-2" d="M49,46v3.7H34V34h6V31H32.4A1.43,1.43,0,0,0,31,32.4V50.6A1.367,1.367,0,0,0,32.4,52H50.6A1.367,1.367,0,0,0,52,50.6V46Z"/></svg>