<svg id="cloud-for-analytics" xmlns="http://www.w3.org/2000/svg" viewBox="0 0 56 56"><defs><style>.cls-1{fill:#0a6ed1;}.cls-2{fill:#053b70;}</style></defs><title>cloud-for-analytics</title><path class="cls-1" d="M29,33.471,41.947,46.422A23.3,23.3,0,0,1,29,51.857a28.105,28.105,0,0,1-3.894,0A23.078,23.078,0,0,1,6.808,39.9,22.547,22.547,0,0,1,4,28.943,22.745,22.745,0,0,1,9.434,13.909a36.57,36.57,0,0,1,2.717-2.626A22.76,22.76,0,0,1,25.1,5.849V29.668Z"/><path class="cls-2" d="M50.641,20.521,30.355,29.487,44.573,43.8l1.449,1.268A24.03,24.03,0,0,0,52,28.943,26.448,26.448,0,0,0,50.641,20.521Z"/><path class="cls-2" d="M49.011,16.989A24.809,24.809,0,0,0,29,4.038V25.864L47.2,17.8Z"/></svg>