<svg xmlns="http://www.w3.org/2000/svg" version="1.1" xmlns:xlink="http://www.w3.org/1999/xlink" xmlns:svgjs="http://svgjs.dev/svgjs" viewBox="0 0 56 56"><circle r="23" cx="50%" cy="50%" stroke-opacity="1" stroke-width="2" stroke="#074d92" fill-opacity="1" fill="#ffffff"></circle><svg viewBox="0 0 56 56" height="30" x="0" y="25%"><svg version="1.1" id="alert-notification" xmlns="http://www.w3.org/2000/svg" xmlns:xlink="http://www.w3.org/1999/xlink" x="0px" y="0px" viewBox="0 0 56 56" style="enable-background:new 0 0 56 56;" xml:space="preserve" height="100%" width="100%">
<style type="text/css">
	.st0{fill:#053B70;}
	.st1{fill:#0A6ED1;}
	.st2{font-family:'72-Bold';}
	.st3{font-size:8px;}
	.st4{fill:none;}
</style>
<path class="st0" d="M32.2,26.9l-1.5,0.8c0.8,4.4-2.1,8.7-6.5,9.5s-8.7-2.1-9.5-6.5c-0.8-4.4,2.1-8.7,6.5-9.5c0.5-0.1,1-0.1,1.5-0.1
	l0,0v-1.6l0,0c-5.4,0-9.8,4.3-9.8,9.7s4.3,9.8,9.7,9.8s9.8-4.3,9.8-9.7C32.5,28.5,32.4,27.7,32.2,26.9L32.2,26.9z"></path>
<path class="st0" d="M21.7,34.3l0.1-0.5l0.1-0.2l1.7-1.6v-1.3L22.9,30l-2.3-0.2l-0.4-0.3V29l-0.4-0.4l0.5-0.5l0.3,0.1l0.1-0.2h0.8
	l0.1,0.6h0.3L21.7,28l0.9-0.5l-0.2-0.4h0.5L22.7,27l0.3-0.3l-0.3-0.5v-0.3l-0.6,0.4l-0.2,0.3h-0.3v-0.4l0.6-0.6L22,25h-1l-0.6,0.6
	l-0.7-0.1l0.6-1.3c-0.1,0-0.1-0.1-0.1-0.2v-0.1c-0.2,0-0.5-0.1-0.7-0.2s-0.4-0.2-0.7-0.2c-0.2,0-0.4,0.1-0.6,0.2
	c-0.3,0.2-0.5,0.4-0.8,0.6s-0.5,0.5-0.7,0.7s-0.3,0.4-0.3,0.6l0.1,0.4l0.6,0.4l0.2,0.7V28l0.5,1.1L18,29l-0.4-0.7l0.2,0.3l0.2,0.2
	c0.4,0.4,1,0.7,1.5,0.6l0.4,0.5L19,31l1,0.9c0.1,0.4,0.1,0.8,0.2,1.2c0,0.3,0.1,0.6,0.2,0.9l0.4,0.9l0.3,0.7c0.1,0,0.1,0,0.2,0
	l0.1-0.1c0,0,0,0,0-0.1c0,0,0,0,0-0.1v-0.4L21.7,34.3z"></path>
<path class="st0" d="M23,24.4c0.1,0,0.3,0,0.4,0.1c0.1-0.1,0.3-0.1,0.4-0.1c0,0,0,0.1,0.1,0.3s0.2,0.3,0.3,0.3l0.3-0.2l0.3-0.5
	l0.2-0.4c-0.4-0.2-0.7-0.5-0.8-0.9c-0.1,0.1-0.2,0.1-0.3,0.2c-0.2,0.1-0.4,0.3-0.6,0.5s-0.4,0.4-0.6,0.7h0.1
	C23,24.4,23,24.4,23,24.4z"></path>
<path class="st0" d="M27.8,30.3l0.5,0.8l0.1,0.3v0.3c0,0.4,0,0.8-0.1,1.2c-0.1,0.3-0.1,0.6-0.1,0.9c0,0.2,0,0.2,0.1,0.2
	c0.3-0.7,0.7-1.4,1-2.2c0.4-0.8,0.5-1.6,0.5-2.4c0-0.3,0-0.7-0.1-1c0-0.3-0.2-0.6-0.5-0.8c-0.1,0-0.2,0-0.4-0.1c-0.1,0-0.2,0-0.4,0
	c-0.1,0-0.2,0-0.3,0c-0.1,0-0.2,0-0.2,0c-0.1,0-0.1,0-0.2-0.1c-0.3,0.1-0.6,0.2-0.9,0.3c-0.2,0-0.4,0.1-0.6,0.1L26,29.2l0.4,0.8
	L27.8,30.3z"></path>
<text transform="matrix(1 0 0 1 26.1 25.0505)" class="st1 st2 st3" svgjs:data="{&quot;leading&quot;:&quot;1.3&quot;}">IBAN</text>
<rect x="147.5" y="17.6" class="st4" width="3" height="1.2"></rect>
</svg></svg></svg>