<svg xmlns="http://www.w3.org/2000/svg" version="1.1" xmlns:xlink="http://www.w3.org/1999/xlink" xmlns:svgjs="http://svgjs.dev/svgjs" viewBox="0 0 56 56"><circle r="23" cx="50%" cy="50%" stroke-opacity="1" stroke-width="2" stroke="#074d92" fill-opacity="1" fill="#ffffff"></circle><svg viewBox="0 0 56 56" height="30" x="0" y="25%"><svg id="keystore-service" xmlns="http://www.w3.org/2000/svg" viewBox="0 0 56 56" height="100%" width="100%"><defs><style>.cls-1{fill:#053b70;}.cls-2{fill:#0a6ed1;}</style></defs><title>keystore-service</title><path class="cls-1" d="M41.818,12.25a13.456,13.456,0,0,0-3.234-4.266A16.139,16.139,0,0,0,33.8,5.078,15.644,15.644,0,0,0,27.99,4a16,16,0,0,0-5.859,1.078,15.288,15.288,0,0,0-4.782,2.906,13.718,13.718,0,0,0-3.187,4.266A11.951,11.951,0,0,0,12.99,17.5L12.9,25.938H42.99V17.5A11.979,11.979,0,0,0,41.818,12.25ZM38.79,25H17.1l.094-7.547a9.64,9.64,0,0,1,3.6-7.663c1.749-1.459,3.6-2.19,7.2-2.19a10.023,10.023,0,0,1,7.2,2.667,8.743,8.743,0,0,1,3.6,7.186Z"></path><path class="cls-1" d="M28.375,30.586a3.541,3.541,0,0,0-3.57,3.57A3.68,3.68,0,0,0,26.38,37.2v7.035a2,2,0,0,0,3.99,0V37.2a3.68,3.68,0,0,0,1.575-3.045A3.541,3.541,0,0,0,28.375,30.586Z"></path><path class="cls-2" d="M42.967,31.081a2.979,2.979,0,0,0-.891-2.193A2.891,2.891,0,0,0,39.967,28h-24a2.845,2.845,0,0,0-2.157.888,3.06,3.06,0,0,0-.843,2.193V45.919a3.065,3.065,0,0,0,.843,2.2A2.843,2.843,0,0,0,15.967,49h24a2.889,2.889,0,0,0,2.109-.886,2.983,2.983,0,0,0,.891-2.2Zm0-5.143a5.767,5.767,0,0,1,2.179,2.109,5.641,5.641,0,0,1,.821,3.047V46a5.728,5.728,0,0,1-1.782,4.266A5.857,5.857,0,0,1,39.967,52h-24a5.922,5.922,0,0,1-6-6V31.094a5.888,5.888,0,0,1,.8-3.047,5.972,5.972,0,0,1,2.109-2.109,10.372,10.372,0,0,1,4.2-.938H38.767A10.546,10.546,0,0,1,42.967,25.938Z"></path></svg></svg></svg>