<svg xmlns="http://www.w3.org/2000/svg" version="1.1" xmlns:xlink="http://www.w3.org/1999/xlink" xmlns:svgjs="http://svgjs.dev/svgjs" viewBox="0 0 56 56"><circle r="23" cx="50%" cy="50%" stroke-opacity="1" stroke-width="2" stroke="#074d92" fill-opacity="1" fill="#ffffff"></circle><svg viewBox="0 0 56 56" height="30" x="0" y="25%"><svg id="authorization-management" xmlns="http://www.w3.org/2000/svg" viewBox="0 0 56 56" height="100%" width="100%"><defs><style>.cls-1{fill:#053b70;}.cls-2{fill:#0a6ed1;}</style></defs><title>authorization-management</title><path class="cls-1" d="M48.658,14.02a2.4,2.4,0,0,0-.908-.879h.01V9.625a4.989,4.989,0,0,0-.489-2.187A5.6,5.6,0,0,0,45.924,5.66a6.728,6.728,0,0,0-1.992-1.211A6.524,6.524,0,0,0,41.51,4a6.671,6.671,0,0,0-2.442.449A6.366,6.366,0,0,0,37.076,5.66a5.727,5.727,0,0,0-1.328,1.778,4.974,4.974,0,0,0-.488,2.187l-.039,3.511-.01.005a2.482,2.482,0,0,0-.879.879A2.453,2.453,0,0,0,34,15.289V21.5A2.469,2.469,0,0,0,36.5,24h10a2.443,2.443,0,0,0,1.758-.723A2.386,2.386,0,0,0,49,21.5V15.289A2.342,2.342,0,0,0,48.658,14.02ZM37.01,9.605a4.018,4.018,0,0,1,1.5-3.193,4.154,4.154,0,0,1,3-.912,4.176,4.176,0,0,1,3,1.111,3.643,3.643,0,0,1,1.5,2.994V12.75H36.971ZM42.5,17.834v2.931a.832.832,0,0,1-1.663,0V17.834a1.534,1.534,0,0,1-.656-1.269,1.488,1.488,0,1,1,2.975,0A1.536,1.536,0,0,1,42.5,17.834Z"></path><path class="cls-2" d="M33.3,39.52A8.98,8.98,0,0,0,28.48,34.7,8.809,8.809,0,0,0,25,34H16a8.734,8.734,0,0,0-3.516.7,9.14,9.14,0,0,0-2.847,1.934A9.017,9.017,0,0,0,7.7,39.52,8.791,8.791,0,0,0,7,43v9H34V43A8.809,8.809,0,0,0,33.3,39.52ZM31,49H10V43a5.781,5.781,0,0,1,.464-2.307,6,6,0,0,1,1.294-1.935,6.122,6.122,0,0,1,1.921-1.3A5.716,5.716,0,0,1,16,37h9a5.783,5.783,0,0,1,2.3.463,5.979,5.979,0,0,1,3.232,3.229A5.8,5.8,0,0,1,31,43Z"></path><path class="cls-2" d="M26.863,31.363A9.14,9.14,0,0,0,28.8,28.516a9.054,9.054,0,0,0,0-7A8.98,8.98,0,0,0,23.98,16.7a9.054,9.054,0,0,0-7,0,9.14,9.14,0,0,0-2.847,1.934A9.017,9.017,0,0,0,12.2,21.52a9.054,9.054,0,0,0,0,7A9.174,9.174,0,0,0,16.984,33.3a9.054,9.054,0,0,0,7,0A9.017,9.017,0,0,0,26.863,31.363ZM20.5,31a5.7,5.7,0,0,1-2.322-.455,6.166,6.166,0,0,1-3.224-3.227A5.684,5.684,0,0,1,14.5,25a5.781,5.781,0,0,1,.464-2.307,6,6,0,0,1,1.294-1.935,6.122,6.122,0,0,1,1.921-1.3A5.716,5.716,0,0,1,20.5,19a5.783,5.783,0,0,1,2.3.463,5.979,5.979,0,0,1,3.232,3.229A5.8,5.8,0,0,1,26.5,25a5.716,5.716,0,0,1-.454,2.319,6.127,6.127,0,0,1-1.3,1.923,6.009,6.009,0,0,1-1.937,1.295A5.781,5.781,0,0,1,20.5,31Z"></path></svg></svg></svg>