<svg xmlns="http://www.w3.org/2000/svg" version="1.1" xmlns:xlink="http://www.w3.org/1999/xlink" xmlns:svgjs="http://svgjs.dev/svgjs" viewBox="0 0 56 56"><circle r="23" cx="50%" cy="50%" stroke-opacity="1" stroke-width="2" stroke="#074d92" fill-opacity="1" fill="#ffffff"></circle><svg viewBox="0 0 56 56" height="30" x="0" y="25%"><svg id="jobscheduler" xmlns="http://www.w3.org/2000/svg" viewBox="0 0 56 56" height="100%" width="100%"><defs><style>.cls-1{fill:#053b70;}.cls-2{fill:#0a6ed1;}</style></defs><title>jobscheduler1</title><path class="cls-1" d="M48.154,7.891A2.858,2.858,0,0,0,45.993,7H40V4H37V7H19V4H16V7H10.007a2.853,2.853,0,0,0-2.161.891A2.96,2.96,0,0,0,7,10V49a2.888,2.888,0,0,0,3,3H46a2.892,2.892,0,0,0,3-3V10A2.96,2.96,0,0,0,48.154,7.891ZM37,10h3v3H37ZM16,10h3v3H16ZM46,49H10V16H46Z"></path><path class="cls-2" d="M22.55,27.33a5.854,5.854,0,0,0,.637-1.486h1.8v-1.7h-1.8a4.453,4.453,0,0,0-.265-.77c-.106-.229-.231-.467-.372-.716l1.274-1.273L22.6,20.167,21.33,21.441a6.547,6.547,0,0,0-1.539-.637V19h-1.7v1.8a7.643,7.643,0,0,0-1.433.637l-1.326-1.274-1.168,1.221,1.274,1.273a3.376,3.376,0,0,0-.637,1.486H13v1.7h1.8a3.5,3.5,0,0,0,.637,1.486l-1.274,1.326,1.168,1.168,1.326-1.274a3.487,3.487,0,0,0,1.433.637v1.8h1.7v-1.8a4.437,4.437,0,0,0,1.539-.637L22.6,29.824l1.22-1.168Zm-1.75-.5a2.5,2.5,0,0,1-3.608,0A2.541,2.541,0,0,1,16.449,25a2.369,2.369,0,0,1,.743-1.777,2.631,2.631,0,0,1,3.608,0A2.375,2.375,0,0,1,21.542,25,2.548,2.548,0,0,1,20.8,26.826Z"></path><path class="cls-2" d="M42.927,33.85a1.111,1.111,0,0,0,.026-.717l-.583-1.485a.889.889,0,0,0-.5-.5.969.969,0,0,0-.663-.027l-1.645.637a7.311,7.311,0,0,0-1.8-1.963l.69-1.592a.791.791,0,0,0,.026-.663.91.91,0,0,0-.451-.5l-1.539-.69a.963.963,0,0,0-.663.027.9.9,0,0,0-.5.451l-.69,1.538c-.248-.035-.495-.069-.742-.106a5.718,5.718,0,0,0-.8-.053,3.42,3.42,0,0,0-.61.053c-.2.037-.382.071-.558.106l-.636-1.645a.729.729,0,0,0-.451-.5.968.968,0,0,0-.663-.026l-1.486.637a.8.8,0,0,0-.531.451.731.731,0,0,0,0,.663l.584,1.591a9.061,9.061,0,0,0-1.963,1.911l-1.539-.69a.922.922,0,0,0-.716-.027.907.907,0,0,0-.5.451l-.637,1.486a.784.784,0,0,0-.026.663.893.893,0,0,0,.451.5l1.591.69a7.338,7.338,0,0,0-.159,1.539c0,.212.008.416.027.61a4.7,4.7,0,0,0,.079.557l-1.645.636a.806.806,0,0,0-.477.451.848.848,0,0,0,0,.717l.584,1.539a.789.789,0,0,0,.451.477.845.845,0,0,0,.716,0l1.592-.584a4.7,4.7,0,0,0,.848,1.009c.319.283.654.567,1.009.848l-.69,1.592a.818.818,0,0,0,.477,1.221l1.433.636a.791.791,0,0,0,.663.027.914.914,0,0,0,.5-.451l.69-1.592a8.109,8.109,0,0,0,1.592.159c.175,0,.361-.008.557-.026a4.785,4.785,0,0,0,.557-.08l.637,1.645a1.04,1.04,0,0,0,.477.477.781.781,0,0,0,.69,0l1.539-.583a.729.729,0,0,0,.5-.451,1.119,1.119,0,0,0,.026-.717l-.637-1.591a10.8,10.8,0,0,0,1.035-.849,9.265,9.265,0,0,0,.876-.955l1.591.69a1.061,1.061,0,0,0,.664,0,.794.794,0,0,0,.5-.478l.689-1.486a1.072,1.072,0,0,0,0-.663.8.8,0,0,0-.477-.5l-1.592-.69a8.1,8.1,0,0,0,.159-1.591c0-.176-.01-.362-.026-.557s-.045-.38-.08-.558l1.645-.636A.723.723,0,0,0,42.927,33.85Zm-5.094,4.218a4.825,4.825,0,0,1-1.114,1.645A5.4,5.4,0,0,1,35.074,40.8a5.007,5.007,0,0,1-1.989.4,4.884,4.884,0,0,1-3.635-1.485,5.02,5.02,0,0,1-1.459-3.661,4.957,4.957,0,0,1,1.459-3.608,4.888,4.888,0,0,1,3.635-1.486,5.007,5.007,0,0,1,1.989.4,5.426,5.426,0,0,1,1.645,1.088,4.9,4.9,0,0,1,1.114,1.618,4.991,4.991,0,0,1,.4,1.99A5.175,5.175,0,0,1,37.833,38.068Z"></path></svg></svg></svg>