<svg xmlns="http://www.w3.org/2000/svg" version="1.1" xmlns:xlink="http://www.w3.org/1999/xlink" xmlns:svgjs="http://svgjs.dev/svgjs" viewBox="0 0 56 56"><circle r="23" cx="50%" cy="50%" stroke-opacity="1" stroke-width="2" stroke="#074d92" fill-opacity="1" fill="#ffffff"></circle><svg viewBox="0 0 56 56" height="30" x="0" y="25%"><svg id="monitoring-service" xmlns="http://www.w3.org/2000/svg" viewBox="0 0 56 56" height="100%" width="100%"><defs><style>.cls-1{fill:#053b70;}.cls-2{fill:#0a6ed1;}</style></defs><title>monitoring-service</title><path class="cls-1" d="M51.2,7.8A3.3,3.3,0,0,0,49,7H7a3.227,3.227,0,0,0-2.1.8A2.94,2.94,0,0,0,4,10V40a2.878,2.878,0,0,0,.9,2.1A2.878,2.878,0,0,0,7,43H49a2.94,2.94,0,0,0,2.2-.9A2.782,2.782,0,0,0,52,40V10A3.3,3.3,0,0,0,51.2,7.8ZM49,40H7V26.7h7.9a.6.6,0,0,0,.6-.3l2-2.6,2.9,7.7a.688.688,0,0,0,.8.5.669.669,0,0,0,.7-.6L25.7,17l3.5,20.1a.849.849,0,0,0,.8.7h0a.871.871,0,0,0,.8-.6l3.9-16.7L37,26.1a.792.792,0,0,0,.8.5H49Zm0-15.1H38.5l-3.1-7.5a.891.891,0,0,0-.8-.5.749.749,0,0,0-.7.6L30.3,32.9,26.8,13a.969.969,0,0,0-.8-.7.838.838,0,0,0-.8.6L21.1,28.4l-2.5-6.7a.738.738,0,0,0-.6-.5,1.135,1.135,0,0,0-.8.3L14.5,25H7V10H49Z"></path><path class="cls-2" d="M38.5,24.9l-3.1-7.5a.891.891,0,0,0-.8-.5.749.749,0,0,0-.7.6L30.3,32.9,26.8,13a.969.969,0,0,0-.8-.7.838.838,0,0,0-.8.6L21.1,28.4l-2.5-6.7a.738.738,0,0,0-.6-.5,1.135,1.135,0,0,0-.8.3L14.5,25H7v1.7h7.9a.6.6,0,0,0,.6-.3l2-2.6,2.9,7.7a.688.688,0,0,0,.8.5.669.669,0,0,0,.7-.6L25.7,17l3.5,20.1a.849.849,0,0,0,.8.7.871.871,0,0,0,.8-.6l3.9-16.7L37,26.1a.792.792,0,0,0,.8.5H49V24.9Z"></path><path class="cls-2" d="M38.5,46h-21a1.284,1.284,0,0,0-1,.4,1.433,1.433,0,0,0-.5,1.1,1.389,1.389,0,0,0,.5,1,1.591,1.591,0,0,0,1,.5h21a1.606,1.606,0,0,0,1.1-.5,1.433,1.433,0,0,0,.4-1A1.326,1.326,0,0,0,38.5,46Z"></path></svg></svg></svg>