<svg xmlns="http://www.w3.org/2000/svg" version="1.1" xmlns:xlink="http://www.w3.org/1999/xlink" xmlns:svgjs="http://svgjs.dev/svgjs" viewBox="0 0 56 56"><circle r="23" cx="50%" cy="50%" stroke-opacity="1" stroke-width="2" stroke="#074d92" fill-opacity="1" fill="#ffffff"></circle><svg viewBox="0 0 56 56" height="30" x="0" y="25%"><svg version="1.1" id="Layer_1" xmlns="http://www.w3.org/2000/svg" xmlns:xlink="http://www.w3.org/1999/xlink" x="0px" y="0px" viewBox="0 0 126 121" style="enable-background:new 0 0 126 121;" xml:space="preserve" height="100%" width="100%">
<style type="text/css">
	.st0{fill:#0091D0;}
	.st1{fill:#5A7993;}
	.st2{enable-background:new    ;}
</style>
<g>
	<path class="st0" d="M113.8,65.5c1.3,0,2.4,0.4,3.3,1.3c0.8,0.8,1.2,1.8,1.1,3l-3.6,37c-0.1,1.4-1,2.4-2.4,3.1l-17.6,6.1
		c-0.4,0.1-0.7,0.2-1,0.3s-0.6,0.1-1,0.1c-0.3,0-0.6,0-1-0.1s-0.7-0.2-1.1-0.3l-17.6-6.1c-1.4-0.6-2.2-1.7-2.3-3.1l-3.6-37
		c-0.1-1.1,0.2-2.1,1-3c0.8-0.8,1.9-1.3,3.2-1.3H113.8z M114.5,69.4c-0.1,0-0.1,0-0.2-0.1c-0.1-0.1-0.3-0.2-0.5-0.2H71.2
		c-0.2,0-0.4,0.1-0.4,0.2c-0.1,0.1-0.1,0.1-0.2,0.1l3.6,36.9l0.1,0.1l17.5,6l0.2,0.1h0.1c0.1,0.1,0.2,0.1,0.4,0.1
		c0.2,0,0.4,0,0.4-0.1h0.1l0.2-0.1l17.4-6c0.1,0,0.1,0,0.2-0.1L114.5,69.4z M103.8,77c-0.1,0.7-0.1,1.4-0.2,2.2s-0.1,1.5-0.2,2.2
		H86.4c0.1,0.8,0.2,1.7,0.3,2.4s0.1,1.5,0.3,2.2h1.2h14c0.6,0,0.9,0.1,1,0.2c0.1,0.1,0.1,0.4,0.1,1c-0.1,0.9-0.2,1.9-0.3,2.8
		s-0.1,1.9-0.3,2.8c-0.1,1-0.1,2-0.2,3s-0.1,2-0.2,3c0,0.6-0.3,1.1-1,1.3c-1.3,0.4-2.7,0.8-4,1.3c-1.3,0.4-2.7,0.8-4,1.2
		c-0.6,0.2-1,0.2-1.4,0c-1.3-0.4-2.7-0.8-4.1-1.2c-1.4-0.4-2.7-0.8-4-1.3c-0.6-0.2-1-0.6-1-1.1c-0.1-1-0.2-1.8-0.3-2.3
		s-0.1-1.3-0.1-2.2c-0.1-0.6,0.1-0.9,0.8-0.8h3.5c0.6,0,0.8,0.2,0.8,0.8v0.1c0,0.5,0,0.8,0,0.8s0.1,0.2,0.3,0.4l0.3,0.3
		c0.1,0.1,0.1,0.1,0.2,0.1l2.3,0.6c1.1,0.4,2.3,0.5,3.4,0.1c1.1-0.4,2.2-0.7,3.4-1c0.1,0,0.2-0.1,0.4-0.2c0.1-0.9,0.1-1.8,0.2-2.6
		s0.1-1.6,0.3-2.6H82.2c-0.2-2.3-0.4-4.6-0.6-6.9S81.2,79.4,81,77L103.8,77L103.8,77z"></path>
</g>
<path class="st1" d="M111.2,40.7c-3.1-6.1-9.1-10-15.7-10.1l-0.1-0.1c-2.1-6.9-8.6-11.7-15.8-11.7c-2.4,0-4.7,0.5-6.9,1.5l-0.1,0
	l-0.1-0.1C66.9,13.1,58.5,9,49.5,9c-15.2,0-28,11.8-29.3,26.9l0,0.1L20,36c-8,1-14,7.8-14,15.8c0,8.8,7.2,16,16,16h7l29.6,0v-8.3H22
	c-4.2,0-7.7-3.5-7.7-7.7c0-3.9,2.9-7.1,6.7-7.6l6.8-0.9l0.6-6.8c0.9-10.8,10.2-19.3,21.1-19.3c6.5,0,12.5,2.9,16.6,8l4.1,5.2l6-2.8
	c1.1-0.5,2.3-0.8,3.4-0.8c3.6,0,6.8,2.4,7.9,5.8l1.8,5.9l6.2,0.1c2.3,0,4.6,1,6.4,2.8l0.2,0.2h9.8L111.2,40.7z"></path>
<g class="st2">
	<path class="st0" d="M69.7,50.1H73v4.2H77v-4.2h3.4v11.6H77v-4.4H73v4.4h-3.4V50.1z"></path>
	<path class="st0" d="M84.8,52.9h-3.4v-2.8h10.1v2.8h-3.4v8.8h-3.4V52.9z"></path>
	<path class="st0" d="M92.7,50.1h5l1.3,4.7c0.1,0.3,0.2,0.7,0.3,1.1c0.1,0.5,0.2,0.9,0.3,1.2c0.1-0.4,0.2-0.8,0.3-1.2
		s0.2-0.8,0.3-1.1l1.3-4.8h4.9v11.6h-3.1V56c0-1,0-2,0.1-2.8c-0.2,0.8-0.5,1.8-0.9,3.2l-1.5,5.3h-2.7l-1.5-5.3
		c-0.4-1.4-0.7-2.4-0.8-3.2c0,1,0,1.9,0,2.8v5.7h-3.1V50.1z"></path>
	<path class="st0" d="M108.1,50.1h3.4v8.8h4.9v2.8h-8.2V50.1z"></path>
</g>
</svg></svg></svg>