<svg xmlns="http://www.w3.org/2000/svg" version="1.1" xmlns:xlink="http://www.w3.org/1999/xlink" xmlns:svgjs="http://svgjs.dev/svgjs" viewBox="0 0 56 56"><circle r="23" cx="50%" cy="50%" stroke-opacity="1" stroke-width="2" stroke="#074d92" fill-opacity="1" fill="#ffffff"></circle><svg viewBox="0 0 56 56" height="30" x="0" y="25%"><svg id="data-privacy-integration" xmlns="http://www.w3.org/2000/svg" viewBox="0 0 56 56" height="100%" width="100%"><defs><style>.cls-1{fill:#053b70;}.cls-2{fill:#0a6ed1;}</style></defs><path class="cls-1" d="M23.26,32.83a13.478,13.478,0,0,1-.87-2.88A5.687,5.687,0,0,1,19,31a6.1,6.1,0,0,1-6-6,6.1,6.1,0,0,1,6-6,5.6,5.6,0,0,1,3,.78V16.51A8.868,8.868,0,0,0,19,16a8.583,8.583,0,0,0-6.36,2.64,8.981,8.981,0,0,0,0,12.72A8.583,8.583,0,0,0,19,34a8.6,8.6,0,0,0,4.29-1.08C23.29,32.89,23.26,32.86,23.26,32.83ZM33.85,44.11c-.18-.09-.36-.21-.57-.33a26.145,26.145,0,0,1-3.54-2.43A8.642,8.642,0,0,1,31,46v3H7V46a8.7,8.7,0,0,1,2.64-6.36A8.583,8.583,0,0,1,16,37h6a8.677,8.677,0,0,1,4.5,1.17,18.556,18.556,0,0,1-2.4-3.51c-.09-.15-.18-.33-.27-.51A9.046,9.046,0,0,0,22,34H16a11.56,11.56,0,0,0-4.62.93,12.18,12.18,0,0,0-3.84,2.58,12.018,12.018,0,0,0-2.58,3.84A11.73,11.73,0,0,0,4,46v6H34V46A12.7,12.7,0,0,0,33.85,44.11Z"></path><path class="cls-2" d="M38.5,7.709l.94.672a15.187,15.187,0,0,0,7.813,2.546L49,10.934,49,26.2c0,8.85-9.468,13.064-9.868,13.241l-.632.272-.632-.272C37.468,39.261,28,35.047,28,26.2V10.934l1.747-.007A15.187,15.187,0,0,0,37.56,8.381l.94-.672M38.5,4,36.763,5.243l-.94.673A12.282,12.282,0,0,1,29.709,7.9l-1.722.007L25,7.924V26.2c0,10.548,10.469,15.482,11.663,16.01l.656.283L38.5,43l1.181-.51.632-.273C41.531,41.679,52,36.745,52,26.2l0-15.263V7.924L49.01,7.91,47.267,7.9a12.288,12.288,0,0,1-6.088-1.985l-.942-.675L38.5,4Z"></path><path class="cls-1" d="M39.447,26.44l1.05,2.19h-4.02l1.05-2.19a2.757,2.757,0,0,1-.66-.66,1.615,1.615,0,0,1-.27-.93,1.644,1.644,0,0,1,.57-1.32,1.883,1.883,0,0,1,2.64,0,1.644,1.644,0,0,1,.57,1.32,1.615,1.615,0,0,1-.27.93A2.757,2.757,0,0,1,39.447,26.44Z"></path><path class="cls-1" d="M41.247,16.93a2.852,2.852,0,0,1,.03.42v3.78H35.7V17.35a2.852,2.852,0,0,1,.03-.42,1.11,1.11,0,0,1,.27-.66,2.034,2.034,0,0,1,.84-.54,4.313,4.313,0,0,1,1.59-.24h.12a4.313,4.313,0,0,1,1.59.24,2.034,2.034,0,0,1,.84.54A1.11,1.11,0,0,1,41.247,16.93Z"></path><path class="cls-1" d="M47.247,10.93a15.278,15.278,0,0,1-7.8-2.55l-.96-.66-.93.66a15.278,15.278,0,0,1-7.8,2.55h-1.77V26.2c0,8.85,9.48,13.05,9.87,13.23l.63.27.66-.27c.39-.18,9.84-4.38,9.84-13.23V10.93Zm-2.19,17.7a1.709,1.709,0,0,1-.3,1.08,1.786,1.786,0,0,1-.63.54,1.949,1.949,0,0,1-.93.24h-9.42a1.949,1.949,0,0,1-.93-.24,1.786,1.786,0,0,1-.63-.54,1.709,1.709,0,0,1-.3-1.08V22.99a1.675,1.675,0,0,1,.3-1.05,1.706,1.706,0,0,1,.63-.6,1.928,1.928,0,0,1,.93-.21h.03V17.35a4,4,0,0,1,.21-1.29,2.745,2.745,0,0,1,.72-1.2,4.385,4.385,0,0,1,1.41-.9,6.21,6.21,0,0,1,2.28-.33h.12a6.21,6.21,0,0,1,2.28.33,4.385,4.385,0,0,1,1.41.9,2.745,2.745,0,0,1,.72,1.2,4,4,0,0,1,.21,1.29v3.78h.03a1.928,1.928,0,0,1,.93.21,1.706,1.706,0,0,1,.63.6,1.675,1.675,0,0,1,.3,1.05Z"></path></svg></svg></svg>