<svg xmlns="http://www.w3.org/2000/svg" version="1.1" xmlns:xlink="http://www.w3.org/1999/xlink" xmlns:svgjs="http://svgjs.dev/svgjs" viewBox="0 0 56 56"><circle r="23" cx="50%" cy="50%" stroke-opacity="1" stroke-width="2" stroke="#074d92" fill-opacity="1" fill="#ffffff"></circle><svg viewBox="0 0 56 56" height="30" x="0" y="25%"><svg id="saas-provisioning" xmlns="http://www.w3.org/2000/svg" viewBox="0 0 56 56" height="100%" width="100%"><defs><style>.cls-1{fill:#053b70;}.cls-2{fill:#0a6ed1;}</style></defs><path class="cls-1" d="M45.832,16.957a8.484,8.484,0,0,0-12.777-5.711A10.743,10.743,0,0,0,22.413,4C10.008,4,11.1,16.982,11.1,16.982A10.247,10.247,0,0,0,4.01,26.706a10.36,10.36,0,0,0,6,9.386V32.586a7.231,7.231,0,0,1,2.026-12.755l2.278-.767-.287-1.5a7.594,7.594,0,0,1-.124-2.073,10.534,10.534,0,0,1,2.188-5.825,7.372,7.372,0,0,1,6.393-2.823c3.263,0,7.283,2.9,8.218,5.633l.934,2.731,2.422-1.317A7.6,7.6,0,0,1,37.445,13a5.542,5.542,0,0,1,5.44,4.516l.288,1.528,1.125.513a7.807,7.807,0,0,1,4.584,5.641,7.742,7.742,0,0,1-2.89,7.311V36a10.758,10.758,0,0,0,6-9.513A10.478,10.478,0,0,0,45.832,16.957Z"></path><path class="cls-2" d="M40.688,22.013H15.312a3.8,3.8,0,0,0-3.8,3.8V48.2A3.806,3.806,0,0,0,15.312,52H40.688a3.8,3.8,0,0,0,3.805-3.8V25.817A3.8,3.8,0,0,0,40.688,22.013ZM41.494,48.2a.806.806,0,0,1-.806.806H15.312a.806.806,0,0,1-.806-.806V34.008H41.494Zm0-17.186H14.506V25.817a.807.807,0,0,1,.806-.806H40.688a.807.807,0,0,1,.806.806Z"></path><path class="cls-2" d="M28,35.487H16.005V45.982H28Zm-3,7.5H19v-4.5h6Z"></path><path class="cls-2" d="M38.5,26.511h-3a1.5,1.5,0,1,0,0,3h3a1.5,1.5,0,0,0,0-3Z"></path><rect class="cls-2" x="30.999" y="35.507" width="8.996" height="1.499"></rect><rect class="cls-2" x="30.999" y="38.486" width="8.996" height="1.499"></rect><rect class="cls-2" x="30.999" y="41.464" width="8.996" height="1.499"></rect></svg></svg></svg>