<svg xmlns="http://www.w3.org/2000/svg" version="1.1" xmlns:xlink="http://www.w3.org/1999/xlink" xmlns:svgjs="http://svgjs.dev/svgjs" viewBox="0 0 56 56"><circle r="23" cx="50%" cy="50%" stroke-opacity="1" stroke-width="2" stroke="#074d92" fill-opacity="1" fill="#ffffff"></circle><svg viewBox="0 0 56 56" height="30" x="0" y="25%"><svg id="placeholder" xmlns="http://www.w3.org/2000/svg" viewBox="0 0 56 56" height="100%" width="100%"><defs><style>.cls-1{fill:#053b70;}.cls-2{fill:#0a6ed1;}</style></defs><title>placeholder</title><path class="cls-1" d="M46.953,20.588a4.363,4.363,0,0,0-1.837-.459,3.291,3.291,0,0,0-3.4,3.376,4.084,4.084,0,0,0,.9,2.625,3.011,3.011,0,0,0,2.5,1.126,3.085,3.085,0,0,0,1.462-.375,7.512,7.512,0,0,0,1.32-.891,10.135,10.135,0,0,1,1.226-.891,2.27,2.27,0,0,1,1.179-.375A1.5,1.5,0,0,1,52,26.412V39.071a2.843,2.843,0,0,1-.576,2,2.926,2.926,0,0,1-2.159.626q-2.923,0-4.385.047t-2.122.047H41.91a3.321,3.321,0,0,0,.6.644,5.717,5.717,0,0,1,2.074,4.22,5.054,5.054,0,0,1-1.65,3.751A5.331,5.331,0,0,1,39.118,52a5.6,5.6,0,0,1-4.055-1.547,5.071,5.071,0,0,1-1.6-3.8,4.862,4.862,0,0,1,.519-2.3,11.407,11.407,0,0,1,1.516-1.97,2.333,2.333,0,0,0,.475-.69H28.33a1.394,1.394,0,0,1-1.084-.469,2.011,2.011,0,0,1-.519-1.032V15.909a1.8,1.8,0,0,1,.424-1.172,1.444,1.444,0,0,1,1.179-.516h7.733a1.949,1.949,0,0,0-.377-.562l-.8-1.171a8.788,8.788,0,0,1-.847-1.5,4.783,4.783,0,0,1-.406-1.676A5.348,5.348,0,0,1,39.081,4a5.552,5.552,0,0,1,3.79,1.553A4.635,4.635,0,0,1,44.55,9.345c-.028,1.688-2.023,4.125-2.241,4.375a1.576,1.576,0,0,0-.3.5h7.261A2.65,2.65,0,0,1,52,16.847v4.126q0,1.782-1.7,1.782a1.743,1.743,0,0,1-1.319-.549A13.152,13.152,0,0,0,46.953,20.588ZM28.33,39.071a.582.582,0,0,0,.66.657h7.167a1.579,1.579,0,0,1,1.792,1.781,2.238,2.238,0,0,1-.387,1.254c-.283.408-.582.813-.9,1.219s-.613.83-.9,1.266a2.546,2.546,0,0,0-.424,1.407,3.115,3.115,0,0,0,1.131,2.532,4.022,4.022,0,0,0,2.641.938,3.776,3.776,0,0,0,2.452-.938A3.115,3.115,0,0,0,42.7,46.655a2.546,2.546,0,0,0-.424-1.407,12.513,12.513,0,0,0-.943-1.266q-.519-.609-.943-1.172a2.261,2.261,0,0,1-.462-1.3,1.614,1.614,0,0,1,.566-1.313,2.006,2.006,0,0,1,1.32-.468h7.45q.942,0,.943-.657V26.506a1.609,1.609,0,0,0-.707.422q-.519.421-1.179.89a11.069,11.069,0,0,1-1.509.891,3.77,3.77,0,0,1-1.7.422,5.45,5.45,0,0,1-3.678-1.5,4.25,4.25,0,0,1-1.226-1.876,7.053,7.053,0,0,1-.377-2.25,5.166,5.166,0,0,1,1.6-3.7,5.009,5.009,0,0,1,3.678-1.641,4.884,4.884,0,0,1,2.357.515A7.587,7.587,0,0,1,49.518,20.2c.506.588.785.624.785.624V16.847a.544.544,0,0,0-.331-.469,1.422,1.422,0,0,0-.707-.187h-7.45a2.147,2.147,0,0,1-1.32-.422,1.587,1.587,0,0,1-.566-1.36,2.067,2.067,0,0,1,.425-1.172q.425-.609.943-1.219a12.222,12.222,0,0,0,.943-1.266,2.541,2.541,0,0,0,.424-1.407,3.118,3.118,0,0,0-1.132-2.532,3.771,3.771,0,0,0-2.451-.938,3.839,3.839,0,0,0-2.594.938A3.178,3.178,0,0,0,35.4,9.345a2.776,2.776,0,0,0,.424,1.454,10.037,10.037,0,0,0,.9,1.265l.849,1.22a2.909,2.909,0,0,1,.471,1.125,1.625,1.625,0,0,1-.518,1.36,1.956,1.956,0,0,1-1.274.422H29.084q-.755,0-.754.656Zm23.67,0a2.7,2.7,0,0,1-.576,2,2.675,2.675,0,0,1-2.159.626"></path><path class="cls-2" d="M37.147,31.074a3.328,3.328,0,0,0-2.878-1.36,4.445,4.445,0,0,0-2.12.422,6.185,6.185,0,0,0-1.178.891q-.567.471-1.132.891c-.373.278-.808.773-1.3.776H26.727V16.46a3.335,3.335,0,0,0-.377-1.5,1.436,1.436,0,0,0-1.415-.751H19.277c-.5,0-.754.251-.754.844a1.907,1.907,0,0,0,.377,1.126,9.146,9.146,0,0,0,.943,1.125,5.341,5.341,0,0,1,.943,1.266,3.236,3.236,0,0,1,.377,1.547,4.454,4.454,0,0,1-1.273,3.141,4.049,4.049,0,0,1-3.065,1.36,3.9,3.9,0,0,1-3.018-1.36,4.547,4.547,0,0,1-1.225-3.141,2.936,2.936,0,0,1,.424-1.547,13.548,13.548,0,0,1,.9-1.313c.314-.406.627-.781.943-1.125a1.588,1.588,0,0,0,.471-1.079q0-.843-1.037-.844H5.7a1.587,1.587,0,0,0-1.226.516A1.806,1.806,0,0,0,4,15.991V39.9a1.8,1.8,0,0,0,.471,1.266,1.583,1.583,0,0,0,1.226.516h8.488c.691,0,1.035.238,1.037.75a1.547,1.547,0,0,1-.422.944L13.807,44.5a6.549,6.549,0,0,0-.99,1.266,3.116,3.116,0,0,0-.424,1.641,4.237,4.237,0,0,0,1.367,3.47,4.791,4.791,0,0,0,6.224-.047,4.517,4.517,0,0,0,1.445-3.283,3.631,3.631,0,0,0-.514-1.889c-.215-.307-.978-1.158-.978-1.158L18.9,43.373a1.492,1.492,0,0,1-.377-.938q0-.75.848-.75h5.658q1.226,0,1.7-1.5V35.341H28.35c.557,0,1.054.519,1.489.8a12.291,12.291,0,0,1,1.226.891q.565.469,1.179.89a3.786,3.786,0,0,0,1.816.422,3.256,3.256,0,0,0,3.087-1.406,5.119,5.119,0,0,0,.99-3A4.788,4.788,0,0,0,37.147,31.074Z"></path></svg></svg></svg>