<svg xmlns="http://www.w3.org/2000/svg" version="1.1" xmlns:xlink="http://www.w3.org/1999/xlink" xmlns:svgjs="http://svgjs.dev/svgjs" viewBox="0 0 56 56"><circle r="23" cx="50%" cy="50%" stroke-opacity="1" stroke-width="2" stroke="#074d92" fill-opacity="1" fill="#ffffff"></circle><svg viewBox="0 0 56 56" height="30" x="0" y="25%"><svg id="featureflags" xmlns="http://www.w3.org/2000/svg" viewBox="0 0 56 56" height="100%" width="100%"><defs><style>.cls-1{fill:#5a7a94;}.cls-2{fill:#0092d1;}</style></defs><title>featureflags</title><circle class="cls-1" cx="37" cy="17.5" r="4.5"></circle><path class="cls-2" d="M19,26.5H37a9,9,0,0,0,0-18H19a9,9,0,0,0,0,18Zm18-15a6,6,0,1,1-6,6A6,6,0,0,1,37,11.5Z"></path><path class="cls-2" d="M37,29.5H19a9,9,0,0,0,0,18H37a9,9,0,0,0,0-18ZM37,46H19a7.5,7.5,0,0,1,0-15H37a7.5,7.5,0,0,1,0,15Z"></path><path class="cls-1" d="M19,32.5a6,6,0,1,0,6,6A6,6,0,0,0,19,32.5ZM19,43a4.5,4.5,0,1,1,4.5-4.5A4.505,4.505,0,0,1,19,43Z"></path></svg></svg></svg>