<svg xmlns="http://www.w3.org/2000/svg" version="1.1" xmlns:xlink="http://www.w3.org/1999/xlink" xmlns:svgjs="http://svgjs.dev/svgjs" viewBox="0 0 56 56"><circle r="23" cx="50%" cy="50%" stroke-opacity="1" stroke-width="2" stroke="#074d92" fill-opacity="1" fill="#ffffff"></circle><svg viewBox="0 0 56 56" height="30" x="0" y="25%"><svg id="custom-domain" xmlns="http://www.w3.org/2000/svg" viewBox="0 0 56 56" height="100%" width="100%"><defs><style>.cls-1{fill:#053b70;}.cls-2{fill:#0a6ed1;}</style></defs><title>custom-domain</title><rect class="cls-1" x="34" y="7" width="12" height="3" rx="0.75"></rect><rect class="cls-1" x="19" y="7" width="12" height="3" rx="0.75"></rect><path class="cls-1" d="M4,46v0a2.877,2.877,0,0,0,.236,1.157,3.028,3.028,0,0,0,1.606,1.607A2.875,2.875,0,0,0,7,49H49a3.013,3.013,0,0,0,3-3V16a3.013,3.013,0,0,0-3-3H16V7.75A.664.664,0,0,0,15.25,7H4.75A.663.663,0,0,0,4,7.75ZM49,16l0,0,0,30L7,46,7,16Z"></path><path class="cls-2" d="M39.214,26.73a12.745,12.745,0,0,0-2.107-3.573,11.914,11.914,0,0,0-3.21-2.628,12.055,12.055,0,0,0-3.99-1.393l0,0c-.317-.046-.624-.078-.921-.1a15.691,15.691,0,0,0-1.9,0c-.294.026-.6.058-.922.107a11.663,11.663,0,0,0-4.024,1.4,12.482,12.482,0,0,0-3.2,2.622,12.161,12.161,0,0,0-2.146,3.579A11.691,11.691,0,0,0,16,31a11.472,11.472,0,0,0,.957,4.642,12.221,12.221,0,0,0,6.4,6.4A11.5,11.5,0,0,0,28,43a11.638,11.638,0,0,0,4.707-.957,12.389,12.389,0,0,0,3.815-2.586A11.906,11.906,0,0,0,40,31,11.719,11.719,0,0,0,39.214,26.73Zm-3.314-1H32.477a13.251,13.251,0,0,0-2.107-3.884A8.941,8.941,0,0,1,35.9,25.73Zm-4.016,5a11.765,11.765,0,0,1-.132,1.778A14.782,14.782,0,0,1,31.423,34h-6.78a14.252,14.252,0,0,1-.329-1.489,11.511,11.511,0,0,1-.132-1.778A12.183,12.183,0,0,1,24.511,28h7.044A12.3,12.3,0,0,1,31.884,30.733ZM28,21.649a7.411,7.411,0,0,1,1.679,1.711,11.172,11.172,0,0,1,1.283,2.37H25.1A8.741,8.741,0,0,1,28,21.649Zm-2.3.2a13.182,13.182,0,0,0-2.107,3.884H20.166A8.93,8.93,0,0,1,25.7,21.846ZM19.113,34a8.635,8.635,0,0,1-.428-1.358,8.288,8.288,0,0,1,0-3.291A8.584,8.584,0,0,1,19.113,28h3.95a12.183,12.183,0,0,0-.329,2.733A12.825,12.825,0,0,0,23.128,34ZM22.8,38.863a10.223,10.223,0,0,1-2.633-2.6h3.555a12.356,12.356,0,0,0,2.567,4.016A8.663,8.663,0,0,1,22.8,38.863ZM28,39.884a7.464,7.464,0,0,1-1.481-1.514A10.745,10.745,0,0,1,25.3,36.263h5.464A8.081,8.081,0,0,1,28,39.884Zm5.266-1.021a8.663,8.663,0,0,1-3.489,1.416,12.44,12.44,0,0,0,2.568-4.016H35.9A10.243,10.243,0,0,1,33.266,38.863ZM36.953,34H32.937a8.269,8.269,0,0,0,.264-1.489q.065-.855.065-1.778A12.59,12.59,0,0,0,33,28h3.95a8.8,8.8,0,0,1,0,6Z"></path></svg></svg></svg>