<svg xmlns="http://www.w3.org/2000/svg" version="1.1" xmlns:xlink="http://www.w3.org/1999/xlink" xmlns:svgjs="http://svgjs.dev/svgjs" viewBox="0 0 56 56"><circle r="23" cx="50%" cy="50%" stroke-opacity="1" stroke-width="2" stroke="#074d92" fill-opacity="1" fill="#ffffff"></circle><svg viewBox="0 0 56 56" height="30" x="0" y="25%"><svg id="transport-management" xmlns="http://www.w3.org/2000/svg" viewBox="0 0 56 56" height="100%" width="100%"><defs><style>.cls-1{fill:#0a6ed1;}.cls-2{fill:#053b70;}</style></defs><title>transport-management</title><path class="cls-1" d="M42.371,52a5.4,5.4,0,0,1-3.514-1.245A5.476,5.476,0,0,1,37,47.875H33.291a5.194,5.194,0,0,1-1.8,2.88,5.583,5.583,0,0,1-7.029,0,5.482,5.482,0,0,1-1.858-2.88H20.776a2.351,2.351,0,0,1-2.43-2.437V39.25a2.226,2.226,0,0,1,.262-1.031,2.22,2.22,0,0,1-.262-1.031V26.875a2.352,2.352,0,0,1,2.43-2.437H37.229a2.409,2.409,0,0,1,1.7.682,2.287,2.287,0,0,1,.7,1.38h.87a8.444,8.444,0,0,1,3.024.541,8.673,8.673,0,0,1,2.553,1.514A9.073,9.073,0,0,1,48,30.842a8.509,8.509,0,0,1,1.043,2.865l.467,3.1h.064a2.41,2.41,0,0,1,1.7.683A2.332,2.332,0,0,1,52,39.25v6.188a2.328,2.328,0,0,1-.727,1.754,2.4,2.4,0,0,1-1.7.683H47.688a5.2,5.2,0,0,1-1.8,2.88A5.41,5.41,0,0,1,42.371,52Zm0-8.25a2.7,2.7,0,1,0,1.919.792A2.587,2.587,0,0,0,42.371,43.75Zm-14.4,0a2.7,2.7,0,1,0,1.92.792A2.589,2.589,0,0,0,27.974,43.75Zm19.711,1.312H49.2V39.625H21.15v5.437h1.455a5.631,5.631,0,0,1,1.852-2.844,5.486,5.486,0,0,1,8.831,2.844H37a5.625,5.625,0,0,1,1.852-2.844,5.487,5.487,0,0,1,8.831,2.844Zm-8.025-8.25h7.026l-.441-2.657a5.819,5.819,0,0,0-5.738-4.843H39.66Zm-18.51,0h15.7V27.25H21.15Z"></path><path class="cls-2" d="M15.307,28H11.575c-3.166,0-4.583-2.719-4.583-5.415a5.385,5.385,0,0,1,3.727-5.109l2.265-.769-.223-2.384a8.058,8.058,0,0,1,1.515-5.335C15.31,7.786,16.471,7,19.093,7a5.928,5.928,0,0,1,5.833,4.039l1.3,3.289L29.251,12.5a3.906,3.906,0,0,1,2.039-.591A3.983,3.983,0,0,1,35.2,15.161l.287,1.529,1.411.645A5.577,5.577,0,0,1,40.11,22h3.021a8.573,8.573,0,0,0-4.995-7.395,6.976,6.976,0,0,0-6.846-5.7,6.9,6.9,0,0,0-3.584,1.022A9.428,9.428,0,0,0,19.02,4C8.891,4,9.785,14.626,9.785,14.626A8.385,8.385,0,0,0,4,22.585C4,27.232,6.941,31,11.575,31h3.732Z"></path></svg></svg></svg>