<svg xmlns="http://www.w3.org/2000/svg" version="1.1" xmlns:xlink="http://www.w3.org/1999/xlink" xmlns:svgjs="http://svgjs.dev/svgjs" viewBox="0 0 56 56"><circle r="23" cx="50%" cy="50%" stroke-opacity="1" stroke-width="2" stroke="#074d92" fill-opacity="1" fill="#ffffff"></circle><svg viewBox="0 0 56 56" height="30" x="0" y="25%"><svg id="sap-intelligent-robotic-process-automation" xmlns="http://www.w3.org/2000/svg" viewBox="0 0 56 56" height="100%" width="100%"><defs><style>.cls-1{fill:#053b70;}.cls-2{fill:#0a6ed1;}</style></defs><title>sap-intelligent-robotic-process-automation</title><path class="cls-1" d="M28,15.961c9.925,0,18,7.41,18,16.518S37.925,49,28,49s-18-7.41-18-16.518,8.075-16.518,18-16.518m0-3c-11.6,0-21,8.74-21,19.522S16.4,52,28,52s21-8.74,21-19.521S39.6,12.957,28,12.957Z"></path><path class="cls-2" d="M34.81,23.392H21.137a8.172,8.172,0,0,0,0,16.344H34.81a8.172,8.172,0,0,0,0-16.344Zm0,13.341H21.137a5.169,5.169,0,0,1,0-10.338H34.81a5.169,5.169,0,0,1,0,10.338Z"></path><path class="cls-2" d="M22.194,28.791a2.547,2.547,0,1,0,2.55,2.547A2.548,2.548,0,0,0,22.194,28.791Z"></path><path class="cls-2" d="M33.841,28.791a2.547,2.547,0,1,0,2.55,2.547A2.548,2.548,0,0,0,33.841,28.791Z"></path><path class="cls-2" d="M27.218,9.848v3.146c.261-.009.518-.037.782-.037.242,0,.477.027.718.034V9.861A2.96,2.96,0,0,0,31,7a3,3,0,1,0-6,0A2.961,2.961,0,0,0,27.218,9.848Z"></path></svg></svg></svg>