<svg xmlns="http://www.w3.org/2000/svg" version="1.1" xmlns:xlink="http://www.w3.org/1999/xlink" xmlns:svgjs="http://svgjs.dev/svgjs" viewBox="0 0 56 56"><circle r="23" cx="50%" cy="50%" stroke-opacity="1" stroke-width="2" stroke="#074d92" fill-opacity="1" fill="#ffffff"></circle><svg viewBox="0 0 56 56" height="30" x="0" y="25%"><svg id="marketdataservice_a01_Market_Rates_Management_" data-name="marketdataservice_a01 (Market Rates Management)" xmlns="http://www.w3.org/2000/svg" viewBox="0 0 56 56" height="100%" width="100%"><defs><style>.cls-1{fill:#053b70;}.cls-2{fill:#0a6ed1;}</style></defs><title>marketdataservice_a01</title><path class="cls-1" d="M49.033,46v3h-42V7h3V46Z"></path><path class="cls-2" d="M19.162,15.825a3.2,3.2,0,0,0,1.925-.629l.275-.235v1.768a5.588,5.588,0,0,1-2.122.471,5.082,5.082,0,0,1-3.1-.825,4.937,4.937,0,0,1-1.65-2.593H13.033l.314-1.257h.9V11.9H13.033l.314-1.257h1.1a4.421,4.421,0,0,1,1.709-2.416A5.19,5.19,0,0,1,19.279,7.3a4.238,4.238,0,0,1,2.24.55l.157.079-.393,1.532-.2-.157a3.584,3.584,0,0,0-1.3-.491,3.809,3.809,0,0,0-1.493.019,3.112,3.112,0,0,0-1.316.609,2.19,2.19,0,0,0-.766,1.2H20.89L20.576,11.9H16.058v.629h4.518l-.314,1.257H16.254A2.774,2.774,0,0,0,19.162,15.825Z"></path><path class="cls-2" d="M31.63,11.449a3.188,3.188,0,0,1,1.93,1.014,2.316,2.316,0,0,1,.556,1.406,2.51,2.51,0,0,1-.671,1.75,2.546,2.546,0,0,1-1.815.8V17.5h-.818V16.453a2.382,2.382,0,0,1-1.538-.654,2.812,2.812,0,0,1-.817-1.864l1.341-.164a1.9,1.9,0,0,0,.392.818,1.588,1.588,0,0,0,.622.49V12.692a3.981,3.981,0,0,1-1.685-1.063,2.163,2.163,0,0,1-.638-1.456,2.274,2.274,0,0,1,.164-.818,2.615,2.615,0,0,1,.474-.785,2.832,2.832,0,0,1,.736-.605,2.117,2.117,0,0,1,.949-.278V7h.818v.687a2.3,2.3,0,0,1,2.289,2.028l-1.177.2a1.094,1.094,0,0,0-.36-.654,1.221,1.221,0,0,0-.752-.294ZM30.812,8.93a1.283,1.283,0,0,0-.589.425.994.994,0,0,0-.229.622,1.183,1.183,0,0,0,.818,1.046Zm.818,6.28a1.62,1.62,0,0,0,.768-.474A1.082,1.082,0,0,0,32.709,14c0-.523-.36-.906-1.079-1.145Z"></path><path class="cls-2" d="M44.334,17.5V14.8H41.362v-1h2.972V12.782H41.362v-1.06H43.8L40.9,7h1.432l2.077,3.325a10.5,10.5,0,0,1,.544,1.1q.165-.38.588-1.167L47.5,7h1.533l-2.9,4.722h2.443v1.06H45.624v1.024h2.951v1H45.624v2.7Z"></path><path class="cls-2" d="M14.725,43a1.88,1.88,0,0,1-1.128-.422,1.38,1.38,0,0,1-.564-1.172A1.768,1.768,0,0,1,13.691,40l10.621-9H34.464L46.119,19.563A1.705,1.705,0,0,1,47.341,19a1.522,1.522,0,0,1,1.222.563,1.877,1.877,0,0,1,.47,1.218,1.392,1.392,0,0,1-.376,1.032L36.062,34.469H25.628l-9.775,8.156A1.533,1.533,0,0,1,14.725,43Z"></path></svg></svg></svg>