<svg id="data-attribute-recommendation" xmlns="http://www.w3.org/2000/svg" viewBox="0 0 56 56"><defs><style>.cls-1{fill:#0a6ed1;}.cls-2{fill:#053b70;}</style></defs><title>data-attribute-recommendation</title><path class="cls-1" d="M23.552,37.14,21.61,39.083a1.124,1.124,0,0,0,1.59,1.59l1.943-1.942a1.125,1.125,0,0,0-1.591-1.591Z"/><path class="cls-1" d="M21.7,33.694a1.126,1.126,0,0,0-1.59,0l-1.943,1.943a1.125,1.125,0,1,0,1.591,1.59L21.7,35.285A1.126,1.126,0,0,0,21.7,33.694Z"/><path class="cls-1" d="M18.251,30.249a1.124,1.124,0,0,0-1.59,0l-1.942,1.942a1.125,1.125,0,1,0,1.59,1.591l1.942-1.943A1.124,1.124,0,0,0,18.251,30.249Z"/><path class="cls-1" d="M23.552,18.248a1.125,1.125,0,1,0,1.591-1.59L23.2,14.715a1.125,1.125,0,0,0-1.59,1.591Z"/><path class="cls-1" d="M20.107,21.694A1.124,1.124,0,1,0,21.7,20.1l-1.942-1.943a1.125,1.125,0,0,0-1.591,1.59Z"/><path class="cls-1" d="M16.661,25.14a1.125,1.125,0,1,0,1.59-1.591l-1.942-1.942a1.124,1.124,0,0,0-1.59,1.59Z"/><path class="cls-1" d="M36.5,30.136a3.012,3.012,0,0,0,0-4.252l-6.352-6.352a3.011,3.011,0,0,0-4.249,0l-6.352,6.352a3.011,3.011,0,0,0,0,4.252L25.9,36.488a3.009,3.009,0,0,0,4.249,0Zm-8.481,4.232-6.352-6.349V28l6.361-6.352,6.352,6.364Z"/><path class="cls-1" d="M31.646,26.809l-2.427-2.43a1.715,1.715,0,0,0-2.4,0l-2.428,2.431a1.713,1.713,0,0,0,0,2.4l2.425,2.425a1.714,1.714,0,0,0,2.407,0l2.422-2.422A1.7,1.7,0,0,0,31.646,26.809Zm-3.625,2.85L26.372,28.01l1.649-1.649,1.646,1.649Z"/><path class="cls-1" d="M38.734,30.249a1.124,1.124,0,1,0-1.59,1.59l1.942,1.943a1.125,1.125,0,0,0,1.59-1.591Z"/><path class="cls-1" d="M35.288,33.694a1.125,1.125,0,1,0-1.59,1.591l1.942,1.942a1.125,1.125,0,1,0,1.591-1.59Z"/><path class="cls-1" d="M31.842,37.14a1.125,1.125,0,0,0-1.59,1.591L32.2,40.673a1.124,1.124,0,0,0,1.59-1.59Z"/><path class="cls-1" d="M37.144,25.14a1.124,1.124,0,0,0,1.59,0L40.676,23.2a1.124,1.124,0,0,0-1.59-1.59l-1.942,1.942A1.124,1.124,0,0,0,37.144,25.14Z"/><path class="cls-1" d="M33.7,21.694a1.124,1.124,0,0,0,1.59,0l1.943-1.943a1.125,1.125,0,1,0-1.591-1.59L33.7,20.1A1.124,1.124,0,0,0,33.7,21.694Z"/><path class="cls-1" d="M31.842,18.248l1.943-1.942a1.125,1.125,0,0,0-1.59-1.591l-1.943,1.943a1.124,1.124,0,1,0,1.59,1.59Z"/><path class="cls-2" d="M26.521,36.9v9.2H13.006V40.52a2.014,2.014,0,0,0-2.014-2.014H6.024A2.014,2.014,0,0,0,4.01,40.52v9.466A2.014,2.014,0,0,0,6.024,52h4.968a2.014,2.014,0,0,0,2.014-2.014V49.1H28.021a1.5,1.5,0,0,0,1.5-1.5V36.9a2.655,2.655,0,0,1-3,0ZM10.008,49h-3V41.5h3Z"/><path class="cls-2" d="M12.029,26.51l-5.3-3.491A1.73,1.73,0,0,0,4.04,24.445v7.206a1.73,1.73,0,0,0,2.686,1.426l5.429-3.568h6.972a2.936,2.936,0,0,1,0-3Zm-4.99,2.773V26.815L8.915,28.05Z"/><path class="cls-2" d="M28.021,7H12.731a4.5,4.5,0,1,0,0,3h13.79v9.12a2.932,2.932,0,0,1,3,0V8.5A1.5,1.5,0,0,0,28.021,7ZM8.508,10a1.5,1.5,0,1,1,1.5-1.5A1.5,1.5,0,0,1,8.508,10Z"/><path class="cls-2" d="M49.976,21.263H45.008a2.014,2.014,0,0,0-2.014,2.014V26.51H36.911a2.936,2.936,0,0,1,0,3h6.083v3.234a2.014,2.014,0,0,0,2.014,2.014h4.968a2.014,2.014,0,0,0,2.014-2.014V23.277A2.014,2.014,0,0,0,49.976,21.263Zm-.985,10.495h-3v-7.5h3Z"/></svg>