<svg id="document-classification" xmlns="http://www.w3.org/2000/svg" viewBox="0 0 56 56"><defs><style>.cls-1{fill:#053b70;}.cls-2{fill:#0a6ed1;}</style></defs><title>document-classification</title><path class="cls-1" d="M51.625,32.5a2.894,2.894,0,0,0-.937-1.031A2.849,2.849,0,0,0,49,31H39.156l-2.625-3H25a2.792,2.792,0,0,0-1.734.469,3.01,3.01,0,0,0-.891,1.031A2.952,2.952,0,0,0,22,31V49a2.781,2.781,0,0,0,.469,1.734A3.139,3.139,0,0,0,25,52H49a2.975,2.975,0,0,0,1.5-.375,3.01,3.01,0,0,0,1.031-.891A2.8,2.8,0,0,0,52,49V34A2.982,2.982,0,0,0,51.625,32.5ZM49,49l-24,.023V49l-.025-18h10.2L36.9,32.976,37.8,34h1.361L49,34.009Z"/><path class="cls-2" d="M25,4H10L4,10V31a2.889,2.889,0,0,0,3,3H19V31H7V13H9.906a3.082,3.082,0,0,0,2.2-.844A2.844,2.844,0,0,0,13,10V7H25V25h3V7a2.844,2.844,0,0,0-.891-2.156A2.962,2.962,0,0,0,25,4Z"/><rect class="cls-2" x="10" y="16" width="12" height="3"/><polygon class="cls-2" points="10 25 19 25 22 25 22 22 10 22 10 25"/><path class="cls-2" d="M48.648,19.352a1.1,1.1,0,0,0-1.617,0l-2.6,3.023.07-1.125a8.767,8.767,0,0,0-.7-3.48,8.968,8.968,0,0,0-1.934-2.883,9.158,9.158,0,0,0-2.847-1.934,8.73,8.73,0,0,0-3.516-.7H31V14.5h4.5a6.723,6.723,0,0,1,6.75,6.75l-.07,1.125-2.532-3.023a1.037,1.037,0,0,0-1.617,0,.968.968,0,0,0,0,1.546l3.727,4.219a2.382,2.382,0,0,0,3.234,0L48.648,20.9a1.025,1.025,0,0,0,0-1.546Z"/></svg>