<svg xmlns="http://www.w3.org/2000/svg" version="1.1" xmlns:xlink="http://www.w3.org/1999/xlink" xmlns:svgjs="http://svgjs.dev/svgjs" viewBox="0 0 56 56"><circle r="23" cx="50%" cy="50%" stroke-opacity="1" stroke-width="2" stroke="#074d92" fill-opacity="1" fill="#ffffff"></circle><svg viewBox="0 0 56 56" height="30" x="0" y="25%"><svg id="cloud-integration-automation-service" xmlns="http://www.w3.org/2000/svg" viewBox="0 0 56 56" height="100%" width="100%"><defs><style>.cls-1{fill:#053b70;}.cls-2{fill:#0a6ed1;}</style></defs><path class="cls-1" d="M13.75,40a6.723,6.723,0,0,0,6.75,6.75H22V49H20.5a8.73,8.73,0,0,1-3.516-.7,9.158,9.158,0,0,1-2.847-1.934A8.968,8.968,0,0,1,12.2,43.48,8.767,8.767,0,0,1,11.5,40l.07-1.125L8.969,41.9a1.1,1.1,0,0,1-1.617,0,1.025,1.025,0,0,1,0-1.546l3.656-4.219a2.382,2.382,0,0,1,3.234,0l3.727,4.219a.968.968,0,0,1,0,1.546,1.037,1.037,0,0,1-1.617,0L13.82,38.875Z"></path><path class="cls-1" d="M45.25,16A6.723,6.723,0,0,0,38.5,9.25H37V7h1.5a8.73,8.73,0,0,1,3.516.7,9.158,9.158,0,0,1,2.847,1.934A8.968,8.968,0,0,1,46.8,12.52,8.767,8.767,0,0,1,47.5,16l-.07,1.125,2.6-3.023a1.1,1.1,0,0,1,1.617,0,1.025,1.025,0,0,1,0,1.546l-3.656,4.219a2.382,2.382,0,0,1-3.234,0l-3.727-4.219a.968.968,0,0,1,0-1.546,1.037,1.037,0,0,1,1.617,0l2.532,3.023Z"></path><path class="cls-2" d="M33.25,33.75,45.75,40l-12.5,6.25V33.75M32.406,31a1.349,1.349,0,0,0-.984.422A1.461,1.461,0,0,0,31,32.5V47.594a1.307,1.307,0,0,0,.422,1.031,1.434,1.434,0,0,0,.984.375,1.661,1.661,0,0,0,.75-.188L48.25,41.266a1.444,1.444,0,0,0,0-2.532L33.156,31.188a1.674,1.674,0,0,0-.75-.188Z"></path><path class="cls-2" d="M27.544,14.071a4.8,4.8,0,0,0-7.182-3.111A6.059,6.059,0,0,0,14.368,7C7.375,7,8,14.071,8,14.071A5.582,5.582,0,0,0,9.805,25H25.114A5.821,5.821,0,0,0,31,19.266,5.675,5.675,0,0,0,27.544,14.071Zm-2.43,8.358H9.805a3.082,3.082,0,0,1-3.1-3.035,3.632,3.632,0,0,1,2.16-2.88c1.578-.625,2.019-.394,1.836-2.648a5.162,5.162,0,0,1,1.053-3.446,3.557,3.557,0,0,1,2.619-.849,3.348,3.348,0,0,1,3.483,2.315c.979,2.439,1.793,2.709,3.346,1.461a2.377,2.377,0,0,1,1.622-.51,2.1,2.1,0,0,1,2.079,1.7c.159,1.586.27,1.466,1.512,1.878a3.128,3.128,0,0,1,1.89,2.854A3.177,3.177,0,0,1,25.114,22.429Z"></path></svg></svg></svg>