<svg xmlns="http://www.w3.org/2000/svg" version="1.1" xmlns:xlink="http://www.w3.org/1999/xlink" xmlns:svgjs="http://svgjs.dev/svgjs" viewBox="0 0 56 56"><circle r="23" cx="50%" cy="50%" stroke-opacity="1" stroke-width="2" stroke="#074d92" fill-opacity="1" fill="#ffffff"></circle><svg viewBox="0 0 56 56" height="30" x="0" y="25%"><svg id="destination" xmlns="http://www.w3.org/2000/svg" viewBox="0 0 56 56" height="100%" width="100%"><defs><style>.cls-1{fill:#5a7a94;}.cls-2{fill:#0092d1;}</style></defs><title>destination</title><path class="cls-1" d="M19,52H10.094a3.072,3.072,0,0,1-2.2-.844A2.837,2.837,0,0,1,7,49V16L19,4H40a2.841,2.841,0,0,1,2.156.891A2.962,2.962,0,0,1,43,7v3H40V7H22v9a2.844,2.844,0,0,1-.891,2.156A2.962,2.962,0,0,1,19,19H10V49h9Z"></path><path class="cls-2" d="M27.938,41.863,24.716,40.2l-2.024,1.859L20.115,39.52l1.764-1.764-1.367-3.527L18,34.2l0-3.576h2.479l1.47-3.551-1.834-1.845,2.53-2.574,1.912,1.911,3.381-1.4-.015-2.754,3.765.017v2.737l3.38,1.4L37.084,22.8,39.51,25.48l-1.764,1.764,1.4,3.381,2.666.187V32.5h3V30.812a3.125,3.125,0,0,0-3.188-3.187h-.02l.082-.079a3.275,3.275,0,0,0,.858-2.218,3.076,3.076,0,0,0-.914-2.221l-2.426-2.425a3.261,3.261,0,0,0-4.494,0l-.023.023v-.017A3.125,3.125,0,0,0,31.5,17.5H28.125a3.123,3.123,0,0,0-3.187,3.188v.017l-.024-.023a3.261,3.261,0,0,0-4.494,0l-2.426,2.425a3.08,3.08,0,0,0-.914,2.221,3.309,3.309,0,0,0,.914,2.274l.024.023H18a3.123,3.123,0,0,0-3.187,3.187v3.376a3.177,3.177,0,0,0,.884,2.217,3.088,3.088,0,0,0,2.3.97h.018l-.024.023a3.22,3.22,0,0,0,0,4.495l2.426,2.425a3.245,3.245,0,0,0,4.518-.023v.017a3.178,3.178,0,0,0,.884,2.218,3.088,3.088,0,0,0,2.3.97h1.688v-3l-1.875-.188Z"></path><path class="cls-2" d="M29.813,29.5A2.958,2.958,0,0,1,32.352,31H35.6a5.987,5.987,0,1,0-7.286,7.287V35.039a2.956,2.956,0,0,1-1.5-2.539A3,3,0,0,1,29.813,29.5Z"></path><path class="cls-2" d="M43.869,45.278l.264-.265a4.514,4.514,0,0,0,0-6.365L40.781,35.3a4.516,4.516,0,0,0-6.366,0l-.264.265-3.167-3.167-1.591,1.591,3.167,3.167-.265.264a4.516,4.516,0,0,0,0,6.366l3.353,3.352a4.515,4.515,0,0,0,6.365,0l.265-.264L47.409,52,49,50.409ZM34.641,43.2l-.7-.7a2.4,2.4,0,0,1,0-3.381l2.177-2.176a2.4,2.4,0,0,1,3.38,0l.7.7Zm7.844.11-2.177,2.176a2.4,2.4,0,0,1-3.38,0l-.7-.7,5.557-5.557.7.7A2.4,2.4,0,0,1,42.485,43.308Z"></path></svg></svg></svg>