<svg xmlns="http://www.w3.org/2000/svg" version="1.1" xmlns:xlink="http://www.w3.org/1999/xlink" xmlns:svgjs="http://svgjs.dev/svgjs" viewBox="0 0 56 56"><circle r="23" cx="50%" cy="50%" stroke-opacity="1" stroke-width="2" stroke="#074d92" fill-opacity="1" fill="#ffffff"></circle><svg viewBox="0 0 56 56" height="30" x="0" y="25%"><svg id="machine-learning" xmlns="http://www.w3.org/2000/svg" viewBox="0 0 56 56" height="100%" width="100%"><defs><style>.cls-1{fill:#0a6ed1;}.cls-2{fill:#053b70;}</style></defs><title>machine-learning</title><rect class="cls-1" x="23.714" y="16.023" width="1.714" height="5.143" rx="0.75"></rect><rect class="cls-1" x="27.143" y="16.023" width="1.714" height="5.143" rx="0.75"></rect><rect class="cls-1" x="30.572" y="16.023" width="1.714" height="5.143" rx="0.75"></rect><rect class="cls-1" x="23.714" y="34.88" width="1.714" height="5.143" rx="0.75"></rect><rect class="cls-1" x="27.143" y="34.88" width="1.714" height="5.143" rx="0.75"></rect><rect class="cls-1" x="30.572" y="34.88" width="1.714" height="5.143" rx="0.75"></rect><rect class="cls-1" x="34.857" y="23.737" width="5.143" height="1.714" rx="0.75"></rect><rect class="cls-1" x="34.857" y="27.165" width="5.143" height="1.714" rx="0.75"></rect><rect class="cls-1" x="34.857" y="30.594" width="5.143" height="1.714" rx="0.75"></rect><rect class="cls-1" x="16" y="23.737" width="5.143" height="1.714" rx="0.75"></rect><rect class="cls-1" x="16" y="27.165" width="5.143" height="1.714" rx="0.75"></rect><rect class="cls-1" x="16" y="30.594" width="5.143" height="1.714" rx="0.75"></rect><path class="cls-1" d="M32.5,22.023H23.5a1.5,1.5,0,0,0-1.5,1.5v8.993a1.5,1.5,0,0,0,1.5,1.5H32.5a1.5,1.5,0,0,0,1.5-1.5V23.526A1.5,1.5,0,0,0,32.5,22.023ZM31,31.011H25v-6h6Z"></path><path class="cls-2" d="M49,23.846a7.607,7.607,0,0,0-3.749-6.615,7.441,7.441,0,0,0-5.937-7.167,7.019,7.019,0,0,0-5.74-3.043A8.932,8.932,0,0,0,28,8.742a8.931,8.931,0,0,0-5.573-1.721,7.019,7.019,0,0,0-5.741,3.043,7.441,7.441,0,0,0-5.937,7.167A7.607,7.607,0,0,0,7,23.846a7.764,7.764,0,0,0,1.028,3.881A7.764,7.764,0,0,0,7,31.608a7.578,7.578,0,0,0,3.745,6.618v.009a7.471,7.471,0,0,0,5.743,7.4A7.06,7.06,0,0,0,22.427,49,8.31,8.31,0,0,0,28,46.838,8.311,8.311,0,0,0,33.574,49a7.059,7.059,0,0,0,5.938-3.365,7.471,7.471,0,0,0,5.743-7.4v-.01A7.576,7.576,0,0,0,49,31.608a7.774,7.774,0,0,0-1.027-3.881A7.774,7.774,0,0,0,49,23.846Zm-2.625,7.762a4.77,4.77,0,0,1-4.055,4.871,5.264,5.264,0,0,1,.31,1.756A4.738,4.738,0,0,1,38.1,43.158c-.1,0-.19-.025-.286-.032a4.557,4.557,0,0,1-4.242,3.25,5.255,5.255,0,0,1-5.487-4.541h-.2a5.232,5.232,0,0,1-5.465,4.541,4.557,4.557,0,0,1-4.243-3.25c-.1.007-.188.032-.286.032a4.738,4.738,0,0,1-4.528-4.923,5.264,5.264,0,0,1,.31-1.756,4.77,4.77,0,0,1-4.055-4.871A5.054,5.054,0,0,1,11.4,27.727a5.051,5.051,0,0,1-1.773-3.881A4.78,4.78,0,0,1,13.6,18.984,5.26,5.26,0,0,1,13.37,17.5,4.737,4.737,0,0,1,17.9,12.581c.127,0,.247.029.372.041a4.535,4.535,0,0,1,4.157-2.976c3.577,0,5.2,1.887,5.509,3.707h.128c.308-1.82,1.932-3.707,5.51-3.707a4.536,4.536,0,0,1,4.157,2.976c.124-.012.244-.041.371-.041A4.737,4.737,0,0,1,42.63,17.5a5.26,5.26,0,0,1-.231,1.481,4.78,4.78,0,0,1,3.976,4.862A5.048,5.048,0,0,1,44.6,27.727,5.051,5.051,0,0,1,46.375,31.608Z"></path></svg></svg></svg>