<svg xmlns="http://www.w3.org/2000/svg" version="1.1" xmlns:xlink="http://www.w3.org/1999/xlink" xmlns:svgjs="http://svgjs.dev/svgjs" viewBox="0 0 56 56"><circle r="23" cx="50%" cy="50%" stroke-opacity="1" stroke-width="2" stroke="#074d92" fill-opacity="1" fill="#ffffff"></circle><svg viewBox="0 0 56 56" height="30" x="0" y="25%"><svg id="integration-suite" xmlns="http://www.w3.org/2000/svg" viewBox="0 0 56 56" height="100%" width="100%"><defs><style>.cls-1{fill:#0a6ecf;}.cls-2{fill:#003b74;}</style></defs><path class="cls-1" d="M15.729,32.364h2.724a2.729,2.729,0,0,0,2.727-2.72l2.729,1.06v1.658a2.656,2.656,0,0,0,.508,1.5l-3.029,4c-.073-.006-.135-.042-.208-.042H18.457a2.729,2.729,0,0,0-2.73,2.729v2.724A2.729,2.729,0,0,0,18.457,46H21.18a2.729,2.729,0,0,0,2.729-2.729V40.547a2.679,2.679,0,0,0-1.187-2.191l2.709-3.577a2.668,2.668,0,0,0,1.207.312h2.724a2.653,2.653,0,0,0,1.354-.411L32.5,36.466a2.653,2.653,0,0,0-.411,1.354v2.723a2.729,2.729,0,0,0,2.729,2.73h2.723a2.73,2.73,0,0,0,2.73-2.73V37.82a2.729,2.729,0,0,0-2.73-2.729H34.82a2.653,2.653,0,0,0-1.354.411L31.68,33.716a2.653,2.653,0,0,0,.411-1.354V29.77l3.128-1.524a2.693,2.693,0,0,0,2.328,1.39h2.724A2.729,2.729,0,0,0,43,26.907V24.184a2.729,2.729,0,0,0-2.729-2.729H37.547a2.729,2.729,0,0,0-2.729,2.729v2.723l0,.016-3.056,1.488a2.707,2.707,0,0,0-2.4-1.5H27.73l-1.072-2.732a2.727,2.727,0,0,0,2.706-2.724V18.729A2.729,2.729,0,0,0,26.634,16H23.911a2.729,2.729,0,0,0-2.729,2.729v2.724a2.729,2.729,0,0,0,2.729,2.729H25.2l1.1,2.792a2.683,2.683,0,0,0-2.307,2.3l-2.8-1.088V26.911a2.729,2.729,0,0,0-2.729-2.729H15.729A2.729,2.729,0,0,0,13,26.911v2.723A2.729,2.729,0,0,0,15.729,32.364ZM21.18,43.273H18.457l0,0,0-2.726,2.725,0Zm13.64-5.455,2.725,0,0,2.725H34.82l0,0Zm2.727-13.636,2.726,0,0,2.725H37.547l0,0Zm-8.183,5.456,0,2.726H26.638l0,0,0-2.726Zm-5.453-8.183,0,0,0-2.726,2.725,0,0,2.726Zm-8.182,5.454,2.726,0,0,2.725H15.729l0,0Z"></path><path class="cls-1" d="M45.989,40H43v3h2.989l.011.011L45.989,49,10,48.977l.011-5.988L13,43V40l-2.989-.011A3.011,3.011,0,0,0,7,43v5.977a3.011,3.011,0,0,0,3.011,3.012L45.989,52A3.011,3.011,0,0,0,49,48.989V43.011A3.011,3.011,0,0,0,45.989,40Z"></path><circle class="cls-1" cx="37" cy="46" r="1.5"></circle><circle class="cls-1" cx="41.5" cy="46" r="1.5"></circle><path class="cls-2" d="M45.84,16.962a8.489,8.489,0,0,0-12.783-5.713A11.022,11.022,0,0,0,22.41,4C10.346,4,11.09,16.988,11.09,16.988A10.224,10.224,0,0,0,13,36.871v-3a7.284,7.284,0,0,1-6-7.155,7.41,7.41,0,0,1,5.027-6.877l2.279-.768-.232-2.389a9.132,9.132,0,0,1,2.01-7.013A7.744,7.744,0,0,1,22.465,7a9.209,9.209,0,0,1,7.994,5.339l1.176,2.871,2.424-1.318A7.6,7.6,0,0,1,37.449,13a5.546,5.546,0,0,1,5.443,4.518l.288,1.528,1.415.646A7.484,7.484,0,0,1,43,33.848v3a10.456,10.456,0,0,0,2.84-19.887Z"></path></svg></svg></svg>