<svg xmlns="http://www.w3.org/2000/svg" version="1.1" xmlns:xlink="http://www.w3.org/1999/xlink" xmlns:svgjs="http://svgjs.dev/svgjs" viewBox="0 0 56 56"><circle r="23" cx="50%" cy="50%" stroke-opacity="1" stroke-width="2" stroke="#074d92" fill-opacity="1" fill="#ffffff"></circle><svg viewBox="0 0 56 56" height="30" x="0" y="25%"><svg id="sap-hana-cloud-connector" xmlns="http://www.w3.org/2000/svg" viewBox="0 0 56 56" height="100%" width="100%"><defs><style>.cls-1{fill:#0a6ed1;}.cls-2{fill:#053b70;}</style></defs><title>sap-hana-cloud-connector</title><path class="cls-1" d="M41.5,49h-9a1.5,1.5,0,0,0,0,3h9a1.5,1.5,0,0,0,0-3Z"></path><path class="cls-1" d="M48.991,25H25.009A3.009,3.009,0,0,0,22,28.009V42.991A3.009,3.009,0,0,0,25.009,46H48.991A3.009,3.009,0,0,0,52,42.991V28.009A3.009,3.009,0,0,0,48.991,25Zm0,18L25,42.991,25.009,28H48.991l.009.009Z"></path><path class="cls-2" d="M19.109,7a6.455,6.455,0,0,1,5.864,4.033l1.307,3.29L29.31,12.5a3.922,3.922,0,0,1,2.043-.591,3.988,3.988,0,0,1,3.914,3.249l.288,1.529,1.415.646a5.351,5.351,0,0,1,3,4.67H43a8.355,8.355,0,0,0-4.785-7.4A6.941,6.941,0,0,0,27.762,9.928,9.452,9.452,0,0,0,19.055,4C8.65,4,9.8,14.621,9.8,14.621A8.387,8.387,0,0,0,12.41,30.986H19v-3H12.41a5.387,5.387,0,0,1-1.675-10.515l2.308-.759L12.781,14.3a8.1,8.1,0,0,1,1.5-5.284A6.5,6.5,0,0,1,19.109,7Z"></path></svg></svg></svg>