<svg xmlns="http://www.w3.org/2000/svg" version="1.1" xmlns:xlink="http://www.w3.org/1999/xlink" viewBox="0 0 510 510" preserveAspectRatio="xMidYMid">
                    <defs><style>.cls-1{fill:#595959;}</style></defs>
                    <title>after-total</title>
                    <g id="Layer_2" data-name="Layer 2"><g id="after-total">
                    <path class="cls-1" d="M294.4 252.062c2.954-2.954 6.892-4.924 11.815-4.924 3.939 0 7.877 1.97 10.831 4.924l67.939 74.83V167.385c0-10.831 4.923-15.754 15.753-15.754 3.939 0 6.893.984 10.831 4.923 2.954 1.97 4.923 5.908 4.923 10.83v159.508l66.954-75.815c2.954-2.954 6.892-4.923 11.816-4.923 3.938 0 7.876 1.97 10.83 4.923 7.877 8.861 7.877 15.754 0 23.63l-84.677 89.6c-1.969.985-2.953 1.97-2.953 2.955-.985 0-1.97 0-1.97.984-4.923 3.939-10.83 5.908-16.738 5.908s-10.83-.985-14.77-3.939c-3.938-.984-6.892-2.953-8.86-5.907L294.4 275.692c-6.892-7.877-6.892-14.769 0-23.63zM72.862 435.2v2.954h230.4v34.461H0v-46.277l110.277-175.261L6.892 78.769V24.615h310.154v35.447H79.754v2.953l119.138 185.108z"></path>
                    </g></g>
                    </svg>