<svg xmlns="http://www.w3.org/2000/svg" version="1.1" xmlns:xlink="http://www.w3.org/1999/xlink" viewBox="0 0 510 510" preserveAspectRatio="xMidYMid">
                    <defs><style>.cls-1{fill:#595959;}</style></defs>
                    <title>aggregated-view</title>
                    <g id="Layer_2" data-name="Layer 2"><g id="aggregated-view">
                    <path class="cls-1" d="M40 160c-5 0-8-3-8-8V40c0-5 3-8 8-8h336c5 0 8 3 8 8v112c0 5-3 8-8 8H40zm120 152V200c0-5 3-8 8-8h304c5 0 8 3 8 8v112c0 5-3 8-8 8H168c-5 0-8-3-8-8zm-48 48c0-5 3-8 8-8h256c5 0 8 3 8 8v112c0 5-3 8-8 8H120c-5 0-8-3-8-8V360z"></path>
                    </g></g>
                    </svg>