<svg xmlns="http://www.w3.org/2000/svg" version="1.1" xmlns:xlink="http://www.w3.org/1999/xlink" viewBox="0 0 510 510" preserveAspectRatio="xMidYMid">
                    <defs><style>.cls-1{fill:#595959;}</style></defs>
                    <title>asterisk</title>
                    <g id="Layer_2" data-name="Layer 2"><g id="asterisk">
                    <path class="cls-1" d="M36.813 147c-1-4 0-8 2-12l18-30c3-6 7-9 13-9 3 0 6 1 10 3l141 81V17c0-5 2-9 6-12 3-4 7-5 12-5h34c11 0 17 6 17 17v163l142-82c3-2 5-3 8-3 2 0 4 1 5 1 5 2 8 4 11 8l16 30c6 9 4 18-6 23l-142 82 142 83c10 5 12 13 6 23l-17 30c-2 4-5 6-10 8-5 0-8 0-13-2l-142-81v163c0 11-6 17-17 17h-34c-5 0-9-1-12-5-4-3-6-7-6-12V299l-141 81c-4 2-7 3-10 3-5 0-10-3-13-9l-17-30c-3-4-3-8-2-12 1-5 4-9 8-11l141-82-141-81c-5-2-7-6-9-11z"></path>
                    </g></g>
                    </svg>