<svg xmlns="http://www.w3.org/2000/svg" version="1.1" xmlns:xlink="http://www.w3.org/1999/xlink" viewBox="0 0 510 510" preserveAspectRatio="xMidYMid">
                    <defs><style>.cls-1{fill:#595959;}</style></defs>
                    <title>before-total</title>
                    <g id="Layer_2" data-name="Layer 2"><g id="before-total">
                    <path class="cls-1" d="M506.092 273.723c-2.954 2.954-6.892 4.923-11.815 4.923-3.939 0-7.877-1.97-10.83-4.923l-66.955-73.846V358.4c0 10.83-4.923 15.754-15.754 15.754-3.938 0-7.876-.985-11.815-3.939-2.954-2.953-3.938-6.892-3.938-11.815V199.877l-67.939 74.83c-2.954 2.955-6.892 4.924-11.815 4.924-3.939 0-7.877-1.97-10.831-4.923-7.877-8.862-7.877-15.754 0-23.631l84.677-89.6 2.954-2.954c.984 0 1.969 0 2.954-.985 3.938-3.938 9.846-5.907 16.738-5.907 4.923 0 9.846.984 14.77 3.938 2.953.985 5.907 2.954 7.876 5.908l81.723 88.615c7.877 7.877 7.877 14.77 0 23.631zM71.877 435.2v2.954h231.385v34.461H0v-46.277l110.277-175.261L6.892 78.769V24.615h310.154v35.447H79.754v2.953l119.138 185.108z"></path>
                    </g></g>
                    </svg>