<svg xmlns="http://www.w3.org/2000/svg" version="1.1" xmlns:xlink="http://www.w3.org/1999/xlink" viewBox="0 0 510 510" preserveAspectRatio="xMidYMid">
                    <defs><style>.cls-1{fill:#595959;}</style></defs>
                    <title>business-partner-verified</title>
                    <g id="Layer_2" data-name="Layer 2"><g id="business-partner-verified">
                    <path class="cls-1" d="M0 448.496a126.62 126.62 0 01127.008-127.008h15.876c-44.651 0-79.38-35.72-79.38-79.38s34.729-79.38 79.38-79.38c43.659 0 79.38 35.722 79.38 79.38s-35.721 79.38-79.38 79.38h15.876c23.814 0 44.65 5.954 63.504 17.86v38.699c-16.869-16.869-38.698-24.807-63.504-24.807h-31.752c-52.59 0-95.256 42.667-95.256 95.256v31.752h190.512V512H0v-63.504zM508.031 512H285.767v-31.752H476.28v-31.752c0-52.589-42.667-95.256-95.256-95.256h-31.752c-24.806 0-46.635 7.938-63.504 24.807v-38.698c18.853-11.907 40.683-17.86 63.504-17.86h15.876c-43.659 0-79.38-35.722-79.38-79.38s35.721-79.38 79.38-79.38c44.651 0 79.38 35.72 79.38 79.38s-34.729 79.38-79.38 79.38h15.876a126.62 126.62 0 01127.008 127.007V512zM317.519 242.109c0 26.79 20.838 47.627 47.628 47.627s47.628-20.837 47.628-47.627-20.837-47.628-47.628-47.628-47.628 20.837-47.628 47.628zm-222.263 0c0 26.79 20.837 47.627 47.628 47.627s47.628-20.837 47.628-47.627-20.838-47.628-47.628-47.628-47.628 20.837-47.628 47.628zm301.643-107.163l-66.48-66.48 21.83-22.823 44.65 43.66L486.202 0l21.829 23.814z"></path>
                    </g></g>
                    </svg>