<svg xmlns="http://www.w3.org/2000/svg" version="1.1" xmlns:xlink="http://www.w3.org/1999/xlink" viewBox="0 0 510 510" preserveAspectRatio="xMidYMid">
                    <defs><style>.cls-1{fill:#595959;}</style></defs>
                    <title>compressor</title>
                    <g id="Layer_2" data-name="Layer 2"><g id="compressor">
                    <path class="cls-1" d="M50 485c-5 0-9-1-12-3-5-3-17-11-17-32V43c0-21 12-28 17-32 5-3 15-4 15-4 7 0 14 4 21 11l195 164c4 3 10 4 11 4 3 0 6-1 8-3l153-89c7-3 14-5 20-5 5 0 11 1 16 4 11 5 17 16 17 32v244c0 15-6 26-17 32-5 3-11 4-16 4-6 0-13-2-20-5l-153-89c-2-2-5-3-8-3-1 0-7 0-11 4L74 476c-9 6-17 9-24 9zm193-273L62 62v370l181-151c17-13 35-13 38-13 10 0 19 2 27 7l145 85V134l-145 85c-8 5-17 7-27 7-3 0-21 1-38-14z"></path>
                    </g></g>
                    </svg>