<svg xmlns="http://www.w3.org/2000/svg" version="1.1" xmlns:xlink="http://www.w3.org/1999/xlink" viewBox="0 0 510 510" preserveAspectRatio="xMidYMid">
                    <defs><style>.cls-1{fill:#595959;}</style></defs>
                    <title>completed</title>
                    <g id="Layer_2" data-name="Layer 2"><g id="completed">
                    <path class="cls-1" d="M468.5 106c6 7 9 16 9 24v3c0 9-4 18-11 25l-244 243c-7 7-15 10-24 10-10 0-20-4-28-12l-125-129c-7-7-10-15-10-24 0-10 4-20 12-28 7-6 16-9 24-10 10 0 20 4 28 12l100 103 217-219c7-7 15-10 24-10 10 0 20 4 28 12z"></path>
                    </g></g>
                    </svg>