<svg xmlns="http://www.w3.org/2000/svg" version="1.1" xmlns:xlink="http://www.w3.org/1999/xlink" viewBox="0 0 510 510" preserveAspectRatio="xMidYMid">
                    <defs><style>.cls-1{fill:#595959;}</style></defs>
                    <title>debit-card</title>
                    <g id="Layer_2" data-name="Layer 2"><g id="debit-card">
                    <path class="cls-1" d="M45.5 128h422c24 0 43 20 43 43v266c0 25-19 43-43 43h-422c-24 0-43-18-43-43V171c0-23 19-43 43-43zm422 288V192c0-11-8-21-21-21h-380c-12 0-21 10-21 21v224c0 13 9 21 21 21h380c14 0 21-7 21-21zm-395-73h367c5 0 7 2 7 6v35c0 5-2 7-7 7h-367c-5 0-7-2-7-7v-35c0-4 2-6 7-6z"></path>
                    </g></g>
                    </svg>