<svg xmlns="http://www.w3.org/2000/svg" version="1.1" xmlns:xlink="http://www.w3.org/1999/xlink" viewBox="0 0 510 510" preserveAspectRatio="xMidYMid">
                    <defs><style>.cls-1{fill:#595959;}</style></defs>
                    <title>due-date</title>
                    <g id="Layer_2" data-name="Layer 2"><g id="due-date">
                    <path class="cls-1" d="M.5 32h97V0h30v32h33V0h31v32h130V0h31v32h33V0h31v32h95v480H.5V32zm32 128v320h448V160h-448zm32 198v-76h128v-64l123 102-123 102v-64h-128zm286-3v-90h98v90h-98zm21-71v49h57v-49h-57zm77 164h-64v-37h64v37zm-112-219h-64v-37h64v37zm-208 0h-64v-37h64v37zm320 0h-64v-37h64v37zm-112 219h-64v-36h64v36zm-272-36h64v36h-64v-36zm256-316h32V64h-32v32zm-128-32h-32v32h32V64zm-96 32h32V64h-32v32zm320-32h-32v32h32V64z"></path>
                    </g></g>
                    </svg>