<svg xmlns="http://www.w3.org/2000/svg" version="1.1" xmlns:xlink="http://www.w3.org/1999/xlink" viewBox="0 0 510 510" preserveAspectRatio="xMidYMid">
                    <defs><style>.cls-1{fill:#595959;}</style></defs>
                    <title>email-not-opened</title>
                    <g id="Layer_2" data-name="Layer 2"><g id="email-not-opened">
                    <path class="cls-1" d="M401.5 26c15 0 25 11 25 27v3c-4 28-8 54-12 81-1 8-4 14-12 15h-3c-8-1-11-7-12-15-4-27-8-53-11-81v-6c0-13 6-24 25-24zm26 174c0 15-13 26-26 26-15 0-26-11-26-26 0-13 11-26 26-26 13 0 26 13 26 26zm-103 29h-234l-38-34h272v34zm-67 191l253-215v307H2.5V205zm217 56V283l-217 182-219-182v193h436z"></path>
                    </g></g>
                    </svg>