<svg xmlns="http://www.w3.org/2000/svg" version="1.1" xmlns:xlink="http://www.w3.org/1999/xlink" viewBox="0 0 510 510" preserveAspectRatio="xMidYMid">
                    <defs><style>.cls-1{fill:#595959;}</style></defs>
                    <title>filter-menu</title>
                    <g id="Layer_2" data-name="Layer 2"><g id="filter-menu">
                    <path class="cls-1" d="M34.5 108V61c0-13 8-23 23-23h396c15 0 23 10 23 23v47c0 13-8 23-23 23h-396c-15 0-23-10-23-23zm192 110v-16h251v16l-107 91v109l-36 39V309zm-192 169c0-13 8-23 23-23h201v93h-201c-15 0-23-10-23-23v-47zm0-116v-47c0-13 8-23 23-23h82l87 93h-169c-15 0-23-10-23-23z"></path>
                    </g></g>
                    </svg>