<svg xmlns="http://www.w3.org/2000/svg" version="1.1" xmlns:xlink="http://www.w3.org/1999/xlink" viewBox="0 0 510 510" preserveAspectRatio="xMidYMid">
                    <defs><style>.cls-1{fill:#595959;}</style></defs>
                    <title>forklift</title>
                    <g id="Layer_2" data-name="Layer 2"><g id="forklift">
                    <path class="cls-1" d="M8 291l48-35V49h114l142 255v32h-22c-57 0-106 40-106 96-4-52-40-96-96-96-31 0-61 11-80 32v-77zm280 221c-40 0-72-32-72-72 0-39 32-72 72-72s72 33 72 72c0 40-32 72-72 72zM8 440c0-39 32-72 72-72s72 33 72 72c0 40-32 72-72 72S8 480 8 440zM88 80v176h16v-95h32v95h80v33h48L152 80H88zm256 256V0h32v305h112v31H344zm64-192h96v128h-96V144zM288 416c-13 0-24 11-24 24 0 15 11 24 24 24s24-9 24-24c0-13-11-24-24-24zm-208 0c-13 0-24 11-24 24 0 15 11 24 24 24s24-9 24-24c0-13-11-24-24-24z"></path>
                    </g></g>
                    </svg>