<svg xmlns="http://www.w3.org/2000/svg" version="1.1" xmlns:xlink="http://www.w3.org/1999/xlink" viewBox="0 0 510 510" preserveAspectRatio="xMidYMid">
                    <defs><style>.cls-1{fill:#595959;}</style></defs>
                    <title>generation</title>
                    <g id="Layer_2" data-name="Layer 2"><g id="generation">
                    <path class="cls-1" d="M467 268c0 2-2 3-2 4v190c0 12-10 23-22 23s-23-11-23-23v-75c-39 61-98 98-168 98-114 0-207-106-207-238S138 9 252 9c83 0 157 56 191 142 4 12-2 25-14 29s-25-1-29-13C374 98 316 54 252 54c-89 0-162 87-162 193s73 193 162 193c75 0 139-60 157-147 0-1 2-1 2-2H262c-12 0-23-11-23-23s11-22 23-22h182c12 0 23 10 23 22z"></path>
                    </g></g>
                    </svg>