<svg xmlns="http://www.w3.org/2000/svg" version="1.1" xmlns:xlink="http://www.w3.org/1999/xlink" viewBox="0 0 510 510" preserveAspectRatio="xMidYMid">
                    <defs><style>.cls-1{fill:#595959;}</style></defs>
                    <title>grip</title>
                    <g id="Layer_2" data-name="Layer 2"><g id="grip">
                    <path class="cls-1" d="M173 285v-64h64v64h-64zm128-176h64v64h-64v-64zm0 223h64v64h-64v-64zm0-336h64v64h-64V-4zM173 444h64v64h-64v-64zm0-448h64v64h-64V-4zm128 225h64v64h-64v-64zm-128-48v-64h64v64h-64zm128 271h64v64h-64v-64zm-64-48h-64v-64h64v64z"></path>
                    </g></g>
                    </svg>