<svg xmlns="http://www.w3.org/2000/svg" version="1.1" xmlns:xlink="http://www.w3.org/1999/xlink" viewBox="0 0 510 510" preserveAspectRatio="xMidYMid">
                    <defs><style>.cls-1{fill:#595959;}</style></defs>
                    <title>italic</title>
                    <g id="Layer_2" data-name="Layer 2"><g id="italic">
                    <path class="cls-1" d="M259.5 443c21 0 34 13 34 34 0 20-13 34-34 34h-3c-55 0-95-51-82-106l41-167h-24c-24 0-37-13-37-34 0-20 13-34 34-34h68c10 0 20 4 27 14 7 7 7 20 7 30l-51 208c-3 10 7 21 20 21zm48-443c28 0 51 23 51 51s-23 51-51 51-51-23-51-51 23-51 51-51z"></path>
                    </g></g>
                    </svg>