<svg xmlns="http://www.w3.org/2000/svg" version="1.1" xmlns:xlink="http://www.w3.org/1999/xlink" viewBox="0 0 510 510" preserveAspectRatio="xMidYMid">
                    <defs><style>.cls-1{fill:#595959;}</style></defs>
                    <title>layer</title>
                    <g id="Layer_2" data-name="Layer 2"><g id="layer">
                    <path class="cls-1" d="M381.046 103.385L512 185.108v121.107l-258.954 166.4L0 312.123V176.246l251.077-151.63 2.954 1.969L256 25.6l.985 1.97zM245.17 442.092V347.57l-109.292-71.877v97.477zm7.877-247.138l-105.354 64 105.354 67.938 107.323-64zm227.446-3.939l-111.261-68.923-95.508 60.062 107.323 68.923zm-230.4-142.769l-94.523 59.077 97.477 62.03 96.492-59.076zm-16.738 133.908l-98.462-63.016-104.369 64.985L128 245.17zM16.738 298.338l102.4 64v-96.492l-102.4-65.97v98.462zm244.185 144.739l112.246-70.892v-91.57L260.923 347.57v95.508zm128-171.323v90.584l106.339-66.953v-87.631z"></path>
                    </g></g>
                    </svg>