<svg xmlns="http://www.w3.org/2000/svg" version="1.1" xmlns:xlink="http://www.w3.org/1999/xlink" viewBox="0 0 510 510" preserveAspectRatio="xMidYMid">
                    <defs><style>.cls-1{fill:#595959;}</style></defs>
                    <title>legal-section</title>
                    <g id="Layer_2" data-name="Layer 2"><g id="legal-section">
                    <path class="cls-1" d="M0 32C0 13 13 0 32 0h448c17 0 32 13 32 32v416c0 17-15 32-32 32H32c-19 0-32-15-32-32V32zm32 416h448V32H32v416zm50-290V58h352v100H82zm0 262V320h352v100H82zm352-230v100H82V190h352zM402 90H114v36h288V90zm0 262H114v36h288v-36zm0-130H114v36h288v-36z"></path>
                    </g></g>
                    </svg>