<svg xmlns="http://www.w3.org/2000/svg" version="1.1" xmlns:xlink="http://www.w3.org/1999/xlink" viewBox="0 0 510 510" preserveAspectRatio="xMidYMid">
                    <defs><style>.cls-1{fill:#595959;}</style></defs>
                    <title>liquid</title>
                    <g id="Layer_2" data-name="Layer 2"><g id="liquid">
                    <path class="cls-1" d="M256.5 510c-113 0-205-92-205-205 0-106 168-280 187-300 5-5 11-7 18-7s14 2 18 7c19 20 187 194 187 300 0 113-92 205-205 205zm0-450c-55 60-154 180-154 245 0 85 69 154 154 154s154-69 154-154c0-65-99-185-154-245z"></path>
                    </g></g>
                    </svg>