<svg xmlns="http://www.w3.org/2000/svg" version="1.1" xmlns:xlink="http://www.w3.org/1999/xlink" viewBox="0 0 510 510" preserveAspectRatio="xMidYMid">
                    <defs><style>.cls-1{fill:#595959;}</style></defs>
                    <title>match-whole-word</title>
                    <g id="Layer_2" data-name="Layer 2"><g id="match-whole-word">
                    <path class="cls-1" d="M155.57 128.985h38.4l88.615 236.307h-33.477l-22.646-64H121.108l-23.631 64H64zm142.768 185.107c0-19.692 6.893-34.461 23.631-43.323 14.77-8.861 33.477-12.8 57.108-13.784h36.43v-10.831c0-24.616-11.815-40.37-37.415-40.37-23.63 0-37.415 10.831-53.169 27.57l-19.692-20.677c7.877-9.846 18.707-16.739 30.523-23.63 12.8-5.909 26.584-8.862 43.323-8.862 14.77 0 35.446 3.938 46.277 14.769 4.923 3.938 9.846 9.846 12.8 15.754 5.908 8.861 7.877 19.692 7.877 31.507v84.677c0 13.785.984 26.585 1.969 38.4h-30.523c-.985-8.861-.985-16.738-.985-26.584h-.984c-7.877 12.8-19.693 21.661-33.477 26.584-7.877 1.97-15.754 2.954-25.6 2.954-34.462 0-58.093-16.738-58.093-54.154zm127.016 126.031h54.154v-384h-54.154V24.615H512v448h-86.646v-32.492zM0 24.615h86.646v31.508H31.508v384h55.138v32.492H0v-448zm159.508 168.37l-28.554 80.738h85.661l-28.553-80.738c-2.954-7.877-5.908-15.754-8.862-22.647-2.954-7.876-4.923-12.8-5.908-15.753-.984 2.953-1.969 8.861-4.923 15.753-2.954 7.877-5.907 15.754-8.861 22.647zM345.6 288.492c-9.846 4.923-15.754 13.785-15.754 26.585 0 8.861 2.954 14.77 8.862 20.677 5.907 4.923 13.784 6.892 24.615 6.892s20.677-1.97 28.554-5.908c7.877-4.923 13.785-9.846 17.723-17.723 3.938-5.907 5.908-13.784 5.908-21.661V279.63l-28.554.984c-17.723 0-31.508 3.939-41.354 7.877z"></path>
                    </g></g>
                    </svg>