<svg xmlns="http://www.w3.org/2000/svg" version="1.1" xmlns:xlink="http://www.w3.org/1999/xlink" viewBox="0 0 510 510" preserveAspectRatio="xMidYMid">
                    <defs><style>.cls-1{fill:#595959;}</style></defs>
                    <title>movement-warning</title>
                    <g id="Layer_2" data-name="Layer 2"><g id="movement-warning">
                    <path class="cls-1" d="M77 295L294 79l217 216-217 217zm47 0l170 170 169-170-169-169zM91 82L64 55V0l109 109L64 218v-55l27-27H1V82h90zm189 226l-12-93c0-19 13-26 26-26s26 7 26 26l-12 93c-3 12-6 14-14 14-7 0-11-1-14-14zm14 91c-13 0-26-8-26-27 0-17 13-25 26-25s26 8 26 25c0 19-13 27-26 27z"></path>
                    </g></g>
                    </svg>