<svg xmlns="http://www.w3.org/2000/svg" version="1.1" xmlns:xlink="http://www.w3.org/1999/xlink" viewBox="0 0 510 510" preserveAspectRatio="xMidYMid">
                    <defs><style>.cls-1{fill:#595959;}</style></defs>
                    <title>move-folder</title>
                    <g id="Layer_2" data-name="Layer 2"><g id="move-folder">
                    <path class="cls-1" d="M0 441.108v-384c0-6.893.985-11.816 3.938-15.754 4.924-10.83 15.754-16.739 27.57-16.739h180.184c4.923 0 8.862 1.97 11.816 4.923l24.615 27.57h231.385c7.877 0 13.784.984 17.723 4.923 4.923 2.954 8.861 6.892 10.83 10.83 1.97 4.924 3.939 9.847 3.939 15.754v128h-32.492v-95.507c-.985-8.862-3.939-16.739-9.846-22.646-4.924-5.908-12.8-9.847-21.662-9.847H231.385c-4.923 0-8.862-1.969-12.8-4.923l-21.662-21.661c-2.954-3.939-7.877-4.923-11.815-4.923H64c-7.877 0-14.77.984-18.708 4.923-3.938 2.954-6.892 6.892-9.846 10.83-1.97 4.924-3.938 9.847-3.938 15.754v320c0 8.862 1.969 15.754 4.923 19.693 3.938 2.954 7.877 5.907 10.83 8.861 4.924 1.97 10.831 3.939 16.739 3.939h159.508v31.507h-192c-5.908 0-10.831-.984-15.754-3.938-3.939-1.97-7.877-4.923-10.83-9.846C1.968 454.892 0 448.985 0 441.108zm256-64.985c0-7.877 7.877-15.754 15.754-15.754h186.092l-52.184-52.184c-3.939-3.939-4.924-7.877-4.924-11.816 0-4.923.985-7.877 4.924-10.83 1.969-2.954 6.892-5.908 10.83-5.908s7.877 2.954 10.831 5.907l79.754 79.754c2.954 2.954 4.923 6.893 4.923 10.831 0 4.923-1.97 8.862-4.923 11.815l-78.77 79.754c-3.938 2.954-7.876 4.923-11.815 4.923-8.861 0-15.754-6.892-15.754-15.753 0-4.924.985-7.877 3.939-11.816l53.17-53.17H271.753c-8.862 0-15.754-5.907-15.754-15.753z"></path>
                    </g></g>
                    </svg>