<svg xmlns="http://www.w3.org/2000/svg" version="1.1" xmlns:xlink="http://www.w3.org/1999/xlink" viewBox="0 0 510 510" preserveAspectRatio="xMidYMid">
                    <defs><style>.cls-1{fill:#595959;}</style></defs>
                    <title>next-open-item</title>
                    <g id="Layer_2" data-name="Layer 2"><g id="next-open-item">
                    <path class="cls-1" d="M315.5 80l8-30c88 21 146 106 146 194 0 23-2 67-39 115l36 35-129 34 36-127 34 34c27-40 29-75 29-95 0-14-2-28-5-42-16-57-60-101-116-118zm-177 240V192h128v128h-128zm0 192V384h128v128h-128zm0-512h128v128h-128V0zm32 416v64h64v-64h-64zm0-320h64V32h-64v64z"></path>
                    </g></g>
                    </svg>