<svg xmlns="http://www.w3.org/2000/svg" version="1.1" xmlns:xlink="http://www.w3.org/1999/xlink" viewBox="0 0 510 510" preserveAspectRatio="xMidYMid">
                    <defs><style>.cls-1{fill:#595959;}</style></defs>
                    <title>partially-fixed-cell</title>
                    <g id="Layer_2" data-name="Layer 2"><g id="partially-fixed-cell">
                    <path class="cls-1" d="M438.5 252c6 9 9 19 9 33v169c0 13-7 26-18 39-12 12-24 18-37 18h-273c-11 0-20-2-27-7-8-4-14-9-19-17-6-8-9-18-9-33V285c0-19 9-43 28-50 7-5 16-8 27-8V114c0-7 2-17 6-29 19-56 75-84 132-84 71 0 135 31 135 113v113c19 0 35 10 46 25zm-265-138v113h164V114c0-2 0-6-1-13 0-7-3-13-8-19-5-7-13-13-24-17-11-5-26-7-47-7s-36 3-47 8c-11 6-19 13-25 20-2 5-4 9-6 13-3 4-4 10-6 15zm-5 337l213-131c0-22-17-39-37-39h-176c-21 0-38 17-38 39v93c0 21 17 38 38 38z"></path>
                    </g></g>
                    </svg>