<svg xmlns="http://www.w3.org/2000/svg" version="1.1" xmlns:xlink="http://www.w3.org/1999/xlink" viewBox="0 0 510 510" preserveAspectRatio="xMidYMid">
                    <defs><style>.cls-1{fill:#595959;}</style></defs>
                    <title>pipette</title>
                    <g id="Layer_2" data-name="Layer 2"><g id="pipette">
                    <path class="cls-1" d="M459.562 32h1c32 32 32 31-1 64l-32 32 48 48-80 80-160-160 80-78 48 48 32-34c33-33 31-33 64 0zm-288 384l-96-96 176-176 96 96zm-32-96l32 32 112-112-32-32zm-88 80c0-21 19-40 40-40s40 19 40 40-19 40-40 40-40-19-40-40z"></path>
                    </g></g>
                    </svg>