<svg xmlns="http://www.w3.org/2000/svg" version="1.1" xmlns:xlink="http://www.w3.org/1999/xlink" viewBox="0 0 510 510" preserveAspectRatio="xMidYMid">
                    <defs><style>.cls-1{fill:#595959;}</style></defs>
                    <title>priority-2</title>
                    <g id="Layer_2" data-name="Layer 2"><g id="priority-2">
                    <path class="cls-1" d="M189.5 129c0-31 16-50 51-50 29 0 50 20 50 52 0 56-14 114-23 170-3 15-9 27-25 30h-5c-17-3-22-15-25-30l-22-162c-1-1-1-4-1-10zm161 10c-1-1-1-4-1-10 0-31 16-50 51-50 29 0 50 20 50 52 0 56-14 114-23 170-3 15-9 27-25 30h-5c-17-3-22-15-25-30zm-2 288c0-28 23-52 52-52 28 0 52 24 52 52 0 29-24 52-52 52-29 0-52-23-52-52zm-160 0c0-28 23-52 52-52 28 0 52 24 52 52 0 29-24 52-52 52-29 0-52-23-52-52z"></path>
                    </g></g>
                    </svg>