<svg xmlns="http://www.w3.org/2000/svg" version="1.1" xmlns:xlink="http://www.w3.org/1999/xlink" viewBox="0 0 510 510" preserveAspectRatio="xMidYMid">
                    <defs><style>.cls-1{fill:#595959;}</style></defs>
                    <title>remove-filter</title>
                    <g id="Layer_2" data-name="Layer 2"><g id="remove-filter">
                    <path class="cls-1" d="M11.75 137c-3-6-6-16 0-26 5-8 12-13 23-13h357c10 0 18 5 23 13s3 18-3 26l-122 171v94c0 10-5 18-15 23l-103 51c-3 2-7 3-11 3s-10-1-14-3c-8-5-13-13-13-23V308zm331 12h-260l100 138c2 5 5 10 5 16v112l51-26v-86c0-6 2-11 5-16zm16 325c-10-11-10-26 0-36l33-33-33-34c-10-10-10-25 0-35 5-5 12-8 18-8 7 0 13 3 18 8l33 33 33-33c5-5 12-8 18-8 7 0 13 3 18 8 10 10 10 25 0 35l-33 34 33 33c10 10 10 25 0 36-5 5-11 8-18 8-6 0-13-3-18-8l-33-34-33 34c-5 5-11 8-18 8-6 0-13-3-18-8z"></path>
                    </g></g>
                    </svg>