<svg xmlns="http://www.w3.org/2000/svg" version="1.1" xmlns:xlink="http://www.w3.org/1999/xlink" viewBox="0 0 510 510" preserveAspectRatio="xMidYMid">
                    <defs><style>.cls-1{fill:#595959;}</style></defs>
                    <title>remove-folder</title>
                    <g id="Layer_2" data-name="Layer 2"><g id="remove-folder">
                    <path class="cls-1" d="M9.846 31.508c0-10.831 11.816-19.693 21.662-21.662 4.923 0 9.846.985 12.8 3.939L469.662 448c8.861 8.862 7.876 17.723-1.97 27.57-5.907 5.907-10.83 7.876-15.754 7.876-3.938 0-6.892-.984-10.83-4.923L14.769 44.308c-3.938-3.939-4.923-7.877-4.923-12.8zm126.03 12.8V9.846H192c4.923 0 8.862 1.97 12.8 5.908l25.6 28.554h247.138c7.877 0 14.77 1.969 19.693 4.923 4.923 3.938 7.877 7.877 9.846 11.815C510.03 65.97 512 71.876 512 78.77v272.739h-34.462V112.246c-.984-8.861-4.923-16.738-10.83-23.63-4.923-6.893-12.8-9.847-23.631-9.847H211.692c-3.938 0-8.861-1.969-12.8-5.907L176.246 49.23c-3.938-2.954-7.877-4.923-12.8-4.923h-27.57zM0 453.908v-307.2h33.477v272.738c0 9.846 1.97 15.754 5.908 20.677 8.861 8.862 15.753 13.785 28.553 13.785h272.739v34.461h-307.2c-5.908 0-11.815-1.969-16.739-4.923-3.938-1.97-7.876-4.923-11.815-9.846C1.97 468.677 0 462.77 0 453.908z"></path>
                    </g></g>
                    </svg>