<svg xmlns="http://www.w3.org/2000/svg" version="1.1" xmlns:xlink="http://www.w3.org/1999/xlink" viewBox="0 0 510 510" preserveAspectRatio="xMidYMid">
                    <defs><style>.cls-1{fill:#595959;}</style></defs>
                    <title>requirement-model</title>
                    <g id="Layer_2" data-name="Layer 2"><g id="requirement-model">
                    <path class="cls-1" d="M49 511c-26 0-48-22-48-48V49C1 22 23 1 49 1h414c27 0 48 21 48 48v414c0 26-21 48-48 48H49zM33 49v414c0 9 7 16 16 16h414c9 0 17-7 17-16V49c0-9-8-16-17-16H49c-9 0-16 7-16 16zm32 15h319v64H65V64zm382 160H161v-48h286v48zM161 328v-48h286v48H161zm95 103v-48h191v48H256zM65 304c0-14 11-24 24-24s24 10 24 24c0 13-11 24-24 24s-24-11-24-24zm0-104c0-13 11-24 24-24s24 11 24 24-11 24-24 24-24-11-24-24zm120 231c-13 0-24-11-24-24s11-24 24-24 23 11 23 24-10 24-23 24z"></path>
                    </g></g>
                    </svg>