<svg xmlns="http://www.w3.org/2000/svg" version="1.1" xmlns:xlink="http://www.w3.org/1999/xlink" viewBox="0 0 510 510" preserveAspectRatio="xMidYMid">
                    <defs><style>.cls-1{fill:#595959;}</style></defs>
                    <title>responsible-area</title>
                    <g id="Layer_2" data-name="Layer 2"><g id="responsible-area">
                    <path class="cls-1" d="M204 300h-32V166c0-28 42-42 83-42 40 0 78 13 78 37v139h-34v100h-95V300zm52 180c-134 0-237-37-237-81 0-31 65-65 153-73v30c-64 8-108 24-108 43 0 28 86 48 191 48 106 0 191-20 191-48 0-19-42-33-111-44v-29c93 8 158 42 158 73 0 44-105 81-237 81zM194 40c0-35 25-60 60-60s61 25 61 60-26 60-61 60-60-25-60-60z"></path>
                    </g></g>
                    </svg>