<svg xmlns="http://www.w3.org/2000/svg" version="1.1" xmlns:xlink="http://www.w3.org/1999/xlink" viewBox="0 0 510 510" preserveAspectRatio="xMidYMid">
                    <defs><style>.cls-1{fill:#595959;}</style></defs>
                    <title>scatter-plot</title>
                    <g id="Layer_2" data-name="Layer 2"><g id="scatter-plot">
                    <path class="cls-1" d="M2 0h31v480h478v32H2V0zm303 61c0-27 21-48 48-48s48 21 48 48-21 48-48 48-48-21-48-48zM129 176c0-27 21-48 48-48s48 21 48 48-21 48-48 48-48-21-48-48zm256 5c0-27 21-48 48-48s48 21 48 48-21 48-48 48-48-21-48-48zM78 309c0-27 21-48 48-48s48 21 48 48-21 48-48 48-48-21-48-48zm137 76c0-27 21-48 48-48s48 21 48 48-21 48-48 48-48-21-48-48z"></path>
                    </g></g>
                    </svg>