<svg xmlns="http://www.w3.org/2000/svg" version="1.1" xmlns:xlink="http://www.w3.org/1999/xlink" viewBox="0 0 510 510" preserveAspectRatio="xMidYMid">
                    <defs><style>.cls-1{fill:#595959;}</style></defs>
                    <title>software-item</title>
                    <g id="Layer_2" data-name="Layer 2"><g id="software-item">
                    <path class="cls-1" d="M3 512l56-114c23 11 45 18 72 18 88 0 160-72 160-160 0-64-37-116-89-143L259 0l256 512H3zm128-128C61 384 3 326 3 257s58-129 128-129c69 0 129 60 129 129s-60 127-129 127zM97 256c0 19 15 34 34 34s34-15 34-34-15-34-34-34-34 15-34 34zm34-96v17c44 0 79 35 79 79h17c0-53-43-96-96-96zm-96 96c0 53 43 96 96 96v-17c-44 0-79-35-79-79H35z"></path>
                    </g></g>
                    </svg>