<svg xmlns="http://www.w3.org/2000/svg" version="1.1" xmlns:xlink="http://www.w3.org/1999/xlink" viewBox="0 0 510 510" preserveAspectRatio="xMidYMid">
                    <defs><style>.cls-1{fill:#595959;}</style></defs>
                    <title>storage</title>
                    <g id="Layer_2" data-name="Layer 2"><g id="storage">
                    <path class="cls-1" d="M471.5 215h-432c-11 0-20-11-20-21 0-11 9-20 20-20h197V29c0-11 9-20 20-20 10 0 20 9 20 20v145h195c11 0 21 9 21 20 0 10-10 21-21 21zm-432 64h432c11 0 21 10 21 21s-10 20-21 20h-195v145c0 11-10 20-20 20-11 0-20-9-20-20V320h-197c-11 0-20-9-20-20s9-21 20-21z"></path>
                    </g></g>
                    </svg>