<svg xmlns="http://www.w3.org/2000/svg" version="1.1" xmlns:xlink="http://www.w3.org/1999/xlink" viewBox="0 0 510 510" preserveAspectRatio="xMidYMid">
                    <defs><style>.cls-1{fill:#595959;}</style></defs>
                    <title>stratification</title>
                    <g id="Layer_2" data-name="Layer 2"><g id="stratification">
                    <path class="cls-1" d="M255 252H5v-31h250V-3h36v224h220v31H291v223h-36V252zm160 149c-28 0-50-22-50-50s22-50 50-50 50 22 50 50-22 50-50 50zM321 16c0-27 21-48 48-48s48 21 48 48-21 48-48 48-48-21-48-48zm48 127c0-27 21-48 48-48s48 21 48 48-21 48-48 48-48-21-48-48zM161 467c-27 0-48-21-48-48s21-48 48-48 48 21 48 48-21 48-48 48zm-43-260c-27 0-48-21-48-48s21-48 48-48 48 21 48 48-21 48-48 48z"></path>
                    </g></g>
                    </svg>