<svg xmlns="http://www.w3.org/2000/svg" version="1.1" xmlns:xlink="http://www.w3.org/1999/xlink" viewBox="0 0 510 510" preserveAspectRatio="xMidYMid">
                    <defs><style>.cls-1{fill:#595959;}</style></defs>
                    <title>subclass</title>
                    <g id="Layer_2" data-name="Layer 2"><g id="subclass">
                    <path class="cls-1" d="M27 160c-15 0-27-11-27-26V27C0 12 12 0 27 0h298c15 0 27 12 27 27v107c0 15-12 26-27 26H99v96h125v-21c0-15 12-27 27-27h234c15 0 27 12 27 27v75c0 15-12 27-27 27H251c-15 0-27-12-27-27v-22H99v144h125v-21c0-15 12-27 27-27h234c15 0 27 12 27 27v75c0 15-12 26-27 26H251c-15 0-27-11-27-26v-22H93c-15 0-26-12-26-27V160H27zM320 32H32v96h288V32z"></path>
                    </g></g>
                    </svg>