<svg xmlns="http://www.w3.org/2000/svg" version="1.1" xmlns:xlink="http://www.w3.org/1999/xlink" viewBox="0 0 510 510" preserveAspectRatio="xMidYMid">
                    <defs><style>.cls-1{fill:#595959;}</style></defs>
                    <title>top-recipe</title>
                    <g id="Layer_2" data-name="Layer 2"><g id="top-recipe">
                    <path class="cls-1" d="M16 256h482c0 135-119 240-243 240S16 393 16 256zm334-112l-48-32h64l16-64 16 64h64l-48 32 15 64-47-48-48 48zM46 63c0-5 3-11 10-14 1-1 3-1 5-1 7 0 12 3 14 10l45 146c1 2 1 4 1 6 0 6-4 10-11 13-1 1-2 1-4 1-7 0-12-4-15-11L47 68c-1-2-1-4-1-5z"></path>
                    </g></g>
                    </svg>