<svg xmlns="http://www.w3.org/2000/svg" version="1.1" xmlns:xlink="http://www.w3.org/1999/xlink" viewBox="0 0 510 510" preserveAspectRatio="xMidYMid">
                    <defs><style>.cls-1{fill:#595959;}</style></defs>
                    <title>unsaved-changes</title>
                    <g id="Layer_2" data-name="Layer 2"><g id="unsaved-changes">
                    <path class="cls-1" d="M0 256C0 114 115 0 256 0c142 0 256 114 256 256 0 141-114 256-256 256C115 512 0 397 0 256zm32 0c0 124 100 224 224 224s224-100 224-224S380 32 256 32 32 132 32 256zm91 76v-38c0-41 33-75 75-75h18c-31 0-56-25-56-56 0-32 25-56 56-56 32 0 57 24 57 56 0 31-25 56-57 56h19c24 0 46 13 59 30l-13 13c-11-15-27-24-46-24h-37c-32 0-57 25-57 56v19h89l-19 19h-88zm83 75c4-15 14-43 21-58l153-153c2-2 4-3 6-3 3 0 5 1 7 3l26 27c3 2 4 4 4 6s-1 4-4 7L267 388c-1 1-15 6-31 10-9 3-19 6-30 9zm10-282c-20 0-37 18-37 38s17 37 37 37c21 0 38-17 38-37s-17-38-38-38zm27 234l13 13 106-106-12-13zm119-119l14 13 23-24-13-13z"></path>
                    </g></g>
                    </svg>