<svg xmlns="http://www.w3.org/2000/svg" version="1.1" xmlns:xlink="http://www.w3.org/1999/xlink" viewBox="0 0 510 510" preserveAspectRatio="xMidYMid">
                    <defs><style>.cls-1{fill:#595959;}</style></defs>
                    <title>update-filter</title>
                    <g id="Layer_2" data-name="Layer 2"><g id="update-filter">
                    <path class="cls-1" d="M32.27 0h319.984c12.8 0 22.645 5.907 28.553 16.738 6.892 11.814 4.923 22.645-1.97 32.49L265.614 179.191c-5.908 6.892-9.846 14.768-9.846 22.645v118.148l-100.426 90.58c-3.938 3.938-7.876 4.922-10.83 4.922-4.923 0-7.876-.984-11.815-3.938-2.953-2.954-4.922-6.892-4.922-11.815V201.836c0-8.861-2.954-15.753-8.862-22.645-21.66-23.63-40.367-45.29-57.104-64.981C48.024 98.456 35.224 83.688 23.41 70.889 11.595 57.105 5.688 50.213 5.688 49.229c-6.892-9.846-7.877-20.677-.985-32.491C9.626 5.908 19.471 0 32.271 0zm210.698 157.53c5.907-6.892 11.814-12.799 16.737-18.706s10.83-12.8 17.722-20.676c5.908-7.877 12.8-15.753 19.692-23.63 15.753-18.707 34.46-39.382 55.135-63.012H32.271h.984a1549.97 1549.97 0 0127.568 33.475c7.877 8.861 16.738 19.692 26.583 30.522s18.707 21.66 26.584 30.521c8.86 8.861 18.706 19.692 28.552 31.506 11.815 12.8 17.722 27.568 17.722 44.306v162.453l63.997-60.058V201.836c0-16.738 5.907-31.506 18.707-44.306zM506.83 410.564c-3.938 3.938-7.876 4.922-12.8 4.922-2.953 0-6.891-.984-10.83-4.922l-66.95-73.843v158.515c0 10.83-4.923 16.738-15.753 16.738-3.938 0-7.876-1.97-10.83-4.923-3.938-2.954-4.923-5.907-4.923-11.815V336.721l-66.95 74.827c-3.939 3.938-7.877 4.923-12.8 4.923-2.953 0-6.892-.985-10.83-4.923-6.892-7.876-6.892-15.753 0-22.645l85.657-89.595c.985-1.97 1.97-2.954 2.954-2.954l1.969-1.97c4.923-3.937 9.846-5.906 16.738-5.906 4.922 0 9.845 1.969 14.768 3.938 3.938 1.969 5.907 3.938 7.877 6.892l82.703 88.61c6.892 6.893 6.892 14.769 0 22.646z"></path>
                    </g></g>
                    </svg>