<svg id="alert-notification" xmlns="http://www.w3.org/2000/svg" viewBox="0 0 56 56"><defs><style>.cls-1{fill:#053b70;}.cls-2{fill:#0a6ed1;}</style></defs><title>alert-notification</title><path class="cls-1" d="M39.471,29.681l-2.743,1.513A14.988,14.988,0,1,1,22.01,18.976c.012,0,.023,0,.034,0v-3l-.034,0A18.091,18.091,0,1,0,39.471,29.681Z"/><path class="cls-1" d="M20.108,43.233l.2-.923.132-.4,3.1-3.036V36.5l-1.253-1.056L18,34.985l-.792-.527.066-.924-.725-.792.857-.924.594.264.2-.4h1.385l.264,1.122h.527l-.264-1.122,1.715-.857-.33-.66.857-.066-.4-.33.593-.594-.527-.858v-.527l-1.187.791-.33.528-.593-.066v-.726L20.966,27.2l-.4-.99-1.846-.132-1.055,1.056L16.35,26.87l1.055-2.376a.3.3,0,0,1-.2-.329.262.262,0,0,1,.066-.2,2.4,2.4,0,0,1-1.22-.429,2.464,2.464,0,0,0-1.285-.429,2.376,2.376,0,0,0-1.121.462,12.348,12.348,0,0,0-1.484,1.122,10.623,10.623,0,0,0-1.318,1.352,2.017,2.017,0,0,0-.561,1.089l.264.726,1.187.725.4,1.32-.2,1.716.99,1.979.461-.2-.725-1.32.461.528.462.33a3.865,3.865,0,0,0,2.835,1.188l.725.924L15.493,37.1l1.846,1.649q.2,1.188.3,2.178a10.707,10.707,0,0,0,.3,1.715l.726,1.65.593,1.32a.52.52,0,0,1,.33-.066l.264-.264a.318.318,0,0,0-.033-.132.283.283,0,0,1-.033-.132l.066-.792Z"/><path class="cls-1" d="M22.548,25.088a.909.909,0,0,1,.659.2,1.18,1.18,0,0,1,.725-.2c0-.043.077.132.231.528s.363.594.627.594l.593-.4.528-.858.427-.684a2.9,2.9,0,0,1-1.439-1.68c-.178.113-.381.226-.55.339a5.755,5.755,0,0,0-1.142.97,9.43,9.43,0,0,0-1.055,1.253.451.451,0,0,0,.2-.033A.454.454,0,0,1,22.548,25.088Z"/><path class="cls-1" d="M31.251,35.975l.923,1.518.132.594v.528a12.886,12.886,0,0,1-.2,2.243,10.793,10.793,0,0,0-.2,1.715q0,.462.2.462.921-1.914,1.913-3.992a10.383,10.383,0,0,0,.988-4.519,15.977,15.977,0,0,0-.131-1.815,1.6,1.6,0,0,0-.923-1.418c-.221-.044-.452-.089-.693-.132a3.892,3.892,0,0,0-.692-.066,3.343,3.343,0,0,0-.495.033,3.033,3.033,0,0,1-.428.033.446.446,0,0,1-.33-.132,6.5,6.5,0,0,1-1.615.561c-.418.066-.8.142-1.154.23L28.086,34l.66,1.386Z"/><path class="cls-2" d="M50.209,5.783A5.774,5.774,0,0,0,45.99,4h-15a5.764,5.764,0,0,0-4.219,1.783A5.771,5.771,0,0,0,24.99,10v9.007a5.718,5.718,0,0,0,1.781,4.269,5.835,5.835,0,0,0,4.219,1.735v2.627A1.7,1.7,0,0,0,31.6,29a2.058,2.058,0,0,0,1.36.515,1.9,1.9,0,0,0,1.218-.375l7.313-4.034,4.5-.094a5.845,5.845,0,0,0,4.219-1.735,5.729,5.729,0,0,0,1.781-4.269V10A5.782,5.782,0,0,0,50.209,5.783ZM48.99,19.011a2.889,2.889,0,0,1-3,3l-6,.094-6,2.908v-3h-3a2.952,2.952,0,0,1-2.109-.844,2.837,2.837,0,0,1-.891-2.158V10a3.045,3.045,0,0,1,3-3h15a2.845,2.845,0,0,1,2.156.892A2.966,2.966,0,0,1,48.99,10Z"/><path class="cls-2" d="M38.49,17.474a1.383,1.383,0,0,0-1.084.458A1.507,1.507,0,0,0,37,18.969a1.544,1.544,0,0,0,.41,1.109,1.571,1.571,0,0,0,2.168,0,1.552,1.552,0,0,0,.41-1.109,1.516,1.516,0,0,0-.41-1.037A1.387,1.387,0,0,0,38.49,17.474Z"/><path class="cls-2" d="M38.49,8.5a1.42,1.42,0,0,0-1.084.434,1.546,1.546,0,0,0-.41,1.11l.723,5.256c.063.386.16.62.289.7a.9.9,0,0,0,.482.12A.766.766,0,0,0,39,15.979a1.243,1.243,0,0,0,.265-.676l.723-5.256a1.555,1.555,0,0,0-.41-1.11A1.424,1.424,0,0,0,38.49,8.5Z"/></svg>