<svg id="sap-product-configuration" xmlns="http://www.w3.org/2000/svg" viewBox="0 0 56 56"><defs><style>.cls-1{fill:#053b70;}.cls-2{fill:#0a6ed1;}</style></defs><path class="cls-1" d="M21.444,15.071l-3.9-2.036-6.989,3.294V39.671L28,48.141l17.444-8.47V16.329L27.976,7.859,25.288,9.176,21.353,7.2,28,4,49,14.353V41.647L28,52,7,41.647V14.353L17.476,9.176,25,13Z"/><path class="cls-2" d="M27.894,25.571q-.24-.518-.558-1.075l1.912-1.912-1.832-1.832L25.5,22.664a9.688,9.688,0,0,0-2.309-.956V19H20.646v2.708a11.513,11.513,0,0,0-2.15.956L16.5,20.752l-1.752,1.832L16.664,24.5a5.054,5.054,0,0,0-.956,2.23H13v2.548h2.708a5.261,5.261,0,0,0,.956,2.23L14.752,33.5,16.5,35.248,18.5,33.336a5.249,5.249,0,0,0,2.15.956V37H23.2V34.292a6.672,6.672,0,0,0,2.309-.956l1.912,1.912L29.248,33.5,27.336,31.5a8.772,8.772,0,0,0,.956-2.23H31V26.726H28.292A6.648,6.648,0,0,0,27.894,25.571Zm-3.186,5.177a3.752,3.752,0,0,1-5.416,0A3.815,3.815,0,0,1,18.177,28a3.558,3.558,0,0,1,1.115-2.668,3.948,3.948,0,0,1,5.416,0A3.565,3.565,0,0,1,25.823,28,3.823,3.823,0,0,1,24.708,30.748Z"/><path class="cls-2" d="M41.967,28.4a5.92,5.92,0,0,0-3.584-1.883V21.9a2.273,2.273,0,0,1,1.4.547,2.022,2.022,0,0,1,.669,1.215l2.186-.365a4.281,4.281,0,0,0-4.252-3.766V18.25H36.865v1.276a3.951,3.951,0,0,0-1.762.516,5.212,5.212,0,0,0-1.367,1.124,4.851,4.851,0,0,0-.881,1.458,4.212,4.212,0,0,0-.3,1.518,4.012,4.012,0,0,0,1.185,2.7,7.368,7.368,0,0,0,3.129,1.974v4.435a2.959,2.959,0,0,1-1.155-.912,3.556,3.556,0,0,1-.729-1.518l-2.49.3a5.218,5.218,0,0,0,1.518,3.463,4.428,4.428,0,0,0,2.856,1.215V37.75h1.518V35.745a4.73,4.73,0,0,0,3.372-1.488A4.668,4.668,0,0,0,43,31.007,4.307,4.307,0,0,0,41.967,28.4Zm-5.1-2.673a2.2,2.2,0,0,1-1.519-1.944,1.839,1.839,0,0,1,.425-1.154,2.371,2.371,0,0,1,1.094-.79Zm2.946,6.895a3.023,3.023,0,0,1-1.428.881V29.124q2.005.666,2,2.126A2.015,2.015,0,0,1,39.811,32.617Z"/></svg>