<?xml version="1.0" encoding="utf-8"?>
<!-- Generator: Adobe Illustrator 26.3.1, SVG Export Plug-In . SVG Version: 6.00 Build 0)  -->
<svg version="1.1" id="mobilink" xmlns="http://www.w3.org/2000/svg" xmlns:xlink="http://www.w3.org/1999/xlink" x="0px" y="0px"
	 viewBox="0 0 56 56" style="enable-background:new 0 0 56 56;" xml:space="preserve">
<style type="text/css">
	.st0{fill:#0A6ED1;}
	.st1{fill:#FFFFFF;}
	.st2{fill:#053B70;}
</style>
<rect x="18" y="34.9" class="st0" width="12" height="4"/>
<path class="st0" d="M34,7H22L10,19v23.9c-0.1,2.1,1.6,3.9,3.7,4c0.1,0,0.2,0,0.3,0H34c2.1,0.1,3.9-1.6,4-3.7c0-0.1,0-0.2,0-0.3V11
	c0-1.1-0.4-2.1-1.2-2.9C36,7.4,35,7,34,7z M34,42.9H14V23h7.9c1.1,0,2.1-0.4,2.9-1.1C25.6,21.1,26,20,26,19v-8h8V42.9z"/>
<rect x="18" y="26.9" class="st0" width="12" height="4"/>
<rect x="30.7" y="34.9" class="st1" width="10.8" height="20.7"/>
<rect x="26.8" y="42.3" class="st1" width="4.3" height="12.5"/>
<polygon class="st2" points="47.7,33.2 50.4,35.9 38.6,50.6 31.2,42.9 34.2,39.9 38.6,44.5 "/>
</svg>
