<?xml version="1.0" encoding="utf-8"?>
<!-- Generator: Adobe Illustrator 26.3.1, SVG Export Plug-In . SVG Version: 6.00 Build 0)  -->
<svg version="1.1" id="saas-provisioning" xmlns="http://www.w3.org/2000/svg" xmlns:xlink="http://www.w3.org/1999/xlink" x="0px"
	 y="0px" viewBox="0 0 56 56" style="enable-background:new 0 0 56 56;" xml:space="preserve">
<style type="text/css">
	.st0{fill:#0A6ED1;}
	.st1{fill:#003B74;}
</style>
<path class="st0" d="M47.6,26.9H28.8c-1.6,0-2.8,1.3-2.8,2.8c0,0,0,0,0,0v16.6c0,1.6,1.3,2.8,2.8,2.8c0,0,0,0,0,0h18.8
	c1.6,0,2.8-1.3,2.8-2.8l0,0V29.7C50.4,28.2,49.1,26.9,47.6,26.9L47.6,26.9z M48.1,46.3c0,0.3-0.3,0.6-0.6,0.6H28.8
	c-0.3,0-0.6-0.3-0.6-0.6V35.8h20L48.1,46.3z M48.1,33.6h-20v-3.8c0-0.3,0.3-0.6,0.6-0.6h18.8c0.3,0,0.6,0.3,0.6,0.6V33.6z"/>
<path class="st0" d="M45.9,30.2h-2.2c-0.6,0-1.1,0.5-1.1,1.1c0,0.6,0.5,1.1,1.1,1.1h2.2c0.6,0,1.1-0.5,1.1-1.1
	C47,30.7,46.5,30.3,45.9,30.2z"/>
<path class="st1" d="M7.9,11.4h4.6c0.4-1.1,1.4-2,2.6-2.1C15.5,8.5,16,8,16.7,7.6c1.4-0.9,3.2-0.9,4.6,0c0.7,0.4,1.2,1,1.6,1.6
	c1.2,0.2,2.2,1,2.6,2.1H30c0.6,0,1.2,0.2,1.6,0.7c0.4,0.4,0.6,1,0.6,1.6v8.9H30v-8.9h-4.6c-0.2,0.6-0.5,1.1-0.9,1.6
	c-0.4,0.4-1,0.7-1.6,0.6H15c-0.6,0-1.2-0.2-1.6-0.6c-0.4-0.5-0.7-1-0.9-1.6H7.9v26.6h14.6v2.2H7.9c-1.2,0-2.2-0.9-2.2-2
	c0-0.1,0-0.1,0-0.2V13.6c0-0.6,0.2-1.1,0.6-1.6C6.7,11.6,7.3,11.3,7.9,11.4z M12.3,21.3c0-0.3,0.1-0.6,0.3-0.8
	c0.2-0.2,0.5-0.3,0.8-0.3h11.1c0.5-0.1,1,0.3,1.1,0.8c0,0.1,0,0.2,0,0.3c0,0.3-0.1,0.6-0.3,0.8c-0.2,0.2-0.5,0.4-0.8,0.3H13.4
	C12.8,22.4,12.3,21.9,12.3,21.3z M13.4,24.7h8.9c0.5-0.1,1,0.3,1.1,0.8c0,0.1,0,0.2,0,0.3c0,0.3-0.1,0.6-0.3,0.8
	c-0.2,0.2-0.5,0.4-0.8,0.3h-8.9c-0.6,0-1.1-0.5-1.1-1.1c0-0.3,0.1-0.6,0.3-0.8C12.8,24.8,13.1,24.7,13.4,24.7z M15.6,13.6h6.7
	c0.5,0.1,1-0.3,1.1-0.8c0-0.1,0-0.2,0-0.3c0-0.3-0.1-0.6-0.3-0.8c-0.2-0.2-0.5-0.4-0.8-0.3h-1.1c0-0.6-0.2-1.1-0.6-1.6
	c-0.9-0.9-2.3-0.9-3.2,0c-0.4,0.4-0.6,1-0.6,1.6h-1.1c-0.3,0-0.6,0.1-0.8,0.3c-0.2,0.2-0.3,0.5-0.3,0.8c-0.1,0.5,0.3,1,0.8,1.1
	C15.4,13.6,15.5,13.6,15.6,13.6z"/>
</svg>
