<svg xmlns="http://www.w3.org/2000/svg" version="1.1" xmlns:xlink="http://www.w3.org/1999/xlink" xmlns:svgjs="http://svgjs.dev/svgjs" viewBox="0 0 56 56"><circle r="23" cx="50%" cy="50%" stroke-opacity="1" stroke-width="2" stroke="#074d92" fill-opacity="1" fill="#ffffff"></circle><svg viewBox="0 0 56 56" height="30" x="0" y="25%"><svg version="1.1" id="security-dashboard" xmlns="http://www.w3.org/2000/svg" xmlns:xlink="http://www.w3.org/1999/xlink" x="0px" y="0px" viewBox="0 0 56 56" style="enable-background:new 0 0 56 56;" xml:space="preserve" height="100%" width="100%">
<style type="text/css">
	.st0{fill:none;stroke:#003B74;stroke-width:2;stroke-linecap:round;stroke-linejoin:round;}
	.st1{display:none;fill:none;stroke:#E0EBBF;stroke-miterlimit:10;}
	.st2{fill:#FFFFFF;}
	.st3{fill:#0A6ED1;}
</style>
<g>
	<g>
		<path class="st0" d="M18.8,27.7c4.4,0,8-3.6,8-8s-3.6-8-8-8s-8,3.6-8,8S14.4,27.7,18.8,27.7z"></path>
		<path class="st0" d="M18.8,15.7v4h3"></path>
	</g>
	<rect id="padding_00000076586322297799280670000005207867710673061544_" x="6.8" y="6.2" class="st1" width="24" height="24"></rect>
</g>
<circle class="st2" cx="26.5" cy="28.2" r="7.9"></circle>
<path class="st3" d="M41.6,23.6H24.6c-1.4,0-2.6,1.1-2.6,2.6c0,0,0,0,0,0v15c0,1.4,1.1,2.6,2.6,2.6c0,0,0,0,0,0h17.1
	c1.4,0,2.6-1.1,2.6-2.6l0,0v-15C44.2,24.7,43,23.6,41.6,23.6L41.6,23.6z M42.2,41.2c0,0.3-0.2,0.5-0.5,0.5H24.6
	c-0.3,0-0.5-0.2-0.5-0.5v-9.5h18.1L42.2,41.2z M42.2,29.6H24v-3.5c0-0.3,0.2-0.5,0.5-0.5h17.1c0.3,0,0.5,0.2,0.5,0.5V29.6z"></path>
<path class="st3" d="M40.1,26.6h-2c-0.6,0-1,0.5-1,1c0,0.5,0.4,1,1,1h2c0.6,0,1-0.5,1-1C41.1,27.1,40.7,26.6,40.1,26.6z"></path>
</svg></svg></svg>