<svg xmlns="http://www.w3.org/2000/svg" version="1.1" xmlns:xlink="http://www.w3.org/1999/xlink" xmlns:svgjs="http://svgjs.dev/svgjs" viewBox="0 0 56 56"><circle r="23" cx="50%" cy="50%" stroke-opacity="1" stroke-width="2" stroke="#074d92" fill-opacity="1" fill="#ffffff"></circle><svg viewBox="0 0 56 56" height="30" x="0" y="25%"><svg id="oauth2-service" xmlns="http://www.w3.org/2000/svg" viewBox="0 0 56 56" height="100%" width="100%"><defs><style>.cls-1{fill:#053b70;}.cls-2{fill:#0a6ed1;}</style></defs><title>oauth2-service</title><path class="cls-1" d="M25.7,17.55l-7.4,19h4.1l1.6-4.3h7.6l1.7,4.3h4.2l-7.7-19Zm-.4,11.5,2.6-7,2.6,7Z"></path><path class="cls-2" d="M51,22.65H49a1.541,1.541,0,0,1-1.3-.9l-1.3-3.1a1.566,1.566,0,0,1,.3-1.6l1.5-1.5a.967.967,0,0,0,0-1.4L42,7.95a.967.967,0,0,0-1.4,0L39,9.35a1.566,1.566,0,0,1-1.6.3l-3.1-1.3a1.541,1.541,0,0,1-.9-1.3v-2a1,1,0,0,0-1-1H23.6a1,1,0,0,0-1,1v2a1.541,1.541,0,0,1-.9,1.3l-3.1,1.3a1.566,1.566,0,0,1-1.6-.3l-1.5-1.5a.967.967,0,0,0-1.4,0l-6.2,6.2a.967.967,0,0,0,0,1.4l1.4,1.6a1.566,1.566,0,0,1,.3,1.6l-1.3,3.1a1.541,1.541,0,0,1-1.3.9H5a1,1,0,0,0-1,1v8.8a1,1,0,0,0,1,1H7a1.541,1.541,0,0,1,1.3.9l1.3,3.1a1.566,1.566,0,0,1-.3,1.6l-1.5,1.5a.967.967,0,0,0,0,1.4l6.2,6.2a.967.967,0,0,0,1.4,0l1.5-1.5a1.566,1.566,0,0,1,1.6-.3l3.1,1.3a1.541,1.541,0,0,1,.9,1.3v2a1.075,1.075,0,0,0,1,1h8.8a1.075,1.075,0,0,0,1-1v-2a1.541,1.541,0,0,1,.9-1.3l3.1-1.3a1.566,1.566,0,0,1,1.6.3l1.5,1.5a.967.967,0,0,0,1.4,0l6.2-6.2a.967.967,0,0,0,0-1.4l-1.3-1.5a1.566,1.566,0,0,1-.3-1.6l1.3-3.1a1.541,1.541,0,0,1,1.3-.9h2a1.075,1.075,0,0,0,1-1v-8.8A1.075,1.075,0,0,0,51,22.65ZM28,43.85a15.8,15.8,0,1,1,15.8-15.8A15.834,15.834,0,0,1,28,43.85Z"></path></svg></svg></svg>