<svg xmlns="http://www.w3.org/2000/svg" version="1.1" xmlns:xlink="http://www.w3.org/1999/xlink" xmlns:svgjs="http://svgjs.dev/svgjs" viewBox="0 0 56 56"><circle r="23" cx="50%" cy="50%" stroke-opacity="1" stroke-width="2" stroke="#074d92" fill-opacity="1" fill="#ffffff"></circle><svg viewBox="0 0 56 56" height="30" x="0" y="25%"><svg version="1.1" id="Layer_1" xmlns="http://www.w3.org/2000/svg" xmlns:xlink="http://www.w3.org/1999/xlink" x="0px" y="0px" viewBox="0 0 48 48" style="enable-background:new 0 0 48 48;" xml:space="preserve" height="100%" width="100%">
<style type="text/css">
	.st0{fill:#198DD4;}
	.st1{display:none;}
	.st2{display:inline;}
	.st3{fill:#64819C;}
</style>
<g>
	<path class="st0" d="M36.3,4.6c-1.7-0.8-3.7-0.5-5,0.9c-8.8-3.9-19.4-0.1-23.6,8.6l-0.2,0.3l2.4,1.2l0.2-0.3
		c3.6-7.4,12.6-10.6,20.2-7.4c-0.3,1.8,0.7,3.6,2.3,4.5c1,0.5,2.2,0.6,3.3,0.2c1.1-0.4,2-1.1,2.5-2.2C39.3,8.3,38.4,5.7,36.3,4.6z
		 M35.9,9.2L35.9,9.2c-0.2,0.4-0.5,0.7-1,0.8c-0.4,0.1-0.9,0.1-1.3-0.1c-0.8-0.4-1.2-1.4-0.8-2.3c0.3-0.7,1-1,1.7-0.9
		c0.2,0,0.4,0.1,0.6,0.2c0.4,0.2,0.7,0.5,0.8,1C36.1,8.4,36.1,8.8,35.9,9.2z"></path>
	<path class="st0" d="M40.8,13l-0.2-0.3l-2,1.7l0.2,0.3c5.3,6.3,4.5,15.9-1.5,21.4c-1.6-1-3.6-0.9-5,0.3c-1.8,1.5-2.1,4.2-0.6,6.1
		c0.8,0.9,1.8,1.4,2.9,1.5s2.2-0.2,3.1-1c1.5-1.2,1.9-3.2,1.2-4.9C46.1,31.7,46.9,20.5,40.8,13z M36,41L36,41
		c-0.3,0.3-0.8,0.4-1.2,0.4l0,0c-0.4,0-0.9-0.3-1.1-0.6c-0.6-0.7-0.5-1.8,0.2-2.4c0.4-0.3,0.8-0.4,1.2-0.4s0.8,0.2,1.1,0.6
		c0.3,0.3,0.4,0.8,0.4,1.2C36.6,40.3,36.3,40.7,36,41z"></path>
	<path class="st0" d="M26.2,40.9h-0.4c-8.2,0.7-15.6-5.3-16.7-13.5c1.7-0.7,2.8-2.5,2.6-4.3c-0.1-1.1-0.6-2.2-1.5-2.9
		c-0.9-0.7-2-1.1-3.1-1c-2.4,0.2-4.1,2.3-3.9,4.7c0.2,1.9,1.5,3.4,3.3,3.8c1,8,7.3,14.3,15,15.6c1.5,0.3,3,0.3,4.5,0.2h0.4
		L26.2,40.9z M6.1,22.4c0.3-0.3,0.7-0.6,1.1-0.6c0.1,0,0.3,0,0.4,0C8,21.9,8.3,22,8.5,22.2c0.3,0.3,0.6,0.7,0.6,1.1
		c0.1,0.9-0.6,1.7-1.5,1.8c-0.4,0-0.9-0.1-1.2-0.4c-0.3-0.3-0.6-0.7-0.6-1.1C5.7,23.2,5.8,22.7,6.1,22.4z"></path>
</g>
<g id="Layer_2_1_" class="st1">
	<g class="st2">
		<path class="st3" d="M40.1,21.5h-0.8l-0.2-0.8c-0.8-2.7-3.3-4.6-6.2-4.6c-0.9,0-1.8,0.2-2.7,0.6l-0.8,0.4L29,16.4
			c-2.3-3-5.8-4.6-9.6-4.6c-6.3,0-11.7,4.9-12.2,11.2l-0.1,0.9L6.2,24c-3.1,0.4-5.4,3-5.4,6.1c0,3.4,2.8,6.2,6.2,6.2h33
			c4,0,7.2-3.3,7.2-7.4S44,21.5,40.1,21.5z M45.5,28.9c0,3.1-2.4,5.7-5.4,5.7H7c-2.5,0-4.5-2-4.5-4.5c0-2.2,1.7-4.2,3.9-4.4l2.2-0.3
			l0.2-2.3c0.5-5.4,5.1-9.6,10.5-9.6c3.2,0,6.2,1.5,8.3,4l1.4,1.7l2-0.9c0.6-0.3,1.3-0.4,2-0.4c2.1,0,3.9,1.4,4.5,3.4l0.6,1.9h2
			C43.1,23.2,45.5,25.8,45.5,28.9z"></path>
		<g>
			<path class="st3" d="M20.2,23.8c0-0.5-0.4-0.8-0.8-0.8c-0.2,0-0.4,0.1-0.6,0.2L14.4,26c-0.2,0.1-0.5,0.3-0.5,0.8s0.3,0.7,0.5,0.8
				l4.3,2.9c0.1,0.1,0.3,0.2,0.6,0.2c0.4,0,0.8-0.4,0.8-0.9c0-0.4-0.3-0.6-0.5-0.8l-3.4-2.3l3.4-2.2C19.9,24.5,20.2,24.2,20.2,23.8z
				"></path>
			<path class="st3" d="M25.4,22.4c-0.4,0.1-0.6,0.4-0.7,0.7l-2.8,7.3l0,0c-0.1,0.2-0.2,0.4-0.1,0.7c0.1,0.4,0.4,0.7,0.8,0.7h0.1
				c0.5-0.1,0.6-0.4,0.7-0.6l2.9-7.5c0-0.1,0.1-0.3,0.1-0.6C26.2,22.6,25.8,22.3,25.4,22.4z"></path>
			<path class="st3" d="M33.6,26l-4.3-2.9c-0.2-0.1-0.4-0.2-0.6-0.2c-0.5,0-0.8,0.4-0.8,0.9s0.3,0.7,0.5,0.8l3.4,2.2l-3.4,2.3
				c-0.2,0.1-0.5,0.4-0.5,0.8c0,0.5,0.4,0.9,0.8,0.9c0.3,0,0.5-0.1,0.6-0.2l4.3-2.9c0.2-0.1,0.5-0.3,0.5-0.8
				C34.1,26.4,33.8,26.1,33.6,26z"></path>
		</g>
	</g>
</g>
</svg></svg></svg>