<svg xmlns="http://www.w3.org/2000/svg" version="1.1" xmlns:xlink="http://www.w3.org/1999/xlink" xmlns:svgjs="http://svgjs.dev/svgjs" viewBox="0 0 56 56"><circle r="23" cx="50%" cy="50%" stroke-opacity="1" stroke-width="2" stroke="#074d92" fill-opacity="1" fill="#ffffff"></circle><svg viewBox="0 0 56 56" height="30" x="0" y="25%"><svg id="Layer_61" data-name="Layer 61" xmlns="http://www.w3.org/2000/svg" viewBox="0 0 16 16" height="100%" width="100%"><defs><style>.cls-1{fill:#5a7a94;}.cls-2{fill:#0092d1;}</style></defs><title>p</title><path class="cls-1" d="M15,1.531V9.469a4.472,4.472,0,0,1-1.332,3,7.486,7.486,0,0,1-1.315,1.156q-.8.563-1.527,1c-.487.292-.916.525-1.283.7a6.251,6.251,0,0,1-.585.266L8.016,16l-.974-.406q-.1-.063-.91-.422a11.687,11.687,0,0,1-1.786-1.016A9.533,9.533,0,0,1,1.8,11.812,4.091,4.091,0,0,1,1,9.469V1.531L8.016,0Zm-1.169.907L8.016,1.156,2.169,2.438V9.469a3.238,3.238,0,0,0,1.007,2.25,7.5,7.5,0,0,0,1.17,1.015q.714.516,1.4.922t1.2.656a3.242,3.242,0,0,0,.585.25l.487.219.455-.219c.021,0,.292-.124.812-.374a15.131,15.131,0,0,0,1.689-.969q2.858-1.812,2.859-3.75Z"></path><path class="cls-2" d="M11.333,9.068V8.333a1.333,1.333,0,1,0-2.666,0v.735A1,1,0,0,0,8,10v1a1,1,0,0,0,1,1h2a1,1,0,0,0,1-1V10A1,1,0,0,0,11.333,9.068Zm-2-.735a.667.667,0,0,1,1.334,0V9H9.333Zm-.067,3.161.369-.765A.969.969,0,0,1,9.4,10.49a.549.549,0,0,1-.094-.323.63.63,0,0,1,.2-.479A.655.655,0,0,1,9.969,9.5a.642.642,0,0,1,.666.667.635.635,0,0,1-.333.562l.443.765Z"></path><path class="cls-2" d="M6.472,4.389A1.407,1.407,0,0,0,5.083,3,1.409,1.409,0,0,0,3.694,4.389a1.32,1.32,0,0,0,.413.987,1.387,1.387,0,0,0,1.953,0A1.323,1.323,0,0,0,6.472,4.389Z"></path><path class="cls-2" d="M7.026,6.678a1.235,1.235,0,0,0-.4-.618,1.3,1.3,0,0,0-.651-.239,8.38,8.38,0,0,0-.89-.043,8.36,8.36,0,0,0-.889.043,1.3,1.3,0,0,0-.651.239,1.228,1.228,0,0,0-.4.618A4.981,4.981,0,0,0,3,8H7.167A5.024,5.024,0,0,0,7.026,6.678Z"></path></svg></svg></svg>