<svg xmlns="http://www.w3.org/2000/svg" version="1.1" xmlns:xlink="http://www.w3.org/1999/xlink" xmlns:svgjs="http://svgjs.dev/svgjs" viewBox="0 0 56 56"><circle r="23" cx="50%" cy="50%" stroke-opacity="1" stroke-width="2" stroke="#074d92" fill-opacity="1" fill="#ffffff"></circle><svg viewBox="0 0 56 56" height="30" x="0" y="25%"><svg id="print" xmlns="http://www.w3.org/2000/svg" viewBox="0 0 56 56" height="100%" width="100%"><defs><style>.cls-1{fill:#053b70;}.cls-2{fill:#0a6ed1;}</style></defs><title>print</title><path class="cls-1" d="M51.109,13.891A2.879,2.879,0,0,0,49,13H43V7a2.891,2.891,0,0,0-.891-2.109A2.879,2.879,0,0,0,40,4H16a2.833,2.833,0,0,0-2.156.891A2.962,2.962,0,0,0,13,7v6H7a2.833,2.833,0,0,0-2.156.891A2.962,2.962,0,0,0,4,16V31a2.889,2.889,0,0,0,3,3h6V31H7V16H49V31H43v3h6a2.962,2.962,0,0,0,2.109-.844A2.844,2.844,0,0,0,52,31V16A2.891,2.891,0,0,0,51.109,13.891ZM40,13H16V7H40Z"></path><path class="cls-1" d="M46,20.5a1.511,1.511,0,0,0-.422-1.031A1.381,1.381,0,0,0,44.5,19h-6a1.378,1.378,0,0,0-1.078.469A1.511,1.511,0,0,0,37,20.5,1.325,1.325,0,0,0,38.5,22h6A1.327,1.327,0,0,0,46,20.5Z"></path><rect class="cls-2" x="19" y="31" width="18" height="3"></rect><rect class="cls-2" x="19" y="37" width="18" height="3"></rect><polygon class="cls-2" points="37 43 19 43 28 47.102 37 43"></polygon><path class="cls-2" d="M42.109,25.891A2.879,2.879,0,0,0,40,25H16a2.833,2.833,0,0,0-2.156.891A2.962,2.962,0,0,0,13,28V49a2.889,2.889,0,0,0,3,3H40a2.962,2.962,0,0,0,2.109-.844A2.848,2.848,0,0,0,43,49V28A2.891,2.891,0,0,0,42.109,25.891ZM40,49H16V28H40Z"></path></svg></svg></svg>