<svg xmlns="http://www.w3.org/2000/svg" version="1.1" xmlns:xlink="http://www.w3.org/1999/xlink" xmlns:svgjs="http://svgjs.dev/svgjs" viewBox="0 0 56 56"><circle r="23" cx="50%" cy="50%" stroke-opacity="1" stroke-width="2" stroke="#074d92" fill-opacity="1" fill="#ffffff"></circle><svg viewBox="0 0 56 56" height="30" x="0" y="25%"><svg id="Layer_229" data-name="Layer 229" xmlns="http://www.w3.org/2000/svg" viewBox="0 0 56 56" height="100%" width="100%"><defs><style>.cls-1{fill:#0a6ed1;}.cls-2{fill:#053b70;}</style></defs><path class="cls-1" d="M28,7a3,3,0,1,1-3,3,3,3,0,0,1,3-3m0-3a6,6,0,1,0,6,6,6.007,6.007,0,0,0-6-6Z"></path><path class="cls-1" d="M28,43a3,3,0,1,1-3,3,3,3,0,0,1,3-3m0-3a6,6,0,1,0,6,6,6.007,6.007,0,0,0-6-6Z"></path><path class="cls-1" d="M13,25v6H7V25h6m3-3H4V34H16V22Z"></path><path class="cls-1" d="M49,25v6H43V25h6m3-3H40V34H52V22Z"></path><path class="cls-2" d="M37,26.125A7.133,7.133,0,0,1,29.875,19a1.125,1.125,0,0,1,2.25,0A4.879,4.879,0,0,0,37,23.875a1.125,1.125,0,0,1,0,2.25Z"></path><path class="cls-2" d="M19,26.125a1.125,1.125,0,0,1,0-2.25A4.879,4.879,0,0,0,23.875,19a1.125,1.125,0,0,1,2.25,0A7.133,7.133,0,0,1,19,26.125Z"></path><path class="cls-2" d="M25,38.125A1.125,1.125,0,0,1,23.875,37,4.88,4.88,0,0,0,19,32.125a1.125,1.125,0,0,1,0-2.25A7.133,7.133,0,0,1,26.125,37,1.125,1.125,0,0,1,25,38.125Z"></path><path class="cls-2" d="M31,38.125A1.125,1.125,0,0,1,29.875,37,7.133,7.133,0,0,1,37,29.875a1.125,1.125,0,0,1,0,2.25A4.88,4.88,0,0,0,32.125,37,1.125,1.125,0,0,1,31,38.125Z"></path></svg></svg></svg>