<svg xmlns="http://www.w3.org/2000/svg" version="1.1" xmlns:xlink="http://www.w3.org/1999/xlink" xmlns:svgjs="http://svgjs.dev/svgjs" viewBox="0 0 56 56"><circle r="23" cx="50%" cy="50%" stroke-opacity="1" stroke-width="2" stroke="#074d92" fill-opacity="1" fill="#ffffff"></circle><svg viewBox="0 0 56 56" height="30" x="0" y="25%"><svg id="uas" xmlns="http://www.w3.org/2000/svg" viewBox="0 0 56 56" height="100%" width="100%"><defs><style>.cls-1{fill:#053b70;}.cls-2{fill:#0a6ed1;}</style></defs><path class="cls-1" d="M35.982,22.99V27a15.468,15.468,0,0,0-8,6.877V22.99a1,1,0,0,1,1-1h6A1,1,0,0,1,35.982,22.99Z"></path><path class="cls-1" d="M47.976,5V27.417a15.377,15.377,0,0,0-6.5-1.429,14.776,14.776,0,0,0-1.5.07V5a1,1,0,0,1,1-1h6A1,1,0,0,1,47.976,5Z"></path><rect class="cls-1" x="4" y="30.985" width="7.996" height="13.992" rx="1"></rect><rect class="cls-1" x="15.993" y="15.993" width="7.996" height="28.984" rx="1"></rect><path class="cls-1" d="M30.1,51.974H4v-3H27.917A15.4,15.4,0,0,0,30.1,51.974Z"></path><path class="cls-2" d="M52,42.98v-3H48.849a7.464,7.464,0,0,0-1.1-2.645L49.98,35.1l-2.123-2.123-2.232,2.232a7.456,7.456,0,0,0-2.645-1.1V30.959h-3V34.11a7.464,7.464,0,0,0-2.645,1.1L35.1,32.979,32.979,35.1l2.232,2.231a7.464,7.464,0,0,0-1.1,2.645H30.959v3H34.11a7.456,7.456,0,0,0,1.1,2.645l-2.232,2.232L35.1,49.98l2.231-2.232a7.464,7.464,0,0,0,2.645,1.1V52h3V48.849a7.456,7.456,0,0,0,2.645-1.1l2.232,2.232,2.123-2.123-2.232-2.232a7.456,7.456,0,0,0,1.1-2.645ZM41.479,46A4.523,4.523,0,1,1,46,41.479,4.523,4.523,0,0,1,41.479,46Z"></path></svg></svg></svg>