<svg xmlns="http://www.w3.org/2000/svg" version="1.1" xmlns:xlink="http://www.w3.org/1999/xlink" xmlns:svgjs="http://svgjs.dev/svgjs" viewBox="0 0 56 56"><circle r="23" cx="50%" cy="50%" stroke-opacity="1" stroke-width="2" stroke="#074d92" fill-opacity="1" fill="#ffffff"></circle><svg viewBox="0 0 56 56" height="30" x="0" y="25%"><svg id="bandwidth" xmlns="http://www.w3.org/2000/svg" viewBox="0 0 56 56" height="100%" width="100%"><defs><style>.cls-1{fill:#053b70;}.cls-2{fill:#0a6ed1;}</style></defs><path class="cls-1" d="M13.017,20.52a1.5,1.5,0,0,0-1.5-1.5H5.5a1.5,1.5,0,0,0,0,3.006h6.012A1.5,1.5,0,0,0,13.017,20.52Z"></path><path class="cls-1" d="M14.52,10H8.509a1.5,1.5,0,0,0,0,3.006H14.52a1.5,1.5,0,0,0,0-3.006Z"></path><path class="cls-1" d="M14.52,28.035H11.463a1.5,1.5,0,0,0,0,3.006H14.52a1.5,1.5,0,0,0,0-3.006Z"></path><path class="cls-1" d="M38.5,43H30.121l3.44-3.439a1.5,1.5,0,0,0-2.122-2.122l-6,6a1.5,1.5,0,0,0,0,2.122l6,6a1.5,1.5,0,0,0,2.122-2.122L30.121,46H38.5a1.5,1.5,0,0,0,0-3Z"></path><path class="cls-1" d="M51.561,38.264l-6-6a1.5,1.5,0,0,0-2.122,2.121l3.44,3.44H38.5a1.5,1.5,0,0,0,0,3h8.379l-3.44,3.439a1.5,1.5,0,0,0,2.122,2.121l6-6A1.5,1.5,0,0,0,51.561,38.264Z"></path><path class="cls-2" d="M46,27.453V10.225A3.908,3.908,0,0,0,44.951,7.6a7.744,7.744,0,0,0-2.8-1.95A24.687,24.687,0,0,0,32.5,4a24.687,24.687,0,0,0-9.653,1.65,7.744,7.744,0,0,0-2.8,1.95A3.908,3.908,0,0,0,19,10.225V33.7a3.773,3.773,0,0,0,1.049,2.625,7.744,7.744,0,0,0,2.8,1.95,15.336,15.336,0,0,0,2.616.9l2.491-2.492a17.8,17.8,0,0,1-3.848-.957C22.357,35.05,22,34.6,22,33.775V29.65A8.93,8.93,0,0,0,25.435,31a28.384,28.384,0,0,0,7.065.825A29.391,29.391,0,0,0,39.635,31,12.588,12.588,0,0,0,43,29.86a11.668,11.668,0,0,0,1.8-1.1A5.659,5.659,0,0,0,46,27.453ZM43,25.9c0,.9-.287,1.425-2.106,2.1A24.154,24.154,0,0,1,32.5,29.275,24.154,24.154,0,0,1,24.106,28C22.357,27.325,22,26.725,22,25.9V21.85a8.991,8.991,0,0,0,3.435,1.725,28.6,28.6,0,0,0,7.065.75c4.9,0,8.192-.9,10.5-2.55ZM40.594,12.7A22.37,22.37,0,0,1,32.5,13.975,22.37,22.37,0,0,1,24.406,12.7C22.658,11.95,22,11.125,22,10.225c0-1.575,3.225-3.45,10.5-3.45,7.345,0,10.5,1.875,10.5,3.45C43,11.125,42.412,11.95,40.594,12.7Z"></path></svg></svg></svg>