<svg xmlns="http://www.w3.org/2000/svg" version="1.1" xmlns:xlink="http://www.w3.org/1999/xlink" xmlns:svgjs="http://svgjs.dev/svgjs" viewBox="0 0 56 56"><circle r="23" cx="50%" cy="50%" stroke-opacity="1" stroke-width="2" stroke="#074d92" fill-opacity="1" fill="#ffffff"></circle><svg viewBox="0 0 56 56" height="30" x="0" y="25%"><svg id="sap-translation-hub" xmlns="http://www.w3.org/2000/svg" viewBox="0 0 56 56" height="100%" width="100%"><defs><style>.cls-1{fill:#0a6ed1;}.cls-2{fill:#053b70;}</style></defs><title>sap-translation-hub</title><path class="cls-1" d="M17.4,29.605a15.111,15.111,0,0,0,4.775,3.223A14.6,14.6,0,0,0,28,34a14.909,14.909,0,0,0,10.635-4.395,15.414,15.414,0,0,0,3.193-4.775A14.615,14.615,0,0,0,43,19a14.829,14.829,0,0,0-1.172-5.859,14.743,14.743,0,0,0-7.969-7.969A14.815,14.815,0,0,0,28,4a14.6,14.6,0,0,0-5.83,1.172A15.4,15.4,0,0,0,17.4,8.365,14.909,14.909,0,0,0,13,19a14.58,14.58,0,0,0,1.172,5.83A15.106,15.106,0,0,0,17.4,29.605Zm2.578-.263a12.949,12.949,0,0,1-3.809-4.717h5.1A14.983,14.983,0,0,0,25.6,31.891,13.433,13.433,0,0,1,19.973,29.342ZM22.375,19a15.433,15.433,0,0,1,.117-1.934c.077-.624.176-1.23.293-1.816H33.273A19.059,19.059,0,0,1,33.625,19a19.636,19.636,0,0,1-.352,3.75H22.785c-.117-.624-.216-1.24-.293-1.846A14.706,14.706,0,0,1,22.375,19ZM28,31.305a9.022,9.022,0,0,1-2.783-2.637,13.881,13.881,0,0,1-1.963-4.043h9.551a15.636,15.636,0,0,1-1.993,4.043A8.516,8.516,0,0,1,28,31.305Zm8.057-1.963a13.229,13.229,0,0,1-5.6,2.549,14.869,14.869,0,0,0,4.277-7.266h5.1A13.109,13.109,0,0,1,36.057,29.342ZM41.125,19a13.007,13.007,0,0,1-.527,3.75h-5.45A19.636,19.636,0,0,0,35.5,19a19.059,19.059,0,0,0-.352-3.75H40.6A13.007,13.007,0,0,1,41.125,19Zm-5.1-10.371a13.234,13.234,0,0,1,3.809,4.746h-5.1A14.3,14.3,0,0,0,30.4,6.109,12.707,12.707,0,0,1,36.027,8.629ZM28,6.7A8.623,8.623,0,0,1,30.812,9.3a14.943,14.943,0,0,1,1.993,4.072H23.254A13.355,13.355,0,0,1,25.217,9.3,9.146,9.146,0,0,1,28,6.7ZM19.973,8.629A12.707,12.707,0,0,1,25.6,6.109a14.3,14.3,0,0,0-4.278,7.266H16.164A13.212,13.212,0,0,1,19.973,8.629Zm-4.952,8.437a11.189,11.189,0,0,1,.44-1.816h5.391q-.119.879-.235,1.816A15.433,15.433,0,0,0,20.5,19a19.636,19.636,0,0,0,.352,3.75H15.461a11.164,11.164,0,0,1-.44-1.816,12.882,12.882,0,0,1,0-3.868Z"></path><path class="cls-2" d="M43,28V44.5H34.725A8.976,8.976,0,0,0,29.5,46.2V36.849A15.239,15.239,0,0,1,27.951,37c-.5,0-.966-.1-1.451-.142v9.347a8.977,8.977,0,0,0-5.23-1.7H13V28a3,3,0,0,0-3,3V46a3,3,0,0,0,3,3h9a7.414,7.414,0,0,1,5.64,2.64L28,52l.36-.36A7.414,7.414,0,0,1,34,49h9a3,3,0,0,0,3-3V31A3,3,0,0,0,43,28Z"></path></svg></svg></svg>