<svg xmlns="http://www.w3.org/2000/svg" version="1.1" xmlns:xlink="http://www.w3.org/1999/xlink" xmlns:svgjs="http://svgjs.dev/svgjs" viewBox="0 0 56 56"><circle r="23" cx="50%" cy="50%" stroke-opacity="1" stroke-width="2" stroke="#074d92" fill-opacity="1" fill="#ffffff"></circle><svg viewBox="0 0 56 56" height="30" x="0" y="25%"><svg id="ai-launchpad" xmlns="http://www.w3.org/2000/svg" viewBox="0 0 56 56" height="100%" width="100%"><defs><style>.cls-1{fill:#0a6ed1;}.cls-2,.cls-3{fill:#053b70;}.cls-3{fill-rule:evenodd;}</style></defs><path class="cls-1" d="M28,8.5a2.25,2.25,0,0,1,1.155.324l14.072,8.412A2.727,2.727,0,0,1,44.5,19.587V36.413a2.727,2.727,0,0,1-1.273,2.351L29.155,47.176a2.221,2.221,0,0,1-2.31,0L12.773,38.764A2.727,2.727,0,0,1,11.5,36.413V19.587a2.727,2.727,0,0,1,1.273-2.351L26.845,8.824A2.25,2.25,0,0,1,28,8.5M28,4a6.74,6.74,0,0,0-3.464.961L10.464,13.374A7.226,7.226,0,0,0,7,19.587V36.413a7.226,7.226,0,0,0,3.464,6.213l14.072,8.413a6.724,6.724,0,0,0,6.928,0l14.072-8.413A7.226,7.226,0,0,0,49,36.413V19.587a7.226,7.226,0,0,0-3.464-6.213L31.464,4.961A6.74,6.74,0,0,0,28,4Z"></path><path class="cls-2" d="M40,24.459v9.826a1.5,1.5,0,0,1-.734,1.29l-2.146,1.274-.843.51A1.5,1.5,0,0,1,34,36.076V24.459L28,20.8l-3.66-2.25a1.477,1.477,0,0,1,.03-2.55l.75-.45,2.14-1.28a1.5,1.5,0,0,1,1.54,0l2.14,1.28,6.12,3.66A6.116,6.116,0,0,1,40,24.459Z"></path><path class="cls-2" d="M31,29.29v6.822a1.5,1.5,0,0,1-.72,1.281l-1.77,1.077-1.23.75A1.5,1.5,0,0,1,25,37.93V29.8L22,28l-3.69-2.19a1.5,1.5,0,0,1,.015-2.58l1.155-.69,1.755-1.05a1.546,1.546,0,0,1,1.53,0l1.605.96,4.14,2.46A5.138,5.138,0,0,1,31,29.29Z"></path><path class="cls-3" d="M19.5,30.239l2.01,1.2a1.032,1.032,0,0,1,.5.888v2.4a1.033,1.033,0,0,1-.5.888l-2.01,1.2a.961.961,0,0,1-.99,0l-2.01-1.2a1.033,1.033,0,0,1-.5-.888v-2.4a1.032,1.032,0,0,1,.5-.888l2.01-1.2A.961.961,0,0,1,19.5,30.239Z"></path></svg></svg></svg>