<svg id="document-information-extraction" xmlns="http://www.w3.org/2000/svg" viewBox="0 0 56 56"><defs><style>.cls-1{fill:#053b70;}.cls-2{fill:#0a6ed1;}</style></defs><title>document-information-extraction</title><path class="cls-1" d="M37,45.95V49a2.888,2.888,0,0,1-3,3H7a2.888,2.888,0,0,1-3-3V16L16,4H34a2.966,2.966,0,0,1,2.109.843A2.849,2.849,0,0,1,37,7v6H34V7H19v9a2.845,2.845,0,0,1-.891,2.156,3.086,3.086,0,0,1-2.2.844H7V49H34V45.95Z"/><rect class="cls-2" x="43" y="13.693" width="9" height="3"/><rect class="cls-2" x="43" y="18.268" width="9" height="3"/><rect class="cls-2" x="43" y="25.693" width="9" height="3"/><rect class="cls-2" x="43" y="30.268" width="9" height="3"/><rect class="cls-2" x="43" y="37.728" width="9" height="3"/><rect class="cls-2" x="43" y="42.303" width="9" height="3"/><polygon class="cls-2" points="39.984 45.982 39.984 12.982 24.984 29.482 39.984 45.982"/></svg>