<svg id="ai-core" xmlns="http://www.w3.org/2000/svg" viewBox="0 0 56 56"><defs><style>.cls-1{fill:none;}.cls-2{fill:#0a6ed1;}.cls-3{fill:#053b70;}</style></defs><rect class="cls-1" x="7" y="16" width="42" height="6"/><rect class="cls-1" x="7" y="7" width="42" height="6"/><path class="cls-2" d="M23.966,49.681v-.01H22.881a2.269,2.269,0,0,1-2.211-2.328V43.206a4.513,4.513,0,0,0-1.488-3.1A4.716,4.716,0,0,0,20.67,37V32.657a2.269,2.269,0,0,1,2.211-2.328h1.085v-.01a1.16,1.16,0,0,0,0-2.309V28H22.874a4.538,4.538,0,0,0-4.415,4.656V37a2.158,2.158,0,0,1-1.592,1.819v.02a1.31,1.31,0,0,0,0,2.454v.016a2.261,2.261,0,0,1,1.592,1.9v4.137A4.538,4.538,0,0,0,22.874,52h1.092v-.01a1.16,1.16,0,0,0,0-2.309Z"/><path class="cls-2" d="M51.991,39.938a1.285,1.285,0,0,0-.852-1.227V38.7a2.263,2.263,0,0,1-1.592-1.9V32.657A4.537,4.537,0,0,0,45.133,28H44.04v.01a1.16,1.16,0,0,0,0,2.309v.01h1.086a2.268,2.268,0,0,1,2.21,2.328v4.137a4.518,4.518,0,0,0,1.489,3.1A4.717,4.717,0,0,0,47.336,43v4.339a2.268,2.268,0,0,1-2.21,2.328H44.04v.01a1.16,1.16,0,0,0,0,2.309V52h1.093a4.537,4.537,0,0,0,4.414-4.656V43a2.158,2.158,0,0,1,1.592-1.819v-.02A1.286,1.286,0,0,0,51.991,39.938Z"/><path class="cls-2" d="M13.011,11.125h-3a1.125,1.125,0,0,1,0-2.25h3a1.125,1.125,0,0,1,0,2.25Z"/><path class="cls-2" d="M13.011,20.1h-3a1.125,1.125,0,0,1,0-2.25h3a1.125,1.125,0,0,1,0,2.25Z"/><path class="cls-2" d="M13.01,29.065h-3a1.125,1.125,0,0,1,0-2.25h3a1.125,1.125,0,1,1,0,2.25Z"/><path class="cls-3" d="M52,22V7a3.009,3.009,0,0,0-3-3H7A3.009,3.009,0,0,0,4,7V31a3.009,3.009,0,0,0,3,3h5.635a1.5,1.5,0,0,0,0-3H7V25H49A3,3,0,0,0,52,22ZM7,7H49v6H7Zm0,9H49v6H7Z"/><path class="cls-3" d="M34.6,42.678A2.675,2.675,0,0,1,31.928,40a.75.75,0,1,1,1.5,0,1.173,1.173,0,0,0,.342.832,1.211,1.211,0,0,0,1.665,0,1.177,1.177,0,0,0-.83-2.013.75.75,0,1,1,0-1.5A2.681,2.681,0,0,1,37.283,40,2.68,2.68,0,0,1,34.6,42.678Z"/><path class="cls-3" d="M34.6,46.267a6.267,6.267,0,0,1-4.429-10.7,6.423,6.423,0,0,1,8.862,0A6.226,6.226,0,0,1,40.872,40a1.125,1.125,0,0,1-2.25,0,3.977,3.977,0,0,0-1.175-2.839,4.113,4.113,0,0,0-5.68,0A4.019,4.019,0,0,0,34.6,44.017a1.125,1.125,0,0,1,0,2.25Z"/><path class="cls-3" d="M34.6,50.125a10.071,10.071,0,0,1-7.16-2.965,1.127,1.127,0,0,1,1.594-1.594,8.055,8.055,0,0,0,11.133,0,7.792,7.792,0,0,0,1.257-1.628,1.125,1.125,0,1,1,1.945,1.13A10.153,10.153,0,0,1,34.6,50.125Z"/><path class="cls-3" d="M25.605,41.125A1.125,1.125,0,0,1,24.48,40a10.071,10.071,0,0,1,2.965-7.16,10.381,10.381,0,0,1,14.321,0,1.127,1.127,0,0,1-1.594,1.594,8.055,8.055,0,0,0-11.133,0A7.813,7.813,0,0,0,26.73,40,1.125,1.125,0,0,1,25.605,41.125Z"/></svg>