<svg id="service-ticket-intelligence" xmlns="http://www.w3.org/2000/svg" viewBox="0 0 56 56"><defs><style>.cls-1{fill:#053b70;}.cls-2{fill:#0a6ed1;}</style></defs><title>service-ticket-intelligence</title><path class="cls-1" d="M13.008,22a1.5,1.5,0,0,0-1.5-1.5h-6a1.5,1.5,0,0,0,0,3h6.005A1.5,1.5,0,0,0,13.008,22Z"/><path class="cls-1" d="M14.509,14.509H8.5a1.5,1.5,0,0,0,0,3h6.005a1.5,1.5,0,0,0,0-3Z"/><path class="cls-1" d="M14.509,26.5H11.455a1.5,1.5,0,1,0,0,3h3.054a1.5,1.5,0,0,0,0-3Z"/><polygon class="cls-1" points="39.328 39.4 36.88 36.614 35.191 38.303 39.328 42.861 47.178 33.744 45.49 32.056 39.328 39.4"/><path class="cls-1" d="M41.511,26.5A10.489,10.489,0,1,0,52,36.99,10.488,10.488,0,0,0,41.511,26.5Zm0,18.729a8.241,8.241,0,1,1,8.241-8.241A8.25,8.25,0,0,1,41.511,45.231Z"/><path class="cls-2" d="M49.008,8.521H22.028a2.993,2.993,0,0,0-2.992,2.992V29.506A2.993,2.993,0,0,0,22.028,32.5h6.879A13.461,13.461,0,0,1,30.359,29.5h-6.3l5.65-3.767a1.123,1.123,0,1,0-1.247-1.867l-6.43,4.287,0-14.838,11.338,7.557a3.869,3.869,0,0,0,4.3,0L49,13.319l0,12.45A13.491,13.491,0,0,1,52,28.559V11.513A2.993,2.993,0,0,0,49.008,8.521Zm-13,9.863a.876.876,0,0,1-.978,0l-10.3-6.866H46.3Z"/></svg>