<svg xmlns="http://www.w3.org/2000/svg" version="1.1" xmlns:xlink="http://www.w3.org/1999/xlink" viewBox="0 0 510 510" preserveAspectRatio="xMidYMid">
                    <defs><style>.cls-1{fill:#595959;}</style></defs>
                    <title>activities</title>
                    <g id="Layer_2" data-name="Layer 2"><g id="activities">
                    <path class="cls-1" d="M179 251q9-9 20.5-9t19.5 9q8 8 8 19.5t-8 19.5L105 404q-8 9-19.5 9T66 404L9 347q-9-8-9-19.5T9 307q8-8 19.5-8t19.5 8l37 37zm0-171q9-9 20.5-9t19.5 9q8 8 8 19.5t-8 20.5L105 233q-8 9-19.5 9T66 233L9 177q-9-9-9-20.5T9 137q8-9 19.5-9t19.5 9l37 37zm134 105q-28 0-28-28 0-13 7.5-21t20.5-8h171q13 0 20.5 8t7.5 21q0 28-28 28H313zm171 114q28 0 28 28 0 13-7.5 21t-20.5 8H313q-13 0-20.5-8t-7.5-21q0-28 28-28h171z"></path>
                    </g></g>
                    </svg>