<svg xmlns="http://www.w3.org/2000/svg" version="1.1" xmlns:xlink="http://www.w3.org/1999/xlink" viewBox="0 0 510 510" preserveAspectRatio="xMidYMid">
                    <defs><style>.cls-1{fill:#595959;}</style></defs>
                    <title>add-activity</title>
                    <g id="Layer_2" data-name="Layer 2"><g id="add-activity">
                    <path class="cls-1" d="M183.5 460q11 0 18.5 7t7.5 18-7.5 18.5-18.5 7.5h-81q-32 0-54-22.5t-22-54.5V127q0-32 22-54t54-22h26q0-21 15-36t36-15h102q21 0 36 15t15 36h26q32 0 54 22t22 54v54q0 11-7 18t-18 7-18.5-7-7.5-18v-54q0-11-7-18t-18-7h-26q0 21-15 36t-36 15h-102q-21 0-36-15t-15-36h-26q-11 0-18 7t-7 18v307q0 11 7 18.5t18 7.5h81zm-4-358h102V51h-102v51zm279 243q28 0 28 28t-28 28h-56v57q0 12-7.5 20t-20.5 8-20.5-8-7.5-20v-57h-57q-12 0-20-7.5t-8-20.5 8-20.5 20-7.5h57v-56q0-28 28-28t28 28v56h56z"></path>
                    </g></g>
                    </svg>