<svg xmlns="http://www.w3.org/2000/svg" version="1.1" xmlns:xlink="http://www.w3.org/1999/xlink" viewBox="0 0 510 510" preserveAspectRatio="xMidYMid">
                    <defs><style>.cls-1{fill:#595959;}</style></defs>
                    <title>attachment-audio</title>
                    <g id="Layer_2" data-name="Layer 2"><g id="attachment-audio">
                    <path class="cls-1" d="M434.5 302q26 0 26 25 0 26-26 26h-51v102q0 21-18.5 36t-45.5 15q-26 0-44.5-15t-18.5-36 18.5-36 44.5-15h13v-51q0-21 15-36t36-15h51zm1-301q11 0 18 7.5t7 18.5v153q0 11-7 18.5t-18 7.5q-12 0-19-7.5t-7-18.5V52h-169l-10 11v66q0 21-15 36t-36 15h-66l-11 10v271h77q11 0 18.5 7t7.5 19q0 11-7.5 18t-18.5 7h-102q-26 0-26-25V180q0-10 8-18l153-153q8-8 18-8h205z"></path>
                    </g></g>
                    </svg>