<svg xmlns="http://www.w3.org/2000/svg" version="1.1" xmlns:xlink="http://www.w3.org/1999/xlink" viewBox="0 0 510 510" preserveAspectRatio="xMidYMid">
                    <defs><style>.cls-1{fill:#595959;}</style></defs>
                    <title>bed</title>
                    <g id="Layer_2" data-name="Layer 2"><g id="bed">
                    <path class="cls-1" d="M129 230q-21 0-36 15t-15 37q0 21 15 36t36 15 36-15 15-36q0-22-15-37t-36-15zm256-25q27 0 50.5 10t40.5 27 27 40.5 10 50.5v153q0 26-26 26-25 0-25-26v-76H52v76q0 26-25 26-26 0-26-26V179q0-25 26-25 25 0 25 25v179h154V230q0-25 25-25h154zM257 358h205v-25q0-33-22-55t-55-22H257v102z"></path>
                    </g></g>
                    </svg>