<svg xmlns="http://www.w3.org/2000/svg" version="1.1" xmlns:xlink="http://www.w3.org/1999/xlink" viewBox="0 0 510 510" preserveAspectRatio="xMidYMid">
                    <defs><style>.cls-1{fill:#595959;}</style></defs>
                    <title>blank-tag</title>
                    <g id="Layer_2" data-name="Layer 2"><g id="blank-tag">
                    <path class="cls-1" d="M175 330q16 0 28-12t12-29q0-16-12-28t-28-12q-17 0-29 12t-12 28q0 17 12 29t29 12zm256-229q35 0 58 23t23 58v215q0 35-23 58t-58 23H164q-41 0-68-35L5 306q-5-6-5-15t5-15l91-140q27-35 68-35h267zm27 81q0-13-7.5-20t-19.5-7H164q-6 0-11.5 3t-10.5 7L61 289l81 124q5 7 10.5 9t11.5 2h267q12 0 19.5-7.5T458 397V182z"></path>
                    </g></g>
                    </svg>