<svg xmlns="http://www.w3.org/2000/svg" version="1.1" xmlns:xlink="http://www.w3.org/1999/xlink" viewBox="0 0 510 510" preserveAspectRatio="xMidYMid">
                    <defs><style>.cls-1{fill:#595959;}</style></defs>
                    <title>bold-text</title>
                    <g id="Layer_2" data-name="Layer 2"><g id="bold-text">
                    <path class="cls-1" d="M368 243q29 17 46.5 45t17.5 64q0 26-10 49.5t-27.5 41T354 470t-50 10H112q-14 0-23-9t-9-23V64q0-14 9-23t23-9h160q27 0 50 10t40.5 27.5 27.5 41 10 49.5q0 48-32 83zm-32-83q0-26-18.5-45T272 96H144v128h128q27 0 45.5-19t18.5-45zm-32 256q27 0 45.5-19t18.5-45-18.5-45-45.5-19H144v128h160z"></path>
                    </g></g>
                    </svg>