<svg xmlns="http://www.w3.org/2000/svg" version="1.1" xmlns:xlink="http://www.w3.org/1999/xlink" viewBox="0 0 510 510" preserveAspectRatio="xMidYMid">
                    <defs><style>.cls-1{fill:#595959;}</style></defs>
                    <title>bookmark-2</title>
                    <g id="Layer_2" data-name="Layer 2"><g id="bookmark-2">
                    <path class="cls-1" d="M363.5 0q36 0 60.5 24.5T448.5 85v397q0 8-4 14.5t-9 10.5q-7 4-16 4-8 0-13-4l-151-91-149 91q-5 4-14 4-10 0-15-4-14-9-14-25V85q0-36 21.5-60.5T143.5 0h220zm30 85q0-13-8-20.5t-21-7.5h-221q-13 0-21 7.5t-8 20.5v343l125-81q5-4 15-4 11 0 16 4l123 81V85z"></path>
                    </g></g>
                    </svg>