<svg xmlns="http://www.w3.org/2000/svg" version="1.1" xmlns:xlink="http://www.w3.org/1999/xlink" viewBox="0 0 510 510" preserveAspectRatio="xMidYMid">
                    <defs><style>.cls-1{fill:#595959;}</style></defs>
                    <title>border</title>
                    <g id="Layer_2" data-name="Layer 2"><g id="border">
                    <path class="cls-1" d="M415.5-1q35 0 58 23t23 58v320q0 34-23 57t-58 23h-320q-34 0-57-23t-23-57V80q0-35 23-58t57-23h320zm27 81q0-12-7.5-19.5T415.5 53h-320q-12 0-19.5 7.5T68.5 80v320q0 12 7.5 19.5t19.5 7.5h320q12 0 19.5-7.5t7.5-19.5V80z"></path>
                    </g></g>
                    </svg>