<svg xmlns="http://www.w3.org/2000/svg" version="1.1" xmlns:xlink="http://www.w3.org/1999/xlink" viewBox="0 0 510 510" preserveAspectRatio="xMidYMid">
                    <defs><style>.cls-1{fill:#595959;}</style></defs>
                    <title>cart-2</title>
                    <g id="Layer_2" data-name="Layer 2"><g id="cart-2">
                    <path class="cls-1" d="M487 77q9 5 12 15t-3 19l-97 170q-9 12-22 12H195l-25 49h253q11 0 18 6.5t7 17.5q0 25-25 25H131q-5 0-11-3.5t-8-9.5q-9-12 0-24l44-88L71 96H37q-11 2-18-4.5T12 74t7-17.5T37 50h48q14 0 22 14l90 181h166l90-159q5-9 15-11t19 2zm-85 338q20 0 34 14.5t14 34.5-14 34-34 14-34.5-14-14.5-34 14.5-34.5T402 415zm-244 0q20 0 34.5 14.5T207 464t-14.5 34-34.5 14-34-14-14-34 14-34.5 34-14.5zm66-299q-17 15-34 0-8-8-8-17.5t8-17.5l73-73q17-15 34 0l73 73q8 8 8 17.5t-8 17.5q-17 15-34 0l-32-32v112q0 11-6.5 17.5T280 220t-17.5-6.5T256 196V84z"></path>
                    </g></g>
                    </svg>