<svg xmlns="http://www.w3.org/2000/svg" version="1.1" xmlns:xlink="http://www.w3.org/1999/xlink" viewBox="0 0 510 510" preserveAspectRatio="xMidYMid">
                    <defs><style>.cls-1{fill:#595959;}</style></defs>
                    <title>chain-link</title>
                    <g id="Layer_2" data-name="Layer 2"><g id="chain-link">
                    <path class="cls-1" d="M233 393q8-8 20-8t18 11q8 8 8 19t-8 19l-38 37q-20 20-45.5 30.5T136 512t-50.5-10.5T41 471t-30-45-10-51 10-51 30-45l76-75q20-20 45.5-30.5T214 163t51 10.5 44 30.5q8 8 8 19t-8 19-19 8-19-8q-23-25-56-25t-57 25l-76 75q-25 23-25 56t25 58q23 24 56 24t57-24zM471 41q20 19 30.5 44t10.5 51-10.5 50.5T471 231l-75 75q-21 21-46 31t-51.5 10-51-10-43.5-31q-8-8-8-18.5t8-18.5 18.5-8 18.5 8q11 12 26 18t30.5 6 30.5-6 27-18l76-76q24-23 24-56t-24-58q-23-24-56-24t-58 24l-38 38q-8 8-19 8t-19-8-8-19 8-19l38-38q20-20 45.5-30.5T376 0t51 10.5T471 41z"></path>
                    </g></g>
                    </svg>