<svg xmlns="http://www.w3.org/2000/svg" version="1.1" xmlns:xlink="http://www.w3.org/1999/xlink" viewBox="0 0 510 510" preserveAspectRatio="xMidYMid">
                    <defs><style>.cls-1{fill:#595959;}</style></defs>
                    <title>chevron-phase</title>
                    <g id="Layer_2" data-name="Layer 2"><g id="chevron-phase">
                    <path class="cls-1" d="M506.5 257q4 5 4 14t-4 14l-86 131q-24 33-64 33h-330q-15 0-22-12-4-5-4-11 0-8 5-16l92-138-92-138q-5-10-5-16t3-12q9-12 23-12h330q19 0 36 8t28 25zm-51 13l-76-118q-6-9-16-9h-289l77 114q4 5 4 14t-4 14l-77 113h284q6 0 11-3t10-8z"></path>
                    </g></g>
                    </svg>