<svg xmlns="http://www.w3.org/2000/svg" version="1.1" xmlns:xlink="http://www.w3.org/1999/xlink" viewBox="0 0 510 510" preserveAspectRatio="xMidYMid">
                    <defs><style>.cls-1{fill:#595959;}</style></defs>
                    <title>cloud</title>
                    <g id="Layer_2" data-name="Layer 2"><g id="cloud">
                    <path class="cls-1" d="M391 161q26 1 48 12t38 28 25.5 39.5T512 289t-10 49-27.5 40.5-41 27.5-49.5 10H107q-22 0-41.5-8T32 385.5t-22.5-34T1 310q0-23 8.5-42t23-33.5T67 212t43-8q4-27 17-50.5t32.5-41 44-27T256 76q45 0 81 23.5t54 61.5zm-7 213q35 0 60-25t25-60q0-18-6.5-33.5t-18.5-27-28-18-34-6.5h-4q-7 0-13-3.5t-8-11.5q-11-31-38.5-51T256 118q-22 0-41.5 8T181 147.5 158.5 179t-8.5 37q0 17-6 23.5t-15 6.5h-22q-27 0-45 18.5T44 310t18 45.5 45 18.5h277z"></path>
                    </g></g>
                    </svg>