<svg xmlns="http://www.w3.org/2000/svg" version="1.1" xmlns:xlink="http://www.w3.org/1999/xlink" viewBox="0 0 510 510" preserveAspectRatio="xMidYMid">
                    <defs><style>.cls-1{fill:#595959;}</style></defs>
                    <title>comment</title>
                    <g id="Layer_2" data-name="Layer 2"><g id="comment">
                    <path class="cls-1" d="M435 0q33 0 55 22t22 54v256q0 32-22 54t-55 22H139l-95 95q-12 12-28 5-15-7-15-23V76q0-32 22-54T78 0h357zm26 76q0-25-26-25H78q-26 0-26 25v348l59-59q8-8 18-8h306q26 0 26-25V76zm-102 51q25 0 25 26 0 25-25 25H154q-25 0-25-25 0-26 25-26h205zm-77 102q11 0 18.5 7.5T308 255t-7.5 18.5T282 281H154q-11 0-18-7.5t-7-18.5 7-18.5 18-7.5h128z"></path>
                    </g></g>
                    </svg>