<svg xmlns="http://www.w3.org/2000/svg" version="1.1" xmlns:xlink="http://www.w3.org/1999/xlink" viewBox="0 0 510 510" preserveAspectRatio="xMidYMid">
                    <defs><style>.cls-1{fill:#595959;}</style></defs>
                    <title>connected</title>
                    <g id="Layer_2" data-name="Layer 2"><g id="connected">
                    <path class="cls-1" d="M504 468q8 8 8 17.5t-8 17.5-18 8-18-8l-94-94q-31 25-70 23t-68-31L113 279q-14-15-22-32.5t-8.5-36 5-36.5 18.5-33L8 44q-8-8-8-18T8 8t18-8 18 8l97 97q31-25 70-23t68 31l123 122q14 15 22 32.5t9 36-5 36.5-18 33zM149 169q-15 15-15 35.5t15 35.5l43 44 92-92-43-44q-15-15-35.5-15T169 148zm123 194q15 15 35.5 15t35.5-15l21-20q15-16 15-36.5T364 271l-44-43-92 92z"></path>
                    </g></g>
                    </svg>