<svg xmlns="http://www.w3.org/2000/svg" version="1.1" xmlns:xlink="http://www.w3.org/1999/xlink" viewBox="0 0 510 510" preserveAspectRatio="xMidYMid">
                    <defs><style>.cls-1{fill:#595959;}</style></defs>
                    <title>create-entry-time</title>
                    <g id="Layer_2" data-name="Layer 2"><g id="create-entry-time">
                    <path class="cls-1" d="M244.5 122q11 0 17.5 6.5t6.5 17.5v115l68 90q5 7 4 17.5t-9 16.5q-7 5-17.5 3.5t-16.5-8.5l-73-98q-2-3-3.5-6.5t-1.5-7.5V146q0-11 7-17.5t18-6.5zm219 121q11 0 17.5 7t6.5 18q0 50-19 94.5t-52 77.5-77.5 52-94.5 19-94.5-19-77.5-52T20 362.5.5 268 20 173.5 72.5 96 150 43.5 244.5 24q11 0 17.5 7t6.5 18-6.5 17.5-17.5 6.5q-40 0-75.5 15.5t-62 42-42 62T49.5 268 65 343.5t42 61.5 62 41.5 75.5 15.5 75.5-15.5 61.5-41.5 41.5-61.5 15.5-75.5q0-25 25-25zm24-170q11 0 17.5 6.5t6.5 17.5q0 25-24 25h-49v48q0 25-24 25t-24-25v-48h-49q-24 0-24-25 0-11 6.5-17.5t17.5-6.5h49V24q0-11 6.5-17.5T414.5 0 432 6.5t6.5 17.5v49h49z"></path>
                    </g></g>
                    </svg>