<svg xmlns="http://www.w3.org/2000/svg" version="1.1" xmlns:xlink="http://www.w3.org/1999/xlink" viewBox="0 0 510 510" preserveAspectRatio="xMidYMid">
                    <defs><style>.cls-1{fill:#595959;}</style></defs>
                    <title>drill-down</title>
                    <g id="Layer_2" data-name="Layer 2"><g id="drill-down">
                    <path class="cls-1" d="M106 55q-9-10-9-22.5t9-22.5q10-9 22.5-9t22.5 9l105 106L362 10q10-9 22.5-9t22.5 9q9 10 9 22.5T407 55L279 183q-10 10-22.5 10T234 183zm256 115q10-10 22.5-10t22.5 10q9 10 9 22.5t-9 22.5L279 342q-10 10-22.5 10T234 342L106 215q-9-10-9-22.5t9-22.5q10-10 22.5-10t22.5 10l105 105zm0 160q10-10 22.5-10t22.5 10q9 9 9 22t-9 22L279 502q-10 10-22.5 10T234 502L106 374q-9-9-9-22t9-22q10-10 22.5-10t22.5 10l105 105z"></path>
                    </g></g>
                    </svg>