<svg xmlns="http://www.w3.org/2000/svg" version="1.1" xmlns:xlink="http://www.w3.org/1999/xlink" viewBox="0 0 510 510" preserveAspectRatio="xMidYMid">
                    <defs><style>.cls-1{fill:#595959;}</style></defs>
                    <title>edit-outside</title>
                    <g id="Layer_2" data-name="Layer 2"><g id="edit-outside">
                    <path class="cls-1" d="M499 88q8 7 8 19 0 11-8 18L126 504q-5 4-9 6t-10 2H27q-12 0-19.5-7.5T0 485v-80q0-10 8-18L382 8q8-8 18-8 11 0 19 8zm-136 99l-43-43L64 405l43 43zm80-80l-43-43-42 43 42 42zm-50 245q-7-7-7-18t7-18 18-7 18 7l76 76q7 7 7 18t-7 18l-76 75q-7 8-18 8-10 0-18-8-7-7-7-17 0-11 7-18l33-33h-91q-25 0-25-25t25-25h91z"></path>
                    </g></g>
                    </svg>