<svg xmlns="http://www.w3.org/2000/svg" version="1.1" xmlns:xlink="http://www.w3.org/1999/xlink" viewBox="0 0 510 510" preserveAspectRatio="xMidYMid">
                    <defs><style>.cls-1{fill:#595959;}</style></defs>
                    <title>email</title>
                    <g id="Layer_2" data-name="Layer 2"><g id="email">
                    <path class="cls-1" d="M435 64q33 0 55 22.5t22 54.5v230q0 33-22 55t-55 22H77q-33 0-55-22T0 371V141q0-32 22-54.5T77 64h358zM79 116q-10 0-12 2l176 110q7 4 15 4t13-4l177-110q-2-2-6-2H79zm356 281q26 0 26-26V172L297 274q-19 12-41 12-21 0-41-12L51 172v199q0 26 26 26h358z"></path>
                    </g></g>
                    </svg>