<svg xmlns="http://www.w3.org/2000/svg" version="1.1" xmlns:xlink="http://www.w3.org/1999/xlink" viewBox="0 0 510 510" preserveAspectRatio="xMidYMid">
                    <defs><style>.cls-1{fill:#595959;}</style></defs>
                    <title>excel-attachment</title>
                    <g id="Layer_2" data-name="Layer 2"><g id="excel-attachment">
                    <path class="cls-1" d="M390 461q13 0 19.5 8t6.5 17q0 10-6.5 18t-19.5 8H58q-11 0-18.5-7.5T32 486V179q0-10 7-17L181 8q8-8 19-8h190q11 0 18.5 7.5T416 26v45q0 13-8 19t-18 6q-9 0-17-6t-8-19V51H211l-12 14v63q0 22-15 36.5T148 179H92l-9 10v272h307zm71-199v-51h-67v51h67zm0 103v-51h-67v51h67zM342 262v-51h-67v51h67zm0 103v-51h-67v51h67zm144-205q11 0 18.5 7.5T512 186v204q0 11-7.5 18.5T486 416H250q-11 0-18.5-7.5T224 390V186q0-11 7.5-18.5T250 160h236z"></path>
                    </g></g>
                    </svg>