<svg xmlns="http://www.w3.org/2000/svg" version="1.1" xmlns:xlink="http://www.w3.org/1999/xlink" viewBox="0 0 510 510" preserveAspectRatio="xMidYMid">
                    <defs><style>.cls-1{fill:#595959;}</style></defs>
                    <title>exit-full-screen</title>
                    <g id="Layer_2" data-name="Layer 2"><g id="exit-full-screen">
                    <path class="cls-1" d="M466.5 149q11 0 18.5 7.5t7.5 18.5-7.5 18-18.5 7h-127q-11 0-18.5-7t-7.5-18V47q0-11 7.5-18.5t18.5-7.5 18 7.5 7 18.5v66l70-70q8-8 19-8 10 0 18 8t8 18-8 18l-71 70h66zm-255-77q11 0 18 7.5t7 18.5-7 18-18 7h-77v77q0 11-7 18.5t-18 7.5-18.5-7.5-7.5-18.5V98q0-11 7.5-18.5t18.5-7.5h102zm204 205q11 0 18.5 7t7.5 18v103q0 11-7.5 18t-18.5 7h-102q-11 0-18.5-7t-7.5-18 7.5-18.5 18.5-7.5h77v-77q0-11 7-18t18-7zm-230 25q11 0 18.5 7.5t7.5 18.5v128q0 11-7.5 18t-18.5 7-18-7-7-18v-66l-71 70q-7 7-18 7t-18-7q-8-8-8-18t8-18l71-71h-67q-11 0-18-7t-7-18 7-18.5 18-7.5h128z"></path>
                    </g></g>
                    </svg>