<svg xmlns="http://www.w3.org/2000/svg" version="1.1" xmlns:xlink="http://www.w3.org/1999/xlink" viewBox="0 0 510 510" preserveAspectRatio="xMidYMid">
                    <defs><style>.cls-1{fill:#595959;}</style></defs>
                    <title>expand</title>
                    <g id="Layer_2" data-name="Layer 2"><g id="expand">
                    <path class="cls-1" d="M361.5 335q11-9 22-9 13 0 22 9t9 22q0 12-9 21l-124 124q-10 10-22 10-10 0-22-10l-123-124q-10-9-10-21 0-13 10-22 9-9 21-9 13 0 22 9l102 102zm-205-157q-9 10-22 10-12 0-21-10-10-10-10-21 0-12 10-22l124-124q9-9 21-9 13 0 22 9l124 124q9 9 9 22 0 12-9 21-9 10-22 10-12 0-21-10l-103-102z"></path>
                    </g></g>
                    </svg>