<svg xmlns="http://www.w3.org/2000/svg" version="1.1" xmlns:xlink="http://www.w3.org/1999/xlink" viewBox="0 0 510 510" preserveAspectRatio="xMidYMid">
                    <defs><style>.cls-1{fill:#595959;}</style></defs>
                    <title>filter</title>
                    <g id="Layer_2" data-name="Layer 2"><g id="filter">
                    <path class="cls-1" d="M507.417 50q5 9 4 17.5t-4 13.5l-153 214v118q0 10-5.5 17t-13.5 12l-127 64q-17 10-32 0-16-11-16-29V295l-153-214q-5-7-6.5-15.5t3.5-15.5q10-16 28-16h447q18 0 28 16zm-92 47h-322l124 173q2 5 4.5 9.5t2.5 9.5v140l63-32V289q0-5 2.5-9.5t4.5-9.5z"></path>
                    </g></g>
                    </svg>