<svg xmlns="http://www.w3.org/2000/svg" version="1.1" xmlns:xlink="http://www.w3.org/1999/xlink" viewBox="0 0 510 510" preserveAspectRatio="xMidYMid">
                    <defs><style>.cls-1{fill:#595959;}</style></defs>
                    <title>forward</title>
                    <g id="Layer_2" data-name="Layer 2"><g id="forward">
                    <path class="cls-1" d="M473 160q7 7 7 18t-7 18L332 337q-8 8-18 8t-18-8-8-18 8-18l97-97h-79q-48 0-90 18t-73.5 49.5T101 345t-18 90v51q0 11-7 18.5T58 512t-18.5-7.5T32 486v-51q0-58 22.5-109.5T115 236t89.5-60.5T314 153h79l-85-85q-7-7-7-18t7.5-18 18.5-7 18 7z"></path>
                    </g></g>
                    </svg>