<svg xmlns="http://www.w3.org/2000/svg" version="1.1" xmlns:xlink="http://www.w3.org/1999/xlink" viewBox="0 0 510 510" preserveAspectRatio="xMidYMid">
                    <defs><style>.cls-1{fill:#595959;}</style></defs>
                    <title>grid</title>
                    <g id="Layer_2" data-name="Layer 2"><g id="grid">
                    <path class="cls-1" d="M88 34q23 0 39.5 16.5T144 90t-16.5 39.5T88 146t-39.5-16.5T32 90t16.5-39.5T88 34zm168 0q23 0 39.5 16.5T312 90t-16.5 39.5T256 146t-39.5-16.5T200 90t16.5-39.5T256 34zm168 112q-23 0-39.5-16.5T368 90t16.5-39.5T424 34t39.5 16.5T480 90t-16.5 39.5T424 146zM88 204q23 0 39.5 16.5T144 260t-16.5 39.5T88 316t-39.5-16.5T32 260t16.5-39.5T88 204zm168 0q23 0 39.5 16.5T312 260t-16.5 39.5T256 316t-39.5-16.5T200 260t16.5-39.5T256 204zm168 0q23 0 39.5 16.5T480 260t-16.5 39.5T424 316t-39.5-16.5T368 260t16.5-39.5T424 204zM88 370q23 0 39.5 16.5T144 426t-16.5 39.5T88 482t-39.5-16.5T32 426t16.5-39.5T88 370zm168 0q23 0 39.5 16.5T312 426t-16.5 39.5T256 482t-39.5-16.5T200 426t16.5-39.5T256 370zm168 0q23 0 39.5 16.5T480 426t-16.5 39.5T424 482t-39.5-16.5T368 426t16.5-39.5T424 370z"></path>
                    </g></g>
                    </svg>