<svg xmlns="http://www.w3.org/2000/svg" version="1.1" xmlns:xlink="http://www.w3.org/1999/xlink" viewBox="0 0 510 510" preserveAspectRatio="xMidYMid">
                    <defs><style>.cls-1{fill:#595959;}</style></defs>
                    <title>heading3</title>
                    <g id="Layer_2" data-name="Layer 2"><g id="heading3">
                    <path class="cls-1" d="M224 97q14 0 23 9t9 23v319q0 14-9 23t-23 9-23-9-9-23V321H65v127q0 14-9 23t-23 9q-15 0-23.5-9T1 448V129q0-14 8.5-23T33 97q14 0 23 9t9 23v128h127V129q0-14 9-23t23-9zm288 192q0 18-10 32 10 13 10 32v63q0 27-19 45.5T448 480h-96q-14 0-23-9t-9-23 9-23 23-9h96v-63h-96q-14 0-23-9t-9-23q0-15 9-23.5t23-8.5h96v-64h-96q-14 0-23-9t-9-23 9-23 23-9h96q26 0 45 19t19 45v64z"></path>
                    </g></g>
                    </svg>