<svg xmlns="http://www.w3.org/2000/svg" version="1.1" xmlns:xlink="http://www.w3.org/1999/xlink" viewBox="0 0 510 510" preserveAspectRatio="xMidYMid">
                    <defs><style>.cls-1{fill:#595959;}</style></defs>
                    <title>heading1</title>
                    <g id="Layer_2" data-name="Layer 2"><g id="heading1">
                    <path class="cls-1" d="M238.5 71q16 0 25.5 9.5t9.5 25.5v340q0 16-9.5 25t-25.5 9q-15 0-24.5-9t-9.5-25V310h-136v136q0 34-34 34-15 0-24.5-9T.5 446V106q0-16 9.5-25.5T34.5 71q16 0 25 9.5t9 25.5v136h136V106q0-16 9.5-25.5t24.5-9.5zm259 75q8 5 11 12.5t3 15.5v272q0 16-9.5 25t-24.5 9q-34 0-34-34V221l-58 21q-13 5-26-1.5t-18-19.5 1-26 19-18l102-34q11-5 18.5-3.5t15.5 6.5z"></path>
                    </g></g>
                    </svg>