<svg xmlns="http://www.w3.org/2000/svg" version="1.1" xmlns:xlink="http://www.w3.org/1999/xlink" viewBox="0 0 510 510" preserveAspectRatio="xMidYMid">
                    <defs><style>.cls-1{fill:#595959;}</style></defs>
                    <title>header</title>
                    <g id="Layer_2" data-name="Layer 2"><g id="header">
                    <path class="cls-1" d="M435 32q33 0 55 22t22 55v295q0 32-22 54.5T435 481H77q-33 0-55-22.5T0 404V109q0-33 22-55t55-22h358zM51 134h410v-25q0-26-26-26H77q-11 0-18.5 7T51 109v25zm410 52H51v218q0 11 7.5 18t18.5 7h358q26 0 26-25V186z"></path>
                    </g></g>
                    </svg>