<svg xmlns="http://www.w3.org/2000/svg" version="1.1" xmlns:xlink="http://www.w3.org/1999/xlink" viewBox="0 0 510 510" preserveAspectRatio="xMidYMid">
                    <defs><style>.cls-1{fill:#595959;}</style></defs>
                    <title>incoming-call</title>
                    <g id="Layer_2" data-name="Layer 2"><g id="incoming-call">
                    <path class="cls-1" d="M484 83q26 0 26 25t-26 25h-91l33 33q8 8 8 18t-8 18-17.5 8-17.5-8l-76-76q-8-8-8-18t8-18l76-75q8-8 17.5-8t17.5 8 8 17.5-8 17.5l-33 33h91zM133 31q27 0 50 10t40 27 26.5 40 9.5 49q0 32-14.5 60.5T204 263q11 16 24.5 29t28.5 25q17-27 45.5-43t60.5-16q26 0 48.5 10t39 27 26.5 40 10 50-10 50-27 40-40 26.5-49 9.5q-46 0-88-14t-74.5-32.5T144 428t-29-25q-33-34-54-69.5T28 265t-16.5-60T7 160q0-27 9.5-51T43 68t40-27 50-10zm230 430q31 0 52-23t21-53q0-32-21-54t-52-22q-25 0-45 15t-26 38q-3 12-15 15-12 5-23-2-33-24-57.5-49T148 269q-7-11-2-23 3-12 15-15 23-8 36.5-27t13.5-44q-2-35-24-57t-54-22-54 22-22 54q6 65 30 116.5t64 93.5 92.5 65T361 461h2z"></path>
                    </g></g>
                    </svg>