<svg xmlns="http://www.w3.org/2000/svg" version="1.1" xmlns:xlink="http://www.w3.org/1999/xlink" viewBox="0 0 510 510" preserveAspectRatio="xMidYMid">
                    <defs><style>.cls-1{fill:#595959;}</style></defs>
                    <title>kpi-managing-my-area</title>
                    <g id="Layer_2" data-name="Layer 2"><g id="kpi-managing-my-area">
                    <path class="cls-1" d="M469 8q8-8 18-8t18 8q7 7 7 17t-7 18L404 144q-7 7-18 7t-18-7l-50-50q-8-8-8-18t8-18 18-8 17 8l33 33zM0 430q0-57 31.5-100.5T113 266q-16-14-25-33t-9-42q0-21 8-39.5t21.5-32 32-21.5 39.5-8 39 8 31.5 21.5 21.5 32 8 39.5q0 23-9 42t-25 33q8 4 16.5 8t16.5 9 10.5 15.5T286 317q-5 9-15.5 11t-19.5-3q-31-20-68-20h-7q-26 0-49 9.5T87 341t-27 40-10 49h165q11 0 18 7t7 18-7 18-18 7H25q-11 0-18-7t-7-18v-25zm180-188q20 0 35-15t15-36-15-35.5-35-14.5q-21 0-36 14.5T129 191t15 36 36 15zm151 142q-11 0-18-7t-7-18 7-18 18-7h126q11 0 18 7t7 18-7 18-18 7H331zm0 96q-11 0-18-7t-7-18 7-18 18-7h126q11 0 18 7t7 18-7 18-18 7H331z"></path>
                    </g></g>
                    </svg>