<svg xmlns="http://www.w3.org/2000/svg" version="1.1" xmlns:xlink="http://www.w3.org/1999/xlink" viewBox="0 0 510 510" preserveAspectRatio="xMidYMid">
                    <defs><style>.cls-1{fill:#595959;}</style></defs>
                    <title>laptop</title>
                    <g id="Layer_2" data-name="Layer 2"><g id="laptop">
                    <path class="cls-1" d="M494 405q21 0 21 21t-21 21H24q-9 0-15-5.5T3 426t6-15.5 15-5.5h26q0-2-1-3v-1q-3-9-3-18V170q0-27 18-45.5t46-18.5h298q28 0 46 18.5t18 45.5v213q0 11-4 22h26zM88 383h342V170q0-21-22-21H110q-22 0-22 21v213z"></path>
                    </g></g>
                    </svg>