<svg xmlns="http://www.w3.org/2000/svg" version="1.1" xmlns:xlink="http://www.w3.org/1999/xlink" viewBox="0 0 510 510" preserveAspectRatio="xMidYMid">
                    <defs><style>.cls-1{fill:#595959;}</style></defs>
                    <title>media-forward</title>
                    <g id="Layer_2" data-name="Layer 2"><g id="media-forward">
                    <path class="cls-1" d="M500 233q12 8 12 24 0 7-3.5 14.5T500 281L318 402q-7 5-15 5t-15-2q-15-10-15-27V136q0-17 15-27 7-5 15-4.5t15 7.5zm-70 27l-97-66v130zm-202-27q12 8 12 24 0 7-3.5 14.5T228 281L46 402q-7 5-15 5t-15-2Q1 395 1 378V136q0-17 15-27 7-5 15-4.5t15 7.5zm-70 27l-97-66v130z"></path>
                    </g></g>
                    </svg>