<svg xmlns="http://www.w3.org/2000/svg" version="1.1" xmlns:xlink="http://www.w3.org/1999/xlink" viewBox="0 0 510 510" preserveAspectRatio="xMidYMid">
                    <defs><style>.cls-1{fill:#595959;}</style></defs>
                    <title>media-rewind</title>
                    <g id="Layer_2" data-name="Layer 2"><g id="media-rewind">
                    <path class="cls-1" d="M224.5 108q15 10 15 27v242q0 17-15 27-7 5-15 4.5t-15-7.5l-182-121q-12-8-12-24 0-7 3.5-14.5t8.5-9.5l182-121q7-5 15-6.5t15 3.5zm-45 81l-97 67 97 63V189zm317-81q15 10 15 27v242q0 17-15 27-7 5-15 4.5t-15-7.5l-182-121q-12-8-12-24 0-7 3.5-14.5t8.5-9.5l182-121q7-5 15-6.5t15 3.5zm-45 81l-97 67 97 63V189z"></path>
                    </g></g>
                    </svg>