<svg xmlns="http://www.w3.org/2000/svg" version="1.1" xmlns:xlink="http://www.w3.org/1999/xlink" viewBox="0 0 510 510" preserveAspectRatio="xMidYMid">
                    <defs><style>.cls-1{fill:#595959;}</style></defs>
                    <title>menu</title>
                    <g id="Layer_2" data-name="Layer 2"><g id="menu">
                    <path class="cls-1" d="M481 384q14 0 23 9t9 23-9 23-23 9H194q-15 0-23.5-9t-8.5-23 8.5-23 23.5-9h287zM194 129q-15 0-23.5-9T162 97t8.5-23 23.5-9h287q14 0 23 9t9 23-9 23-23 9H194zM50 368q20 0 34 14t14 34-14 34-34 14-34-14-14-34 14-34 34-14zm0-159q20 0 34 13.5T98 256t-14 34-34 14-34-14-14-34 14-33.5T50 209zm0-160q20 0 34 14t14 34-14 34-34 14-34-14T2 97t14-34 34-14zm431 175q14 0 23 9t9 23q0 15-9 23.5t-23 8.5H194q-32 0-32-32 0-14 8.5-23t23.5-9h287z"></path>
                    </g></g>
                    </svg>