<svg xmlns="http://www.w3.org/2000/svg" version="1.1" xmlns:xlink="http://www.w3.org/1999/xlink" viewBox="0 0 510 510" preserveAspectRatio="xMidYMid">
                    <defs><style>.cls-1{fill:#595959;}</style></defs>
                    <title>menu2</title>
                    <g id="Layer_2" data-name="Layer 2"><g id="menu2">
                    <path class="cls-1" d="M32.5 127q-14 0-23-8.5T.5 96q0-15 9-23.5t23-8.5h447q32 0 32 32 0 31-32 31h-447zm447 96q15 0 23.5 9t8.5 23-8.5 23-23.5 9h-447q-14 0-23-9t-9-23 9-23 23-9h447zm0 160q15 0 23.5 9t8.5 23-8.5 23-23.5 9h-447q-14 0-23-9t-9-23 9-23 23-9h447z"></path>
                    </g></g>
                    </svg>