<svg xmlns="http://www.w3.org/2000/svg" version="1.1" xmlns:xlink="http://www.w3.org/1999/xlink" viewBox="0 0 510 510" preserveAspectRatio="xMidYMid">
                    <defs><style>.cls-1{fill:#595959;}</style></defs>
                    <title>message-warning</title>
                    <g id="Layer_2" data-name="Layer 2"><g id="message-warning">
                    <path class="cls-1" d="M504 387q8 13 8 30 0 25-18 44.5T448 481H64q-28 0-46-19.5T0 417q0-17 8-30L200 34q9-17 24-25.5T256 0t32 8.5T312 34zM224 281q0 14 9 23.5t23 9.5 23-9.5 9-23.5V153q0-13-9-22.5t-23-9.5-23 9.5-9 22.5v128zm32 149q16 0 27-11t11-28q0-16-11-27t-27-11-27 11-11 27q0 17 11 28t27 11z"></path>
                    </g></g>
                    </svg>