<svg xmlns="http://www.w3.org/2000/svg" version="1.1" xmlns:xlink="http://www.w3.org/1999/xlink" viewBox="0 0 510 510" preserveAspectRatio="xMidYMid">
                    <defs><style>.cls-1{fill:#595959;}</style></defs>
                    <title>mirrored-task-circle-2</title>
                    <g id="Layer_2" data-name="Layer 2"><g id="mirrored-task-circle-2">
                    <path class="cls-1" d="M73.5 260q0-10 7-17t17-7h11l-55-52q-29-29-29-70 0-20 7.5-37.5t20-31 28.5-21 32-7.5q17 0 25.5 7t8.5 17q0 11-7.5 18t-20.5 7q-18 0-31.5 14t-13.5 34 16 36l57 54v-17q0-10 6.5-17t17.5-7q10 0 17 7t7 17v73q0 11-7 17.5t-17 6.5h-73q-10 0-17-6.5t-7-17.5zm204-219q42 2 80 20t67 47.5 46 68 17 82.5q0 43-16.5 82.5T425 412t-69 49.5-85.5 18.5q-30 0-58.5-8t-54-22.5-46-35T78.5 370q-4-7-4.5-10t-.5-6q0-13 8-17t19-4h68q30 0 52.5-22.5t22.5-52.5v-68q0-24-13.5-43.5T196.5 120q-15-5-20.5-15.5T170.5 85q0-14 11-23T208 48.5t32.5-6 29-1.5h8z"></path>
                    </g></g>
                    </svg>