<svg xmlns="http://www.w3.org/2000/svg" version="1.1" xmlns:xlink="http://www.w3.org/1999/xlink" viewBox="0 0 510 510" preserveAspectRatio="xMidYMid">
                    <defs><style>.cls-1{fill:#595959;}</style></defs>
                    <title>multiselect-none</title>
                    <g id="Layer_2" data-name="Layer 2"><g id="multiselect-none">
                    <path class="cls-1" d="M167.5 358q25 0 25 25v102q0 26-25 26h-102q-26 0-26-26V383q0-25 26-25h102zm-26 51h-51v51h51v-51zm26-230q25 0 25 25v103q0 25-25 25h-102q-26 0-26-25V204q0-25 26-25h102zm-26 51h-51v51h51v-51zm26-230q25 0 25 25v103q0 25-25 25h-102q-26 0-26-25V25q0-25 26-25h102zm-26 51h-51v51h51V51zm153 51q-25 0-25-25 0-26 25-26h154q25 0 25 26 0 25-25 25h-154zm154 128q25 0 25 25 0 26-25 26h-154q-25 0-25-26 0-25 25-25h154zm0 179q25 0 25 25 0 26-25 26h-154q-25 0-25-26 0-25 25-25h154z"></path>
                    </g></g>
                    </svg>