<svg xmlns="http://www.w3.org/2000/svg" version="1.1" xmlns:xlink="http://www.w3.org/1999/xlink" viewBox="0 0 510 510" preserveAspectRatio="xMidYMid">
                    <defs><style>.cls-1{fill:#595959;}</style></defs>
                    <title>negative</title>
                    <g id="Layer_2" data-name="Layer 2"><g id="negative">
                    <path class="cls-1" d="M416 1q34 0 57 22.5T496 81v319q0 35-23 57.5T416 480H96q-34 0-57-22.5T16 400V81q0-35 23-57.5T96 1h320zm27 80q0-12-7.5-19.5T416 54H96q-12 0-19 7.5T70 81v319q0 12 7 19.5t19 7.5h320q12 0 19.5-7.5T443 400V81zM336 214q12 0 19.5 7t7.5 19-7.5 19.5T336 267H176q-12 0-19-7.5t-7-19.5q0-26 26-26h160z"></path>
                    </g></g>
                    </svg>