<svg xmlns="http://www.w3.org/2000/svg" version="1.1" xmlns:xlink="http://www.w3.org/1999/xlink" viewBox="0 0 510 510" preserveAspectRatio="xMidYMid">
                    <defs><style>.cls-1{fill:#595959;}</style></defs>
                    <title>official-service</title>
                    <g id="Layer_2" data-name="Layer 2"><g id="official-service">
                    <path class="cls-1" d="M67.667 243q0-12 7.5-19.5t19.5-7.5 19.5 7.5 7.5 19.5v134q0 12-7.5 19.5t-19.5 7.5-19.5-7.5-7.5-19.5V243zm403 215q12 0 19.5 7.5t7.5 19.5-7.5 19-19.5 7h-429q-12 0-19.5-7t-7.5-19 7.5-19.5 19.5-7.5h429zm-81-215q0-12 7.5-19.5t19.5-7.5 19.5 7.5 7.5 19.5v134q0 12-7.5 19.5t-19.5 7.5-19.5-7.5-7.5-19.5V243zm-348-80q-11 0-17.5-5.5t-6.5-16.5q-2-8 1.5-16.5t11.5-12.5l215-108q12-8 24 0l214 108q8 4 12 12.5t2 16.5q-5 22-27 22h-429zm115-54h201l-102-51zm19 134q0-12 7.5-19.5t19.5-7.5 19 7.5 7 19.5v134q0 12-7 19.5t-19 7.5-19.5-7.5-7.5-19.5V243zm107 0q0-12 7.5-19.5t19.5-7.5 19.5 7.5 7.5 19.5v134q0 12-7.5 19.5t-19.5 7.5-19.5-7.5-7.5-19.5V243z"></path>
                    </g></g>
                    </svg>