<svg xmlns="http://www.w3.org/2000/svg" version="1.1" xmlns:xlink="http://www.w3.org/1999/xlink" viewBox="0 0 510 510" preserveAspectRatio="xMidYMid">
                    <defs><style>.cls-1{fill:#595959;}</style></defs>
                    <title>outdent</title>
                    <g id="Layer_2" data-name="Layer 2"><g id="outdent">
                    <path class="cls-1" d="M471 430q25 0 25 25t-25 25H42q-25 0-25-25t25-25h429zm0-99q25 0 25 25 0 24-25 24H267q-25 0-25-24 0-25 25-25h204zm0-100q25 0 25 25t-25 25H267q-25 0-25-25t25-25h204zm0-99q11 0 18 6.5t7 17.5q0 25-25 25H267q-25 0-25-25 0-11 7-17.5t18-6.5h204zM42 82q-25 0-25-25t25-25h429q25 0 25 25t-25 25H42zm65 73q7-7 18-7t18 7q8 8 8 18t-8 18l-64 65 64 65q8 8 8 18t-8 18q-7 7-18 7t-18-7l-82-83q-8-8-8-18t8-18z"></path>
                    </g></g>
                    </svg>