<svg xmlns="http://www.w3.org/2000/svg" version="1.1" xmlns:xlink="http://www.w3.org/1999/xlink" viewBox="0 0 510 510" preserveAspectRatio="xMidYMid">
                    <defs><style>.cls-1{fill:#595959;}</style></defs>
                    <title>person-placeholder</title>
                    <g id="Layer_2" data-name="Layer 2"><g id="person-placeholder">
                    <path class="cls-1" d="M358 242q56 21 90.5 70.5T483 426v57q0 13-7.5 21t-20.5 8H57q-13 0-20.5-8T29 483v-57q0-64 34.5-113.5T154 242q-40-40-40-99 0-30 11-56t30.5-45 45-30T256 1t56 11 45 30 30 45 11 56q0 59-40 99zM256 57q-36 0-60.5 24.5T171 143q0 36 24.5 60.5T256 228t60.5-24.5T341 143q0-37-24.5-61.5T256 57zm170 369q0-30-11-55.5t-30-45-44.5-30.5-55.5-11h-57q-30 0-56 11t-45 30.5-30 45T86 426v29h340v-29z"></path>
                    </g></g>
                    </svg>