<svg xmlns="http://www.w3.org/2000/svg" version="1.1" xmlns:xlink="http://www.w3.org/1999/xlink" viewBox="0 0 510 510" preserveAspectRatio="xMidYMid">
                    <defs><style>.cls-1{fill:#595959;}</style></defs>
                    <title>post</title>
                    <g id="Layer_2" data-name="Layer 2"><g id="post">
                    <path class="cls-1" d="M435 1q33 0 55 22t22 54v409q0 8-3.5 14.5T497 509q-15 7-29-5l-94-95H78q-33 0-55-22T1 333V77q0-32 22-54T78 1h357zm26 76q0-25-26-25H78q-26 0-26 25v256q0 25 26 25h306q10 0 18 8l59 59V77z"></path>
                    </g></g>
                    </svg>