<svg xmlns="http://www.w3.org/2000/svg" version="1.1" xmlns:xlink="http://www.w3.org/1999/xlink" viewBox="0 0 510 510" preserveAspectRatio="xMidYMid">
                    <defs><style>.cls-1{fill:#595959;}</style></defs>
                    <title>process</title>
                    <g id="Layer_2" data-name="Layer 2"><g id="process">
                    <path class="cls-1" d="M181 247q0 12-9 21L52 388q-9 9-21 9t-21-9-9-21 9-21l99-99-99-99q-9-9-9-21t9-21 21-9 21 9l120 120q9 9 9 21zm171 0q0 12-9 21L223 388q-9 9-21 9t-21-9-9-21 9-21l99-99-99-99q-9-9-9-21t9-21 21-9 21 9l120 120q9 9 9 21zm150-21q9 9 9 21t-9 21L382 388q-9 9-21 9t-21-9-9-21 9-21l99-99-99-99q-9-9-9-21t9-21 21-9 21 9z"></path>
                    </g></g>
                    </svg>