<svg xmlns="http://www.w3.org/2000/svg" version="1.1" xmlns:xlink="http://www.w3.org/1999/xlink" viewBox="0 0 510 510" preserveAspectRatio="xMidYMid">
                    <defs><style>.cls-1{fill:#595959;}</style></defs>
                    <title>repost</title>
                    <g id="Layer_2" data-name="Layer 2"><g id="repost">
                    <path class="cls-1" d="M409.5 353q11 0 18.5 7t7.5 18v77q0 11-7.5 18t-18.5 7h-307q-25 0-25-25V312l-33 33q-10 8-18 8-10 0-18-8t-8-18 8-18l76-76q10-8 18-8 10 0 18 8l77 76q8 8 8 18t-8 18-18 8-18-8l-33-33v117h255v-51q0-11 7.5-18t18.5-7zm95-197q7 9 7 17 0 12-8 19l-76 76q-7 8-18 8t-18-8l-77-76q-7-7-7-18t7-18q10-8 18-8 10 0 18 8l33 33V72h-255v51q0 25-26 25-25 0-25-25V46q0-11 7-18 8-7 18-7h307q11 0 18.5 7t7.5 18v143l33-33q8-8 18-8 8 0 18 8z"></path>
                    </g></g>
                    </svg>