<svg xmlns="http://www.w3.org/2000/svg" version="1.1" xmlns:xlink="http://www.w3.org/1999/xlink" viewBox="0 0 510 510" preserveAspectRatio="xMidYMid">
                    <defs><style>.cls-1{fill:#595959;}</style></defs>
                    <title>resize-vertical</title>
                    <g id="Layer_2" data-name="Layer 2"><g id="resize-vertical">
                    <path class="cls-1" d="M197.5 121q-8 8-18 8t-18-8-8-18 8-18l77-77q8-8 18-8t18 8l76 77q8 8 8 18t-8 18-17.5 8-17.5-8l-59-59zm118 271q8-8 17.5-8t17.5 8 8 17.5-8 17.5l-76 77q-8 8-18 8t-18-8l-77-77q-8-8-8-17.5t8-17.5 18-8 18 8l59 58zm-263-161q-12 0-19-7.5t-7-18.5q0-25 26-25h408q26 0 26 25 0 11-7 18.5t-19 7.5h-408zm408 51q26 0 26 25 0 26-26 26h-408q-26 0-26-26 0-25 26-25h408z"></path>
                    </g></g>
                    </svg>