<svg xmlns="http://www.w3.org/2000/svg" version="1.1" xmlns:xlink="http://www.w3.org/1999/xlink" viewBox="0 0 510 510" preserveAspectRatio="xMidYMid">
                    <defs><style>.cls-1{fill:#595959;}</style></defs>
                    <title>rotate</title>
                    <g id="Layer_2" data-name="Layer 2"><g id="rotate">
                    <path class="cls-1" d="M461 461V243H243v218h218zm25-269q11 0 18.5 7.5T512 218v268q0 11-7.5 18.5T486 512H218q-11 0-18.5-7.5T192 486V218q0-11 7.5-18.5T218 192h268zM217 62q7 7 7 18t-7 18l-55 54q-7 8-18 8t-18.5-7.5T118 134q0-10 8-18l11-10H90q-17 0-28 11t-11 27v77q0 11-7 18t-18 7-18.5-7T0 221v-77q0-37 26-63.5T90 54h47l-11-10q-8-8-8-18 0-11 8-19 9-7 18-7 11 0 18 8z"></path>
                    </g></g>
                    </svg>