<svg xmlns="http://www.w3.org/2000/svg" version="1.1" xmlns:xlink="http://www.w3.org/1999/xlink" viewBox="0 0 510 510" preserveAspectRatio="xMidYMid">
                    <defs><style>.cls-1{fill:#595959;}</style></defs>
                    <title>save</title>
                    <g id="Layer_2" data-name="Layer 2"><g id="save">
                    <path class="cls-1" d="M503.5 150q8 10 8 20v256q0 36-24.5 60.5T426.5 511h-341q-36 0-60.5-24.5T.5 426V85Q.5 49 25 24.5T85.5 0h256q11 0 20 9zm-162 191h-170v113h170V341zm113-159l-124-125h-159v85h142q28 0 28 28 0 13-7.5 21t-20.5 8h-171q-13 0-20.5-8t-7.5-21V57h-29q-28 0-28 28v341q0 28 28 28h29V312q0-28 28-28h227q13 0 21 7.5t8 20.5v142h28q28 0 28-28V182z"></path>
                    </g></g>
                    </svg>