<svg xmlns="http://www.w3.org/2000/svg" version="1.1" xmlns:xlink="http://www.w3.org/1999/xlink" viewBox="0 0 510 510" preserveAspectRatio="xMidYMid">
                    <defs><style>.cls-1{fill:#595959;}</style></defs>
                    <title>share</title>
                    <g id="Layer_2" data-name="Layer 2"><g id="share">
                    <path class="cls-1" d="M457.5 296q12 0 19.5 7t7.5 19v108q0 35-23 58t-57 23h-323q-35 0-58-23t-23-58V107q0-34 23-57t58-23h107q27 0 27 27 0 26-27 26h-107q-12 0-19.5 7.5T54.5 107v323q0 12 7.5 19.5t19.5 7.5h323q12 0 19-7.5t7-19.5V322q0-12 7.5-19t19.5-7zm-37-216l-35-35q-8-8-8-18.5t8-18.5T404 0t18.5 8l81 80q8 8 8 19t-8 19l-81 81q-8 8-18.5 8t-18.5-8-8-19 8-19l35-35h-43q-22 0-42 8.5T301 166t-23 34.5-8.5 41.5v134q0 12-7.5 19.5t-19.5 7.5-19.5-7.5-7.5-19.5V242q0-33 13-62.5t35-51.5T315 93t62.5-13h43z"></path>
                    </g></g>
                    </svg>