<svg xmlns="http://www.w3.org/2000/svg" version="1.1" xmlns:xlink="http://www.w3.org/1999/xlink" viewBox="0 0 510 510" preserveAspectRatio="xMidYMid">
                    <defs><style>.cls-1{fill:#595959;}</style></defs>
                    <title>sound-off</title>
                    <g id="Layer_2" data-name="Layer 2"><g id="sound-off">
                    <path class="cls-1" d="M241 45q8 2 11.5 8.5T256 68v358q0 8-3.5 14.5T241 449q-6 3-11 3-9 0-17-8l-95-94H26q-11 0-18-7.5T1 324V171q0-26 25-26h92l95-94q7-8 18-8 4 0 10 2zm-36 85l-58 59q-8 7-18 7H52v102h77q8 0 18 8l58 59V130zm299 176q8 8 8 18t-8 18-18 8q-9 0-17-8l-59-59-59 59q-8 8-18 8t-18-8q-7-7-7-18t7-18l59-59-59-58q-7-8-7-18 0-11 7-18 8-8 18-8t18 8l59 59 59-59q8-8 17-8 10 0 18 8t8 18q0 8-8 18l-58 58z"></path>
                    </g></g>
                    </svg>