<svg xmlns="http://www.w3.org/2000/svg" version="1.1" xmlns:xlink="http://www.w3.org/1999/xlink" viewBox="0 0 510 510" preserveAspectRatio="xMidYMid">
                    <defs><style>.cls-1{fill:#595959;}</style></defs>
                    <title>space-navigation</title>
                    <g id="Layer_2" data-name="Layer 2"><g id="space-navigation">
                    <path class="cls-1" d="M230 381q-44-8-73-43t-29-82 29-82 73-43V26q0-11 7.5-18.5T256 0t18.5 7.5T282 26v105q44 8 73 43t29 82-29 82-73 43v105q0 11-7.5 18.5T256 512t-18.5-7.5T230 486V381zm26-201q-32 0-54 22t-22 54 22 54 54 22 54-22 22-54-22-54-54-22z"></path>
                    </g></g>
                    </svg>