<svg xmlns="http://www.w3.org/2000/svg" version="1.1" xmlns:xlink="http://www.w3.org/1999/xlink" viewBox="0 0 510 510" preserveAspectRatio="xMidYMid">
                    <defs><style>.cls-1{fill:#595959;}</style></defs>
                    <title>status-completed</title>
                    <g id="Layer_2" data-name="Layer 2"><g id="status-completed">
                    <path class="cls-1" d="M256 0q53 0 99.5 20T437 75t55 81.5 20 99.5-20 99.5-55 81.5-81.5 55-99.5 20-99.5-20T75 437t-55-81.5T0 256t20-99.5T75 75t81.5-55T256 0zM128 256q-14 0-23 9t-9 23q0 12 9 23l64 64q11 9 23 9 13 0 23-9l192-192q9-11 9-23 0-13-9.5-22.5T384 128q-12 0-23 9L192 307l-41-42q-10-9-23-9z"></path>
                    </g></g>
                    </svg>