<svg xmlns="http://www.w3.org/2000/svg" version="1.1" xmlns:xlink="http://www.w3.org/1999/xlink" viewBox="0 0 510 510" preserveAspectRatio="xMidYMid">
                    <defs><style>.cls-1{fill:#595959;}</style></defs>
                    <title>step</title>
                    <g id="Layer_2" data-name="Layer 2"><g id="step">
                    <path class="cls-1" d="M444 188q29 0 48.5 19.5T512 255q0 29-19.5 48.5T444 323q-20 0-36.5-11T383 282h-65q-8 19-25 30t-37 11-37-11-25-30h-64q-8 19-25 30t-37 11q-29 0-48-19.5T1 255q0-28 19-47.5T68 188q20 0 37 11t25 30h64q8-19 25-30t37-11 37 11 25 30h65q8-19 24.5-30t36.5-11z"></path>
                    </g></g>
                    </svg>