<svg xmlns="http://www.w3.org/2000/svg" version="1.1" xmlns:xlink="http://www.w3.org/1999/xlink" viewBox="0 0 510 510" preserveAspectRatio="xMidYMid">
                    <defs><style>.cls-1{fill:#595959;}</style></defs>
                    <title>sum</title>
                    <g id="Layer_2" data-name="Layer 2"><g id="sum">
                    <path class="cls-1" d="M66.5 54q2-9 10.5-15.5T95.5 32h320q14 0 23 9t9 23-9 23-23 9h-234l157 134q5 5 9 11.5t4 14.5q0 17-13 26l-157 134h234q14 0 23 9t9 23-9 23-23 9h-320q-10 0-18.5-6.5T66.5 458q-1-4-1-10 0-13 11-26l195-166-195-166q-13-10-13-23 0-6 3-13z"></path>
                    </g></g>
                    </svg>