<svg xmlns="http://www.w3.org/2000/svg" version="1.1" xmlns:xlink="http://www.w3.org/1999/xlink" viewBox="0 0 510 510" preserveAspectRatio="xMidYMid">
                    <defs><style>.cls-1{fill:#595959;}</style></defs>
                    <title>switch-views</title>
                    <g id="Layer_2" data-name="Layer 2"><g id="switch-views">
                    <path class="cls-1" d="M409.5 78q32 0 54.5 22t22.5 55v204q0 32-22.5 54.5T409.5 436q0 32-22 54t-55 22h-153q-32 0-54.5-22t-22.5-54v-77q-32 0-54-22t-22-55V78q0-32 22-54.5t54-22.5h154q32 0 54 22.5t22 54.5h77zm-332 204q0 26 25 26v-77q0-32 22.5-54t54.5-22q0-33 22-55t55-22h25q0-11-7-18.5t-18-7.5h-154q-11 0-18 7.5t-7 18.5v204zm281-51q0-25-26-25h-153q-11 0-18.5 7t-7.5 18v205q0 11 7.5 18t18.5 7h153q26 0 26-25V231zm77-76q0-12-7.5-19t-18.5-7h-153q-26 0-26 26h102q33 0 55 22t22 54v154q11 0 18.5-7.5t7.5-18.5V155z"></path>
                    </g></g>
                    </svg>