<svg xmlns="http://www.w3.org/2000/svg" version="1.1" xmlns:xlink="http://www.w3.org/1999/xlink" viewBox="0 0 510 510" preserveAspectRatio="xMidYMid">
                    <defs><style>.cls-1{fill:#595959;}</style></defs>
                    <title>sys-monitor</title>
                    <g id="Layer_2" data-name="Layer 2"><g id="sys-monitor">
                    <path class="cls-1" d="M435.5 1q32 0 54 22t22 55v255q0 32-22 54.5t-54 22.5h-103v51h51q26 0 26 25 0 26-26 26h-255q-11 0-18.5-7t-7.5-19q0-11 7.5-18t18.5-7h51v-51h-102q-33 0-55-22.5T.5 333V78q0-33 22-55t55-22h358zm-154 409h-51v51h51v-51zm179-332q0-26-25-26h-358q-11 0-18.5 7t-7.5 19v255q0 11 7.5 18.5t18.5 7.5h358q11 0 18-7.5t7-18.5V78z"></path>
                    </g></g>
                    </svg>