<svg xmlns="http://www.w3.org/2000/svg" version="1.1" xmlns:xlink="http://www.w3.org/1999/xlink" viewBox="0 0 510 510" preserveAspectRatio="xMidYMid">
                    <defs><style>.cls-1{fill:#595959;}</style></defs>
                    <title>sys-first-page</title>
                    <g id="Layer_2" data-name="Layer 2"><g id="sys-first-page">
                    <path class="cls-1" d="M491 315q12 14 5 29t-23 15h-51v128q0 25-26 25H39q-26 0-26-25V180q0-10 8-18L174 9q8-8 18-8h204q26 0 26 26 0 25-26 25H202l-10 10v67q0 21-15 36t-36 15H74l-10 10v271h307V359h-51q-8 0-14.5-3.5T297 344q-7-17 5-29l76-76q8-8 18-8t18 8zM378 111q8-8 18-8t18 8l77 77q8 8 8 17.5t-8 17.5-18 8-18-8l-59-58-58 58q-8 8-18 8t-18-8-8-17.5 8-17.5z"></path>
                    </g></g>
                    </svg>