<svg xmlns="http://www.w3.org/2000/svg" version="1.1" xmlns:xlink="http://www.w3.org/1999/xlink" viewBox="0 0 510 510" preserveAspectRatio="xMidYMid">
                    <defs><style>.cls-1{fill:#595959;}</style></defs>
                    <title>sys-last-page</title>
                    <g id="Layer_2" data-name="Layer 2"><g id="sys-last-page">
                    <path class="cls-1" d="M395.976 460q26 0 26 25 0 26-26 26h-357q-26 0-26-26V179q0-10 8-18l153-153q7-8 18-8h204q26 0 26 25v128h51q8 0 14.5 4t8.5 12q8 15-5 28l-77 76q-8 8-18 8t-18-8l-76-76q-13-13-5-28 7-16 23-16h51V51h-169l-10 10v67q0 21-15 36t-36 15h-67l-10 10v271h332zm95-171q8 8 8 17.5t-8 17.5l-77 77q-8 8-18 8t-18-8l-76-77q-8-8-8-17.5t8-17.5 18-8 18 8l58 58 59-58q8-8 18-8t18 8z"></path>
                    </g></g>
                    </svg>