<svg xmlns="http://www.w3.org/2000/svg" version="1.1" xmlns:xlink="http://www.w3.org/1999/xlink" viewBox="0 0 510 510" preserveAspectRatio="xMidYMid">
                    <defs><style>.cls-1{fill:#595959;}</style></defs>
                    <title>system-exit-2</title>
                    <g id="Layer_2" data-name="Layer 2"><g id="system-exit-2">
                    <path class="cls-1" d="M256 331l67 67q9 9 22.5 9t22.5-9q10-10 10-23t-10-23l-89-89q-10-10-23-10t-23 10l-89 89q-10 12-10 23t10 23q9 9 22.5 9t22.5-9zm0-180l67 67q10 9 23 9t22-9q10-10 10-23t-10-23l-89-88q-10-10-23-10t-23 10l-89 88q-10 12-10 23 0 13 10 23 9 9 22 9t23-9zm256 105q0 53-20 99.5T437 437t-81.5 55-99.5 20-99.5-20T75 437t-55-81.5T0 256t20-99.5T75 75t81.5-55T256 0t99.5 20T437 75t55 81.5 20 99.5z"></path>
                    </g></g>
                    </svg>