<svg xmlns="http://www.w3.org/2000/svg" version="1.1" xmlns:xlink="http://www.w3.org/1999/xlink" viewBox="0 0 510 510" preserveAspectRatio="xMidYMid">
                    <defs><style>.cls-1{fill:#595959;}</style></defs>
                    <title>task</title>
                    <g id="Layer_2" data-name="Layer 2"><g id="task">
                    <path class="cls-1" d="M353 274q7-7 7-18t-7-18q-8-8-18-8t-18 8l-85 85-33-34q-7-7-18-7t-18 7q-8 8-8 18t8 18l51 51q8 8 18 8t18-8zm34-223q32 0 54.5 22t22.5 55v307q0 33-22.5 55T387 512H125q-33 0-55-22t-22-55V128q0-33 22-55t55-22h25q0-21 15.5-36T202 0h108q21 0 36 15t15 36h26zm-185 51h108V51H202v51zm211 26q0-11-7.5-18.5T387 102h-26q0 22-15 37t-36 15H202q-21 0-36.5-15T150 102h-25q-11 0-18.5 7.5T99 128v307q0 12 7.5 19t18.5 7h262q11 0 18.5-7t7.5-19V128z"></path>
                    </g></g>
                    </svg>