<svg xmlns="http://www.w3.org/2000/svg" version="1.1" xmlns:xlink="http://www.w3.org/1999/xlink" viewBox="0 0 510 510" preserveAspectRatio="xMidYMid">
                    <defs><style>.cls-1{fill:#595959;}</style></defs>
                    <title>text-color</title>
                    <g id="Layer_2" data-name="Layer 2"><g id="text-color">
                    <path class="cls-1" d="M471.5 459q12 0 19.5 7t7.5 20q0 12-7.5 19t-19.5 7h-430q-27 0-27-26 0-27 27-27h430zm-360-84q-11-4-15.5-14t1.5-21l135-322q5-17 24-17 8 0 15 4.5t9 12.5l134 322q5 11 1 21t-14 14q-10 5-20.5 1t-14.5-14l-27-65h-167l-27 65q-4 10-14 14.5t-20-1.5zm86-132h121l-62-145z"></path>
                    </g></g>
                    </svg>