<svg xmlns="http://www.w3.org/2000/svg" version="1.1" xmlns:xlink="http://www.w3.org/1999/xlink" viewBox="0 0 510 510" preserveAspectRatio="xMidYMid">
                    <defs><style>.cls-1{fill:#595959;}</style></defs>
                    <title>text</title>
                    <g id="Layer_2" data-name="Layer 2"><g id="text">
                    <path class="cls-1" d="M466 1q14 0 22 8t8 22v60q0 14-8 22t-22 8-22-8-8-22V61H286v360h30q14 0 22 8t8 22-8 22-22 8H196q-14 0-22-8t-8-22 8-22 22-8h30V61H76v30q0 14-8 22t-22 8-22-8-8-22V31q0-14 8-22t22-8h420z"></path>
                    </g></g>
                    </svg>