<svg xmlns="http://www.w3.org/2000/svg" version="1.1" xmlns:xlink="http://www.w3.org/1999/xlink" viewBox="0 0 510 510" preserveAspectRatio="xMidYMid">
                    <defs><style>.cls-1{fill:#595959;}</style></defs>
                    <title>text-align-right</title>
                    <g id="Layer_2" data-name="Layer 2"><g id="text-align-right">
                    <path class="cls-1" d="M29.5 121q-14 0-21.5-8T.5 92q0-28 29-28h454q28 0 28 28 0 13-7.5 21t-20.5 8h-454zm454 170q28 0 28 28 0 13-7.5 21t-20.5 8h-454q-14 0-21.5-8T.5 319q0-28 29-28h454zm0-114q13 0 20.5 8t7.5 21q0 28-28 28h-227q-13 0-21-7.5t-8-20.5 8-21 21-8h227zm0 227q13 0 20.5 8t7.5 21q0 28-28 28h-227q-13 0-21-7.5t-8-20.5 8-21 21-8h227z"></path>
                    </g></g>
                    </svg>