<svg xmlns="http://www.w3.org/2000/svg" version="1.1" xmlns:xlink="http://www.w3.org/1999/xlink" viewBox="0 0 510 510" preserveAspectRatio="xMidYMid">
                    <defs><style>.cls-1{fill:#595959;}</style></defs>
                    <title>text-align-center</title>
                    <g id="Layer_2" data-name="Layer 2"><g id="text-align-center">
                    <path class="cls-1" d="M29 121q-13 0-20.5-8T1 92q0-28 28-28h454q13 0 21 7.5t8 20.5-8 21-21 8H29zm454 170q13 0 21 7.5t8 20.5-8 21-21 8H29q-13 0-20.5-8T1 319q0-28 28-28h454zM370 177q13 0 20.5 8t7.5 21q0 28-28 28H143q-29 0-29-28 0-13 7.5-21t21.5-8h227zm0 227q13 0 20.5 8t7.5 21q0 28-28 28H143q-29 0-29-28 0-13 7.5-21t21.5-8h227z"></path>
                    </g></g>
                    </svg>