<svg xmlns="http://www.w3.org/2000/svg" version="1.1" xmlns:xlink="http://www.w3.org/1999/xlink" viewBox="0 0 510 510" preserveAspectRatio="xMidYMid">
                    <defs><style>.cls-1{fill:#595959;}</style></defs>
                    <title>trend-up</title>
                    <g id="Layer_2" data-name="Layer 2"><g id="trend-up">
                    <path class="cls-1" d="M299.5 343q-7 8-18 8-10 0-17-8l-85-84-135 136q-7 7-18 7t-18-7q-8-10-8-18 0-10 8-18l153-153q7-8 18-8t18 8l84 84 144-144h-47q-11 0-18.5-7t-7.5-18 7.5-18 18.5-7h108q25 0 25 25v108q0 11-7 18.5t-18 7.5-18-7.5-7-18.5v-47z"></path>
                    </g></g>
                    </svg>