<svg xmlns="http://www.w3.org/2000/svg" version="1.1" xmlns:xlink="http://www.w3.org/1999/xlink" viewBox="0 0 510 510" preserveAspectRatio="xMidYMid">
                    <defs><style>.cls-1{fill:#595959;}</style></defs>
                    <title>wallet</title>
                    <g id="Layer_2" data-name="Layer 2"><g id="wallet">
                    <path class="cls-1" d="M496 400q0 34-22.5 57T416 480H97q-35 0-57.5-23T17 400V80q0-34 22.5-57T97 0h319q35 0 57.5 23T496 80v320zm-426 0q0 12 7.5 19t19.5 7h319q12 0 19.5-7t7.5-19v-27H310q-34 0-57-22.5T230 293V187q0-35 23-57.5t57-22.5h133V80q0-12-7.5-19T416 54H97q-12 0-19.5 7T70 80v320zm240-240q-12 0-19.5 7.5T283 187v106q0 12 7.5 19.5T310 320h133V160H310zm53 40q17 0 28.5 11.5T403 240t-11.5 28.5T363 280t-28.5-11.5T323 240t11.5-28.5T363 200z"></path>
                    </g></g>
                    </svg>