<svg xmlns="http://www.w3.org/2000/svg" version="1.1" xmlns:xlink="http://www.w3.org/1999/xlink" viewBox="0 0 510 510" preserveAspectRatio="xMidYMid">
                    <defs><style>.cls-1{fill:#595959;}</style></defs>
                    <title>warning2</title>
                    <g id="Layer_2" data-name="Layer 2"><g id="warning2">
                    <path class="cls-1" d="M290.25 380q0-14-10-24.5t-24-10.5-24.5 10.5-10.5 24.5 10.5 24 24.5 10 24-10 10-24zm-11-155q0-10-6-16.5t-17-6.5-17 6.5-6 16.5v70q0 23 23 23t23-23v-70zm229 220q7 11 0 23-9 12-21 12h-462q-14 0-21-12-8-12 0-23l231-393q9-12 21-12t21 12zm-60-12l-190-323-192 323h382z"></path>
                    </g></g>
                    </svg>