<svg xmlns="http://www.w3.org/2000/svg" version="1.1" xmlns:xlink="http://www.w3.org/1999/xlink" xmlns:svgjs="http://svgjs.dev/svgjs" viewBox="0 0 56 56"><circle r="23" cx="50%" cy="50%" stroke-opacity="1" stroke-width="2" stroke="#074d92" fill-opacity="1" fill="#ffffff"></circle><svg viewBox="0 0 56 56" height="30" x="0" y="25%"><svg id="messaging-service" xmlns="http://www.w3.org/2000/svg" viewBox="0 0 56 56" height="100%" width="100%"><defs><style>.cls-1{fill:#053b70;}.cls-2{fill:#0a6ed1;}</style></defs><title>messaging-service</title><path class="cls-1" d="M19,39.312H14.285A7.257,7.257,0,0,1,12.027,25.15l2.279-.767-.232-2.39c0-.042-.379-4.236,2.01-7.012,1.377-1.6,3.524-2.5,6.381-2.667a8.563,8.563,0,0,1,7.8,5.355l1.306,3.289,3.031-1.827a5.451,5.451,0,0,1,2.843-.819,5.546,5.546,0,0,1,5.443,4.518l.288,1.529L44.6,25c2.2,1,2.8,3.01,3.285,5.308H51.1c-.517-3.59-2.069-6.582-5.26-8.037a8.487,8.487,0,0,0-12.783-5.713A11.558,11.558,0,0,0,22.41,9.312C9.753,9.983,11.09,22.3,11.09,22.3a10.257,10.257,0,0,0,3.2,20.012H19"></path><polyline class="cls-1" points="46.756 42.369 43.657 45.468 45.564 47.375 52 40.939 45.564 34.503 43.657 36.41 46.636 39.313 37.038 39.313 37.022 42.326"></polyline><polygon class="cls-2" points="19.001 42.31 22.001 42.31 22.001 31.7 27.98 36.31 34.001 31.7 34.001 42.31 37.022 42.326 37.103 27.31 34.001 27.31 27.932 31.903 22.001 27.31 19.001 27.31 19.001 42.31"></polygon></svg></svg></svg>