<svg id="objectstore" xmlns="http://www.w3.org/2000/svg" viewBox="0 0 56 56"><defs><style>.cls-1{fill:#053b70;}.cls-2{fill:#0a6ed1;}</style></defs><title>objectstore</title><path class="cls-1" d="M27.153,17.65A24.687,24.687,0,0,0,17.5,16a24.687,24.687,0,0,0-9.653,1.65,7.744,7.744,0,0,0-2.8,1.95A3.908,3.908,0,0,0,4,22.225V45.7a3.773,3.773,0,0,0,1.049,2.625,7.744,7.744,0,0,0,2.8,1.95A23.284,23.284,0,0,0,17.5,52a24.687,24.687,0,0,0,9.653-1.65,7.744,7.744,0,0,0,2.8-1.95A4.053,4.053,0,0,0,31,45.775V22.225A3.908,3.908,0,0,0,29.951,19.6,7.744,7.744,0,0,0,27.153,17.65ZM28,45.775c0,.9-.287,1.275-2.106,1.95A24.154,24.154,0,0,1,17.5,49a24.154,24.154,0,0,1-8.394-1.275C7.357,47.05,7,46.6,7,45.775V41.65A8.93,8.93,0,0,0,10.435,43a28.384,28.384,0,0,0,7.065.825A29.391,29.391,0,0,0,24.635,43,8.137,8.137,0,0,0,28,41.65ZM28,37.9c0,.9-.287,1.425-2.106,2.1A24.154,24.154,0,0,1,17.5,41.275,24.154,24.154,0,0,1,9.106,40C7.357,39.325,7,38.725,7,37.9V33.85a8.991,8.991,0,0,0,3.435,1.725,28.6,28.6,0,0,0,7.065.75c4.9,0,8.192-.9,10.5-2.55ZM25.594,24.7A22.37,22.37,0,0,1,17.5,25.975,22.37,22.37,0,0,1,9.406,24.7C7.658,23.95,7,23.125,7,22.225c0-1.575,3.225-3.45,10.5-3.45,7.345,0,10.5,1.875,10.5,3.45C28,23.125,27.412,23.95,25.594,24.7Z"/><path class="cls-2" d="M52,15.987V13.013H48.841a7.785,7.785,0,0,0-.465-1.347c-.186-.4-.4-.819-.65-1.255l2.23-2.23L47.819,6.044l-2.23,2.23a11.5,11.5,0,0,0-2.695-1.115V4H39.92V7.159a13.552,13.552,0,0,0-2.509,1.115l-2.322-2.23L33.044,8.181l2.23,2.23a5.914,5.914,0,0,0-1.115,2.6H31v2.974h3.159a6.154,6.154,0,0,0,1.115,2.6l-2.23,2.323,2.045,2.045,2.322-2.23a6.145,6.145,0,0,0,2.509,1.115V25h2.974V21.841a7.817,7.817,0,0,0,2.7-1.115l2.23,2.23,2.137-2.045-2.23-2.323a10.294,10.294,0,0,0,1.115-2.6Zm-7.341,1.719a4.378,4.378,0,0,1-6.318,0,4.448,4.448,0,0,1-1.3-3.206,4.146,4.146,0,0,1,1.3-3.113,4.606,4.606,0,0,1,6.318,0,4.157,4.157,0,0,1,1.3,3.113A4.46,4.46,0,0,1,44.659,17.706Z"/></svg>