<svg id="hana" xmlns="http://www.w3.org/2000/svg" viewBox="0 0 56 56"><defs><style>.cls-1{fill:#0092d1;}.cls-2{fill:#5a7a94;}</style></defs><title>hana</title><path class="cls-1" d="M51,22.332a7.236,7.236,0,0,0-2.613-1.82A22.408,22.408,0,0,0,39.569,19a22.4,22.4,0,0,0-8.817,1.512,7.236,7.236,0,0,0-2.613,1.82,3.772,3.772,0,0,0-1,2.521V46.081a3.632,3.632,0,0,0,1,2.514,7.107,7.107,0,0,0,2.607,1.821A21.154,21.154,0,0,0,39.569,52a22.408,22.408,0,0,0,8.818-1.512A7.236,7.236,0,0,0,51,48.668a3.927,3.927,0,0,0,1-2.521V24.853A3.772,3.772,0,0,0,51,22.332ZM42.365,49.174c-.893.085-1.818.144-2.8.144a28.538,28.538,0,0,1-3.406-.211V30.572a33.26,33.26,0,0,0,3.406.165c.979,0,1.9-.05,2.8-.126Zm7.167-3.027c0,.7-.916,1.46-2.454,2.035a14.28,14.28,0,0,1-2.229.622V30.267a13.628,13.628,0,0,0,4.683-1.643ZM47.078,26.985a21.57,21.57,0,0,1-7.509,1.136,21.508,21.508,0,0,1-7.5-1.136c-1.524-.65-2.4-1.416-2.4-2.1v-.031c0-1.3,3.526-3.171,9.9-3.171,6.417,0,9.963,1.876,9.963,3.205C49.532,25.578,48.636,26.344,47.078,26.985Z"/><path class="cls-2" d="M24.3,27.986H12.41a5.387,5.387,0,0,1-1.675-10.515l2.308-.759L12.781,14.3a8.1,8.1,0,0,1,1.5-5.284A6.5,6.5,0,0,1,19.109,7a6.054,6.054,0,0,1,5.864,4.033l1.307,3.29L29.31,12.5a3.922,3.922,0,0,1,2.043-.591,3.988,3.988,0,0,1,3.914,3.249l.159.845h3c-.047-.439-.108-.9-.21-1.4A6.941,6.941,0,0,0,27.762,9.928,9.452,9.452,0,0,0,19.055,4C8.863,4.242,9.8,14.621,9.8,14.621A8.387,8.387,0,0,0,12.41,30.986H24.3Z"/></svg>