<svg id="cloud-Integration-data" xmlns="http://www.w3.org/2000/svg" viewBox="0 0 56 56"><defs><style>.cls-1{fill:#053b70;}.cls-2{fill:#0a6ed1;}</style></defs><title>cloud-Integration-data</title><path class="cls-1" d="M20.5,30.986H13.91a5.387,5.387,0,0,1-1.675-10.515l2.308-.759L14.281,17.3a8.1,8.1,0,0,1,1.5-5.284A6.5,6.5,0,0,1,20.609,10a6.054,6.054,0,0,1,5.864,4.033l1.307,3.29L30.81,15.5a3.922,3.922,0,0,1,2.043-.591,3.988,3.988,0,0,1,3.914,3.249l.159.845h3c-.047-.439-.108-.905-.21-1.4a6.941,6.941,0,0,0-10.453-4.672A9.452,9.452,0,0,0,20.555,7C10.239,7,11.3,17.621,11.3,17.621A8.387,8.387,0,0,0,13.91,33.986H20.5Z"/><path class="cls-2" d="M33.679,33.3l-1.024-.459a.615.615,0,0,0-.477-.018.6.6,0,0,0-.336.3l-.424.99a.523.523,0,0,0-.018.441.6.6,0,0,0,.3.336l1.06.459a4.862,4.862,0,0,0-.106,1.025c0,.141,0,.277.017.406a3.184,3.184,0,0,0,.053.371l-1.1.424a.532.532,0,0,0-.318.3.568.568,0,0,0,0,.477l.389,1.025a.529.529,0,0,0,.3.318.568.568,0,0,0,.477,0l1.06-.389a3.1,3.1,0,0,0,.565.671q.318.284.671.566l-.459,1.06a.544.544,0,0,0,.318.812l.954.424a.526.526,0,0,0,.441.018.607.607,0,0,0,.336-.3l.459-1.059a5.452,5.452,0,0,0,1.06.106c.117,0,.241-.006.371-.018s.253-.03.371-.053l.424,1.095a.7.7,0,0,0,.318.318.52.52,0,0,0,.459,0l1.025-.389a.486.486,0,0,0,.336-.3.747.747,0,0,0,.017-.477l-.424-1.06a7.045,7.045,0,0,0,.689-.565,6.124,6.124,0,0,0,.583-.636l1.06.459a.7.7,0,0,0,.442,0,.529.529,0,0,0,.335-.318l.459-.989a.707.707,0,0,0,0-.441.529.529,0,0,0-.317-.336l-1.06-.459a5.452,5.452,0,0,0,.106-1.06c0-.118-.007-.241-.018-.371s-.03-.253-.053-.371L44.1,35.21a.482.482,0,0,0,.336-.3.74.74,0,0,0,.017-.477l-.388-.989a.591.591,0,0,0-.336-.336.635.635,0,0,0-.441-.018l-1.1.424a4.866,4.866,0,0,0-1.2-1.307l.459-1.06a.522.522,0,0,0,.018-.441.606.606,0,0,0-.3-.336l-1.025-.459a.64.64,0,0,0-.441.017.6.6,0,0,0-.336.3l-.459,1.024-.5-.07a3.7,3.7,0,0,0-.53-.036,2.222,2.222,0,0,0-.406.036c-.13.023-.254.047-.371.07l-.424-1.095a.482.482,0,0,0-.3-.336.643.643,0,0,0-.442-.017l-.989.424a.527.527,0,0,0-.353.3.485.485,0,0,0,0,.442l.388,1.059A6.046,6.046,0,0,0,33.679,33.3Zm4.2-.318a3.342,3.342,0,0,1,1.325.265,3.651,3.651,0,0,1,1.095.724,3.282,3.282,0,0,1,.742,1.078,3.322,3.322,0,0,1,.265,1.325,3.447,3.447,0,0,1-.265,1.342,3.213,3.213,0,0,1-.742,1.095,3.617,3.617,0,0,1-1.095.725,3.342,3.342,0,0,1-1.325.265,3.251,3.251,0,0,1-2.42-.99,3.339,3.339,0,0,1-.971-2.437,3.3,3.3,0,0,1,.971-2.4A3.254,3.254,0,0,1,37.883,32.984Z"/><path class="cls-2" d="M28.133,30.547l-.848.883.777.777.883-.848a2.339,2.339,0,0,0,.954.424v1.2h1.13v-1.2a2.966,2.966,0,0,0,1.025-.424l.848.848.813-.777-.848-.883a3.933,3.933,0,0,0,.423-.99h1.2v-1.13h-1.2a2.993,2.993,0,0,0-.176-.513c-.071-.152-.154-.311-.247-.476l.848-.848-.813-.813-.848.848a4.288,4.288,0,0,0-1.025-.424V25H29.9v1.2a5.163,5.163,0,0,0-.954.424l-.883-.848-.777.813.848.848a2.24,2.24,0,0,0-.425.989h-1.2v1.13h1.2A2.352,2.352,0,0,0,28.133,30.547ZM29.3,27.809a1.752,1.752,0,0,1,2.4,0,1.579,1.579,0,0,1,.494,1.183,1.7,1.7,0,0,1-.494,1.219,1.666,1.666,0,0,1-2.4,0,1.691,1.691,0,0,1-.494-1.219A1.575,1.575,0,0,1,29.3,27.809Z"/><path class="cls-2" d="M49.609,22.844A2.962,2.962,0,0,0,47.5,22H36.942v3H47.5V46h-21V34h-3V46a2.889,2.889,0,0,0,3,3h21a2.962,2.962,0,0,0,2.109-.844A2.844,2.844,0,0,0,50.5,46V25A2.845,2.845,0,0,0,49.609,22.844Z"/></svg>