<svg xmlns="http://www.w3.org/2000/svg" viewBox="0 0 1500 1500"><defs><style>.cls-1{opacity:0.2;}.cls-2{fill:#2391b8;}.cls-3{fill:#1d62aa;}</style></defs><title>Zeichenfläche 1 Kopie 6</title><g id="Ebene_3" data-name="Ebene 3"><path class="cls-1" d="M642.87,478.51,462.69,860.7A81.81,81.81,0,0,1,354,900.27h0a81.81,81.81,0,0,1-39.57-108.72L494.57,409.37A81.83,81.83,0,0,1,603.3,369.79h0A81.82,81.82,0,0,1,642.87,478.51Z"/><path class="cls-1" d="M765.56,750.63,631,1034.37a81.81,81.81,0,0,1-108.71,39.56h0A81.8,81.8,0,0,1,482.7,965.22L617.29,681.48A81.8,81.8,0,0,1,726,641.91h0A81.82,81.82,0,0,1,765.56,750.63Z"/><circle class="cls-1" cx="310.87" cy="999.91" r="81.53"/><circle class="cls-1" cx="802.48" cy="999.91" r="81.53"/><path class="cls-1" d="M806.67,791.55a81.82,81.82,0,0,0,39.58,108.72h0A81.8,81.8,0,0,0,955,860.7l180.19-382.19a81.82,81.82,0,0,0-39.58-108.72h0a81.82,81.82,0,0,0-108.72,39.58Z"/><circle class="cls-1" cx="1294.76" cy="999.91" r="81.53"/><path class="cls-1" d="M1248.24,765l-125,269.34a81.81,81.81,0,0,1-108.71,39.56h0A81.8,81.8,0,0,1,975,965.22l125-269.33a81.79,81.79,0,0,1,108.7-39.57h0A81.81,81.81,0,0,1,1248.24,765Z"/><path class="cls-2" d="M618.86,478.51,438.67,860.7A81.8,81.8,0,0,1,330,900.27h0a81.82,81.82,0,0,1-39.58-108.72L470.56,409.37a81.82,81.82,0,0,1,108.72-39.58h0A81.82,81.82,0,0,1,618.86,478.51Z"/><path class="cls-2" d="M564.22,521.56,430.41,549.84a81.84,81.84,0,0,1-98.15-61.29h0a81.81,81.81,0,0,1,61.31-98.12l133.81-28.28a81.84,81.84,0,0,1,98.15,61.29h0A81.81,81.81,0,0,1,564.22,521.56Z"/><path class="cls-3" d="M741.55,750.63,607,1034.37a81.8,81.8,0,0,1-108.7,39.56h0a81.8,81.8,0,0,1-39.57-108.71L593.27,681.48A81.82,81.82,0,0,1,702,641.91h0A81.82,81.82,0,0,1,741.55,750.63Z"/><circle class="cls-3" cx="286.85" cy="999.91" r="81.53"/><circle class="cls-3" cx="778.47" cy="999.91" r="81.53"/><path class="cls-3" d="M962.84,409.37a81.83,81.83,0,0,1,108.73-39.58h0a81.82,81.82,0,0,1,39.57,108.72L931,860.7a81.81,81.81,0,0,1-108.73,39.57h0a81.81,81.81,0,0,1-39.57-108.72"/><circle class="cls-3" cx="1270.75" cy="999.91" r="81.53"/><path class="cls-3" d="M1224.22,765l-125,269.34a81.81,81.81,0,0,1-108.71,39.56h0A81.8,81.8,0,0,1,951,965.22l125-269.33a81.8,81.8,0,0,1,108.71-39.57h0A81.8,81.8,0,0,1,1224.22,765Z"/></g></svg>