<svg xmlns="http://www.w3.org/2000/svg" version="1.1" xmlns:xlink="http://www.w3.org/1999/xlink" xmlns:svgjs="http://svgjs.dev/svgjs" viewBox="0 0 56 56"><circle r="23" cx="50%" cy="50%" stroke-opacity="1" stroke-width="2" stroke="#074d92" fill-opacity="1" fill="#ffffff"></circle><svg viewBox="0 0 56 56" height="30" x="0" y="25%"><svg version="1.1" id="Layer_1" xmlns="http://www.w3.org/2000/svg" xmlns:xlink="http://www.w3.org/1999/xlink" x="0px" y="0px" viewBox="0 0 48 48" style="enable-background:new 0 0 48 48;" xml:space="preserve" height="100%" width="100%">
<style type="text/css">
	.st0{fill:#A41E11;}
	.st1{fill:#D82C20;}
	.st2{fill:#FFFFFF;}
	.st3{fill:#7A0C00;}
	.st4{fill:#AD2115;}
</style>
<g>
	<g>
		<path class="st0" d="M46.1,35.2c-2.6,1.3-15.8,6.8-18.7,8.3c-2.8,1.5-4.4,1.5-6.6,0.4c-2.2-1.1-16.4-6.8-18.9-8
			C0.7,35.2,0,34.7,0,34.2c0-0.5,0-4.9,0-4.9s18.4-4,21.4-5.1c3-1.1,4-1.1,6.5-0.2c2.5,0.9,17.6,3.7,20.1,4.6c0,0,0,4.3,0,4.8
			C48,33.9,47.4,34.5,46.1,35.2z"></path>
		<path class="st1" d="M46.1,30.3c-2.6,1.3-15.8,6.8-18.7,8.3C24.6,40,23.1,40,20.8,39c-2.2-1.1-16.4-6.8-18.9-8
			c-2.5-1.2-2.6-2.1-0.1-3c2.5-1,16.5-6.5,19.5-7.6c3-1.1,4-1.1,6.5-0.2c2.5,0.9,15.7,6.2,18.2,7.1C48.6,28.2,48.7,29,46.1,30.3z"></path>
		<path class="st0" d="M46.1,27.2c-2.6,1.3-15.8,6.8-18.7,8.3c-2.8,1.5-4.4,1.5-6.6,0.4c-2.2-1.1-16.4-6.8-18.9-8
			C0.7,27.3,0,26.8,0,26.3c0-0.5,0-4.9,0-4.9s18.4-4,21.4-5.1c3-1.1,4-1.1,6.5-0.2c2.5,0.9,17.6,3.6,20.1,4.6c0,0,0,4.3,0,4.8
			C48,26,47.4,26.6,46.1,27.2z"></path>
		<path class="st1" d="M46.1,22.4c-2.6,1.3-15.8,6.8-18.7,8.3c-2.8,1.5-4.4,1.5-6.6,0.4c-2.2-1.1-16.4-6.8-18.9-8
			c-2.5-1.2-2.6-2.1-0.1-3c2.5-1,16.5-6.5,19.5-7.6c3-1.1,4-1.1,6.5-0.2c2.5,0.9,15.7,6.2,18.2,7.1C48.6,20.3,48.7,21.1,46.1,22.4z"></path>
		<path class="st0" d="M46.1,19c-2.6,1.3-15.8,6.8-18.7,8.3c-2.8,1.5-4.4,1.5-6.6,0.4c-2.2-1.1-16.4-6.8-18.9-8
			C0.7,19.1,0,18.6,0,18.1c0-0.5,0-4.9,0-4.9s18.4-4,21.4-5.1c3-1.1,4-1.1,6.5-0.2c2.5,0.9,17.6,3.6,20.1,4.6c0,0,0,4.3,0,4.8
			C48,17.8,47.4,18.4,46.1,19z"></path>
		<path class="st1" d="M46.1,14.2c-2.6,1.3-15.8,6.8-18.7,8.3c-2.8,1.5-4.4,1.5-6.6,0.4s-16.4-6.8-18.9-8c-2.5-1.2-2.6-2.1-0.1-3
			c2.5-1,16.5-6.5,19.5-7.6c3-1.1,4-1.1,6.5-0.2c2.5,0.9,15.7,6.2,18.2,7.1C48.6,12.1,48.7,12.8,46.1,14.2z"></path>
		<polygon class="st2" points="24.8,7.3 27.9,6.3 27.1,8.3 30.3,9.5 26.1,9.9 25.2,12.2 23.7,9.7 18.9,9.3 22.5,8 21.4,6 		"></polygon>
		<polygon class="st2" points="25,20.4 17.2,17.2 28.3,15.5 		"></polygon>
		<ellipse class="st2" cx="14.2" cy="13.1" rx="5.9" ry="2.3"></ellipse>
	</g>
	<polygon class="st3" points="35.2,10.1 41.8,12.7 35.2,15.3 	"></polygon>
	<polygon class="st4" points="35.2,10.1 35.2,15.3 34.5,15.6 27.9,13 	"></polygon>
</g>
</svg></svg></svg>