<svg xmlns="http://www.w3.org/2000/svg" version="1.1" xmlns:xlink="http://www.w3.org/1999/xlink" xmlns:svgjs="http://svgjs.dev/svgjs" viewBox="0 0 56 56"><circle r="23" cx="50%" cy="50%" stroke-opacity="1" stroke-width="2" stroke="#074d92" fill-opacity="1" fill="#ffffff"></circle><svg viewBox="0 0 56 56" height="30" x="0" y="25%"><svg id="ase" xmlns="http://www.w3.org/2000/svg" viewBox="0 0 56 56" height="100%" width="100%"><defs><style>.cls-1{fill:#0a6ed1;}.cls-2{fill:#053b70;}</style></defs><title>ase</title><path class="cls-1" d="M48.473,20.512A22.635,22.635,0,0,0,39.625,19a22.635,22.635,0,0,0-8.848,1.512A7.1,7.1,0,0,0,28.212,22.3a3.58,3.58,0,0,0-.962,2.406V46.225a3.456,3.456,0,0,0,.962,2.406,7.078,7.078,0,0,0,2.565,1.788A21.345,21.345,0,0,0,39.625,52a22.635,22.635,0,0,0,8.848-1.512A7.1,7.1,0,0,0,51.038,48.7,3.713,3.713,0,0,0,52,46.294V24.706a3.58,3.58,0,0,0-.962-2.406A7.1,7.1,0,0,0,48.473,20.512Zm.777,25.782c0,.825-.264,1.168-1.931,1.787a22.135,22.135,0,0,1-7.694,1.169,22.135,22.135,0,0,1-7.694-1.169C30.328,47.462,30,47.05,30,46.294V42.512a8.184,8.184,0,0,0,3.149,1.238,26.027,26.027,0,0,0,6.476.756,26.947,26.947,0,0,0,6.54-.756,7.46,7.46,0,0,0,3.085-1.238Zm0-7.219c0,.825-.264,1.306-1.931,1.925a22.135,22.135,0,0,1-7.694,1.169A22.135,22.135,0,0,1,31.931,41C30.328,40.381,30,39.831,30,39.075V35.363a8.254,8.254,0,0,0,3.149,1.581,26.226,26.226,0,0,0,6.476.687c4.488,0,7.509-.825,9.625-2.337Zm-2.206-12.1a20.5,20.5,0,0,1-7.419,1.169,20.5,20.5,0,0,1-7.419-1.169C30.6,26.287,30,25.531,30,24.706c0-1.444,2.957-3.162,9.625-3.162,6.732,0,9.625,1.718,9.625,3.162C49.25,25.531,48.711,26.287,47.044,26.975Z"></path><path class="cls-2" d="M24.3,27.986H12.41a5.387,5.387,0,0,1-1.675-10.515l2.308-.759L12.781,14.3a8.1,8.1,0,0,1,1.5-5.284A6.5,6.5,0,0,1,19.109,7a6.054,6.054,0,0,1,5.864,4.033l1.307,3.29L29.31,12.5a3.922,3.922,0,0,1,2.043-.591,3.988,3.988,0,0,1,3.914,3.249l.159.845h3c-.047-.439-.108-.9-.21-1.4A6.941,6.941,0,0,0,27.762,9.928,9.452,9.452,0,0,0,19.055,4C8.863,4.242,9.8,14.621,9.8,14.621A8.387,8.387,0,0,0,12.41,30.986H24.3Z"></path></svg></svg></svg>