<svg xmlns="http://www.w3.org/2000/svg" version="1.1" xmlns:xlink="http://www.w3.org/1999/xlink" xmlns:svgjs="http://svgjs.dev/svgjs" viewBox="0 0 56 56"><circle r="23" cx="50%" cy="50%" stroke-opacity="1" stroke-width="2" stroke="#074d92" fill-opacity="1" fill="#ffffff"></circle><svg viewBox="0 0 56 56" height="30" x="0" y="25%"><svg xmlns="http://www.w3.org/2000/svg" viewBox="0 0 64 64" height="100%" width="100%"><path fill="#5d5b63" d="M63.38 26.1Q55.13 19 48.52 13.36 45.64 11 43 8.74t-4.85-4.06L33.41.62A2 2 0 0 0 32 0a2 2 0 0 0-1.49.62c-1.75 1.5-3.33 2.86-4.75 4.06s-3 2.56-4.81 4.06-3.6 3-5.43 4.62L.57 26.1A1.71 1.71 0 0 0 0 27.53 2.24 2.24 0 0 0 .69 29a1.7 1.7 0 0 0 1.38.56 2.16 2.16 0 0 0 1.37-.69L32 5l28.5 23.84a2.23 2.23 0 0 0 1.44.69 1.77 1.77 0 0 0 1.44-.53 2 2 0 0 0 .62-1.47 2 2 0 0 0-.62-1.43z" style="fill: #346187;"></path><path fill="#5d5b63" d="M48.12 37.05c0-1.54-.71-4.4-5.36-6.41A26.67 26.67 0 0 0 32 28.76c-9.5 0-16.11 3.51-16.09 8.43L16 54.76c0 4.9 6.59 8.29 16 8.29h.17c9.5 0 16.11-3.51 16.09-8.43zM19.91 46v-3.08c2.84 1.63 7 2.6 12 2.6H32a27.83 27.83 0 0 0 10.79-2c.49-.22.92-.45 1.33-.68v3c0 .93-1.09 2-2.93 2.78a23.77 23.77 0 0 1-9.17 1.64 23 23 0 0 1-9.2-1.56c-1.82-.78-2.91-1.81-2.91-2.7zM32 32.76a24 24 0 0 1 9.2 1.55c1.84.8 2.95 1.83 2.95 2.75S43 39 41.19 39.84A23.78 23.78 0 0 1 32 41.48h-.15c-7.06 0-12-2.26-12-4.31s4.98-4.38 12.15-4.41zm.13 26.29h-.16c-7.06 0-12-2.26-12-4.31v-3c.42.23.85.46 1.34.68a27.82 27.82 0 0 0 10.64 1.88h.16a27.74 27.74 0 0 0 10.78-2 12.83 12.83 0 0 0 1.34-.69v3c-.02 2.09-4.99 4.39-12.13 4.44z" style="fill: #346187;"></path><path fill="#5d5b63" d="M32 12l-4 2.93c-1.17.88-2.46 1.85-3.87 2.94s-2.87 2.2-4.37 3.37q-5.25 4.11-11.74 9.11V64h8.59a11.49 11.49 0 0 1-3.59-4h-1V32L32 17l20 15v28h-1a11.65 11.65 0 0 1-3.67 4H56V30.34q-6.75-5-11.86-9.11-2.25-1.76-4.37-3.37c-1.42-1.09-2.69-2.06-3.81-2.94z" style="fill: #346187;"></path></svg></svg></svg>