<svg xmlns="http://www.w3.org/2000/svg" version="1.1" xmlns:xlink="http://www.w3.org/1999/xlink" viewBox="0 0 510 510" preserveAspectRatio="xMidYMid">
                    <defs><style>.cls-1{fill:#595959;}</style></defs>
                    <title>alternative-sequence</title>
                    <g id="Layer_2" data-name="Layer 2"><g id="alternative-sequence">
                    <path class="cls-1" d="M38 314c-19 0-32-13-32-32v-64c0-19 13-32 32-32h64c17 0 32 13 32 32v16c137 0 85-151 244-151V68c0-19 13-32 32-32h64c17 0 32 13 32 32v64c0 19-15 32-32 32h-64c-19 0-32-13-32-32v-18c-107 0-95 97-172 134 77 37 64 134 172 134v-19c0-19 13-32 32-32h64c17 0 32 14 32 33v64c0 19-15 32-32 32h-64c-19 0-32-13-32-32v-15c-159 0-107-151-244-151v20c0 19-15 32-32 32H38z"></path>
                    </g></g>
                    </svg>