<svg xmlns="http://www.w3.org/2000/svg" version="1.1" xmlns:xlink="http://www.w3.org/1999/xlink" viewBox="0 0 510 510" preserveAspectRatio="xMidYMid">
                    <defs><style>.cls-1{fill:#595959;}</style></defs>
                    <title>answered</title>
                    <g id="Layer_2" data-name="Layer 2"><g id="answered">
                    <path class="cls-1" d="M192.12 227.662V104.705c0-13.448 4.803-24.975 15.37-35.542 8.645-9.606 20.172-14.409 33.62-14.409h221.9c25.936 0 48.99 22.094 48.99 49.951v122.957c0 26.897-21.133 48.03-48.99 48.03h-27.858v81.651c-56.675-54.754-85.493-81.65-86.454-81.65H241.11c-26.897 0-48.99-21.134-48.99-48.03zM0 193.081c0-27.858 23.054-49.952 48.99-49.952h104.706v122.957c0 26.897 22.094 48.03 48.99 48.03H319.88v1.922c0 26.896-22.094 48.03-48.99 48.03H163.301c-.96 0-29.779 26.896-86.454 81.65v-81.65H48.991C21.133 364.068 0 342.934 0 316.038V193.08z"></path>
                    </g></g>
                    </svg>