<svg xmlns="http://www.w3.org/2000/svg" version="1.1" xmlns:xlink="http://www.w3.org/1999/xlink" viewBox="0 0 510 510" preserveAspectRatio="xMidYMid">
                    <defs><style>.cls-1{fill:#595959;}</style></defs>
                    <title>applied_filter</title>
                    <g id="Layer_2" data-name="Layer 2"><g id="applied_filter">
                    <path class="cls-1" d="M33 1h318c14 0 22 4 27 13 4 8 6 14 6 19 0 6-2 12-6 18L266 180c-7 7-10 14-10 22v118l-100 90c-5 4-9 5-12 5-4 0-7-1-11-4-3-3-5-7-5-11V202c0-8-3-16-9-22-21-24-40-46-56-64-15-16-27-31-39-44C13 58 7 51 7 51c-5-6-6-12-6-18 0-5 2-11 6-19C12 5 20 1 33 1zm210 157c6-6 11-13 16-18 5-7 11-13 18-21 7-7 13-16 20-23 16-19 34-40 54-63H34l8 9c5 6 11 14 20 24 7 9 16 19 26 30 9 11 19 21 27 30 8 10 15 18 20 23l8 9c11 13 17 27 17 44v161l64-58V202c0-17 6-31 19-44zm251 132l14 15c2 2 3 4 3 6s-1 4-2 6L388 506c-2 3-4 4-5 5h-3c-3 0-5-1-7-3l-83-97c-1-2-2-4-2-6s1-5 3-7l13-14c3-3 5-4 7-4 3 0 5 1 6 4l53 55c2 2 4 4 7 4 3-1 5-3 7-6l96-144c1-3 3-5 4-5h4c2 0 4 0 6 2z"></path>
                    </g></g>
                    </svg>