<svg xmlns="http://www.w3.org/2000/svg" version="1.1" xmlns:xlink="http://www.w3.org/1999/xlink" viewBox="0 0 510 510" preserveAspectRatio="xMidYMid">
                    <defs><style>.cls-1{fill:#595959;}</style></defs>
                    <title>blocked</title>
                    <g id="Layer_2" data-name="Layer 2"><g id="blocked">
                    <path class="cls-1" d="M256 0c141 0 256 115 256 256 0 142-115 256-256 256C114 512 0 398 0 256 0 115 114 0 256 0zM145 100l267 268c23-32 36-69 36-112 0-107-85-192-192-192-43 0-80 13-111 36zM64 256c0 107 85 192 192 192 41 0 79-12 111-35L99 145c-23 32-35 70-35 111z"></path>
                    </g></g>
                    </svg>