<svg xmlns="http://www.w3.org/2000/svg" version="1.1" xmlns:xlink="http://www.w3.org/1999/xlink" viewBox="0 0 510 510" preserveAspectRatio="xMidYMid">
                    <defs><style>.cls-1{fill:#595959;}</style></defs>
                    <title>bold</title>
                    <g id="Layer_2" data-name="Layer 2"><g id="bold">
                    <path class="cls-1" d="M102 512c-21 0-35-14-35-34V66c0-20 14-34 35-34h171c76 0 137 62 137 137 0 34-13 65-34 89 41 24 69 65 69 117 0 75-62 137-138 137H102zm205-206H136v137h171c38 0 69-30 69-68s-31-69-69-69zm-171-68h137c38 0 69-31 69-69s-31-68-69-68H136v137z"></path>
                    </g></g>
                    </svg>