<svg xmlns="http://www.w3.org/2000/svg" version="1.1" xmlns:xlink="http://www.w3.org/1999/xlink" viewBox="0 0 510 510" preserveAspectRatio="xMidYMid">
                    <defs><style>.cls-1{fill:#595959;}</style></defs>
                    <title>change-log</title>
                    <g id="Layer_2" data-name="Layer 2"><g id="change-log">
                    <path class="cls-1" d="M84 270V115h428v312H256v-45h212V160H128v110H84zM0 406c0-59 48-107 107-107s106 48 106 107c0 60-46 106-106 106C48 512 0 465 0 406zm107-79c-43 0-77 34-77 77s34 77 77 77 77-34 77-77-34-77-77-77zm227-129h18v140h-18V198zm-48 140V198h18v140h-18zm114 0h-18V198h18v140zM85 358h22v54h32v21H85v-75z"></path>
                    </g></g>
                    </svg>