<svg xmlns="http://www.w3.org/2000/svg" version="1.1" xmlns:xlink="http://www.w3.org/1999/xlink" viewBox="0 0 510 510" preserveAspectRatio="xMidYMid">
                    <defs><style>.cls-1{fill:#595959;}</style></defs>
                    <title>checklist</title>
                    <g id="Layer_2" data-name="Layer 2"><g id="checklist">
                    <path class="cls-1" d="M323 45H189c-12 0-22-10-22-23 0-12 10-22 22-22h134c12 0 22 10 22 22 0 13-10 23-22 23zm44 67H145c-12 0-22-10-22-22 0-13 10-23 22-23h222c13 0 23 10 23 23 0 12-10 22-23 22zm67 66v197c0 24-13 46-33 58l-134 76c-3 2-7 3-11 3s-7-1-11-3l-133-76c-21-12-34-34-34-58V178c0-25 20-44 45-44h267c24 0 44 19 44 44zM234 317l-41-41c-5-6-13-8-20-8s-14 2-20 8c-10 11-10 28 0 39l61 61c6 5 13 8 20 8s14-3 19-8l107-107c11-11 11-28 0-39-5-6-12-8-19-8s-14 2-20 8z"></path>
                    </g></g>
                    </svg>