<svg xmlns="http://www.w3.org/2000/svg" version="1.1" xmlns:xlink="http://www.w3.org/1999/xlink" viewBox="0 0 510 510" preserveAspectRatio="xMidYMid">
                    <defs><style>.cls-1{fill:#595959;}</style></defs>
                    <title>checklist-item</title>
                    <g id="Layer_2" data-name="Layer 2"><g id="checklist-item">
                    <path class="cls-1" d="M75 0h363c33 0 60 27 60 60v268c0 32-17 62-46 78L271 508c-5 3-10 4-15 4s-10-1-15-4L60 406c-28-16-46-46-46-78V60C14 27 42 0 75 0zm42 193c-15 15-15 39 0 53l82 83c8 7 17 11 27 11s19-4 27-11l145-145c15-15 15-39 0-54-7-7-17-11-27-11s-19 4-27 11L226 249l-56-56c-7-8-16-11-26-11s-19 3-27 11z"></path>
                    </g></g>
                    </svg>