<svg xmlns="http://www.w3.org/2000/svg" version="1.1" xmlns:xlink="http://www.w3.org/1999/xlink" viewBox="0 0 510 510" preserveAspectRatio="xMidYMid">
                    <defs><style>.cls-1{fill:#595959;}</style></defs>
                    <title>collapse-overlap</title>
                    <g id="Layer_2" data-name="Layer 2"><g id="collapse-overlap">
                    <path class="cls-1" d="M209.5 512c-17 0-33-14-33-33V304c0-16 16-32 33-32h269c19 0 33 16 33 32v175c0 19-14 33-33 33h-269zm-1-181v122c0 19 7 27 27 27h217c18 0 27-9 27-27V331c0-18-9-27-27-27h-217c-20 0-27 10-27 27zm-173 53c-21 0-35-5-35-33V177c0-19 14-33 33-33h273c23 0 30 13 30 33v63h-31v-39c0-16-3-25-22-25h-227c-17 0-25 8-25 25v126c0 21 6 25 26 25h87v32h-109zm332-288h-48l96-96 96 96h-48l-24-24v96h-48V72z"></path>
                    </g></g>
                    </svg>