<svg xmlns="http://www.w3.org/2000/svg" version="1.1" xmlns:xlink="http://www.w3.org/1999/xlink" viewBox="0 0 510 510" preserveAspectRatio="xMidYMid">
                    <defs><style>.cls-1{fill:#595959;}</style></defs>
                    <title>confirmed</title>
                    <g id="Layer_2" data-name="Layer 2"><g id="confirmed">
                    <path class="cls-1" d="M256 0c142 0 256 115 256 256 0 142-114 256-256 256C115 512 0 398 0 256 0 115 115 0 256 0zM32 256c0 124 100 224 224 224s224-100 224-224S380 32 256 32 32 132 32 256zm45 0c0-99 80-179 179-179s179 80 179 179-80 179-179 179S77 355 77 256zm109 0c0 39 31 70 70 70s71-32 70-71c0-38-31-69-69-69-39-1-71 31-71 70z"></path>
                    </g></g>
                    </svg>