<svg xmlns="http://www.w3.org/2000/svg" version="1.1" xmlns:xlink="http://www.w3.org/1999/xlink" viewBox="0 0 510 510" preserveAspectRatio="xMidYMid">
                    <defs><style>.cls-1{fill:#595959;}</style></defs>
                    <title>empty-warning</title>
                    <g id="Layer_2" data-name="Layer 2"><g id="empty-warning">
                    <path class="cls-1" d="M87 189L249 28l162 161-162 163zM249 63L122 189l127 127 126-127zm134 411V347h128v127H383zm-255 0H1V347h127v127zm111-275l-9-69c0-7 2-12 6-15 3-3 8-5 13-5 13 0 20 7 20 20l-10 69-3 9c-1 1-4 1-7 1-8 0-9-3-10-10zm-9 48c0-7 2-11 6-14 5-3 9-5 13-5s9 2 14 5c4 3 6 7 6 14s-2 12-6 15c-5 3-10 5-14 5s-8-2-13-5c-4-3-6-8-6-15z"></path>
                    </g></g>
                    </svg>