<svg xmlns="http://www.w3.org/2000/svg" version="1.1" xmlns:xlink="http://www.w3.org/1999/xlink" viewBox="0 0 510 510" preserveAspectRatio="xMidYMid">
                    <defs><style>.cls-1{fill:#595959;}</style></defs>
                    <title>event</title>
                    <g id="Layer_2" data-name="Layer 2"><g id="event">
                    <path class="cls-1" d="M1 0h510v251H1V0zm0 421c0-20 32-36 72-39-24-3-43-22-43-49s23-49 50-49c28 0 50 22 50 49s-19 46-42 49c40 3 71 19 71 39v59H1v-59zm353 59v-59c0-20 31-36 71-39-23-3-42-22-42-49s22-49 50-49c27 0 50 22 50 49s-19 46-43 49c40 3 71 19 71 39v59H354zm-19 0H178v-59c0-20 31-36 71-39-23-3-42-22-42-49s22-49 50-49c27 0 50 22 50 49s-19 46-43 49c40 3 71 19 71 39v59z"></path>
                    </g></g>
                    </svg>