<svg xmlns="http://www.w3.org/2000/svg" version="1.1" xmlns:xlink="http://www.w3.org/1999/xlink" viewBox="0 0 510 510" preserveAspectRatio="xMidYMid">
                    <defs><style>.cls-1{fill:#595959;}</style></defs>
                    <title>expedite</title>
                    <g id="Layer_2" data-name="Layer 2"><g id="expedite">
                    <path class="cls-1" d="M.5 512V32h97V0h30v32h33V0h31v32h130V0h31v32h33V0h31v32h95v480H.5zm32-32h448V160h-448v320zm239-50l-145-109 145-110v74h110v71h-110v74zm49-334h32V64h-32v32zm-160 0h32V64h-32v32zm-32-32h-32v32h32V64zm288 0h-32v32h32V64z"></path>
                    </g></g>
                    </svg>