<svg xmlns="http://www.w3.org/2000/svg" version="1.1" xmlns:xlink="http://www.w3.org/1999/xlink" viewBox="0 0 510 510" preserveAspectRatio="xMidYMid">
                    <defs><style>.cls-1{fill:#595959;}</style></defs>
                    <title>face-devastated</title>
                    <g id="Layer_2" data-name="Layer 2"><g id="face-devastated">
                    <path class="cls-1" d="M156.203 20.249C187.058 6.749 220.806 0 256.483 0 399.185 0 512 117.635 512 255.518c0 142.704-116.67 255.518-255.518 255.518C114.742 511.036 0 398.222 0 255.518c0-105.1 65.567-196.7 156.203-235.27zm14.464 437.755c26.034 10.606 53.032 16.391 82.922 16.391 120.528 0 220.806-94.493 220.806-216.949 0-120.527-94.493-220.806-217.913-220.806-119.563 0-218.877 96.422-218.877 218.878 0 92.565 53.032 168.738 133.062 202.486zM210.2 115.706l17.356 17.356-35.677 34.712 35.677 34.712-17.356 17.356-34.712-35.676-35.676 35.676-17.356-17.356 35.676-34.712-35.676-34.712 17.356-17.356 35.676 35.676zm156.203 0l17.356 17.356-35.676 34.712 35.676 34.712-17.356 17.356-34.712-35.676-35.676 35.676-17.356-17.356 35.676-34.712-35.676-34.712 17.356-17.356 35.676 35.676zM203.45 324.942c0-29.891 23.141-53.032 53.032-53.032s53.032 23.14 53.032 53.032-23.141 53.032-53.032 53.032-53.032-23.142-53.032-53.032z"></path>
                    </g></g>
                    </svg>