<svg xmlns="http://www.w3.org/2000/svg" version="1.1" xmlns:xlink="http://www.w3.org/1999/xlink" viewBox="0 0 510 510" preserveAspectRatio="xMidYMid">
                    <defs><style>.cls-1{fill:#595959;}</style></defs>
                    <title>fixed-cell</title>
                    <g id="Layer_2" data-name="Layer 2"><g id="fixed-cell">
                    <path class="cls-1" d="M438.5 252c6 9 9 19 9 33v169c0 26-28 57-55 57h-273c-11 0-19-3-27-7-7-4-14-9-19-17-6-8-9-18-9-33V285c0-20 9-42 28-50 8-5 16-8 27-8V114c0-7 2-17 6-29 19-56 75-84 132-84 72 0 135 31 135 113v113c19 0 35 10 46 25zm-101-25V114c0-2 0-6-1-13 0-7-3-13-8-19-5-7-13-13-24-17-10-5-26-7-47-7-20 0-36 3-47 8-11 6-19 13-25 20-2 5-4 9-6 13-3 4-4 10-5 15v113h163z"></path>
                    </g></g>
                    </svg>