<svg xmlns="http://www.w3.org/2000/svg" version="1.1" xmlns:xlink="http://www.w3.org/1999/xlink" viewBox="0 0 510 510" preserveAspectRatio="xMidYMid">
                    <defs><style>.cls-1{fill:#595959;}</style></defs>
                    <title>gender-male-and-female</title>
                    <g id="Layer_2" data-name="Layer 2"><g id="gender-male-and-female">
                    <path class="cls-1" d="M219.5 354c-63-10-111-65-111-131 0-72 60-132 132-132 32 0 60 9 83 28l77-77h-50V0h120v122h-41V73l-78 78c15 21 22 45 22 72 0 68-47 119-108 131v52h66v45h-66v61h-46v-61h-66v-45h66v-52zm-72-129c0 53 41 94 93 94s94-41 94-94c0-51-42-94-94-94s-93 43-93 94z"></path>
                    </g></g>
                    </svg>