<svg xmlns="http://www.w3.org/2000/svg" version="1.1" xmlns:xlink="http://www.w3.org/1999/xlink" viewBox="0 0 510 510" preserveAspectRatio="xMidYMid">
                    <defs><style>.cls-1{fill:#595959;}</style></defs>
                    <title>late</title>
                    <g id="Layer_2" data-name="Layer 2"><g id="late">
                    <path class="cls-1" d="M16 305c-21 0-21-32 0-32h49c1-11 2-21 4-32H32c-21 0-21-32 0-32h47v-1c30-75 95-130 177-142V32h-64V0h192v32h-64v34c35 5 67 17 94 36l34-34 46 46-32 32c31 39 50 86 50 142 0 124-100 224-224 224-93 0-172-56-206-137l-3-6H32c-21 0-21-32 0-32h38c-3-11-4-21-5-32H16zM288 96C181 96 96 181 96 288c0 105 85 192 192 192s192-87 192-192c0-107-85-192-192-192zm-17 208v-96c0-11 8-16 16-16s16 5 16 16v80h97c11 0 16 5 16 16 0 8-7 16-16 16H287c-9 0-16-8-16-16z"></path>
                    </g></g>
                    </svg>