<svg xmlns="http://www.w3.org/2000/svg" version="1.1" xmlns:xlink="http://www.w3.org/1999/xlink" viewBox="0 0 510 510" preserveAspectRatio="xMidYMid">
                    <defs><style>.cls-1{fill:#595959;}</style></defs>
                    <title>main-sequence</title>
                    <g id="Layer_2" data-name="Layer 2"><g id="main-sequence">
                    <path class="cls-1" d="M41 314c-19 0-32-13-32-32v-64c0-19 13-32 32-32h64c17 0 32 13 32 32v12h238v-12c0-19 13-32 32-32h64c17 0 32 13 32 32v64c0 19-15 32-32 32h-64c-19 0-32-13-32-32v-16H137v16c0 19-15 32-32 32H41z"></path>
                    </g></g>
                    </svg>