<svg xmlns="http://www.w3.org/2000/svg" version="1.1" xmlns:xlink="http://www.w3.org/1999/xlink" viewBox="0 0 510 510" preserveAspectRatio="xMidYMid">
                    <defs><style>.cls-1{fill:#595959;}</style></defs>
                    <title>male</title>
                    <g id="Layer_2" data-name="Layer 2"><g id="male">
                    <path class="cls-1" d="M330 78h146v148h-49v-59l-95 95c18 26 27 56 27 89 0 89-74 161-162 161-89 0-161-72-161-161 0-88 72-162 161-162 39 0 72 11 101 34l93-94h-61V78zM197 465c62 0 114-45 114-113 0-63-51-115-114-115-64 0-114 52-114 115 0 61 50 113 114 113z"></path>
                    </g></g>
                    </svg>