<svg xmlns="http://www.w3.org/2000/svg" version="1.1" xmlns:xlink="http://www.w3.org/1999/xlink" viewBox="0 0 510 510" preserveAspectRatio="xMidYMid">
                    <defs><style>.cls-1{fill:#595959;}</style></defs>
                    <title>medicine-syrup</title>
                    <g id="Layer_2" data-name="Layer 2"><g id="medicine-syrup">
                    <path class="cls-1" d="M64.5 480V224c0-31 11-51 32-72 18-16 39-24 64-24V96h-32c-19 0-32-13-32-32V32c0-19 13-32 32-32h256c19 0 32 13 32 32v32c0 19-13 32-32 32h-32v32c25 0 46 8 64 24 21 21 32 41 32 72v256c0 19-13 32-32 32h-320c-19 0-32-13-32-32zm96-320c-35 0-64 29-64 64v256h320V224c0-35-29-64-64-64h-32V96h-128v64h-32zm0 192v-64h64v-64h64v64h64v64h-64v64h-64v-64h-64zm-32-288h256V32h-256v32z"></path>
                    </g></g>
                    </svg>