<svg xmlns="http://www.w3.org/2000/svg" version="1.1" xmlns:xlink="http://www.w3.org/1999/xlink" viewBox="0 0 510 510" preserveAspectRatio="xMidYMid">
                    <defs><style>.cls-1{fill:#595959;}</style></defs>
                    <title>neutral</title>
                    <g id="Layer_2" data-name="Layer 2"><g id="neutral">
                    <path class="cls-1" d="M74.5 44h363c40 0 73 33 73 72v291c0 41-33 73-73 73h-363c-40 0-73-32-73-73V116c0-39 33-72 73-72zm400 363V116c0-19-16-35-37-35h-363c-23 0-36 19-36 35v291c0 20 16 37 36 37h363c19 0 37-16 37-37z"></path>
                    </g></g>
                    </svg>