<svg xmlns="http://www.w3.org/2000/svg" version="1.1" xmlns:xlink="http://www.w3.org/1999/xlink" viewBox="0 0 510 510" preserveAspectRatio="xMidYMid">
                    <defs><style>.cls-1{fill:#595959;}</style></defs>
                    <title>no-filter</title>
                    <g id="Layer_2" data-name="Layer 2"><g id="no-filter">
                    <path class="cls-1" d="M384 348c55 0 96-41 96-96 0-27-9-50-27-69-19-18-42-27-69-27-55 0-96 41-96 96 0 27 9 50 28 68 18 19 41 28 68 28zm64-315l-63 59h-1c-88 0-160 71-160 160 0 18 3 35 9 51 5 16 12 31 23 45v77l-64 82V215L0 33V-4h448v37zm-64 91c36 0 64 14 91 37 23 27 37 55 37 91 0 70-57 128-128 128-17 0-34-3-49-10-16-6-30-15-41-28-13-11-22-25-28-41-7-15-10-32-10-49 0-70 57-128 128-128zm64 144H320v-31h128v31z"></path>
                    </g></g>
                    </svg>