<svg xmlns="http://www.w3.org/2000/svg" version="1.1" xmlns:xlink="http://www.w3.org/1999/xlink" viewBox="0 0 510 510" preserveAspectRatio="xMidYMid">
                    <defs><style>.cls-1{fill:#595959;}</style></defs>
                    <title>no-time-change</title>
                    <g id="Layer_2" data-name="Layer 2"><g id="no-time-change">
                    <path class="cls-1" d="M271.5 96V32c0-19 13-32 32-32h64c19 0 32 13 32 32v64c0 17-13 32-32 32h-64c-19 0-32-15-32-32zm0 384v-64c0-19 13-32 32-32h64c19 0 32 13 32 32v64c0 17-13 32-32 32h-64c-19 0-32-15-32-32zm16-235l24 23v-96h48v96l25-23h48l-97 95-96-95h48zm80 171h-64v64h64v-64z"></path>
                    </g></g>
                    </svg>