<svg xmlns="http://www.w3.org/2000/svg" version="1.1" xmlns:xlink="http://www.w3.org/1999/xlink" viewBox="0 0 510 510" preserveAspectRatio="xMidYMid">
                    <defs><style>.cls-1{fill:#595959;}</style></defs>
                    <title>postpone</title>
                    <g id="Layer_2" data-name="Layer 2"><g id="postpone">
                    <path class="cls-1" d="M.5 512V32h97V0h30v32h33V0h31v32h130V0h31v32h33V0h31v32h95v480H.5zm480-352h-448v320h448V160zm-245 196h-110v-71h110v-74l145 109-145 110v-74zm85-292v32h32V64h-32zm-160 32h32V64h-32v32zm-64 0h32V64h-32v32zm320-32h-32v32h32V64z"></path>
                    </g></g>
                    </svg>