<svg xmlns="http://www.w3.org/2000/svg" version="1.1" xmlns:xlink="http://www.w3.org/1999/xlink" viewBox="0 0 510 510" preserveAspectRatio="xMidYMid">
                    <defs><style>.cls-1{fill:#595959;}</style></defs>
                    <title>priority-1</title>
                    <g id="Layer_2" data-name="Layer 2"><g id="priority-1">
                    <path class="cls-1" d="M354 80c31 0 51 22 51 51 0 3 0 6-1 9-7 55-15 107-23 162-3 15-8 27-25 30h-5c-17-3-22-15-25-30-3-21-5-41-8-61l-6-40c-3-20-5-40-8-61-1-3-1-7-1-10 0-28 14-50 51-50zm52 348c0 29-24 52-52 52-29 0-52-23-52-52 0-28 23-52 52-52 28 0 52 24 52 52z"></path>
                    </g></g>
                    </svg>