<svg xmlns="http://www.w3.org/2000/svg" version="1.1" xmlns:xlink="http://www.w3.org/1999/xlink" viewBox="0 0 510 510" preserveAspectRatio="xMidYMid">
                    <defs><style>.cls-1{fill:#595959;}</style></defs>
                    <title>project-definition-2</title>
                    <g id="Layer_2" data-name="Layer 2"><g id="project-definition-2">
                    <path class="cls-1" d="M64 427c0-5 1-10 3-14 1-5 4-10 6-15l139-258c12-20 27-30 46-30H65V-32h383v142H258c18 0 33 10 44 30l137 258c5 8 8 20 8 29v4c0 16-5 28-17 36-11 9-24 13-37 13H119c-7 0-13-1-20-4-6-2-12-5-17-9-6-4-10-9-13-15-3-7-5-14-5-21v-4z"></path>
                    </g></g>
                    </svg>