<svg xmlns="http://www.w3.org/2000/svg" version="1.1" xmlns:xlink="http://www.w3.org/1999/xlink" viewBox="0 0 510 510" preserveAspectRatio="xMidYMid">
                    <defs><style>.cls-1{fill:#595959;}</style></defs>
                    <title>ps-text</title>
                    <g id="Layer_2" data-name="Layer 2"><g id="ps-text">
                    <path class="cls-1" d="M38 201c0-13 10-22 23-22h192c7 0 12 2 16 7 5 4 7 9 7 15v59c0 13-10 23-23 23h-96l72 121c-2-4-3-8-3-12v-94h23v94h202V212h-44c-6 0-12-2-17-6-4-5-6-11-6-17v-45H249v21h-23v-21c0-7 2-12 7-16 4-4 9-6 16-6h157l68 67v203c0 7-2 12-7 16-5 5-10 7-16 7H249c-6 0-11-2-16-7l-2-2 44 74H39l118-197H61c-6 0-12-2-17-6-4-5-6-11-6-17v-59zm23 0v59h192v-59H61zm345 101H294v-23h112v23zm-112 22h112v23H294v-23z"></path>
                    </g></g>
                    </svg>