<svg xmlns="http://www.w3.org/2000/svg" version="1.1" xmlns:xlink="http://www.w3.org/1999/xlink" viewBox="0 0 510 510" preserveAspectRatio="xMidYMid">
                    <defs><style>.cls-1{fill:#595959;}</style></defs>
                    <title>quarter</title>
                    <g id="Layer_2" data-name="Layer 2"><g id="quarter">
                    <path class="cls-1" d="M16 32h64V0h32v32h32V0h32v32h160V0h32v32h32V0h32v32h64v480H16V32zm32 128v320h416V160H48zm192 288h-64V192h64v256zm128-256h64v256h-64V192zm-32 256h-64V192h64v256zM80 192h64v256H80V192zm320-96h33V63h-33v33zm-32-33h-32v33h32V63zM144 96h32V64h-32v32zm-64 0h32V64H80v32z"></path>
                    </g></g>
                    </svg>