<svg xmlns="http://www.w3.org/2000/svg" version="1.1" xmlns:xlink="http://www.w3.org/1999/xlink" viewBox="0 0 510 510" preserveAspectRatio="xMidYMid">
                    <defs><style>.cls-1{fill:#595959;}</style></defs>
                    <title>recipe</title>
                    <g id="Layer_2" data-name="Layer 2"><g id="recipe">
                    <path class="cls-1" d="M75 58l45 146c1 2 1 4 1 6 0 6-4 10-11 13-1 1-3 1-4 1-4 0-12-3-15-11L47 68c-1-2-1-4-1-5 0-5 3-11 10-14 1-1 3-1 5-1 4 0 11 3 14 10zM16 257c150 0 333-1 482-1 0 135-119 240-243 240S16 392 16 257z"></path>
                    </g></g>
                    </svg>