<svg xmlns="http://www.w3.org/2000/svg" version="1.1" xmlns:xlink="http://www.w3.org/1999/xlink" viewBox="0 0 510 510" preserveAspectRatio="xMidYMid">
                    <defs><style>.cls-1{fill:#595959;}</style></defs>
                    <title>relationship</title>
                    <g id="Layer_2" data-name="Layer 2"><g id="relationship">
                    <path class="cls-1" d="M236.62 47.72C236.62 20.878 257.496 0 284.34 0s47.72 20.878 47.72 47.72-20.877 47.72-47.72 47.72-47.72-20.877-47.72-47.72zm175.968 0c0-26.842 20.878-47.72 47.72-47.72s47.721 20.878 47.721 47.72-20.878 47.72-47.72 47.72-47.72-20.877-47.72-47.72zM177.963 164.04c0-26.843 20.878-47.72 47.72-47.72s47.72 20.877 47.72 47.72-20.877 47.72-47.72 47.72-47.72-20.877-47.72-47.72zm118.307 0c0-26.843 20.878-47.72 47.72-47.72s47.72 20.877 47.72 47.72-20.877 47.72-47.72 47.72-47.72-20.877-47.72-47.72zm-85.5 166.027c0-26.843 20.879-47.72 47.721-47.72s47.72 20.877 47.72 47.72-20.877 47.72-47.72 47.72-47.72-20.877-47.72-47.72zm-109.358 52.691c0-26.842 20.877-47.72 47.72-47.72s47.72 20.878 47.72 47.72-20.877 47.72-47.72 47.72-47.72-20.877-47.72-47.72zm-90.47 81.523c0-26.843 20.877-47.72 47.72-47.72s47.72 20.877 47.72 47.72S85.506 512 58.663 512s-47.72-20.878-47.72-47.72z"></path>
                    </g></g>
                    </svg>