<svg xmlns="http://www.w3.org/2000/svg" version="1.1" xmlns:xlink="http://www.w3.org/1999/xlink" viewBox="0 0 510 510" preserveAspectRatio="xMidYMid">
                    <defs><style>.cls-1{fill:#595959;}</style></defs>
                    <title>rescheduling2</title>
                    <g id="Layer_2" data-name="Layer 2"><g id="rescheduling2">
                    <path class="cls-1" d="M191 273l-95-96 95-97v48l-23 25h175l-23-25V80l95 97-96 96v-48l24-24H168l23 24v48zm32 191c-17 0-32-15-32-32v-64c0-19 15-32 32-32h64c19 0 32 13 32 32v64c0 17-13 32-32 32h-64zm160-32v-64c0-19 15-32 32-32h64c19 0 32 13 32 32v64c0 17-13 32-32 32h-64c-17 0-32-15-32-32zM31 464c-17 0-32-15-32-32v-64c0-19 15-32 32-32h64c19 0 32 13 32 32v64c0 17-13 32-32 32H31zm384-96v64h64v-64h-64zm-320 0H31v64h64v-64z"></path>
                    </g></g>
                    </svg>