<svg xmlns="http://www.w3.org/2000/svg" version="1.1" xmlns:xlink="http://www.w3.org/1999/xlink" viewBox="0 0 510 510" preserveAspectRatio="xMidYMid">
                    <defs><style>.cls-1{fill:#595959;}</style></defs>
                    <title>resequencing2</title>
                    <g id="Layer_2" data-name="Layer 2"><g id="resequencing2">
                    <path class="cls-1" d="M33 207c0-96 80-175 176-175 94 0 169 75 174 168h2l25-23h48l-97 95-96-96h48l24 24h1c-5-68-61-122-129-122-72 0-130 57-130 129v32H33v-32zm191 257c-19 0-32-15-32-32v-64c0-19 13-32 32-32h64c17 0 32 13 32 32v64c0 17-15 32-32 32h-64zm160-96c0-19 13-32 32-32h64c17 0 32 13 32 32v64c0 17-15 32-32 32h-64c-19 0-32-15-32-32v-64zM0 368c0-19 13-32 32-32h64c17 0 32 13 32 32v64c0 17-15 32-32 32H32c-19 0-32-15-32-32v-64zm416 0v64h64v-64h-64zm-192 0v64h64v-64h-64z"></path>
                    </g></g>
                    </svg>