<svg xmlns="http://www.w3.org/2000/svg" version="1.1" xmlns:xlink="http://www.w3.org/1999/xlink" viewBox="0 0 510 510" preserveAspectRatio="xMidYMid">
                    <defs><style>.cls-1{fill:#595959;}</style></defs>
                    <title>segment-preview-reference-objects</title>
                    <g id="Layer_2" data-name="Layer 2"><g id="segment-preview-reference-objects">
                    <path class="cls-1" d="M97.386 161.024c53.032 0 97.386 43.39 97.386 97.387 0 54.96-44.354 96.421-97.386 96.421S0 313.371 0 258.411c0-53.997 44.354-97.387 97.386-97.387zm343.262 52.068c38.569 0 71.352 29.891 71.352 71.352 0 39.533-32.783 70.388-71.352 70.388s-71.352-30.855-71.352-70.388c0-41.46 32.783-71.352 71.352-71.352zm-162.953 50.14c26.034 0 46.282 19.284 46.282 46.282 0 26.034-20.248 45.318-46.282 45.318s-46.283-19.284-46.283-45.318c0-26.998 20.249-46.282 46.283-46.282z"></path>
                    </g></g>
                    </svg>