<svg xmlns="http://www.w3.org/2000/svg" version="1.1" xmlns:xlink="http://www.w3.org/1999/xlink" viewBox="0 0 510 510" preserveAspectRatio="xMidYMid">
                    <defs><style>.cls-1{fill:#595959;}</style></defs>
                    <title>side-panel-left-layout</title>
                    <g id="Layer_2" data-name="Layer 2"><g id="side-panel-left-layout">
                    <path class="cls-1" d="M77 481c-43 0-76-33-76-76V98c0-43 33-77 76-77h358c43 0 77 34 77 77v307c0 43-34 76-77 76H77zm102-51h256c15 0 25-10 25-25V98c0-15-10-25-25-25H179v357zM77 73c-15 0-25 10-25 25v307c0 15 10 25 25 25h51V73H77z"></path>
                    </g></g>
                    </svg>