<svg xmlns="http://www.w3.org/2000/svg" version="1.1" xmlns:xlink="http://www.w3.org/1999/xlink" viewBox="0 0 510 510" preserveAspectRatio="xMidYMid">
                    <defs><style>.cls-1{fill:#595959;}</style></defs>
                    <title>snapshot</title>
                    <g id="Layer_2" data-name="Layer 2"><g id="snapshot">
                    <path class="cls-1" d="M496 480H16V128h256v32H48v288h416V256l32-32v256zM310 145l58-48-53-50 34-33 51 50 51-50 35 33-54 50 53 50-34 33-51-52-56 50zM176 415l65-95-65-96h64l66 96-67 95h-63zm95 0l65-95-65-96h64l66 96-67 95h-63zm-128 0H80l65-95-65-96h64l65 96z"></path>
                    </g></g>
                    </svg>