<svg xmlns="http://www.w3.org/2000/svg" version="1.1" xmlns:xlink="http://www.w3.org/1999/xlink" viewBox="0 0 510 510" preserveAspectRatio="xMidYMid">
                    <defs><style>.cls-1{fill:#595959;}</style></defs>
                    <title>spill</title>
                    <g id="Layer_2" data-name="Layer 2"><g id="spill">
                    <path class="cls-1" d="M18 368h14c17 0 23 3 38 32s21 32 42 32 27-3 48-32c20-31 27-32 32-32h304v144H18V368zm126-208h-32V0h32l16 32h272c28 0 64 1 64 48s-36 48-64 48H160zm-32 176c-33 0-48-23-48-43 0-10 16-38 48-85 32 47 48 75 48 85 0 20-17 43-48 43z"></path>
                    </g></g>
                    </svg>