<svg xmlns="http://www.w3.org/2000/svg" version="1.1" xmlns:xlink="http://www.w3.org/1999/xlink" viewBox="0 0 510 510" preserveAspectRatio="xMidYMid">
                    <defs><style>.cls-1{fill:#595959;}</style></defs>
                    <title>stock-warehouse</title>
                    <g id="Layer_2" data-name="Layer 2"><g id="stock-warehouse">
                    <path class="cls-1" d="M32.5 173c0-11 5-19 14-26l191-140c6-4 12-6 19-6s13 2 18 6l191 140c9 6 14 15 14 26v338h-32V192h-382v319h-33V173zm128 242h-64v-64h64v64zm191 96h-64v-64h64v64zm-159-383h128V96h-128v32zm0 319h64v64h-64v-64zm0-96h64v64h-64v-64zm-96 160v-64h64v64h-64zm0-192v-64h64v64h-64z"></path>
                    </g></g>
                    </svg>