<svg xmlns="http://www.w3.org/2000/svg" version="1.1" xmlns:xlink="http://www.w3.org/1999/xlink" viewBox="0 0 510 510" preserveAspectRatio="xMidYMid">
                    <defs><style>.cls-1{fill:#595959;}</style></defs>
                    <title>substraction-b-a</title>
                    <g id="Layer_2" data-name="Layer 2"><g id="substraction-b-a">
                    <path class="cls-1" d="M160 99c24 0 46 5 67 15 11 7 19 14 24 21 29-24 63-36 101-36 88 0 160 71 160 160 0 88-72 160-160 160-39 0-73-13-101-36-5 7-13 14-24 21-21 9-43 15-67 15C72 419 0 347 0 259 0 170 72 99 160 99zm64 160c0 70 57 128 128 128s128-58 128-128c0-71-57-128-128-128s-128 57-128 128z"></path>
                    </g></g>
                    </svg>