<svg xmlns="http://www.w3.org/2000/svg" version="1.1" xmlns:xlink="http://www.w3.org/1999/xlink" viewBox="0 0 510 510" preserveAspectRatio="xMidYMid">
                    <defs><style>.cls-1{fill:#595959;}</style></defs>
                    <title>sum</title>
                    <g id="Layer_2" data-name="Layer 2"><g id="sum">
                    <path class="cls-1" d="M66.5 54c3-12 16-22 29-22h320c19 0 32 13 32 32s-13 32-32 32h-234l157 134c7 7 13 16 13 26s-3 19-13 26l-157 134h234c19 0 32 13 32 32s-13 32-32 32h-320c-13 0-26-10-29-22-3-13 0-26 10-36l195-166-195-166c-13-10-16-23-10-36z"></path>
                    </g></g>
                    </svg>