<svg xmlns="http://www.w3.org/2000/svg" version="1.1" xmlns:xlink="http://www.w3.org/1999/xlink" viewBox="0 0 510 510" preserveAspectRatio="xMidYMid">
                    <defs><style>.cls-1{fill:#595959;}</style></defs>
                    <title>target-to-date</title>
                    <g id="Layer_2" data-name="Layer 2"><g id="target-to-date">
                    <path class="cls-1" d="M64 261V32h64V0h32v32h34V0h30v32h128V0h32v32h32V0h32v32h64v480H64v-96h32v64h384V192H96v69H64zm83 27v-32l64 80-64 80v-32H0v-96h147zM384 64h-32v32h32V64zm64 0h-32v32h32V64zm-224 0h-32v32h32V64zm-96 32h32V64h-32v32z"></path>
                    </g></g>
                    </svg>