<svg xmlns="http://www.w3.org/2000/svg" version="1.1" xmlns:xlink="http://www.w3.org/1999/xlink" viewBox="0 0 510 510" preserveAspectRatio="xMidYMid">
                    <defs><style>.cls-1{fill:#595959;}</style></defs>
                    <title>time-change</title>
                    <g id="Layer_2" data-name="Layer 2"><g id="time-change">
                    <path class="cls-1" d="M32 160c-19 0-32-13-32-32V64c0-19 13-32 32-32h64c17 0 32 13 32 32v64c0 19-15 32-32 32H32zm352 288v-64c0-19 13-32 32-32h64c17 0 32 13 32 32v64c0 19-15 32-32 32h-64c-19 0-32-13-32-32zM192 201l34-34 84 85 1-34 34-34-1 136H209l34-34h33zm224 247h64v-64h-64v64z"></path>
                    </g></g>
                    </svg>