<svg xmlns="http://www.w3.org/2000/svg" version="1.1" xmlns:xlink="http://www.w3.org/1999/xlink" viewBox="0 0 510 510" preserveAspectRatio="xMidYMid">
                    <defs><style>.cls-1{fill:#595959;}</style></defs>
                    <title>variant-planning</title>
                    <g id="Layer_2" data-name="Layer 2"><g id="variant-planning">
                    <path class="cls-1" d="M376 425c30 0 51-22 51-52 0-16-5-29-16-38-11-8-23-13-35-13-27 0-50 24-50 51 0 29 20 52 50 52zM171 56h-52v52h52V56zm111 0h-51v52h51V56zm111 0h-51v52h51V56zM98 221c11 0 17 5 17 16 0 9-8 18-17 18-5 0-9-2-12-6-4-4-6-7-6-12 0-11 6-16 18-16zm0 68c11 0 17 5 17 17 0 4-2 8-5 12-3 3-7 5-12 5-9 0-18-8-18-17 0-12 6-17 18-17zm0 68c11 0 17 6 17 18 0 4-2 8-5 12-3 3-7 5-12 5-9 0-18-8-18-17 0-12 6-18 18-18zm68 0h52v35h-52c-4 0-8-2-12-5-3-4-5-8-5-12 0-5 2-10 5-13 4-3 8-5 12-5zm52-68v34h-52c-4 0-8-2-12-5-3-4-5-8-5-12 0-5 2-9 5-13 4-2 8-4 12-4h52zm51-34H166c-4 0-8-2-12-6-3-4-5-7-5-12 0-4 2-9 5-12 4-3 8-4 12-4h103c12 0 17 5 17 16 0 5-1 8-5 12-3 4-7 6-12 6zM51 459h167v34H51c-10 0-19-3-25-10-7-7-10-15-10-24V48c0-10 3-18 10-24 7-7 15-11 25-11h411c9 0 16 4 23 10 8 6 11 15 11 25v195h-34v-93H51v309zm445-103v34h-35c-2 10-6 20-12 31l24 25-23 24-25-25c-9 6-20 10-32 12v36h-34v-36c-9-2-19-6-30-12l-26 25-23-24 25-25c-3-6-6-10-8-15s-3-10-4-16h-37v-34h37c1-12 6-22 12-31l-25-26 23-22 26 24c5-3 10-6 14-8 5-1 10-2 16-3v-37h34v36c5 0 10 2 16 4 6 1 11 4 16 8l25-24 23 22-24 26c3 4 6 9 8 15 1 5 2 11 4 16h35z"></path>
                    </g></g>
                    </svg>