<svg xmlns="http://www.w3.org/2000/svg" version="1.1" xmlns:xlink="http://www.w3.org/1999/xlink" viewBox="0 0 510 510" preserveAspectRatio="xMidYMid">
                    <defs><style>.cls-1{fill:#595959;}</style></defs>
                    <title>weight</title>
                    <g id="Layer_2" data-name="Layer 2"><g id="weight">
                    <path class="cls-1" d="M37 1h439c20 0 36 17 36 37v439c0 20-16 36-36 36H37c-20 0-37-16-37-36V38C0 18 17 1 37 1zm274 145l55-55c-62-60-157-60-219 0l55 55c13-4 24-7 35-9l-8-64 8-1 13 64h8c15 0 33 3 53 10zm145 287V192c0-15-11-25-24-25H81c-15 0-24 10-24 25v241c0 13 9 24 24 24h351c13 0 24-11 24-24z"></path>
                    </g></g>
                    </svg>