<svg xmlns="http://www.w3.org/2000/svg" version="1.1" xmlns:xlink="http://www.w3.org/1999/xlink" xmlns:svgjs="http://svgjs.dev/svgjs" viewBox="0 0 56 56"><circle r="23" cx="50%" cy="50%" stroke-opacity="1" stroke-width="2" stroke="#074d92" fill-opacity="1" fill="#ffffff"></circle><svg viewBox="0 0 56 56" height="30" x="0" y="25%"><svg id="named-entity-recommendation" xmlns="http://www.w3.org/2000/svg" viewBox="0 0 56 56" height="100%" width="100%"><defs><style>.cls-1{fill:#0a6ed1;}.cls-2{fill:#053b70;}</style></defs><title>named-entity-recommendation</title><polygon class="cls-1" points="16 34.001 19 34.001 19 40.001 22 40.001 22 34.001 25 34.001 25 31.001 16 31.001 16 34.001"></polygon><path class="cls-1" d="M51.156,33.29l-5.625-4.844a1.374,1.374,0,0,0-2.062,0,1.457,1.457,0,0,0,0,2.142L47.5,34.036l-12,.006a1.491,1.491,0,1,0,0,2.982l12-.007-4.031,3.354a1.459,1.459,0,0,0,0,2.143,1.374,1.374,0,0,0,2.062,0l5.625-4.938a3.143,3.143,0,0,0,0-4.286Z"></path><path class="cls-2" d="M40,28V7a2.849,2.849,0,0,0-.891-2.157A2.966,2.966,0,0,0,37,4H16L4,16V49a2.888,2.888,0,0,0,3,3H37a2.888,2.888,0,0,0,3-3V42.95H37V49H7V19h8.906a3.086,3.086,0,0,0,2.2-.844A2.845,2.845,0,0,0,19,16V7H37V28Z"></path><path class="cls-2" d="M31,25.469c0-.31-.188-.468-.562-.468H28.562c-.374,0-.562.158-.562.468v1.969a.5.5,0,0,0,.562.563h1.876A.5.5,0,0,0,31,27.438Z"></path><path class="cls-2" d="M24.429,43H22.571c-.38,0-.571.155-.571.468v1.969a.5.5,0,0,0,.571.563h1.858A.5.5,0,0,0,25,45.438V43.469C25,43.156,24.81,43,24.429,43Z"></path><path class="cls-2" d="M30.438,43H28.562c-.374,0-.562.16-.562.476v1.952a.5.5,0,0,0,.562.572h1.876A.5.5,0,0,0,31,45.429V43.477C31,43.161,30.812,43,30.438,43Z"></path><path class="cls-2" d="M19,25.469c0-.31-.19-.468-.571-.468H16.571c-.38,0-.571.158-.571.468v1.969a.5.5,0,0,0,.571.563h1.858A.5.5,0,0,0,19,27.438Z"></path><path class="cls-2" d="M12.409,43h-1.9c-.338,0-.507.155-.507.468v1.969q0,.563.507.563h1.9c.393,0,.591-.188.591-.563V43.469C13,43.156,12.8,43,12.409,43Z"></path><path class="cls-2" d="M13,25.469c0-.31-.188-.468-.562-.468H10.562c-.374,0-.562.158-.562.468v1.969a.5.5,0,0,0,.562.563h1.876A.5.5,0,0,0,13,27.438Z"></path><path class="cls-2" d="M31,31.469c0-.31-.188-.468-.562-.468H28.562c-.374,0-.562.158-.562.468v1.969a.5.5,0,0,0,.562.563h1.876A.5.5,0,0,0,31,33.438Z"></path><path class="cls-2" d="M13,37.462c0-.306-.188-.461-.562-.461H10.562c-.374,0-.562.155-.562.461v1.893c0,.432.188.646.562.646h1.876c.374,0,.562-.214.562-.646Z"></path><path class="cls-2" d="M13,31.462c0-.306-.188-.461-.562-.461H10.562c-.374,0-.562.155-.562.461v1.893c0,.432.188.646.562.646h1.876c.374,0,.562-.214.562-.646Z"></path><path class="cls-2" d="M25,25.462c0-.306-.188-.461-.562-.461H22.562c-.374,0-.562.155-.562.461v1.893c0,.432.188.646.562.646h1.876c.374,0,.562-.214.562-.646Z"></path><path class="cls-2" d="M31,37.462c0-.306-.188-.461-.562-.461H28.562c-.374,0-.562.155-.562.461v1.893c0,.432.188.646.562.646h1.876c.374,0,.562-.214.562-.646Z"></path><path class="cls-2" d="M16.562,43c-.374,0-.562.155-.562.461v1.893c0,.432.188.646.562.646h1.876c.374,0,.562-.214.562-.646V43.462c0-.306-.188-.461-.562-.461Z"></path></svg></svg></svg>