<svg xmlns="http://www.w3.org/2000/svg" version="1.1" xmlns:xlink="http://www.w3.org/1999/xlink" xmlns:svgjs="http://svgjs.dev/svgjs" viewBox="0 0 56 56"><circle r="23" cx="50%" cy="50%" stroke-opacity="1" stroke-width="2" stroke="#074d92" fill-opacity="1" fill="#ffffff"></circle><svg viewBox="0 0 56 56" height="30" x="0" y="25%"><svg version="1.1" id="mobilink" xmlns="http://www.w3.org/2000/svg" xmlns:xlink="http://www.w3.org/1999/xlink" x="0px" y="0px" viewBox="0 0 56 56" style="enable-background:new 0 0 56 56;" xml:space="preserve" height="100%" width="100%">
<style type="text/css">
	.st0{fill:#0A6ED1;}
	.st1{fill:#053B70;}
	.st2{fill:#FFFFFF;}
</style>
<path class="st0" d="M20.5,5h-7.7L5,12.7v15.4c-0.1,1.4,1,2.5,2.4,2.6c0.1,0,0.1,0,0.2,0h12.9c1.4,0.1,2.5-1,2.6-2.4
	c0-0.1,0-0.1,0-0.2V7.6c0-0.7-0.3-1.4-0.8-1.8C21.8,5.3,21.1,5,20.5,5z M20.5,28.1H7.6V15.3h5.1c0.7,0,1.4-0.2,1.9-0.7
	c0.5-0.5,0.8-1.2,0.8-1.8V7.6h5.1V28.1z"></path>
<path class="st1" d="M16.8,46.8c-1.3-1.3-2-3-2-4.8l0.1-1.1l2.5,3c0.4,0.4,1,0.5,1.5,0.2c0.1,0,0.1-0.1,0.2-0.2
	c0.4-0.3,0.5-0.9,0.2-1.4c-0.1-0.1-0.1-0.1-0.2-0.2l-3.7-4.2c-0.9-0.8-2.3-0.8-3.2,0l-3.7,4.2c-0.4,0.4-0.5,1-0.1,1.4
	c0,0,0.1,0.1,0.1,0.1c0.4,0.4,1.1,0.5,1.6,0.1c0,0,0,0,0.1-0.1l2.6-3L12.5,42c0,1.2,0.2,2.4,0.7,3.5c0.5,1.1,1.1,2.1,1.9,2.9
	c0.8,0.8,1.8,1.5,2.9,1.9c1.1,0.5,2.3,0.7,3.5,0.7H26v-2.2h-4.5C19.7,48.8,18,48.1,16.8,46.8z"></path>
<path class="st1" d="M46.7,13.1c-0.4-0.4-1.1-0.5-1.6-0.1c0,0,0,0-0.1,0.1l-2.6,3l0.1-1.1c0-1.2-0.2-2.4-0.7-3.5
	c-0.5-1.1-1.1-2.1-1.9-2.9c-0.8-0.8-1.8-1.5-2.8-1.9C36,6.2,34.8,6,33.5,6H29v2.2h4.5c1.8,0,3.5,0.7,4.8,2c1.3,1.3,2,3,2,4.8
	l-0.1,1.1l-2.5-3c-0.4-0.4-1-0.5-1.5-0.2c-0.1,0-0.1,0.1-0.2,0.2c-0.4,0.3-0.5,0.9-0.2,1.4c0.1,0.1,0.1,0.1,0.2,0.2l3.7,4.2
	c0.9,0.8,2.3,0.8,3.2,0l3.7-4.2C47.1,14.3,47.2,13.6,46.7,13.1C46.8,13.2,46.7,13.1,46.7,13.1L46.7,13.1z"></path>
<rect x="13.7" y="16.9" class="st2" width="11" height="16.8"></rect>
<path class="st1" d="M22.8,26.4c-0.7-0.7-1.6-1.2-2.5-1.3v-3.3c0.4,0,0.7,0.2,1,0.4c0.3,0.2,0.4,0.5,0.5,0.9l1.6-0.3
	c-0.2-1.5-1.5-2.7-3-2.7v-0.9h-1.1v0.9c-0.4,0-0.9,0.1-1.3,0.4c-0.4,0.2-0.7,0.5-1,0.8c-0.3,0.3-0.5,0.7-0.6,1
	c-0.1,0.3-0.2,0.7-0.2,1.1c0,0.7,0.3,1.4,0.8,1.9c0.6,0.6,1.4,1.1,2.2,1.4v3.1c-0.3-0.1-0.6-0.4-0.8-0.6c-0.3-0.3-0.4-0.7-0.5-1.1
	L16,28.4c0,0.9,0.4,1.8,1.1,2.5c0.5,0.5,1.3,0.8,2,0.9v1.4h1.1v-1.4c0.9,0,1.8-0.4,2.4-1.1c0.6-0.6,0.9-1.5,0.9-2.3
	C23.5,27.6,23.2,26.9,22.8,26.4z M19.1,24.5c-0.6-0.2-1-0.7-1.1-1.4c0-0.3,0.1-0.6,0.3-0.8c0.2-0.3,0.5-0.5,0.8-0.6V24.5z
	 M21.2,29.4c-0.3,0.3-0.6,0.5-1,0.6v-3.1c0.9,0.3,1.4,0.8,1.4,1.5C21.6,28.8,21.5,29.1,21.2,29.4z"></path>
<path class="st0" d="M46.8,24.5h-7.7l-7.7,7.7v15.4c-0.1,1.4,1,2.5,2.4,2.6c0.1,0,0.1,0,0.2,0h12.9c1.4,0.1,2.5-1,2.6-2.4
	c0-0.1,0-0.1,0-0.2V27.1c0-0.7-0.3-1.4-0.8-1.8C48.2,24.8,47.5,24.5,46.8,24.5z M46.8,47.7H34V34.8H39c0.7,0,1.4-0.2,1.9-0.7
	c0.5-0.5,0.8-1.2,0.8-1.8v-5.1h5.1V47.7z"></path>
<rect x="40.1" y="36.4" class="st2" width="11" height="16.8"></rect>
<path class="st1" d="M49.1,45.9c-0.7-0.7-1.6-1.2-2.5-1.3v-3.3c0.4,0,0.7,0.2,1,0.4c0.3,0.2,0.4,0.5,0.5,0.9l1.6-0.3
	c-0.2-1.5-1.5-2.7-3-2.7v-0.9h-1.1v0.9c-0.4,0-0.9,0.1-1.3,0.4c-0.4,0.2-0.7,0.5-1,0.8c-0.3,0.3-0.5,0.7-0.6,1
	c-0.1,0.3-0.2,0.7-0.2,1.1c0,0.7,0.3,1.4,0.8,1.9c0.6,0.6,1.4,1.1,2.2,1.4v3.1c-0.3-0.1-0.6-0.4-0.8-0.6c-0.3-0.3-0.4-0.7-0.5-1.1
	l-1.8,0.2c0,0.9,0.4,1.8,1.1,2.5c0.5,0.5,1.3,0.8,2,0.9v1.4h1.1v-1.4c0.9,0,1.8-0.4,2.4-1.1c0.6-0.6,0.9-1.5,0.9-2.3
	C49.8,47.1,49.6,46.4,49.1,45.9z M45.5,44c-0.6-0.2-1-0.7-1.1-1.4c0-0.3,0.1-0.6,0.3-0.8c0.2-0.3,0.5-0.5,0.8-0.6V44z M47.6,48.9
	c-0.3,0.3-0.6,0.5-1,0.6v-3.1c0.9,0.3,1.4,0.8,1.4,1.5C48,48.3,47.9,48.7,47.6,48.9z"></path>
</svg></svg></svg>