<svg xmlns="http://www.w3.org/2000/svg" version="1.1" xmlns:xlink="http://www.w3.org/1999/xlink" xmlns:svgjs="http://svgjs.dev/svgjs" viewBox="0 0 56 56"><circle r="23" cx="50%" cy="50%" stroke-opacity="1" stroke-width="2" stroke="#074d92" fill-opacity="1" fill="#ffffff"></circle><svg viewBox="0 0 56 56" height="30" x="0" y="25%"><svg id="sap-hana-spatial-services" xmlns="http://www.w3.org/2000/svg" viewBox="0 0 56 56" height="100%" width="100%"><defs><style>.cls-1{fill:#053b70;}.cls-2{fill:#0a6ed1;}</style></defs><title>sap-hana-spatial-services</title><path class="cls-1" d="M44.824,19.59c.015.035.039.064.054.1A17.414,17.414,0,0,1,45.941,23.4C47.958,24.524,49,25.691,49,26.552c0,1.958-5.123,5.455-15.133,6.455a15.862,15.862,0,0,1-1.161,3.131C43.911,35.314,52,31.35,52,26.552,52,23.825,49.25,21.362,44.824,19.59Z"></path><path class="cls-1" d="M25.313,27.93a1.5,1.5,0,1,0-2.121,2.121l3.238,3.238-.463-.01C13.681,32.86,7,28.731,7,26.552c0-.839,1-1.968,2.917-3.064A17.521,17.521,0,0,1,11,19.69c.006-.015.017-.028.023-.043C6.683,21.415,4,23.856,4,26.552c0,5.173,9.885,9.4,22.382,9.736h.453L23.192,39.93a1.5,1.5,0,1,0,2.121,2.121l6-6a1.5,1.5,0,0,0,0-2.121Z"></path><path class="cls-2" d="M37.375,41.248a15.321,15.321,0,0,1-5.232,2.661,17.5,17.5,0,0,0,3.117-5c-.762.086-1.538.16-2.334.219l-1.149.084c-.251.443-.489.9-.771,1.3a10.226,10.226,0,0,1-2.983,3.048,3.626,3.626,0,0,1-2.708.729,6.053,6.053,0,0,1-2.354-.562,22.087,22.087,0,0,1-4.427-2.487,14.6,14.6,0,0,1-3-3.287,39.872,39.872,0,0,1-4.279-1.218,18.183,18.183,0,0,0,9.54,9.33,18,18,0,0,0,7.145,1.436,18.263,18.263,0,0,0,13.029-5.385,18.879,18.879,0,0,0,3.56-5.2A38.142,38.142,0,0,1,40.255,38.1,14.571,14.571,0,0,1,37.375,41.248Z"></path><path class="cls-2" d="M12.563,26.867a15.023,15.023,0,0,1,.17-2.261,13.5,13.5,0,0,1,.431-1.864h5.769c-.077.572-.15,1.158-.226,1.758a18.833,18.833,0,0,0-.144,2.367,24.857,24.857,0,0,0,.143,2.53q1.484.287,3.117.489c-.04-.26-.089-.526-.122-.782a17.6,17.6,0,0,1-.138-2.237,18.465,18.465,0,0,1,.138-2.273c.079-.631.176-1.253.29-1.852H33.956a22.922,22.922,0,0,1,.357,4.125,23.864,23.864,0,0,1-.21,3.009c1.058-.133,2.085-.306,3.072-.516a24.711,24.711,0,0,0,.138-2.493,23.893,23.893,0,0,0-.345-4.125h5.806a15.424,15.424,0,0,1,.539,4.125c0,.236-.034.458-.043.69a25.2,25.2,0,0,0,3.01-1.375,18.128,18.128,0,0,0-1.4-6.492,18.306,18.306,0,0,0-16.94-11.2,17.982,17.982,0,0,0-7.145,1.437,18.916,18.916,0,0,0-5.845,3.91A18.135,18.135,0,0,0,9.585,26.426a19.627,19.627,0,0,0,3.046,1.347C12.613,27.468,12.563,27.177,12.563,26.867ZM37.34,14.716a15.562,15.562,0,0,1,4.192,5.026H36.306a18.348,18.348,0,0,0-4.213-7.667A14.834,14.834,0,0,1,37.34,14.716Zm-9.4-2.181a10.209,10.209,0,0,1,3.068,2.912,17.43,17.43,0,0,1,2.174,4.3H22.753a15.474,15.474,0,0,1,2.147-4.29A10.924,10.924,0,0,1,27.941,12.535Zm-9.4,2.181a14.822,14.822,0,0,1,5.274-2.648,18.212,18.212,0,0,0-4.172,7.674H14.345A15.562,15.562,0,0,1,18.537,14.716Z"></path></svg></svg></svg>