<svg xmlns="http://www.w3.org/2000/svg" version="1.1" xmlns:xlink="http://www.w3.org/1999/xlink" viewBox="0 0 510 510" preserveAspectRatio="xMidYMid">
                    <defs><style>.cls-1{fill:#595959;}</style></defs>
                    <title>clear-all-mapping</title>
                    <g id="Layer_2" data-name="Layer 2"><g id="clear-all-mapping">
                    <path class="cls-1" d="M32 96q-13 0-22.5-9.5T0 64q0-14 9-23t23-9h448q14 0 23 9t9 23-9 23-23 9H32zm0 160q-13 0-22.5-9.5T0 224q0-14 9-23t23-9h448q14 0 23 9t9 23-9 23-23 9H32zM0 384q0-14 9-23t23-9h224v64H32q-13 0-22.5-9.5T0 384zm447 31l65 65-32 32-63-65-65 65-32-32 65-65-65-63 32-32 65 64 63-64 32 32z"></path>
                    </g></g>
                    </svg>