<svg xmlns="http://www.w3.org/2000/svg" version="1.1" xmlns:xlink="http://www.w3.org/1999/xlink" viewBox="0 0 510 510" preserveAspectRatio="xMidYMid">
                    <defs><style>.cls-1{fill:#595959;}</style></defs>
                    <title>dependency</title>
                    <g id="Layer_2" data-name="Layer 2"><g id="dependency">
                    <path class="cls-1" d="M292 196L424 64H303q-7 0-11.5-5T287 48q0-16 16-16h160q7 0 12 4.5t5 11.5v160q0 6-5 11t-12 5q-6 0-10.5-5t-4.5-11V86L315 219q-4 4-12 4-7 0-11-4-5-5-5-11.5t5-11.5zM36 452l160-160q5-5 12-5 6 0 11 5 11 11 0 22L59 475q-5 5-12 5-6 0-11-5t-5-11.5 5-11.5z"></path>
                    </g></g>
                    </svg>