<svg xmlns="http://www.w3.org/2000/svg" version="1.1" xmlns:xlink="http://www.w3.org/1999/xlink" viewBox="0 0 510 510" preserveAspectRatio="xMidYMid">
                    <defs><style>.cls-1{fill:#595959;}</style></defs>
                    <title>error-end-event</title>
                    <g id="Layer_2" data-name="Layer 2"><g id="error-end-event">
                    <path class="cls-1" d="M363 146q6 6 6 13 0 3-1 5l-74 174q-4 8-12 8t-13-6l-33-50-66 73q-5 5-11 5-14 0-14-15 0-3 1-5l74-174q6-8 12-8 10 0 13 7l30 49 70-74q3-4 9-4 3 0 9 2zM256 0q53 0 99.5 20T437 75t55 81.5 20 99.5-20 99.5-55 81.5-81.5 55-99.5 20-99.5-20T75 437t-55-81.5T0 256t20-99.5T75 75t81.5-55T256 0zm0 448q40 0 75-15t61-41 41-61 15-75-15-75-41-61-61-41-75-15-75 15-61 41-41 61-15 75 15 75 41 61 61 41 75 15z"></path>
                    </g></g>
                    </svg>