<svg xmlns="http://www.w3.org/2000/svg" version="1.1" xmlns:xlink="http://www.w3.org/1999/xlink" viewBox="0 0 510 510" preserveAspectRatio="xMidYMid">
                    <defs><style>.cls-1{fill:#595959;}</style></defs>
                    <title>item-flow</title>
                    <g id="Layer_2" data-name="Layer 2"><g id="item-flow">
                    <path class="cls-1" d="M36.5 452l175-174-41-41q-12-11-7-27t22-18l122-19q5 0 5.5.5t2.5.5l137-138q5-5 12-5 6 0 11 5t5 11.5-5 11.5l-138 137q2 5 1 8l-18 122q-2 11-10 17t-17 6q-11 0-19-8l-41-41-174 175q-5 5-12 5-6 0-11-5t-5-11.5 5-11.5z"></path>
                    </g></g>
                    </svg>