<svg xmlns="http://www.w3.org/2000/svg" version="1.1" xmlns:xlink="http://www.w3.org/1999/xlink" viewBox="0 0 510 510" preserveAspectRatio="xMidYMid">
                    <defs><style>.cls-1{fill:#595959;}</style></defs>
                    <title>local-process-call</title>
                    <g id="Layer_2" data-name="Layer 2"><g id="local-process-call">
                    <path class="cls-1" d="M480 32q13 0 22.5 9t9.5 23v384q0 14-9 23t-23 9H256v-32h224V160H96v128H64V64q0-11 9-21.5T96 32h384zM222 389q4 4 4 11t-4 11l-67 64q-5 5-11 5t-11-5-5-11q0-7 5-11l39-37H16q-16 0-16-16t16-16h156l-39-37q-5-4-5-11 0-6 5-11t11-5 11 5z"></path>
                    </g></g>
                    </svg>