<svg xmlns="http://www.w3.org/2000/svg" version="1.1" xmlns:xlink="http://www.w3.org/1999/xlink" viewBox="0 0 510 510" preserveAspectRatio="xMidYMid">
                    <defs><style>.cls-1{fill:#595959;}</style></defs>
                    <title>message-end-event</title>
                    <g id="Layer_2" data-name="Layer 2"><g id="message-end-event">
                    <path class="cls-1" d="M255 448q40 0 75-15t61-41 41-61 15-75-15-75-41-61-61-41-75-15-75 15-61 41-41 61-15 75 15 75 41 61 61 41 75 15zm-2-193l-117-97q2 0 2.5-.5t1.5-.5h225q4 0 4 1zm33 16l84 78q-1 1-5 1H141q-5 0-6-1l84-78-12-11-82 74V173l4 3 17 13.5 38.5 31L253 277l128-108v165q-1 0-4-2t-11.5-9.5-24-22T299 260zM256 0q53 0 99.5 20T437 75t55 81.5 20 99.5-20 99.5-55 81.5-81.5 55-99.5 20-99.5-20T75 437t-55-81.5T0 256t20-99.5T75 75t81.5-55T256 0z"></path>
                    </g></g>
                    </svg>