<svg xmlns="http://www.w3.org/2000/svg" version="1.1" xmlns:xlink="http://www.w3.org/1999/xlink" viewBox="0 0 510 510" preserveAspectRatio="xMidYMid">
                    <defs><style>.cls-1{fill:#595959;}</style></defs>
                    <title>package-diagram</title>
                    <g id="Layer_2" data-name="Layer 2"><g id="package-diagram">
                    <path class="cls-1" d="M0 139q0-7 3-13 1-3 7-9 8-4 15-4h151l24 26h85l36-36q-1-2-1-7V31q0-13 9-22t22-9h65q13 0 22.5 9t9.5 22v65q0 13-9.5 22.5T416 128h-65q-3 0-7-2l-27 27 2 6 1 6v75h64v-17q0-13 9-22t22-9h65q13 0 22.5 9t9.5 22v65q0 13-9.5 22.5T480 320h-65q-13 0-22-9.5t-9-22.5v-16h-64v100q0 1-.5 1t-.5 1l16 15q8-5 16-5h65q13 0 22.5 9t9.5 22v65q0 13-9.5 22.5T416 512h-65q-13 0-22-9.5t-9-22.5v-61l-23-22q-1 0-1.5.5t-1.5.5H25q-7 0-13-3-5-3-8-8-4-5-4-15V139zm287 227l1-195H186l-24-26H32v221h255zm64-334l1 64h64V32h-65zm65 256h64v-64h-65zm-64 192h64v-64h-65z"></path>
                    </g></g>
                    </svg>