<svg xmlns="http://www.w3.org/2000/svg" version="1.1" xmlns:xlink="http://www.w3.org/1999/xlink" viewBox="0 0 510 510" preserveAspectRatio="xMidYMid">
                    <defs><style>.cls-1{fill:#595959;}</style></defs>
                    <title>process-package</title>
                    <g id="Layer_2" data-name="Layer 2"><g id="process-package">
                    <path class="cls-1" d="M36 378l163 81v41L0 400V110l109-55 218 109v62l-37 16v-55L109 95l-73 37v246zm37-68l77 37v47l-77-38v-46zM190 55l-40-20 68-35 218 110v134l-36 18V132L218 41zm236 346q11 11 0 23l-66 82q-5 6-12 5.5t-12-5.5q-11-11 0-23l48-63q6-8 0-16l-49-63q-10-12 0-23 5-5 12-5.5t12 5.5zm-82 0q11 11 0 23l-67 82q-5 6-11.5 5.5T254 506q-11-11-1-23l49-63q6-8 0-16l-49-63q-10-12 0-23 5-5 12-5.5t12 5.5zm163 0q10 11 0 23l-67 82q-5 6-12 5.5t-12-5.5q-10-11 0-23l49-63q6-8 0-16l-49-63q-10-12 0-23 5-5 12-5.5t12 5.5z"></path>
                    </g></g>
                    </svg>