<svg xmlns="http://www.w3.org/2000/svg" version="1.1" xmlns:xlink="http://www.w3.org/1999/xlink" viewBox="0 0 510 510" preserveAspectRatio="xMidYMid">
                    <defs><style>.cls-1{fill:#595959;}</style></defs>
                    <title>start-event</title>
                    <g id="Layer_2" data-name="Layer 2"><g id="start-event">
                    <path class="cls-1" d="M256 0q53 0 99.5 20T437 75t55 81.5 20 99.5-20 99.5-55 81.5-81.5 55-99.5 20-100-20-81.5-55T20 355.5 0 256t20-99.5T74.5 75 156 20 256 0zm0 480q46 0 87-17.5t71.5-48 48-71.5 17.5-87-17.5-87-48-71.5-71.5-48T256 32t-87 17.5-71.5 48-48 71.5T32 256t17.5 87 48 71.5 71.5 48 87 17.5z"></path>
                    </g></g>
                    </svg>