<svg xmlns="http://www.w3.org/2000/svg" version="1.1" xmlns:xlink="http://www.w3.org/1999/xlink" viewBox="0 0 510 510" preserveAspectRatio="xMidYMid">
                    <defs><style>.cls-1{fill:#595959;}</style></defs>
                    <title>systemrecommendations</title>
                    <g id="Layer_2" data-name="Layer 2"><g id="systemrecommendations">
                    <path class="cls-1" d="M32.5 449V64q0-13 9-22.5t23-9.5h384q12 0 21.5 9.5t9.5 22.5v128h-31V64h-384v385h127v31h-127q-14 0-23-9t-9-22zm168-136q-3-2-1.5-5t4.5-3h91q3 0 5-2l36-100q2-3 4-3 4 0 4 3l37 100q2 2 4 2h90q3 0 4.5 3t-2.5 5l-70 50q-4 2-2 5l40 107q2 2 0 4t-4 2-3-1l-95-68q-3-2-6 0l-96 68-2 1q-2 0-3.5-2t-.5-4l40-107q2-4-1-5z"></path>
                    </g></g>
                    </svg>