<svg xmlns="http://www.w3.org/2000/svg" version="1.1" xmlns:xlink="http://www.w3.org/1999/xlink" viewBox="0 0 510 510" preserveAspectRatio="xMidYMid">
                    <defs><style>.cls-1{fill:#595959;}</style></defs>
                    <title>task</title>
                    <g id="Layer_2" data-name="Layer 2"><g id="task">
                    <path class="cls-1" d="M458 82q23 0 38.5 16t15.5 38v247q0 23-15.5 37T458 434H54q-23 0-38.5-14T0 383V136q0-22 15.5-38T54 82h404zm22 68q0-15-10.5-25.5T444 114H67q-15 0-25 10.5T32 150v220q0 15 10 23.5t25 8.5h377q15 0 25.5-8.5T480 370V150z"></path>
                    </g></g>
                    </svg>