<svg xmlns="http://www.w3.org/2000/svg" version="1.1" xmlns:xlink="http://www.w3.org/1999/xlink" viewBox="0 0 510 510" preserveAspectRatio="xMidYMid">
                    <defs><style>.cls-1{fill:#595959;}</style></defs>
                    <title>throughput-backlog</title>
                    <g id="Layer_2" data-name="Layer 2"><g id="throughput-backlog">
                    <path class="cls-1" d="M368 72q0-8 8-8h80q8 0 8 8v432q0 8-8 8h-80q-8 0-8-8V72zM208 264q0-8 8-8h80q8 0 8 8v240q0 8-8 8h-80q-8 0-8-8V264zM53 297L256 93h-66q-5 0-9-4.5t-5-9.5q0-13 14-15l86 1q11 0 19.5 8.5T304 93v86q0 13-15 13-5 0-9-4t-4-9v-65L73 317q-3 4-10 4-6 0-10-4-5-3-5-9t5-11zm3 87h80q8 0 8 8v112q0 8-8 8H56q-8 0-8-8V392q0-8 8-8z"></path>
                    </g></g>
                    </svg>